<svg width="203" height="25" viewBox="0 0 203 25" fill="none" xmlns="http://www.w3.org/2000/svg">
<path fill-rule="evenodd" clip-rule="evenodd" d="M179.01 0.729589C179.01 1.13231 179.28 1.45918 179.612 1.45918H181.713C182.477 1.45918 183.12 2.01361 183.361 2.8956L186.544 14.4759L184.733 19.9671C184.572 20.4546 184.872 20.956 185.29 20.9678H198.537C198.87 20.9678 199.139 20.6409 199.139 20.2381C199.139 19.8354 198.87 19.5086 198.537 19.5086H186.176L187.588 15.2296H198.537C198.804 15.2296 199.029 15.02 199.109 14.7298L202.871 4.4658C203.05 3.97274 202.748 3.46037 202.323 3.44245H184.774L184.498 2.43909C184.095 0.966809 182.992 0 181.713 0H179.612C179.28 0 179.01 0.326866 179.01 0.729589ZM187.613 13.7705L185.175 4.90162H201.4L198.15 13.7705H187.613Z" fill="#1A1A1A"/>
<path fill-rule="evenodd" clip-rule="evenodd" d="M186.527 21.7744C187.282 21.7744 187.893 22.4968 187.893 23.3877C187.893 24.2778 187.282 25.0002 186.527 25.0002C185.772 25.0002 185.16 24.2778 185.16 23.3877C185.16 22.4968 185.772 21.7744 186.527 21.7744Z" fill="#1A1A1A"/>
<path fill-rule="evenodd" clip-rule="evenodd" d="M197.458 21.7744C198.213 21.7744 198.825 22.4968 198.825 23.3877C198.825 24.2778 198.213 25.0002 197.458 25.0002C196.704 25.0002 196.092 24.2778 196.092 23.3877C196.092 22.4968 196.704 21.7744 197.458 21.7744Z" fill="#1A1A1A"/>
<path fill-rule="evenodd" clip-rule="evenodd" d="M0.989563 10.1163C0.989563 5.0848 5.06298 1 10.0805 1C15.098 1 19.1714 5.0848 19.1714 10.1163C19.1714 13.7874 16.558 17.0916 14.3721 19.8531L10.5032 24.7875C10.2563 25.0381 9.9017 25.0993 9.66314 24.7941C9.24991 24.2667 8.83491 23.7227 8.41726 23.1752C7.55262 22.0419 6.67664 20.8936 5.78164 19.8465L5.78111 19.8459C3.59832 17.0844 0.989563 13.7841 0.989563 10.1163ZM18.1083 10.1163C18.1083 5.66637 14.518 2.06602 10.0805 2.06602C5.64293 2.06602 2.05261 5.66637 2.05261 10.1163C2.05261 13.4164 4.5344 16.5565 6.6107 19.1836L6.61151 19.1846C7.34004 20.1646 8.1177 21.1381 8.89153 22.1069C9.2913 22.6073 9.69005 23.1065 10.0805 23.6046L13.5435 19.1924L13.5451 19.1904C15.623 16.5623 18.1083 13.419 18.1083 10.1163Z" fill="black"/>
<path fill-rule="evenodd" clip-rule="evenodd" d="M6.18427 9.88907C6.18427 7.43807 8.12564 5.44434 10.513 5.44434C12.9003 5.44434 14.8423 7.43807 14.8423 9.88907C14.8423 12.3401 12.9003 14.3332 10.513 14.3332C8.12336 14.3332 6.18427 12.3424 6.18427 9.88907ZM13.8309 9.88907C13.8309 8.00454 12.3486 6.48267 10.513 6.48267C8.67796 6.48267 7.19563 8.00513 7.19563 9.88907C7.19563 11.7707 8.68024 13.2949 10.513 13.2949C12.348 13.2949 13.8309 11.7736 13.8309 9.88907Z" fill="black"/>
</svg>
