<svg width="170" height="198" viewBox="0 0 170 198" fill="none" xmlns="http://www.w3.org/2000/svg">
<path d="M6.65137 10.4023H2.48145L1.54492 13H0.191406L3.99219 3.04688H5.14062L8.94824 13H7.60156L6.65137 10.4023ZM2.87793 9.32227H6.26172L4.56641 4.66699L2.87793 9.32227ZM16.8516 9.38379C16.8516 10.514 16.5918 11.4232 16.0723 12.1113C15.5527 12.7949 14.8555 13.1367 13.9805 13.1367C13.0462 13.1367 12.3239 12.8063 11.8135 12.1455L11.752 13H10.5898V2.5H11.8545V6.41699C12.3649 5.78353 13.069 5.4668 13.9668 5.4668C14.8646 5.4668 15.5687 5.80632 16.0791 6.48535C16.5941 7.16439 16.8516 8.09408 16.8516 9.27441V9.38379ZM15.5869 9.24023C15.5869 8.37891 15.4206 7.71354 15.0879 7.24414C14.7552 6.77474 14.2767 6.54004 13.6523 6.54004C12.8184 6.54004 12.2191 6.92741 11.8545 7.70215V10.9014C12.2419 11.6761 12.8457 12.0635 13.666 12.0635C14.2721 12.0635 14.7438 11.8288 15.0811 11.3594C15.4183 10.89 15.5869 10.1836 15.5869 9.24023ZM18.6162 9.2334C18.6162 8.50879 18.7575 7.8571 19.04 7.27832C19.3271 6.69954 19.7236 6.25293 20.2295 5.93848C20.7399 5.62402 21.321 5.4668 21.9727 5.4668C22.9798 5.4668 23.7933 5.81543 24.4131 6.5127C25.0374 7.20996 25.3496 8.13737 25.3496 9.29492V9.38379C25.3496 10.1038 25.2106 10.751 24.9326 11.3252C24.6592 11.8949 24.265 12.3392 23.75 12.6582C23.2396 12.9772 22.6517 13.1367 21.9863 13.1367C20.9837 13.1367 20.1702 12.7881 19.5459 12.0908C18.9261 11.3936 18.6162 10.4707 18.6162 9.32227V9.2334ZM19.8877 9.38379C19.8877 10.2041 20.0768 10.8626 20.4551 11.3594C20.8379 11.8561 21.3483 12.1045 21.9863 12.1045C22.6289 12.1045 23.1393 11.8538 23.5176 11.3525C23.8958 10.8467 24.085 10.1403 24.085 9.2334C24.085 8.4222 23.8913 7.76595 23.5039 7.26465C23.1211 6.75879 22.6107 6.50586 21.9727 6.50586C21.3483 6.50586 20.8447 6.75423 20.4619 7.25098C20.0791 7.74772 19.8877 8.45866 19.8877 9.38379ZM32.002 12.2686C31.5098 12.8473 30.7874 13.1367 29.835 13.1367C29.0465 13.1367 28.445 12.9089 28.0303 12.4531C27.6201 11.9928 27.4128 11.3138 27.4082 10.416V5.60352H28.6729V10.3818C28.6729 11.5029 29.1286 12.0635 30.04 12.0635C31.0062 12.0635 31.6488 11.7035 31.9678 10.9834V5.60352H33.2324V13H32.0293L32.002 12.2686ZM37.376 3.8125V5.60352H38.7568V6.58105H37.376V11.168C37.376 11.4642 37.4375 11.6875 37.5605 11.8379C37.6836 11.9837 37.8932 12.0566 38.1895 12.0566C38.3353 12.0566 38.5358 12.0293 38.791 11.9746V13C38.4583 13.0911 38.1348 13.1367 37.8203 13.1367C37.2552 13.1367 36.8291 12.9658 36.542 12.624C36.2549 12.2822 36.1113 11.7969 36.1113 11.168V6.58105H34.7646V5.60352H36.1113V3.8125H37.376Z" fill="white"/>
<path d="M4.80566 63.9736H2.46777V68H1.14844V58.0469H4.44336C5.56445 58.0469 6.42578 58.3021 7.02734 58.8125C7.63346 59.3229 7.93652 60.0658 7.93652 61.041C7.93652 61.6608 7.7679 62.2008 7.43066 62.6611C7.09798 63.1214 6.63314 63.4655 6.03613 63.6934L8.37402 67.918V68H6.96582L4.80566 63.9736ZM2.46777 62.9004H4.48438C5.13607 62.9004 5.65332 62.7318 6.03613 62.3945C6.4235 62.0573 6.61719 61.6061 6.61719 61.041C6.61719 60.4258 6.43262 59.9541 6.06348 59.626C5.69889 59.2979 5.17025 59.1315 4.47754 59.127H2.46777V62.9004ZM13.1533 68.1367C12.1507 68.1367 11.335 67.8086 10.7061 67.1523C10.0771 66.4915 9.7627 65.6097 9.7627 64.5068V64.2744C9.7627 63.5407 9.90169 62.8867 10.1797 62.3125C10.4622 61.7337 10.8542 61.2826 11.3555 60.959C11.8613 60.6309 12.4082 60.4668 12.9961 60.4668C13.9577 60.4668 14.7051 60.7835 15.2383 61.417C15.7715 62.0505 16.0381 62.9574 16.0381 64.1377V64.6641H11.0273C11.0456 65.3932 11.2575 65.9834 11.6631 66.4346C12.0732 66.8812 12.5928 67.1045 13.2217 67.1045C13.6683 67.1045 14.0465 67.0133 14.3564 66.8311C14.6663 66.6488 14.9375 66.4072 15.1699 66.1064L15.9424 66.708C15.3226 67.6605 14.3929 68.1367 13.1533 68.1367ZM12.9961 61.5059C12.4857 61.5059 12.0573 61.6927 11.7109 62.0664C11.3646 62.4355 11.1504 62.9551 11.0684 63.625H14.7734V63.5293C14.737 62.8867 14.5638 62.39 14.2539 62.0391C13.944 61.6836 13.5247 61.5059 12.9961 61.5059ZM20.3525 66.2842L22.1846 60.6035H23.4766L20.8242 68H19.8604L17.1807 60.6035H18.4727L20.3525 66.2842ZM26.5674 68H25.3027V60.6035H26.5674V68ZM25.2002 58.6416C25.2002 58.4365 25.2617 58.2633 25.3848 58.1221C25.5124 57.9808 25.6992 57.9102 25.9453 57.9102C26.1914 57.9102 26.3783 57.9808 26.5059 58.1221C26.6335 58.2633 26.6973 58.4365 26.6973 58.6416C26.6973 58.8467 26.6335 59.0176 26.5059 59.1543C26.3783 59.291 26.1914 59.3594 25.9453 59.3594C25.6992 59.3594 25.5124 59.291 25.3848 59.1543C25.2617 59.0176 25.2002 58.8467 25.2002 58.6416ZM32.167 68.1367C31.1644 68.1367 30.3486 67.8086 29.7197 67.1523C29.0908 66.4915 28.7764 65.6097 28.7764 64.5068V64.2744C28.7764 63.5407 28.9154 62.8867 29.1934 62.3125C29.4759 61.7337 29.8678 61.2826 30.3691 60.959C30.875 60.6309 31.4219 60.4668 32.0098 60.4668C32.9714 60.4668 33.7188 60.7835 34.252 61.417C34.7852 62.0505 35.0518 62.9574 35.0518 64.1377V64.6641H30.041C30.0592 65.3932 30.2712 65.9834 30.6768 66.4346C31.0869 66.8812 31.6064 67.1045 32.2354 67.1045C32.682 67.1045 33.0602 67.0133 33.3701 66.8311C33.68 66.6488 33.9512 66.4072 34.1836 66.1064L34.9561 66.708C34.3363 67.6605 33.4066 68.1367 32.167 68.1367ZM32.0098 61.5059C31.4993 61.5059 31.071 61.6927 30.7246 62.0664C30.3783 62.4355 30.1641 62.9551 30.082 63.625H33.7871V63.5293C33.7507 62.8867 33.5775 62.39 33.2676 62.0391C32.9577 61.6836 32.5384 61.5059 32.0098 61.5059ZM43.5703 66.2568L44.9922 60.6035H46.2568L44.1035 68H43.0781L41.2803 62.3945L39.5303 68H38.5049L36.3584 60.6035H37.6162L39.0723 66.1406L40.7949 60.6035H41.8135L43.5703 66.2568ZM52.3555 66.0381C52.3555 65.6963 52.2256 65.432 51.9658 65.2451C51.7106 65.0537 51.2617 64.8896 50.6191 64.7529C49.9811 64.6162 49.473 64.4521 49.0947 64.2607C48.721 64.0693 48.443 63.8415 48.2607 63.5771C48.083 63.3128 47.9941 62.9984 47.9941 62.6338C47.9941 62.0277 48.2493 61.515 48.7598 61.0957C49.2747 60.6764 49.931 60.4668 50.7285 60.4668C51.5671 60.4668 52.2461 60.6833 52.7656 61.1162C53.2897 61.5492 53.5518 62.1029 53.5518 62.7773H52.2803C52.2803 62.431 52.1322 62.1325 51.8359 61.8818C51.5443 61.6312 51.1751 61.5059 50.7285 61.5059C50.2682 61.5059 49.9082 61.6061 49.6484 61.8066C49.3887 62.0072 49.2588 62.2692 49.2588 62.5928C49.2588 62.8981 49.3796 63.1283 49.6211 63.2832C49.8626 63.4382 50.2979 63.5863 50.9268 63.7275C51.5602 63.8688 52.0729 64.0374 52.4648 64.2334C52.8568 64.4294 53.1462 64.6663 53.333 64.9443C53.5244 65.2178 53.6201 65.5527 53.6201 65.9492C53.6201 66.61 53.3558 67.141 52.8271 67.542C52.2985 67.9385 51.6126 68.1367 50.7695 68.1367C50.1771 68.1367 49.653 68.0319 49.1973 67.8223C48.7415 67.6126 48.3838 67.321 48.124 66.9473C47.8688 66.569 47.7412 66.1611 47.7412 65.7236H49.0059C49.0286 66.1475 49.1973 66.4847 49.5117 66.7354C49.8307 66.9814 50.25 67.1045 50.7695 67.1045C51.248 67.1045 51.6309 67.0088 51.918 66.8174C52.2096 66.6214 52.3555 66.3617 52.3555 66.0381Z" fill="white"/>
<path d="M8.47656 104.842C8.35352 105.895 7.96387 106.708 7.30762 107.282C6.65592 107.852 5.78776 108.137 4.70312 108.137C3.52734 108.137 2.58398 107.715 1.87305 106.872C1.16667 106.029 0.813477 104.901 0.813477 103.488V102.531C0.813477 101.606 0.977539 100.793 1.30566 100.091C1.63835 99.389 2.10775 98.8512 2.71387 98.4775C3.31999 98.0993 4.02181 97.9102 4.81934 97.9102C5.87663 97.9102 6.72428 98.2064 7.3623 98.7988C8.00033 99.3867 8.37174 100.202 8.47656 101.246H7.15723C7.04329 100.453 6.79492 99.8789 6.41211 99.5234C6.03385 99.168 5.50293 98.9902 4.81934 98.9902C3.98079 98.9902 3.32227 99.3001 2.84375 99.9199C2.36979 100.54 2.13281 101.422 2.13281 102.565V103.529C2.13281 104.609 2.3584 105.468 2.80957 106.106C3.26074 106.744 3.89193 107.063 4.70312 107.063C5.43229 107.063 5.99056 106.899 6.37793 106.571C6.76986 106.239 7.02962 105.662 7.15723 104.842H8.47656ZM15.1426 108C15.0697 107.854 15.0104 107.594 14.9648 107.221C14.377 107.831 13.6751 108.137 12.8594 108.137C12.1302 108.137 11.5309 107.932 11.0615 107.521C10.5967 107.107 10.3643 106.583 10.3643 105.949C10.3643 105.179 10.6559 104.582 11.2393 104.158C11.8271 103.73 12.652 103.516 13.7139 103.516H14.9443V102.935C14.9443 102.493 14.8122 102.142 14.5479 101.882C14.2835 101.618 13.8939 101.485 13.3789 101.485C12.9277 101.485 12.5495 101.599 12.2441 101.827C11.9388 102.055 11.7861 102.331 11.7861 102.654H10.5146C10.5146 102.285 10.6445 101.93 10.9043 101.588C11.1686 101.242 11.5241 100.968 11.9707 100.768C12.4219 100.567 12.9163 100.467 13.4541 100.467C14.3063 100.467 14.974 100.681 15.457 101.109C15.9401 101.533 16.1908 102.119 16.209 102.866V106.271C16.209 106.95 16.2956 107.49 16.4688 107.891V108H15.1426ZM13.0439 107.036C13.4404 107.036 13.8164 106.934 14.1719 106.729C14.5273 106.523 14.7848 106.257 14.9443 105.929V104.411H13.9531C12.4036 104.411 11.6289 104.865 11.6289 105.771C11.6289 106.168 11.7611 106.478 12.0254 106.701C12.2897 106.924 12.6292 107.036 13.0439 107.036ZM22.2666 101.738C22.0752 101.706 21.8678 101.69 21.6445 101.69C20.8151 101.69 20.2523 102.044 19.9561 102.75V108H18.6914V100.604H19.9219L19.9424 101.458C20.3571 100.797 20.945 100.467 21.7061 100.467C21.9521 100.467 22.139 100.499 22.2666 100.562V101.738ZM26.8682 108.137C25.8656 108.137 25.0498 107.809 24.4209 107.152C23.792 106.492 23.4775 105.61 23.4775 104.507V104.274C23.4775 103.541 23.6165 102.887 23.8945 102.312C24.1771 101.734 24.569 101.283 25.0703 100.959C25.5762 100.631 26.123 100.467 26.7109 100.467C27.6725 100.467 28.4199 100.784 28.9531 101.417C29.4863 102.05 29.7529 102.957 29.7529 104.138V104.664H24.7422C24.7604 105.393 24.9723 105.983 25.3779 106.435C25.7881 106.881 26.3076 107.104 26.9365 107.104C27.3831 107.104 27.7614 107.013 28.0713 106.831C28.3812 106.649 28.6523 106.407 28.8848 106.106L29.6572 106.708C29.0374 107.66 28.1077 108.137 26.8682 108.137ZM26.7109 101.506C26.2005 101.506 25.7721 101.693 25.4258 102.066C25.0794 102.436 24.8652 102.955 24.7832 103.625H28.4883V103.529C28.4518 102.887 28.2786 102.39 27.9688 102.039C27.6589 101.684 27.2396 101.506 26.7109 101.506ZM34.792 108.137C33.7894 108.137 32.9736 107.809 32.3447 107.152C31.7158 106.492 31.4014 105.61 31.4014 104.507V104.274C31.4014 103.541 31.5404 102.887 31.8184 102.312C32.1009 101.734 32.4928 101.283 32.9941 100.959C33.5 100.631 34.0469 100.467 34.6348 100.467C35.5964 100.467 36.3438 100.784 36.877 101.417C37.4102 102.05 37.6768 102.957 37.6768 104.138V104.664H32.666C32.6842 105.393 32.8962 105.983 33.3018 106.435C33.7119 106.881 34.2314 107.104 34.8604 107.104C35.307 107.104 35.6852 107.013 35.9951 106.831C36.305 106.649 36.5762 106.407 36.8086 106.106L37.5811 106.708C36.9613 107.66 36.0316 108.137 34.792 108.137ZM34.6348 101.506C34.1243 101.506 33.696 101.693 33.3496 102.066C33.0033 102.436 32.7891 102.955 32.707 103.625H36.4121V103.529C36.3757 102.887 36.2025 102.39 35.8926 102.039C35.5827 101.684 35.1634 101.506 34.6348 101.506ZM43.2217 101.738C43.0303 101.706 42.8229 101.69 42.5996 101.69C41.7702 101.69 41.2074 102.044 40.9111 102.75V108H39.6465V100.604H40.877L40.8975 101.458C41.3122 100.797 41.9001 100.467 42.6611 100.467C42.9072 100.467 43.0941 100.499 43.2217 100.562V101.738ZM49.1973 106.038C49.1973 105.696 49.0674 105.432 48.8076 105.245C48.5524 105.054 48.1035 104.89 47.4609 104.753C46.8229 104.616 46.3148 104.452 45.9365 104.261C45.5628 104.069 45.2848 103.841 45.1025 103.577C44.9248 103.313 44.8359 102.998 44.8359 102.634C44.8359 102.028 45.0911 101.515 45.6016 101.096C46.1165 100.676 46.7728 100.467 47.5703 100.467C48.4089 100.467 49.0879 100.683 49.6074 101.116C50.1315 101.549 50.3936 102.103 50.3936 102.777H49.1221C49.1221 102.431 48.974 102.132 48.6777 101.882C48.3861 101.631 48.0169 101.506 47.5703 101.506C47.11 101.506 46.75 101.606 46.4902 101.807C46.2305 102.007 46.1006 102.269 46.1006 102.593C46.1006 102.898 46.2214 103.128 46.4629 103.283C46.7044 103.438 47.1396 103.586 47.7686 103.728C48.402 103.869 48.9147 104.037 49.3066 104.233C49.6986 104.429 49.988 104.666 50.1748 104.944C50.3662 105.218 50.4619 105.553 50.4619 105.949C50.4619 106.61 50.1976 107.141 49.6689 107.542C49.1403 107.938 48.4544 108.137 47.6113 108.137C47.0189 108.137 46.4948 108.032 46.0391 107.822C45.5833 107.613 45.2256 107.321 44.9658 106.947C44.7106 106.569 44.583 106.161 44.583 105.724H45.8477C45.8704 106.147 46.0391 106.485 46.3535 106.735C46.6725 106.981 47.0918 107.104 47.6113 107.104C48.0898 107.104 48.4727 107.009 48.7598 106.817C49.0514 106.621 49.1973 106.362 49.1973 106.038Z" fill="white"/>
<path d="M2.46777 144.104V148H1.15527V138.047H4.82617C5.91536 138.047 6.76758 138.325 7.38281 138.881C8.0026 139.437 8.3125 140.173 8.3125 141.089C8.3125 142.055 8.00944 142.8 7.40332 143.324C6.80176 143.844 5.93815 144.104 4.8125 144.104H2.46777ZM2.46777 143.03H4.82617C5.52799 143.03 6.06576 142.866 6.43945 142.538C6.81315 142.205 7 141.727 7 141.103C7 140.51 6.81315 140.036 6.43945 139.681C6.06576 139.325 5.55306 139.141 4.90137 139.127H2.46777V143.03ZM9.8584 144.233C9.8584 143.509 9.99967 142.857 10.2822 142.278C10.5693 141.7 10.9658 141.253 11.4717 140.938C11.9821 140.624 12.5632 140.467 13.2148 140.467C14.222 140.467 15.0355 140.815 15.6553 141.513C16.2796 142.21 16.5918 143.137 16.5918 144.295V144.384C16.5918 145.104 16.4528 145.751 16.1748 146.325C15.9014 146.895 15.5072 147.339 14.9922 147.658C14.4818 147.977 13.8939 148.137 13.2285 148.137C12.2259 148.137 11.4124 147.788 10.7881 147.091C10.1683 146.394 9.8584 145.471 9.8584 144.322V144.233ZM11.1299 144.384C11.1299 145.204 11.319 145.863 11.6973 146.359C12.0801 146.856 12.5905 147.104 13.2285 147.104C13.8711 147.104 14.3815 146.854 14.7598 146.353C15.138 145.847 15.3271 145.14 15.3271 144.233C15.3271 143.422 15.1335 142.766 14.7461 142.265C14.3633 141.759 13.8529 141.506 13.2148 141.506C12.5905 141.506 12.0869 141.754 11.7041 142.251C11.3213 142.748 11.1299 143.459 11.1299 144.384ZM18.3701 144.24C18.3701 143.105 18.639 142.194 19.1768 141.506C19.7145 140.813 20.4186 140.467 21.2891 140.467C22.1549 140.467 22.8408 140.763 23.3467 141.355V137.5H24.6113V148H23.4492L23.3877 147.207C22.8818 147.827 22.1777 148.137 21.2754 148.137C20.4186 148.137 19.7191 147.786 19.1768 147.084C18.639 146.382 18.3701 145.466 18.3701 144.336V144.24ZM19.6348 144.384C19.6348 145.222 19.8079 145.879 20.1543 146.353C20.5007 146.826 20.9792 147.063 21.5898 147.063C22.3919 147.063 22.9775 146.703 23.3467 145.983V142.586C22.9684 141.889 22.3874 141.54 21.6035 141.54C20.9837 141.54 20.5007 141.779 20.1543 142.258C19.8079 142.736 19.6348 143.445 19.6348 144.384ZM30.0469 147.104C30.498 147.104 30.8923 146.968 31.2295 146.694C31.5667 146.421 31.7536 146.079 31.79 145.669H32.9863C32.9635 146.093 32.8177 146.496 32.5488 146.879C32.2799 147.262 31.9199 147.567 31.4688 147.795C31.0221 148.023 30.5482 148.137 30.0469 148.137C29.0397 148.137 28.2376 147.802 27.6406 147.132C27.0482 146.457 26.752 145.537 26.752 144.37V144.158C26.752 143.438 26.8841 142.798 27.1484 142.237C27.4128 141.677 27.791 141.242 28.2832 140.932C28.7799 140.622 29.3656 140.467 30.04 140.467C30.8695 140.467 31.5576 140.715 32.1045 141.212C32.6559 141.709 32.9499 142.354 32.9863 143.146H31.79C31.7536 142.668 31.5713 142.276 31.2432 141.971C30.9196 141.661 30.5186 141.506 30.04 141.506C29.3975 141.506 28.8984 141.738 28.543 142.203C28.1921 142.663 28.0166 143.331 28.0166 144.206V144.445C28.0166 145.298 28.1921 145.954 28.543 146.414C28.8939 146.874 29.3952 147.104 30.0469 147.104ZM39.4746 148C39.4017 147.854 39.3424 147.594 39.2969 147.221C38.709 147.831 38.0072 148.137 37.1914 148.137C36.4622 148.137 35.863 147.932 35.3936 147.521C34.9287 147.107 34.6963 146.583 34.6963 145.949C34.6963 145.179 34.988 144.582 35.5713 144.158C36.1592 143.73 36.984 143.516 38.0459 143.516H39.2764V142.935C39.2764 142.493 39.1442 142.142 38.8799 141.882C38.6156 141.618 38.2259 141.485 37.7109 141.485C37.2598 141.485 36.8815 141.599 36.5762 141.827C36.2708 142.055 36.1182 142.331 36.1182 142.654H34.8467C34.8467 142.285 34.9766 141.93 35.2363 141.588C35.5007 141.242 35.8561 140.968 36.3027 140.768C36.7539 140.567 37.2484 140.467 37.7861 140.467C38.6383 140.467 39.306 140.681 39.7891 141.109C40.2721 141.533 40.5228 142.119 40.541 142.866V146.271C40.541 146.95 40.6276 147.49 40.8008 147.891V148H39.4746ZM37.376 147.036C37.7725 147.036 38.1484 146.934 38.5039 146.729C38.8594 146.523 39.1169 146.257 39.2764 145.929V144.411H38.2852C36.7357 144.411 35.9609 144.865 35.9609 145.771C35.9609 146.168 36.0931 146.478 36.3574 146.701C36.6217 146.924 36.9613 147.036 37.376 147.036ZM47.3301 146.038C47.3301 145.696 47.2002 145.432 46.9404 145.245C46.6852 145.054 46.2363 144.89 45.5938 144.753C44.9557 144.616 44.4476 144.452 44.0693 144.261C43.6956 144.069 43.4176 143.841 43.2354 143.577C43.0576 143.313 42.9688 142.998 42.9688 142.634C42.9688 142.028 43.224 141.515 43.7344 141.096C44.2493 140.676 44.9056 140.467 45.7031 140.467C46.5417 140.467 47.2207 140.683 47.7402 141.116C48.2643 141.549 48.5264 142.103 48.5264 142.777H47.2549C47.2549 142.431 47.1068 142.132 46.8105 141.882C46.5189 141.631 46.1497 141.506 45.7031 141.506C45.2428 141.506 44.8828 141.606 44.623 141.807C44.3633 142.007 44.2334 142.269 44.2334 142.593C44.2334 142.898 44.3542 143.128 44.5957 143.283C44.8372 143.438 45.2725 143.586 45.9014 143.728C46.5348 143.869 47.0475 144.037 47.4395 144.233C47.8314 144.429 48.1208 144.666 48.3076 144.944C48.499 145.218 48.5947 145.553 48.5947 145.949C48.5947 146.61 48.3304 147.141 47.8018 147.542C47.2731 147.938 46.5872 148.137 45.7441 148.137C45.1517 148.137 44.6276 148.032 44.1719 147.822C43.7161 147.613 43.3584 147.321 43.0986 146.947C42.8434 146.569 42.7158 146.161 42.7158 145.724H43.9805C44.0033 146.147 44.1719 146.485 44.4863 146.735C44.8053 146.981 45.2246 147.104 45.7441 147.104C46.2227 147.104 46.6055 147.009 46.8926 146.817C47.1842 146.621 47.3301 146.362 47.3301 146.038ZM52.458 138.812V140.604H53.8389V141.581H52.458V146.168C52.458 146.464 52.5195 146.688 52.6426 146.838C52.7656 146.984 52.9753 147.057 53.2715 147.057C53.4173 147.057 53.6178 147.029 53.873 146.975V148C53.5404 148.091 53.2168 148.137 52.9023 148.137C52.3372 148.137 51.9111 147.966 51.624 147.624C51.3369 147.282 51.1934 146.797 51.1934 146.168V141.581H49.8467V140.604H51.1934V138.812H52.458Z" fill="white"/>
<path d="M8.47656 44.8418C8.35352 45.8945 7.96387 46.708 7.30762 47.2822C6.65592 47.8519 5.78776 48.1367 4.70312 48.1367C3.52734 48.1367 2.58398 47.7152 1.87305 46.8721C1.16667 46.029 0.813477 44.901 0.813477 43.4883V42.5312C0.813477 41.6061 0.977539 40.7926 1.30566 40.0908C1.63835 39.389 2.10775 38.8512 2.71387 38.4775C3.31999 38.0993 4.02181 37.9102 4.81934 37.9102C5.87663 37.9102 6.72428 38.2064 7.3623 38.7988C8.00033 39.3867 8.37174 40.2025 8.47656 41.2461H7.15723C7.04329 40.4531 6.79492 39.8789 6.41211 39.5234C6.03385 39.168 5.50293 38.9902 4.81934 38.9902C3.98079 38.9902 3.32227 39.3001 2.84375 39.9199C2.36979 40.5397 2.13281 41.4215 2.13281 42.5654V43.5293C2.13281 44.6094 2.3584 45.4684 2.80957 46.1064C3.26074 46.7445 3.89193 47.0635 4.70312 47.0635C5.43229 47.0635 5.99056 46.8994 6.37793 46.5713C6.76986 46.2386 7.02962 45.6621 7.15723 44.8418H8.47656ZM10.2412 44.2334C10.2412 43.5088 10.3825 42.8571 10.665 42.2783C10.9521 41.6995 11.3486 41.2529 11.8545 40.9385C12.3649 40.624 12.946 40.4668 13.5977 40.4668C14.6048 40.4668 15.4183 40.8154 16.0381 41.5127C16.6624 42.21 16.9746 43.1374 16.9746 44.2949V44.3838C16.9746 45.1038 16.8356 45.751 16.5576 46.3252C16.2842 46.8949 15.89 47.3392 15.375 47.6582C14.8646 47.9772 14.2767 48.1367 13.6113 48.1367C12.6087 48.1367 11.7952 47.7881 11.1709 47.0908C10.5511 46.3936 10.2412 45.4707 10.2412 44.3223V44.2334ZM11.5127 44.3838C11.5127 45.2041 11.7018 45.8626 12.0801 46.3594C12.4629 46.8561 12.9733 47.1045 13.6113 47.1045C14.2539 47.1045 14.7643 46.8538 15.1426 46.3525C15.5208 45.8467 15.71 45.1403 15.71 44.2334C15.71 43.4222 15.5163 42.766 15.1289 42.2646C14.7461 41.7588 14.2357 41.5059 13.5977 41.5059C12.9733 41.5059 12.4697 41.7542 12.0869 42.251C11.7041 42.7477 11.5127 43.4587 11.5127 44.3838ZM20.25 40.6035L20.2842 41.4238C20.8265 40.7858 21.5579 40.4668 22.4785 40.4668C23.513 40.4668 24.2171 40.8633 24.5908 41.6562C24.8369 41.3008 25.1559 41.0137 25.5479 40.7949C25.9443 40.5762 26.4115 40.4668 26.9492 40.4668C28.5716 40.4668 29.3965 41.3258 29.4238 43.0439V48H28.1592V43.1191C28.1592 42.5905 28.0384 42.1963 27.7969 41.9365C27.5553 41.6722 27.1497 41.54 26.5801 41.54C26.1107 41.54 25.721 41.6813 25.4111 41.9639C25.1012 42.2419 24.9212 42.6178 24.8711 43.0918V48H23.5996V43.1533C23.5996 42.0778 23.0732 41.54 22.0205 41.54C21.1911 41.54 20.6237 41.8932 20.3184 42.5996V48H19.0537V40.6035H20.25ZM38.0859 44.3838C38.0859 45.5094 37.8285 46.4163 37.3135 47.1045C36.7985 47.7926 36.1012 48.1367 35.2217 48.1367C34.3239 48.1367 33.6175 47.8519 33.1025 47.2822V50.8438H31.8379V40.6035H32.9932L33.0547 41.4238C33.5697 40.7858 34.2852 40.4668 35.2012 40.4668C36.0898 40.4668 36.7917 40.8018 37.3066 41.4717C37.8262 42.1416 38.0859 43.0736 38.0859 44.2676V44.3838ZM36.8213 44.2402C36.8213 43.4062 36.6436 42.7477 36.2881 42.2646C35.9326 41.7816 35.445 41.54 34.8252 41.54C34.0596 41.54 33.4854 41.8796 33.1025 42.5586V46.0928C33.4808 46.7673 34.0596 47.1045 34.8389 47.1045C35.445 47.1045 35.9258 46.8652 36.2812 46.3867C36.6413 45.9036 36.8213 45.1882 36.8213 44.2402ZM44.7656 48C44.6927 47.8542 44.6335 47.5944 44.5879 47.2207C44 47.8314 43.2982 48.1367 42.4824 48.1367C41.7533 48.1367 41.154 47.9316 40.6846 47.5215C40.2197 47.1068 39.9873 46.5827 39.9873 45.9492C39.9873 45.179 40.279 44.582 40.8623 44.1582C41.4502 43.7298 42.2751 43.5156 43.3369 43.5156H44.5674V42.9346C44.5674 42.4925 44.4352 42.1416 44.1709 41.8818C43.9066 41.6175 43.5169 41.4854 43.002 41.4854C42.5508 41.4854 42.1725 41.5993 41.8672 41.8271C41.5618 42.055 41.4092 42.3307 41.4092 42.6543H40.1377C40.1377 42.2852 40.2676 41.9297 40.5273 41.5879C40.7917 41.2415 41.1471 40.9681 41.5938 40.7676C42.0449 40.5671 42.5394 40.4668 43.0771 40.4668C43.9294 40.4668 44.597 40.681 45.0801 41.1094C45.5632 41.5332 45.8138 42.1188 45.832 42.8662V46.2705C45.832 46.9495 45.9186 47.4896 46.0918 47.8906V48H44.7656ZM42.667 47.0361C43.0635 47.0361 43.4395 46.9336 43.7949 46.7285C44.1504 46.5234 44.4079 46.2568 44.5674 45.9287V44.4111H43.5762C42.0267 44.4111 41.252 44.8646 41.252 45.7715C41.252 46.168 41.3841 46.4779 41.6484 46.7012C41.9128 46.9245 42.2523 47.0361 42.667 47.0361ZM51.8896 41.7383C51.6982 41.7064 51.4909 41.6904 51.2676 41.6904C50.4382 41.6904 49.8753 42.0436 49.5791 42.75V48H48.3145V40.6035H49.5449L49.5654 41.458C49.9801 40.7972 50.568 40.4668 51.3291 40.4668C51.5752 40.4668 51.762 40.4987 51.8896 40.5625V41.7383ZM56.4912 48.1367C55.4886 48.1367 54.6729 47.8086 54.0439 47.1523C53.415 46.4915 53.1006 45.6097 53.1006 44.5068V44.2744C53.1006 43.5407 53.2396 42.8867 53.5176 42.3125C53.8001 41.7337 54.1921 41.2826 54.6934 40.959C55.1992 40.6309 55.7461 40.4668 56.334 40.4668C57.2956 40.4668 58.043 40.7835 58.5762 41.417C59.1094 42.0505 59.376 42.9574 59.376 44.1377V44.6641H54.3652C54.3835 45.3932 54.5954 45.9834 55.001 46.4346C55.4111 46.8812 55.9307 47.1045 56.5596 47.1045C57.0062 47.1045 57.3844 47.0133 57.6943 46.8311C58.0042 46.6488 58.2754 46.4072 58.5078 46.1064L59.2803 46.708C58.6605 47.6605 57.7308 48.1367 56.4912 48.1367ZM56.334 41.5059C55.8236 41.5059 55.3952 41.6927 55.0488 42.0664C54.7025 42.4355 54.4883 42.9551 54.4062 43.625H58.1113V43.5293C58.0749 42.8867 57.9017 42.39 57.5918 42.0391C57.2819 41.6836 56.8626 41.5059 56.334 41.5059Z" fill="white"/>
<path d="M2.46777 124.104V128H1.15527V118.047H4.82617C5.91536 118.047 6.76758 118.325 7.38281 118.881C8.0026 119.437 8.3125 120.173 8.3125 121.089C8.3125 122.055 8.00944 122.8 7.40332 123.324C6.80176 123.844 5.93815 124.104 4.8125 124.104H2.46777ZM2.46777 123.03H4.82617C5.52799 123.03 6.06576 122.866 6.43945 122.538C6.81315 122.205 7 121.727 7 121.103C7 120.51 6.81315 120.036 6.43945 119.681C6.06576 119.325 5.55306 119.141 4.90137 119.127H2.46777V123.03ZM13.8643 121.738C13.6729 121.706 13.4655 121.69 13.2422 121.69C12.4128 121.69 11.8499 122.044 11.5537 122.75V128H10.2891V120.604H11.5195L11.54 121.458C11.9548 120.797 12.5426 120.467 13.3037 120.467C13.5498 120.467 13.7367 120.499 13.8643 120.562V121.738ZM18.4658 128.137C17.4632 128.137 16.6475 127.809 16.0186 127.152C15.3896 126.492 15.0752 125.61 15.0752 124.507V124.274C15.0752 123.541 15.2142 122.887 15.4922 122.312C15.7747 121.734 16.1667 121.283 16.668 120.959C17.1738 120.631 17.7207 120.467 18.3086 120.467C19.2702 120.467 20.0176 120.784 20.5508 121.417C21.084 122.05 21.3506 122.957 21.3506 124.138V124.664H16.3398C16.3581 125.393 16.57 125.983 16.9756 126.435C17.3857 126.881 17.9053 127.104 18.5342 127.104C18.9808 127.104 19.359 127.013 19.6689 126.831C19.9788 126.649 20.25 126.407 20.4824 126.106L21.2549 126.708C20.6351 127.66 19.7054 128.137 18.4658 128.137ZM18.3086 121.506C17.7982 121.506 17.3698 121.693 17.0234 122.066C16.6771 122.436 16.4629 122.955 16.3809 123.625H20.0859V123.529C20.0495 122.887 19.8763 122.39 19.5664 122.039C19.2565 121.684 18.8372 121.506 18.3086 121.506ZM27.627 126.038C27.627 125.696 27.4971 125.432 27.2373 125.245C26.9821 125.054 26.5332 124.89 25.8906 124.753C25.2526 124.616 24.7445 124.452 24.3662 124.261C23.9925 124.069 23.7145 123.841 23.5322 123.577C23.3545 123.313 23.2656 122.998 23.2656 122.634C23.2656 122.028 23.5208 121.515 24.0312 121.096C24.5462 120.676 25.2025 120.467 26 120.467C26.8385 120.467 27.5176 120.683 28.0371 121.116C28.5612 121.549 28.8232 122.103 28.8232 122.777H27.5518C27.5518 122.431 27.4036 122.132 27.1074 121.882C26.8158 121.631 26.4466 121.506 26 121.506C25.5397 121.506 25.1797 121.606 24.9199 121.807C24.6602 122.007 24.5303 122.269 24.5303 122.593C24.5303 122.898 24.651 123.128 24.8926 123.283C25.1341 123.438 25.5693 123.586 26.1982 123.728C26.8317 123.869 27.3444 124.037 27.7363 124.233C28.1283 124.429 28.4176 124.666 28.6045 124.944C28.7959 125.218 28.8916 125.553 28.8916 125.949C28.8916 126.61 28.6273 127.141 28.0986 127.542C27.57 127.938 26.8841 128.137 26.041 128.137C25.4486 128.137 24.9245 128.032 24.4688 127.822C24.013 127.613 23.6553 127.321 23.3955 126.947C23.1403 126.569 23.0127 126.161 23.0127 125.724H24.2773C24.3001 126.147 24.4688 126.485 24.7832 126.735C25.1022 126.981 25.5215 127.104 26.041 127.104C26.5195 127.104 26.9023 127.009 27.1895 126.817C27.4811 126.621 27.627 126.362 27.627 126.038ZM35.3457 126.038C35.3457 125.696 35.2158 125.432 34.9561 125.245C34.7008 125.054 34.252 124.89 33.6094 124.753C32.9714 124.616 32.4632 124.452 32.085 124.261C31.7113 124.069 31.4333 123.841 31.251 123.577C31.0732 123.313 30.9844 122.998 30.9844 122.634C30.9844 122.028 31.2396 121.515 31.75 121.096C32.265 120.676 32.9212 120.467 33.7188 120.467C34.5573 120.467 35.2363 120.683 35.7559 121.116C36.2799 121.549 36.542 122.103 36.542 122.777H35.2705C35.2705 122.431 35.1224 122.132 34.8262 121.882C34.5345 121.631 34.1654 121.506 33.7188 121.506C33.2585 121.506 32.8984 121.606 32.6387 121.807C32.3789 122.007 32.249 122.269 32.249 122.593C32.249 122.898 32.3698 123.128 32.6113 123.283C32.8529 123.438 33.2881 123.586 33.917 123.728C34.5505 123.869 35.0632 124.037 35.4551 124.233C35.847 124.429 36.1364 124.666 36.3232 124.944C36.5146 125.218 36.6104 125.553 36.6104 125.949C36.6104 126.61 36.346 127.141 35.8174 127.542C35.2887 127.938 34.6029 128.137 33.7598 128.137C33.1673 128.137 32.6432 128.032 32.1875 127.822C31.7318 127.613 31.374 127.321 31.1143 126.947C30.859 126.569 30.7314 126.161 30.7314 125.724H31.9961C32.0189 126.147 32.1875 126.485 32.502 126.735C32.821 126.981 33.2402 127.104 33.7598 127.104C34.2383 127.104 34.6211 127.009 34.9082 126.817C35.1999 126.621 35.3457 126.362 35.3457 126.038Z" fill="white"/>
<path d="M4.80566 83.9736H2.46777V88H1.14844V78.0469H4.44336C5.56445 78.0469 6.42578 78.3021 7.02734 78.8125C7.63346 79.3229 7.93652 80.0658 7.93652 81.041C7.93652 81.6608 7.7679 82.2008 7.43066 82.6611C7.09798 83.1214 6.63314 83.4655 6.03613 83.6934L8.37402 87.918V88H6.96582L4.80566 83.9736ZM2.46777 82.9004H4.48438C5.13607 82.9004 5.65332 82.7318 6.03613 82.3945C6.4235 82.0573 6.61719 81.6061 6.61719 81.041C6.61719 80.4258 6.43262 79.9541 6.06348 79.626C5.69889 79.2979 5.17025 79.1315 4.47754 79.127H2.46777V82.9004ZM11.458 88H10.1934V80.6035H11.458V88ZM10.0908 78.6416C10.0908 78.4365 10.1523 78.2633 10.2754 78.1221C10.403 77.9808 10.5898 77.9102 10.8359 77.9102C11.082 77.9102 11.2689 77.9808 11.3965 78.1221C11.5241 78.2633 11.5879 78.4365 11.5879 78.6416C11.5879 78.8467 11.5241 79.0176 11.3965 79.1543C11.2689 79.291 11.082 79.3594 10.8359 79.3594C10.5898 79.3594 10.403 79.291 10.2754 79.1543C10.1523 79.0176 10.0908 78.8467 10.0908 78.6416ZM18.2949 86.0381C18.2949 85.6963 18.165 85.432 17.9053 85.2451C17.6501 85.0537 17.2012 84.8896 16.5586 84.7529C15.9206 84.6162 15.4124 84.4521 15.0342 84.2607C14.6605 84.0693 14.3825 83.8415 14.2002 83.5771C14.0225 83.3128 13.9336 82.9984 13.9336 82.6338C13.9336 82.0277 14.1888 81.515 14.6992 81.0957C15.2142 80.6764 15.8704 80.4668 16.668 80.4668C17.5065 80.4668 18.1855 80.6833 18.7051 81.1162C19.2292 81.5492 19.4912 82.1029 19.4912 82.7773H18.2197C18.2197 82.431 18.0716 82.1325 17.7754 81.8818C17.4837 81.6312 17.1146 81.5059 16.668 81.5059C16.2077 81.5059 15.8477 81.6061 15.5879 81.8066C15.3281 82.0072 15.1982 82.2692 15.1982 82.5928C15.1982 82.8981 15.319 83.1283 15.5605 83.2832C15.8021 83.4382 16.2373 83.5863 16.8662 83.7275C17.4997 83.8688 18.0124 84.0374 18.4043 84.2334C18.7962 84.4294 19.0856 84.6663 19.2725 84.9443C19.4639 85.2178 19.5596 85.5527 19.5596 85.9492C19.5596 86.61 19.2952 87.141 18.7666 87.542C18.238 87.9385 17.5521 88.1367 16.709 88.1367C16.1165 88.1367 15.5924 88.0319 15.1367 87.8223C14.681 87.6126 14.3232 87.321 14.0635 86.9473C13.8083 86.569 13.6807 86.1611 13.6807 85.7236H14.9453C14.9681 86.1475 15.1367 86.4847 15.4512 86.7354C15.7702 86.9814 16.1895 87.1045 16.709 87.1045C17.1875 87.1045 17.5703 87.0088 17.8574 86.8174C18.1491 86.6214 18.2949 86.3617 18.2949 86.0381ZM23.7715 84.5752L22.9785 85.4023V88H21.7139V77.5H22.9785V83.8506L23.6553 83.0371L25.959 80.6035H27.4971L24.6191 83.6934L27.832 88H26.3486L23.7715 84.5752ZM31.9346 84.2881H28.5986V83.2559H31.9346V84.2881ZM39.3594 83.6045H35.1826V88H33.8701V78.0469H40.0361V79.127H35.1826V82.5312H39.3594V83.6045ZM45.3076 81.7383C45.1162 81.7064 44.9089 81.6904 44.6855 81.6904C43.8561 81.6904 43.2933 82.0436 42.9971 82.75V88H41.7324V80.6035H42.9629L42.9834 81.458C43.3981 80.7972 43.986 80.4668 44.7471 80.4668C44.9932 80.4668 45.18 80.4987 45.3076 80.5625V81.7383ZM49.9092 88.1367C48.9066 88.1367 48.0908 87.8086 47.4619 87.1523C46.833 86.4915 46.5186 85.6097 46.5186 84.5068V84.2744C46.5186 83.5407 46.6576 82.8867 46.9355 82.3125C47.2181 81.7337 47.61 81.2826 48.1113 80.959C48.6172 80.6309 49.1641 80.4668 49.752 80.4668C50.7135 80.4668 51.4609 80.7835 51.9941 81.417C52.5273 82.0505 52.7939 82.9574 52.7939 84.1377V84.6641H47.7832C47.8014 85.3932 48.0133 85.9834 48.4189 86.4346C48.8291 86.8812 49.3486 87.1045 49.9775 87.1045C50.4242 87.1045 50.8024 87.0133 51.1123 86.8311C51.4222 86.6488 51.6934 86.4072 51.9258 86.1064L52.6982 86.708C52.0785 87.6605 51.1488 88.1367 49.9092 88.1367ZM49.752 81.5059C49.2415 81.5059 48.8132 81.6927 48.4668 82.0664C48.1204 82.4355 47.9062 82.9551 47.8242 83.625H51.5293V83.5293C51.4928 82.8867 51.3197 82.39 51.0098 82.0391C50.6999 81.6836 50.2806 81.5059 49.752 81.5059ZM57.833 88.1367C56.8304 88.1367 56.0146 87.8086 55.3857 87.1523C54.7568 86.4915 54.4424 85.6097 54.4424 84.5068V84.2744C54.4424 83.5407 54.5814 82.8867 54.8594 82.3125C55.1419 81.7337 55.5339 81.2826 56.0352 80.959C56.541 80.6309 57.0879 80.4668 57.6758 80.4668C58.6374 80.4668 59.3848 80.7835 59.918 81.417C60.4512 82.0505 60.7178 82.9574 60.7178 84.1377V84.6641H55.707C55.7253 85.3932 55.9372 85.9834 56.3428 86.4346C56.7529 86.8812 57.2725 87.1045 57.9014 87.1045C58.348 87.1045 58.7262 87.0133 59.0361 86.8311C59.346 86.6488 59.6172 86.4072 59.8496 86.1064L60.6221 86.708C60.0023 87.6605 59.0726 88.1367 57.833 88.1367ZM57.6758 81.5059C57.1654 81.5059 56.737 81.6927 56.3906 82.0664C56.0443 82.4355 55.8301 82.9551 55.748 83.625H59.4531V83.5293C59.4167 82.8867 59.2435 82.39 58.9336 82.0391C58.6237 81.6836 58.2044 81.5059 57.6758 81.5059ZM73.4619 79.127H70.2627V88H68.957V79.127H65.7646V78.0469H73.4619V79.127ZM78.2959 81.7383C78.1045 81.7064 77.8971 81.6904 77.6738 81.6904C76.8444 81.6904 76.2816 82.0436 75.9854 82.75V88H74.7207V80.6035H75.9512L75.9717 81.458C76.3864 80.7972 76.9743 80.4668 77.7354 80.4668C77.9814 80.4668 78.1683 80.4987 78.2959 80.5625V81.7383ZM81.3389 88H80.0742V80.6035H81.3389V88ZM79.9717 78.6416C79.9717 78.4365 80.0332 78.2633 80.1562 78.1221C80.2839 77.9808 80.4707 77.9102 80.7168 77.9102C80.9629 77.9102 81.1497 77.9808 81.2773 78.1221C81.4049 78.2633 81.4688 78.4365 81.4688 78.6416C81.4688 78.8467 81.4049 79.0176 81.2773 79.1543C81.1497 79.291 80.9629 79.3594 80.7168 79.3594C80.4707 79.3594 80.2839 79.291 80.1562 79.1543C80.0332 79.0176 79.9717 78.8467 79.9717 78.6416ZM88.4355 88C88.3626 87.8542 88.3034 87.5944 88.2578 87.2207C87.6699 87.8314 86.9681 88.1367 86.1523 88.1367C85.4232 88.1367 84.8239 87.9316 84.3545 87.5215C83.8896 87.1068 83.6572 86.5827 83.6572 85.9492C83.6572 85.179 83.9489 84.582 84.5322 84.1582C85.1201 83.7298 85.945 83.5156 87.0068 83.5156H88.2373V82.9346C88.2373 82.4925 88.1051 82.1416 87.8408 81.8818C87.5765 81.6175 87.1868 81.4854 86.6719 81.4854C86.2207 81.4854 85.8424 81.5993 85.5371 81.8271C85.2318 82.055 85.0791 82.3307 85.0791 82.6543H83.8076C83.8076 82.2852 83.9375 81.9297 84.1973 81.5879C84.4616 81.2415 84.8171 80.9681 85.2637 80.7676C85.7148 80.5671 86.2093 80.4668 86.7471 80.4668C87.5993 80.4668 88.2669 80.681 88.75 81.1094C89.2331 81.5332 89.4837 82.1188 89.502 82.8662V86.2705C89.502 86.9495 89.5885 87.4896 89.7617 87.8906V88H88.4355ZM86.3369 87.0361C86.7334 87.0361 87.1094 86.9336 87.4648 86.7285C87.8203 86.5234 88.0778 86.2568 88.2373 85.9287V84.4111H87.2461C85.6966 84.4111 84.9219 84.8646 84.9219 85.7715C84.9219 86.168 85.054 86.4779 85.3184 86.7012C85.5827 86.9245 85.9222 87.0361 86.3369 87.0361ZM93.3584 88H92.0938V77.5H93.3584V88Z" fill="white"/>
<path d="M1.15527 168V158.047H4.40918C5.48926 158.047 6.30046 158.27 6.84277 158.717C7.38965 159.163 7.66309 159.824 7.66309 160.699C7.66309 161.164 7.53092 161.576 7.2666 161.937C7.00228 162.292 6.64225 162.568 6.18652 162.764C6.72428 162.914 7.14811 163.201 7.45801 163.625C7.77246 164.044 7.92969 164.546 7.92969 165.129C7.92969 166.022 7.6403 166.724 7.06152 167.234C6.48275 167.745 5.66471 168 4.60742 168H1.15527ZM2.46777 163.345V166.927H4.63477C5.24544 166.927 5.72624 166.77 6.07715 166.455C6.43262 166.136 6.61035 165.699 6.61035 165.143C6.61035 163.944 5.95866 163.345 4.65527 163.345H2.46777ZM2.46777 162.292H4.4502C5.02441 162.292 5.48242 162.148 5.82422 161.861C6.17057 161.574 6.34375 161.185 6.34375 160.692C6.34375 160.146 6.18424 159.749 5.86523 159.503C5.54622 159.252 5.06087 159.127 4.40918 159.127H2.46777V162.292ZM11.5537 168H10.2891V157.5H11.5537V168ZM13.749 164.233C13.749 163.509 13.8903 162.857 14.1729 162.278C14.46 161.7 14.8564 161.253 15.3623 160.938C15.8727 160.624 16.4538 160.467 17.1055 160.467C18.1126 160.467 18.9261 160.815 19.5459 161.513C20.1702 162.21 20.4824 163.137 20.4824 164.295V164.384C20.4824 165.104 20.3434 165.751 20.0654 166.325C19.792 166.895 19.3978 167.339 18.8828 167.658C18.3724 167.977 17.7845 168.137 17.1191 168.137C16.1165 168.137 15.3031 167.788 14.6787 167.091C14.0589 166.394 13.749 165.471 13.749 164.322V164.233ZM15.0205 164.384C15.0205 165.204 15.2096 165.863 15.5879 166.359C15.9707 166.856 16.4811 167.104 17.1191 167.104C17.7617 167.104 18.2721 166.854 18.6504 166.353C19.0286 165.847 19.2178 165.14 19.2178 164.233C19.2178 163.422 19.0241 162.766 18.6367 162.265C18.2539 161.759 17.7435 161.506 17.1055 161.506C16.4811 161.506 15.9775 161.754 15.5947 162.251C15.2119 162.748 15.0205 163.459 15.0205 164.384ZM22.2676 164.24C22.2676 163.087 22.5342 162.171 23.0674 161.492C23.6006 160.809 24.307 160.467 25.1865 160.467C26.0889 160.467 26.793 160.786 27.2988 161.424L27.3604 160.604H28.5156V167.822C28.5156 168.779 28.2308 169.534 27.6611 170.085C27.096 170.636 26.335 170.912 25.3779 170.912C24.8447 170.912 24.3229 170.798 23.8125 170.57C23.3021 170.342 22.9124 170.03 22.6436 169.634L23.2998 168.875C23.8421 169.545 24.5052 169.88 25.2891 169.88C25.9043 169.88 26.3828 169.707 26.7246 169.36C27.071 169.014 27.2441 168.526 27.2441 167.897V167.262C26.7383 167.845 26.0479 168.137 25.1729 168.137C24.307 168.137 23.6051 167.788 23.0674 167.091C22.5342 166.394 22.2676 165.443 22.2676 164.24ZM23.5391 164.384C23.5391 165.218 23.71 165.874 24.0518 166.353C24.3936 166.826 24.8721 167.063 25.4873 167.063C26.2848 167.063 26.8704 166.701 27.2441 165.977V162.6C26.8568 161.893 26.2757 161.54 25.501 161.54C24.8857 161.54 24.4049 161.779 24.0586 162.258C23.7122 162.736 23.5391 163.445 23.5391 164.384Z" fill="white"/>
</svg>
