<svg width="342" height="163" viewBox="0 0 342 163" fill="none" xmlns="http://www.w3.org/2000/svg">
<path d="M2.96094 36V1.875H12.5938C15.5625 1.875 18.1875 2.53125 20.4688 3.84375C22.75 5.15625 24.5078 7.02344 25.7422 9.44531C26.9922 11.8672 27.625 14.6484 27.6406 17.7891V19.9688C27.6406 23.1875 27.0156 26.0078 25.7656 28.4297C24.5312 30.8516 22.7578 32.7109 20.4453 34.0078C18.1484 35.3047 15.4688 35.9688 12.4062 36H2.96094ZM7.46094 5.57812V32.3203H12.1953C15.6641 32.3203 18.3594 31.2422 20.2812 29.0859C22.2188 26.9297 23.1875 23.8594 23.1875 19.875V17.8828C23.1875 14.0078 22.2734 11 20.4453 8.85938C18.6328 6.70312 16.0547 5.60937 12.7109 5.57812H7.46094ZM44.3047 36.4688C40.8672 36.4688 38.0703 35.3438 35.9141 33.0938C33.7578 30.8281 32.6797 27.8047 32.6797 24.0234V23.2266C32.6797 20.7109 33.1562 18.4688 34.1094 16.5C35.0781 14.5156 36.4219 12.9688 38.1406 11.8594C39.875 10.7344 41.75 10.1719 43.7656 10.1719C47.0625 10.1719 49.625 11.2578 51.4531 13.4297C53.2812 15.6016 54.1953 18.7109 54.1953 22.7578V24.5625H37.0156C37.0781 27.0625 37.8047 29.0859 39.1953 30.6328C40.6016 32.1641 42.3828 32.9297 44.5391 32.9297C46.0703 32.9297 47.3672 32.6172 48.4297 31.9922C49.4922 31.3672 50.4219 30.5391 51.2188 29.5078L53.8672 31.5703C51.7422 34.8359 48.5547 36.4688 44.3047 36.4688ZM43.7656 13.7344C42.0156 13.7344 40.5469 14.375 39.3594 15.6562C38.1719 16.9219 37.4375 18.7031 37.1562 21H49.8594V20.6719C49.7344 18.4688 49.1406 16.7656 48.0781 15.5625C47.0156 14.3438 45.5781 13.7344 43.7656 13.7344ZM74 29.2734C74 28.1016 73.5547 27.1953 72.6641 26.5547C71.7891 25.8984 70.25 25.3359 68.0469 24.8672C65.8594 24.3984 64.1172 23.8359 62.8203 23.1797C61.5391 22.5234 60.5859 21.7422 59.9609 20.8359C59.3516 19.9297 59.0469 18.8516 59.0469 17.6016C59.0469 15.5234 59.9219 13.7656 61.6719 12.3281C63.4375 10.8906 65.6875 10.1719 68.4219 10.1719C71.2969 10.1719 73.625 10.9141 75.4062 12.3984C77.2031 13.8828 78.1016 15.7812 78.1016 18.0938H73.7422C73.7422 16.9062 73.2344 15.8828 72.2188 15.0234C71.2188 14.1641 69.9531 13.7344 68.4219 13.7344C66.8438 13.7344 65.6094 14.0781 64.7188 14.7656C63.8281 15.4531 63.3828 16.3516 63.3828 17.4609C63.3828 18.5078 63.7969 19.2969 64.625 19.8281C65.4531 20.3594 66.9453 20.8672 69.1016 21.3516C71.2734 21.8359 73.0312 22.4141 74.375 23.0859C75.7188 23.7578 76.7109 24.5703 77.3516 25.5234C78.0078 26.4609 78.3359 27.6094 78.3359 28.9688C78.3359 31.2344 77.4297 33.0547 75.6172 34.4297C73.8047 35.7891 71.4531 36.4688 68.5625 36.4688C66.5312 36.4688 64.7344 36.1094 63.1719 35.3906C61.6094 34.6719 60.3828 33.6719 59.4922 32.3906C58.6172 31.0938 58.1797 29.6953 58.1797 28.1953H62.5156C62.5938 29.6484 63.1719 30.8047 64.25 31.6641C65.3438 32.5078 66.7812 32.9297 68.5625 32.9297C70.2031 32.9297 71.5156 32.6016 72.5 31.9453C73.5 31.2734 74 30.3828 74 29.2734ZM88.6953 36H84.3594V10.6406H88.6953V36ZM84.0078 3.91406C84.0078 3.21094 84.2188 2.61719 84.6406 2.13281C85.0781 1.64844 85.7188 1.40625 86.5625 1.40625C87.4062 1.40625 88.0469 1.64844 88.4844 2.13281C88.9219 2.61719 89.1406 3.21094 89.1406 3.91406C89.1406 4.61719 88.9219 5.20312 88.4844 5.67188C88.0469 6.14062 87.4062 6.375 86.5625 6.375C85.7188 6.375 85.0781 6.14062 84.6406 5.67188C84.2188 5.20312 84.0078 4.61719 84.0078 3.91406ZM94.625 23.1094C94.625 19.1562 95.5391 16.0156 97.3672 13.6875C99.1953 11.3438 101.617 10.1719 104.633 10.1719C107.727 10.1719 110.141 11.2656 111.875 13.4531L112.086 10.6406H116.047V35.3906C116.047 38.6719 115.07 41.2578 113.117 43.1484C111.18 45.0391 108.57 45.9844 105.289 45.9844C103.461 45.9844 101.672 45.5938 99.9219 44.8125C98.1719 44.0312 96.8359 42.9609 95.9141 41.6016L98.1641 39C100.023 41.2969 102.297 42.4453 104.984 42.4453C107.094 42.4453 108.734 41.8516 109.906 40.6641C111.094 39.4766 111.688 37.8047 111.688 35.6484V33.4688C109.953 35.4688 107.586 36.4688 104.586 36.4688C101.617 36.4688 99.2109 35.2734 97.3672 32.8828C95.5391 30.4922 94.625 27.2344 94.625 23.1094ZM98.9844 23.6016C98.9844 26.4609 99.5703 28.7109 100.742 30.3516C101.914 31.9766 103.555 32.7891 105.664 32.7891C108.398 32.7891 110.406 31.5469 111.688 29.0625V17.4844C110.359 15.0625 108.367 13.8516 105.711 13.8516C103.602 13.8516 101.953 14.6719 100.766 16.3125C99.5781 17.9531 98.9844 20.3828 98.9844 23.6016ZM126.711 10.6406L126.852 13.8281C128.789 11.3906 131.32 10.1719 134.445 10.1719C139.805 10.1719 142.508 13.1953 142.555 19.2422V36H138.219V19.2188C138.203 17.3906 137.781 16.0391 136.953 15.1641C136.141 14.2891 134.867 13.8516 133.133 13.8516C131.727 13.8516 130.492 14.2266 129.43 14.9766C128.367 15.7266 127.539 16.7109 126.945 17.9297V36H122.609V10.6406H126.711ZM166.883 4.5V10.6406H171.617V13.9922H166.883V29.7188C166.883 30.7344 167.094 31.5 167.516 32.0156C167.938 32.5156 168.656 32.7656 169.672 32.7656C170.172 32.7656 170.859 32.6719 171.734 32.4844V36C170.594 36.3125 169.484 36.4688 168.406 36.4688C166.469 36.4688 165.008 35.8828 164.023 34.7109C163.039 33.5391 162.547 31.875 162.547 29.7188V13.9922H157.93V10.6406H162.547V4.5H166.883ZM181.039 13.7109C182.961 11.3516 185.461 10.1719 188.539 10.1719C193.898 10.1719 196.602 13.1953 196.648 19.2422V36H192.312V19.2188C192.297 17.3906 191.875 16.0391 191.047 15.1641C190.234 14.2891 188.961 13.8516 187.227 13.8516C185.82 13.8516 184.586 14.2266 183.523 14.9766C182.461 15.7266 181.633 16.7109 181.039 17.9297V36H176.703V0H181.039V13.7109ZM218.797 36C218.547 35.5 218.344 34.6094 218.188 33.3281C216.172 35.4219 213.766 36.4688 210.969 36.4688C208.469 36.4688 206.414 35.7656 204.805 34.3594C203.211 32.9375 202.414 31.1406 202.414 28.9688C202.414 26.3281 203.414 24.2812 205.414 22.8281C207.43 21.3594 210.258 20.625 213.898 20.625H218.117V18.6328C218.117 17.1172 217.664 15.9141 216.758 15.0234C215.852 14.1172 214.516 13.6641 212.75 13.6641C211.203 13.6641 209.906 14.0547 208.859 14.8359C207.812 15.6172 207.289 16.5625 207.289 17.6719H202.93C202.93 16.4062 203.375 15.1875 204.266 14.0156C205.172 12.8281 206.391 11.8906 207.922 11.2031C209.469 10.5156 211.164 10.1719 213.008 10.1719C215.93 10.1719 218.219 10.9062 219.875 12.375C221.531 13.8281 222.391 15.8359 222.453 18.3984V30.0703C222.453 32.3984 222.75 34.25 223.344 35.625V36H218.797ZM211.602 32.6953C212.961 32.6953 214.25 32.3438 215.469 31.6406C216.688 30.9375 217.57 30.0234 218.117 28.8984V23.6953H214.719C209.406 23.6953 206.75 25.25 206.75 28.3594C206.75 29.7188 207.203 30.7812 208.109 31.5469C209.016 32.3125 210.18 32.6953 211.602 32.6953ZM235.133 4.5V10.6406H239.867V13.9922H235.133V29.7188C235.133 30.7344 235.344 31.5 235.766 32.0156C236.188 32.5156 236.906 32.7656 237.922 32.7656C238.422 32.7656 239.109 32.6719 239.984 32.4844V36C238.844 36.3125 237.734 36.4688 236.656 36.4688C234.719 36.4688 233.258 35.8828 232.273 34.7109C231.289 33.5391 230.797 31.875 230.797 29.7188V13.9922H226.18V10.6406H230.797V4.5H235.133ZM6.99219 94H2.65625V68.6406H6.99219V94ZM2.30469 61.9141C2.30469 61.2109 2.51562 60.6172 2.9375 60.1328C3.375 59.6484 4.01562 59.4062 4.85938 59.4062C5.70312 59.4062 6.34375 59.6484 6.78125 60.1328C7.21875 60.6172 7.4375 61.2109 7.4375 61.9141C7.4375 62.6172 7.21875 63.2031 6.78125 63.6719C6.34375 64.1406 5.70312 64.375 4.85938 64.375C4.01562 64.375 3.375 64.1406 2.9375 63.6719C2.51562 63.2031 2.30469 62.6172 2.30469 61.9141ZM18.0547 68.6406L18.1953 71.8281C20.1328 69.3906 22.6641 68.1719 25.7891 68.1719C31.1484 68.1719 33.8516 71.1953 33.8984 77.2422V94H29.5625V77.2188C29.5469 75.3906 29.125 74.0391 28.2969 73.1641C27.4844 72.2891 26.2109 71.8516 24.4766 71.8516C23.0703 71.8516 21.8359 72.2266 20.7734 72.9766C19.7109 73.7266 18.8828 74.7109 18.2891 75.9297V94H13.9531V68.6406H18.0547ZM55.2031 87.2734C55.2031 86.1016 54.7578 85.1953 53.8672 84.5547C52.9922 83.8984 51.4531 83.3359 49.25 82.8672C47.0625 82.3984 45.3203 81.8359 44.0234 81.1797C42.7422 80.5234 41.7891 79.7422 41.1641 78.8359C40.5547 77.9297 40.25 76.8516 40.25 75.6016C40.25 73.5234 41.125 71.7656 42.875 70.3281C44.6406 68.8906 46.8906 68.1719 49.625 68.1719C52.5 68.1719 54.8281 68.9141 56.6094 70.3984C58.4062 71.8828 59.3047 73.7812 59.3047 76.0938H54.9453C54.9453 74.9062 54.4375 73.8828 53.4219 73.0234C52.4219 72.1641 51.1562 71.7344 49.625 71.7344C48.0469 71.7344 46.8125 72.0781 45.9219 72.7656C45.0312 73.4531 44.5859 74.3516 44.5859 75.4609C44.5859 76.5078 45 77.2969 45.8281 77.8281C46.6562 78.3594 48.1484 78.8672 50.3047 79.3516C52.4766 79.8359 54.2344 80.4141 55.5781 81.0859C56.9219 81.7578 57.9141 82.5703 58.5547 83.5234C59.2109 84.4609 59.5391 85.6094 59.5391 86.9688C59.5391 89.2344 58.6328 91.0547 56.8203 92.4297C55.0078 93.7891 52.6562 94.4688 49.7656 94.4688C47.7344 94.4688 45.9375 94.1094 44.375 93.3906C42.8125 92.6719 41.5859 91.6719 40.6953 90.3906C39.8203 89.0938 39.3828 87.6953 39.3828 86.1953H43.7188C43.7969 87.6484 44.375 88.8047 45.4531 89.6641C46.5469 90.5078 47.9844 90.9297 49.7656 90.9297C51.4062 90.9297 52.7188 90.6016 53.7031 89.9453C54.7031 89.2734 55.2031 88.3828 55.2031 87.2734ZM86.6094 81.6016C86.6094 85.4609 85.7266 88.5703 83.9609 90.9297C82.1953 93.2891 79.8047 94.4688 76.7891 94.4688C73.7109 94.4688 71.2891 93.4922 69.5234 91.5391V103.75H65.1875V68.6406H69.1484L69.3594 71.4531C71.125 69.2656 73.5781 68.1719 76.7188 68.1719C79.7656 68.1719 82.1719 69.3203 83.9375 71.6172C85.7188 73.9141 86.6094 77.1094 86.6094 81.2031V81.6016ZM82.2734 81.1094C82.2734 78.25 81.6641 75.9922 80.4453 74.3359C79.2266 72.6797 77.5547 71.8516 75.4297 71.8516C72.8047 71.8516 70.8359 73.0156 69.5234 75.3438V87.4609C70.8203 89.7734 72.8047 90.9297 75.4766 90.9297C77.5547 90.9297 79.2031 90.1094 80.4219 88.4688C81.6562 86.8125 82.2734 84.3594 82.2734 81.1094ZM96.8516 94H92.5156V68.6406H96.8516V94ZM92.1641 61.9141C92.1641 61.2109 92.375 60.6172 92.7969 60.1328C93.2344 59.6484 93.875 59.4062 94.7188 59.4062C95.5625 59.4062 96.2031 59.6484 96.6406 60.1328C97.0781 60.6172 97.2969 61.2109 97.2969 61.9141C97.2969 62.6172 97.0781 63.2031 96.6406 63.6719C96.2031 64.1406 95.5625 64.375 94.7188 64.375C93.875 64.375 93.2344 64.1406 92.7969 63.6719C92.375 63.2031 92.1641 62.6172 92.1641 61.9141ZM116.07 72.5312C115.414 72.4219 114.703 72.3672 113.938 72.3672C111.094 72.3672 109.164 73.5781 108.148 76V94H103.812V68.6406H108.031L108.102 71.5703C109.523 69.3047 111.539 68.1719 114.148 68.1719C114.992 68.1719 115.633 68.2812 116.07 68.5V72.5312ZM130.133 94.4688C126.695 94.4688 123.898 93.3438 121.742 91.0938C119.586 88.8281 118.508 85.8047 118.508 82.0234V81.2266C118.508 78.7109 118.984 76.4688 119.938 74.5C120.906 72.5156 122.25 70.9688 123.969 69.8594C125.703 68.7344 127.578 68.1719 129.594 68.1719C132.891 68.1719 135.453 69.2578 137.281 71.4297C139.109 73.6016 140.023 76.7109 140.023 80.7578V82.5625H122.844C122.906 85.0625 123.633 87.0859 125.023 88.6328C126.43 90.1641 128.211 90.9297 130.367 90.9297C131.898 90.9297 133.195 90.6172 134.258 89.9922C135.32 89.3672 136.25 88.5391 137.047 87.5078L139.695 89.5703C137.57 92.8359 134.383 94.4688 130.133 94.4688ZM129.594 71.7344C127.844 71.7344 126.375 72.375 125.188 73.6562C124 74.9219 123.266 76.7031 122.984 79H135.688V78.6719C135.562 76.4688 134.969 74.7656 133.906 73.5625C132.844 72.3438 131.406 71.7344 129.594 71.7344ZM159.828 87.2734C159.828 86.1016 159.383 85.1953 158.492 84.5547C157.617 83.8984 156.078 83.3359 153.875 82.8672C151.688 82.3984 149.945 81.8359 148.648 81.1797C147.367 80.5234 146.414 79.7422 145.789 78.8359C145.18 77.9297 144.875 76.8516 144.875 75.6016C144.875 73.5234 145.75 71.7656 147.5 70.3281C149.266 68.8906 151.516 68.1719 154.25 68.1719C157.125 68.1719 159.453 68.9141 161.234 70.3984C163.031 71.8828 163.93 73.7812 163.93 76.0938H159.57C159.57 74.9062 159.062 73.8828 158.047 73.0234C157.047 72.1641 155.781 71.7344 154.25 71.7344C152.672 71.7344 151.438 72.0781 150.547 72.7656C149.656 73.4531 149.211 74.3516 149.211 75.4609C149.211 76.5078 149.625 77.2969 150.453 77.8281C151.281 78.3594 152.773 78.8672 154.93 79.3516C157.102 79.8359 158.859 80.4141 160.203 81.0859C161.547 81.7578 162.539 82.5703 163.18 83.5234C163.836 84.4609 164.164 85.6094 164.164 86.9688C164.164 89.2344 163.258 91.0547 161.445 92.4297C159.633 93.7891 157.281 94.4688 154.391 94.4688C152.359 94.4688 150.562 94.1094 149 93.3906C147.438 92.6719 146.211 91.6719 145.32 90.3906C144.445 89.0938 144.008 87.6953 144.008 86.1953H148.344C148.422 87.6484 149 88.8047 150.078 89.6641C151.172 90.5078 152.609 90.9297 154.391 90.9297C156.031 90.9297 157.344 90.6016 158.328 89.9453C159.328 89.2734 159.828 88.3828 159.828 87.2734ZM197.375 94C197.125 93.5 196.922 92.6094 196.766 91.3281C194.75 93.4219 192.344 94.4688 189.547 94.4688C187.047 94.4688 184.992 93.7656 183.383 92.3594C181.789 90.9375 180.992 89.1406 180.992 86.9688C180.992 84.3281 181.992 82.2812 183.992 80.8281C186.008 79.3594 188.836 78.625 192.477 78.625H196.695V76.6328C196.695 75.1172 196.242 73.9141 195.336 73.0234C194.43 72.1172 193.094 71.6641 191.328 71.6641C189.781 71.6641 188.484 72.0547 187.438 72.8359C186.391 73.6172 185.867 74.5625 185.867 75.6719H181.508C181.508 74.4062 181.953 73.1875 182.844 72.0156C183.75 70.8281 184.969 69.8906 186.5 69.2031C188.047 68.5156 189.742 68.1719 191.586 68.1719C194.508 68.1719 196.797 68.9062 198.453 70.375C200.109 71.8281 200.969 73.8359 201.031 76.3984V88.0703C201.031 90.3984 201.328 92.25 201.922 93.625V94H197.375ZM190.18 90.6953C191.539 90.6953 192.828 90.3438 194.047 89.6406C195.266 88.9375 196.148 88.0234 196.695 86.8984V81.6953H193.297C187.984 81.6953 185.328 83.25 185.328 86.3594C185.328 87.7188 185.781 88.7812 186.688 89.5469C187.594 90.3125 188.758 90.6953 190.18 90.6953ZM241.203 81.6016C241.203 85.4766 240.312 88.5938 238.531 90.9531C236.75 93.2969 234.359 94.4688 231.359 94.4688C228.156 94.4688 225.68 93.3359 223.93 91.0703L223.719 94H219.734V58H224.07V71.4297C225.82 69.2578 228.234 68.1719 231.312 68.1719C234.391 68.1719 236.805 69.3359 238.555 71.6641C240.32 73.9922 241.203 77.1797 241.203 81.2266V81.6016ZM236.867 81.1094C236.867 78.1562 236.297 75.875 235.156 74.2656C234.016 72.6562 232.375 71.8516 230.234 71.8516C227.375 71.8516 225.32 73.1797 224.07 75.8359V86.8047C225.398 89.4609 227.469 90.7891 230.281 90.7891C232.359 90.7891 233.977 89.9844 235.133 88.375C236.289 86.7656 236.867 84.3438 236.867 81.1094ZM257.211 94.4688C253.773 94.4688 250.977 93.3438 248.82 91.0938C246.664 88.8281 245.586 85.8047 245.586 82.0234V81.2266C245.586 78.7109 246.062 76.4688 247.016 74.5C247.984 72.5156 249.328 70.9688 251.047 69.8594C252.781 68.7344 254.656 68.1719 256.672 68.1719C259.969 68.1719 262.531 69.2578 264.359 71.4297C266.188 73.6016 267.102 76.7109 267.102 80.7578V82.5625H249.922C249.984 85.0625 250.711 87.0859 252.102 88.6328C253.508 90.1641 255.289 90.9297 257.445 90.9297C258.977 90.9297 260.273 90.6172 261.336 89.9922C262.398 89.3672 263.328 88.5391 264.125 87.5078L266.773 89.5703C264.648 92.8359 261.461 94.4688 257.211 94.4688ZM256.672 71.7344C254.922 71.7344 253.453 72.375 252.266 73.6562C251.078 74.9219 250.344 76.7031 250.062 79H262.766V78.6719C262.641 76.4688 262.047 74.7656 260.984 73.5625C259.922 72.3438 258.484 71.7344 256.672 71.7344ZM278.023 62.5V68.6406H282.758V71.9922H278.023V87.7188C278.023 88.7344 278.234 89.5 278.656 90.0156C279.078 90.5156 279.797 90.7656 280.812 90.7656C281.312 90.7656 282 90.6719 282.875 90.4844V94C281.734 94.3125 280.625 94.4688 279.547 94.4688C277.609 94.4688 276.148 93.8828 275.164 92.7109C274.18 91.5391 273.688 89.875 273.688 87.7188V71.9922H269.07V68.6406H273.688V62.5H278.023ZM293.727 62.5V68.6406H298.461V71.9922H293.727V87.7188C293.727 88.7344 293.938 89.5 294.359 90.0156C294.781 90.5156 295.5 90.7656 296.516 90.7656C297.016 90.7656 297.703 90.6719 298.578 90.4844V94C297.438 94.3125 296.328 94.4688 295.25 94.4688C293.312 94.4688 291.852 93.8828 290.867 92.7109C289.883 91.5391 289.391 89.875 289.391 87.7188V71.9922H284.773V68.6406H289.391V62.5H293.727ZM314.07 94.4688C310.633 94.4688 307.836 93.3438 305.68 91.0938C303.523 88.8281 302.445 85.8047 302.445 82.0234V81.2266C302.445 78.7109 302.922 76.4688 303.875 74.5C304.844 72.5156 306.188 70.9688 307.906 69.8594C309.641 68.7344 311.516 68.1719 313.531 68.1719C316.828 68.1719 319.391 69.2578 321.219 71.4297C323.047 73.6016 323.961 76.7109 323.961 80.7578V82.5625H306.781C306.844 85.0625 307.57 87.0859 308.961 88.6328C310.367 90.1641 312.148 90.9297 314.305 90.9297C315.836 90.9297 317.133 90.6172 318.195 89.9922C319.258 89.3672 320.188 88.5391 320.984 87.5078L323.633 89.5703C321.508 92.8359 318.32 94.4688 314.07 94.4688ZM313.531 71.7344C311.781 71.7344 310.312 72.375 309.125 73.6562C307.938 74.9219 307.203 76.7031 306.922 79H319.625V78.6719C319.5 76.4688 318.906 74.7656 317.844 73.5625C316.781 72.3438 315.344 71.7344 313.531 71.7344ZM341.258 72.5312C340.602 72.4219 339.891 72.3672 339.125 72.3672C336.281 72.3672 334.352 73.5781 333.336 76V94H329V68.6406H333.219L333.289 71.5703C334.711 69.3047 336.727 68.1719 339.336 68.1719C340.18 68.1719 340.82 68.2812 341.258 68.5V72.5312ZM24.7344 146.023L29.6094 126.641H33.9453L26.5625 152H23.0469L16.8828 132.781L10.8828 152H7.36719L0.0078125 126.641H4.32031L9.3125 145.625L15.2188 126.641H18.7109L24.7344 146.023ZM54.0312 152C53.7812 151.5 53.5781 150.609 53.4219 149.328C51.4062 151.422 49 152.469 46.2031 152.469C43.7031 152.469 41.6484 151.766 40.0391 150.359C38.4453 148.938 37.6484 147.141 37.6484 144.969C37.6484 142.328 38.6484 140.281 40.6484 138.828C42.6641 137.359 45.4922 136.625 49.1328 136.625H53.3516V134.633C53.3516 133.117 52.8984 131.914 51.9922 131.023C51.0859 130.117 49.75 129.664 47.9844 129.664C46.4375 129.664 45.1406 130.055 44.0938 130.836C43.0469 131.617 42.5234 132.562 42.5234 133.672H38.1641C38.1641 132.406 38.6094 131.188 39.5 130.016C40.4062 128.828 41.625 127.891 43.1562 127.203C44.7031 126.516 46.3984 126.172 48.2422 126.172C51.1641 126.172 53.4531 126.906 55.1094 128.375C56.7656 129.828 57.625 131.836 57.6875 134.398V146.07C57.6875 148.398 57.9844 150.25 58.5781 151.625V152H54.0312ZM46.8359 148.695C48.1953 148.695 49.4844 148.344 50.7031 147.641C51.9219 146.938 52.8047 146.023 53.3516 144.898V139.695H49.9531C44.6406 139.695 41.9844 141.25 41.9844 144.359C41.9844 145.719 42.4375 146.781 43.3438 147.547C44.25 148.312 45.4141 148.695 46.8359 148.695ZM72.4062 145.648L78.3125 126.641H82.9531L72.7578 155.914C71.1797 160.133 68.6719 162.242 65.2344 162.242L64.4141 162.172L62.7969 161.867V158.352L63.9688 158.445C65.4375 158.445 66.5781 158.148 67.3906 157.555C68.2188 156.961 68.8984 155.875 69.4297 154.297L70.3906 151.719L61.3438 126.641H66.0781L72.4062 145.648ZM104.633 120.5V126.641H109.367V129.992H104.633V145.719C104.633 146.734 104.844 147.5 105.266 148.016C105.688 148.516 106.406 148.766 107.422 148.766C107.922 148.766 108.609 148.672 109.484 148.484V152C108.344 152.312 107.234 152.469 106.156 152.469C104.219 152.469 102.758 151.883 101.773 150.711C100.789 149.539 100.297 147.875 100.297 145.719V129.992H95.6797V126.641H100.297V120.5H104.633ZM112.836 139.086C112.836 136.602 113.32 134.367 114.289 132.383C115.273 130.398 116.633 128.867 118.367 127.789C120.117 126.711 122.109 126.172 124.344 126.172C127.797 126.172 130.586 127.367 132.711 129.758C134.852 132.148 135.922 135.328 135.922 139.297V139.602C135.922 142.07 135.445 144.289 134.492 146.258C133.555 148.211 132.203 149.734 130.438 150.828C128.688 151.922 126.672 152.469 124.391 152.469C120.953 152.469 118.164 151.273 116.023 148.883C113.898 146.492 112.836 143.328 112.836 139.391V139.086ZM117.195 139.602C117.195 142.414 117.844 144.672 119.141 146.375C120.453 148.078 122.203 148.93 124.391 148.93C126.594 148.93 128.344 148.07 129.641 146.352C130.938 144.617 131.586 142.195 131.586 139.086C131.586 136.305 130.922 134.055 129.594 132.336C128.281 130.602 126.531 129.734 124.344 129.734C122.203 129.734 120.477 130.586 119.164 132.289C117.852 133.992 117.195 136.43 117.195 139.602ZM175.719 146.023L180.594 126.641H184.93L177.547 152H174.031L167.867 132.781L161.867 152H158.352L150.992 126.641H155.305L160.297 145.625L166.203 126.641H169.695L175.719 146.023ZM188.211 139.086C188.211 136.602 188.695 134.367 189.664 132.383C190.648 130.398 192.008 128.867 193.742 127.789C195.492 126.711 197.484 126.172 199.719 126.172C203.172 126.172 205.961 127.367 208.086 129.758C210.227 132.148 211.297 135.328 211.297 139.297V139.602C211.297 142.07 210.82 144.289 209.867 146.258C208.93 148.211 207.578 149.734 205.812 150.828C204.062 151.922 202.047 152.469 199.766 152.469C196.328 152.469 193.539 151.273 191.398 148.883C189.273 146.492 188.211 143.328 188.211 139.391V139.086ZM192.57 139.602C192.57 142.414 193.219 144.672 194.516 146.375C195.828 148.078 197.578 148.93 199.766 148.93C201.969 148.93 203.719 148.07 205.016 146.352C206.312 144.617 206.961 142.195 206.961 139.086C206.961 136.305 206.297 134.055 204.969 132.336C203.656 130.602 201.906 129.734 199.719 129.734C197.578 129.734 195.852 130.586 194.539 132.289C193.227 133.992 192.57 136.43 192.57 139.602ZM228.992 130.531C228.336 130.422 227.625 130.367 226.859 130.367C224.016 130.367 222.086 131.578 221.07 134V152H216.734V126.641H220.953L221.023 129.57C222.445 127.305 224.461 126.172 227.07 126.172C227.914 126.172 228.555 126.281 228.992 126.5V130.531ZM240.078 140.258L237.359 143.094V152H233.023V116H237.359V137.773L239.68 134.984L247.578 126.641H252.852L242.984 137.234L254 152H248.914L240.078 140.258ZM257.422 149.727C257.422 148.977 257.641 148.352 258.078 147.852C258.531 147.352 259.203 147.102 260.094 147.102C260.984 147.102 261.656 147.352 262.109 147.852C262.578 148.352 262.812 148.977 262.812 149.727C262.812 150.445 262.578 151.047 262.109 151.531C261.656 152.016 260.984 152.258 260.094 152.258C259.203 152.258 258.531 152.016 258.078 151.531C257.641 151.047 257.422 150.445 257.422 149.727Z" fill="#1A1A1A"/>
</svg>
