<svg width="169" height="13" viewBox="0 0 169 13" fill="none" xmlns="http://www.w3.org/2000/svg">
<path d="M4.49219 7.39844H1.82031V12H0.3125V0.625H4.07812C5.35938 0.625 6.34375 0.916667 7.03125 1.5C7.72396 2.08333 8.07031 2.93229 8.07031 4.04688C8.07031 4.75521 7.8776 5.3724 7.49219 5.89844C7.11198 6.42448 6.58073 6.81771 5.89844 7.07812L8.57031 11.9062V12H6.96094L4.49219 7.39844ZM1.82031 6.17188H4.125C4.86979 6.17188 5.46094 5.97917 5.89844 5.59375C6.34115 5.20833 6.5625 4.69271 6.5625 4.04688C6.5625 3.34375 6.35156 2.80469 5.92969 2.42969C5.51302 2.05469 4.90885 1.86458 4.11719 1.85938H1.82031V6.17188ZM17.3594 6.74219H12.4297V10.7734H18.1562V12H10.9297V0.625H18.0781V1.85938H12.4297V5.51562H17.3594V6.74219ZM27.0547 9.03125H22.2891L21.2188 12H19.6719L24.0156 0.625H25.3281L29.6797 12H28.1406L27.0547 9.03125ZM22.7422 7.79688H26.6094L24.6719 2.47656L22.7422 7.79688ZM31.9609 12V0.625H35.1719C36.1615 0.625 37.0365 0.84375 37.7969 1.28125C38.5573 1.71875 39.1432 2.34115 39.5547 3.14844C39.9714 3.95573 40.1823 4.88281 40.1875 5.92969V6.65625C40.1875 7.72917 39.9792 8.66927 39.5625 9.47656C39.151 10.2839 38.5599 10.9036 37.7891 11.3359C37.0234 11.7682 36.1302 11.9896 35.1094 12H31.9609ZM33.4609 1.85938V10.7734H35.0391C36.1953 10.7734 37.0938 10.4141 37.7344 9.69531C38.3802 8.97656 38.7031 7.95312 38.7031 6.625V5.96094C38.7031 4.66927 38.3984 3.66667 37.7891 2.95312C37.1849 2.23438 36.3255 1.86979 35.2109 1.85938H33.4609ZM49.8672 0.625L53.5859 9.90625L57.3047 0.625H59.25V12H57.75V7.57031L57.8906 2.78906L54.1562 12H53.0078L49.2812 2.8125L49.4297 7.57031V12H47.9297V0.625H49.8672ZM71.3984 6.67969C71.3984 7.79427 71.2109 8.76823 70.8359 9.60156C70.4609 10.4297 69.9297 11.0625 69.2422 11.5C68.5547 11.9375 67.7526 12.1562 66.8359 12.1562C65.9401 12.1562 65.1458 11.9375 64.4531 11.5C63.7604 11.0573 63.2214 10.4297 62.8359 9.61719C62.4557 8.79948 62.2604 7.85417 62.25 6.78125V5.96094C62.25 4.86719 62.4401 3.90104 62.8203 3.0625C63.2005 2.22396 63.737 1.58333 64.4297 1.14062C65.1276 0.692708 65.9245 0.46875 66.8203 0.46875C67.7318 0.46875 68.5339 0.690104 69.2266 1.13281C69.9245 1.57031 70.4609 2.20833 70.8359 3.04688C71.2109 3.88021 71.3984 4.85156 71.3984 5.96094V6.67969ZM69.9062 5.94531C69.9062 4.59635 69.6354 3.5625 69.0938 2.84375C68.5521 2.11979 67.7943 1.75781 66.8203 1.75781C65.8724 1.75781 65.125 2.11979 64.5781 2.84375C64.0365 3.5625 63.7578 4.5625 63.7422 5.84375V6.67969C63.7422 7.98698 64.0156 9.01562 64.5625 9.76562C65.1146 10.5104 65.8724 10.8828 66.8359 10.8828C67.8047 10.8828 68.5547 10.5312 69.0859 9.82812C69.6172 9.11979 69.8906 8.10677 69.9062 6.78906V5.94531ZM78.5703 7.39844H75.8984V12H74.3906V0.625H78.1562C79.4375 0.625 80.4219 0.916667 81.1094 1.5C81.8021 2.08333 82.1484 2.93229 82.1484 4.04688C82.1484 4.75521 81.9557 5.3724 81.5703 5.89844C81.1901 6.42448 80.6589 6.81771 79.9766 7.07812L82.6484 11.9062V12H81.0391L78.5703 7.39844ZM75.8984 6.17188H78.2031C78.9479 6.17188 79.5391 5.97917 79.9766 5.59375C80.4193 5.20833 80.6406 4.69271 80.6406 4.04688C80.6406 3.34375 80.4297 2.80469 80.0078 2.42969C79.5911 2.05469 78.987 1.86458 78.1953 1.85938H75.8984V6.17188ZM91.4375 6.74219H86.5078V10.7734H92.2344V12H85.0078V0.625H92.1562V1.85938H86.5078V5.51562H91.4375V6.74219ZM103.742 7.39844H101.07V12H99.5625V0.625H103.328C104.609 0.625 105.594 0.916667 106.281 1.5C106.974 2.08333 107.32 2.93229 107.32 4.04688C107.32 4.75521 107.128 5.3724 106.742 5.89844C106.362 6.42448 105.831 6.81771 105.148 7.07812L107.82 11.9062V12H106.211L103.742 7.39844ZM101.07 6.17188H103.375C104.12 6.17188 104.711 5.97917 105.148 5.59375C105.591 5.20833 105.812 4.69271 105.812 4.04688C105.812 3.34375 105.602 2.80469 105.18 2.42969C104.763 2.05469 104.159 1.86458 103.367 1.85938H101.07V6.17188ZM116.609 6.74219H111.68V10.7734H117.406V12H110.18V0.625H117.328V1.85938H111.68V5.51562H116.609V6.74219ZM123.789 10.0078L127.039 0.625H128.68L124.461 12H123.133L118.922 0.625H120.555L123.789 10.0078ZM132.57 12H131.07V0.625H132.57V12ZM142.5 6.74219H137.57V10.7734H143.297V12H136.07V0.625H143.219V1.85938H137.57V5.51562H142.5V6.74219ZM148.367 8.41406L148.586 9.91406L148.906 8.5625L151.156 0.625H152.422L154.617 8.5625L154.93 9.9375L155.172 8.40625L156.938 0.625H158.445L155.688 12H154.32L151.977 3.71094L151.797 2.84375L151.617 3.71094L149.188 12H147.82L145.07 0.625H146.57L148.367 8.41406ZM164.219 6.92969C162.932 6.5599 161.995 6.10677 161.406 5.57031C160.823 5.02865 160.531 4.36198 160.531 3.57031C160.531 2.67448 160.888 1.9349 161.602 1.35156C162.32 0.763021 163.253 0.46875 164.398 0.46875C165.18 0.46875 165.875 0.619792 166.484 0.921875C167.099 1.22396 167.573 1.64062 167.906 2.17188C168.245 2.70312 168.414 3.28385 168.414 3.91406H166.906C166.906 3.22656 166.688 2.6875 166.25 2.29688C165.812 1.90104 165.195 1.70312 164.398 1.70312C163.659 1.70312 163.081 1.86719 162.664 2.19531C162.253 2.51823 162.047 2.96875 162.047 3.54688C162.047 4.01042 162.242 4.40365 162.633 4.72656C163.029 5.04427 163.698 5.33594 164.641 5.60156C165.589 5.86719 166.328 6.16146 166.859 6.48438C167.396 6.80208 167.792 7.17448 168.047 7.60156C168.307 8.02865 168.438 8.53125 168.438 9.10938C168.438 10.0312 168.078 10.7708 167.359 11.3281C166.641 11.8802 165.68 12.1562 164.477 12.1562C163.695 12.1562 162.966 12.0078 162.289 11.7109C161.612 11.4089 161.089 10.9974 160.719 10.4766C160.354 9.95573 160.172 9.36458 160.172 8.70312H161.68C161.68 9.39062 161.932 9.9349 162.438 10.3359C162.948 10.7318 163.628 10.9297 164.477 10.9297C165.268 10.9297 165.875 10.7682 166.297 10.4453C166.719 10.1224 166.93 9.68229 166.93 9.125C166.93 8.56771 166.734 8.13802 166.344 7.83594C165.953 7.52865 165.245 7.22656 164.219 6.92969Z" fill="white"/>
</svg>
