<svg width="877" height="253" viewBox="0 0 877 253" fill="none" xmlns="http://www.w3.org/2000/svg">
<path d="M9.84863 24.6904L10.4775 29.0029L11.3984 25.1172L17.8672 2.29688H21.5059L27.8174 25.1172L28.7158 29.0703L29.4121 24.668L34.4883 2.29688H38.8232L30.8945 35H26.9639L20.2256 11.1689L19.709 8.67578L19.1924 11.1689L12.207 35H8.27637L0.370117 2.29688H4.68262L9.84863 24.6904ZM52.3447 35.4492C49.0505 35.4492 46.3701 34.3711 44.3037 32.2148C42.2373 30.0436 41.2041 27.1462 41.2041 23.5225V22.7588C41.2041 20.348 41.6608 18.1992 42.5742 16.3125C43.5026 14.4108 44.7904 12.9284 46.4375 11.8652C48.0996 10.7871 49.8965 10.248 51.8281 10.248C54.9876 10.248 57.4434 11.2887 59.1953 13.3701C60.9473 15.4515 61.8232 18.4313 61.8232 22.3096V24.0391H45.3594C45.4193 26.4349 46.1156 28.374 47.4482 29.8564C48.7959 31.3239 50.5029 32.0576 52.5693 32.0576C54.0368 32.0576 55.2796 31.7581 56.2979 31.1592C57.3161 30.5602 58.207 29.7666 58.9707 28.7783L61.5088 30.7549C59.4723 33.8844 56.4176 35.4492 52.3447 35.4492ZM51.8281 13.6621C50.151 13.6621 48.7435 14.276 47.6055 15.5039C46.4674 16.7168 45.7637 18.4238 45.4941 20.625H57.668V20.3105C57.5482 18.1992 56.9792 16.5671 55.9609 15.4141C54.9427 14.2461 53.5651 13.6621 51.8281 13.6621ZM83.7002 4.8125V10.6973H88.2373V13.9092H83.7002V28.9805C83.7002 29.9538 83.9023 30.6875 84.3066 31.1816C84.7109 31.6608 85.3997 31.9004 86.373 31.9004C86.8522 31.9004 87.5111 31.8105 88.3496 31.6309V35C87.2565 35.2995 86.1934 35.4492 85.1602 35.4492C83.3034 35.4492 81.9033 34.8877 80.96 33.7646C80.0166 32.6416 79.5449 31.0469 79.5449 28.9805V13.9092H75.1201V10.6973H79.5449V4.8125H83.7002ZM108.115 35C107.876 34.5208 107.681 33.6673 107.531 32.4395C105.6 34.446 103.294 35.4492 100.613 35.4492C98.2174 35.4492 96.2484 34.7754 94.7061 33.4277C93.1787 32.0651 92.415 30.3431 92.415 28.2617C92.415 25.7311 93.3734 23.7695 95.29 22.377C97.2217 20.9694 99.932 20.2656 103.421 20.2656H107.464V18.3564C107.464 16.904 107.03 15.751 106.161 14.8975C105.293 14.029 104.012 13.5947 102.32 13.5947C100.838 13.5947 99.5951 13.9691 98.5918 14.7178C97.5885 15.4665 97.0869 16.3724 97.0869 17.4355H92.9092C92.9092 16.2227 93.3359 15.0547 94.1895 13.9316C95.0579 12.7936 96.2259 11.8952 97.6934 11.2363C99.1758 10.5775 100.8 10.248 102.567 10.248C105.368 10.248 107.561 10.9518 109.148 12.3594C110.736 13.752 111.559 15.6761 111.619 18.1318V29.3174C111.619 31.5485 111.904 33.3229 112.473 34.6406V35H108.115ZM101.22 31.833C102.522 31.833 103.758 31.4961 104.926 30.8223C106.094 30.1484 106.94 29.2725 107.464 28.1943V23.208H104.207C99.1159 23.208 96.5703 24.6979 96.5703 27.6777C96.5703 28.9805 97.0046 29.9987 97.873 30.7324C98.7415 31.4661 99.8571 31.833 101.22 31.833ZM124.916 23.7471L122.311 26.4648V35H118.155V0.5H122.311V21.3662L124.534 18.6934L132.104 10.6973H137.157L127.701 20.8496L138.258 35H133.384L124.916 23.7471ZM151.083 35.4492C147.789 35.4492 145.108 34.3711 143.042 32.2148C140.976 30.0436 139.942 27.1462 139.942 23.5225V22.7588C139.942 20.348 140.399 18.1992 141.312 16.3125C142.241 14.4108 143.529 12.9284 145.176 11.8652C146.838 10.7871 148.635 10.248 150.566 10.248C153.726 10.248 156.182 11.2887 157.934 13.3701C159.686 15.4515 160.562 18.4313 160.562 22.3096V24.0391H144.098C144.158 26.4349 144.854 28.374 146.187 29.8564C147.534 31.3239 149.241 32.0576 151.308 32.0576C152.775 32.0576 154.018 31.7581 155.036 31.1592C156.054 30.5602 156.945 29.7666 157.709 28.7783L160.247 30.7549C158.211 33.8844 155.156 35.4492 151.083 35.4492ZM150.566 13.6621C148.889 13.6621 147.482 14.276 146.344 15.5039C145.206 16.7168 144.502 18.4238 144.232 20.625H156.406V20.3105C156.286 18.1992 155.717 16.5671 154.699 15.4141C153.681 14.2461 152.303 13.6621 150.566 13.6621ZM191.805 35C191.565 34.5208 191.37 33.6673 191.221 32.4395C189.289 34.446 186.983 35.4492 184.303 35.4492C181.907 35.4492 179.938 34.7754 178.396 33.4277C176.868 32.0651 176.104 30.3431 176.104 28.2617C176.104 25.7311 177.063 23.7695 178.979 22.377C180.911 20.9694 183.621 20.2656 187.11 20.2656H191.153V18.3564C191.153 16.904 190.719 15.751 189.851 14.8975C188.982 14.029 187.702 13.5947 186.01 13.5947C184.527 13.5947 183.285 13.9691 182.281 14.7178C181.278 15.4665 180.776 16.3724 180.776 17.4355H176.599C176.599 16.2227 177.025 15.0547 177.879 13.9316C178.747 12.7936 179.915 11.8952 181.383 11.2363C182.865 10.5775 184.49 10.248 186.257 10.248C189.057 10.248 191.251 10.9518 192.838 12.3594C194.425 13.752 195.249 15.6761 195.309 18.1318V29.3174C195.309 31.5485 195.593 33.3229 196.162 34.6406V35H191.805ZM184.909 31.833C186.212 31.833 187.447 31.4961 188.615 30.8223C189.783 30.1484 190.629 29.2725 191.153 28.1943V23.208H187.896C182.805 23.208 180.26 24.6979 180.26 27.6777C180.26 28.9805 180.694 29.9987 181.562 30.7324C182.431 31.4661 183.547 31.833 184.909 31.833ZM217.388 13.6396C219.229 11.3786 221.625 10.248 224.575 10.248C229.711 10.248 232.302 13.1455 232.347 18.9404V35H228.191V18.918C228.176 17.166 227.772 15.8708 226.979 15.0322C226.2 14.1937 224.979 13.7744 223.317 13.7744C221.97 13.7744 220.787 14.1338 219.769 14.8525C218.75 15.5713 217.957 16.5146 217.388 17.6826V35H213.232V0.5H217.388V13.6396ZM253.572 32.5967C251.955 34.4984 249.582 35.4492 246.452 35.4492C243.862 35.4492 241.885 34.7005 240.522 33.2031C239.175 31.6908 238.493 29.4596 238.479 26.5098V10.6973H242.634V26.3975C242.634 30.0811 244.131 31.9229 247.126 31.9229C250.3 31.9229 252.412 30.7399 253.46 28.374V10.6973H257.615V35H253.662L253.572 32.5967ZM267.857 10.6973L267.97 13.3926C269.752 11.2962 272.155 10.248 275.18 10.248C278.579 10.248 280.892 11.5508 282.12 14.1562C282.929 12.9883 283.977 12.0449 285.265 11.3262C286.567 10.6074 288.102 10.248 289.869 10.248C295.2 10.248 297.91 13.0706 298 18.7158V35H293.845V18.9629C293.845 17.2259 293.448 15.9307 292.654 15.0771C291.861 14.2087 290.528 13.7744 288.656 13.7744C287.114 13.7744 285.834 14.2386 284.815 15.167C283.797 16.0804 283.206 17.3158 283.041 18.873V35H278.863V19.0752C278.863 15.5413 277.134 13.7744 273.675 13.7744C270.95 13.7744 269.085 14.9349 268.082 17.2559V35H263.927V10.6973H267.857ZM319.293 35C319.053 34.5208 318.859 33.6673 318.709 32.4395C316.777 34.446 314.471 35.4492 311.791 35.4492C309.395 35.4492 307.426 34.7754 305.884 33.4277C304.356 32.0651 303.593 30.3431 303.593 28.2617C303.593 25.7311 304.551 23.7695 306.468 22.377C308.399 20.9694 311.11 20.2656 314.599 20.2656H318.642V18.3564C318.642 16.904 318.207 15.751 317.339 14.8975C316.47 14.029 315.19 13.5947 313.498 13.5947C312.016 13.5947 310.773 13.9691 309.77 14.7178C308.766 15.4665 308.265 16.3724 308.265 17.4355H304.087C304.087 16.2227 304.514 15.0547 305.367 13.9316C306.236 12.7936 307.404 11.8952 308.871 11.2363C310.354 10.5775 311.978 10.248 313.745 10.248C316.545 10.248 318.739 10.9518 320.326 12.3594C321.913 13.752 322.737 15.6761 322.797 18.1318V29.3174C322.797 31.5485 323.081 33.3229 323.65 34.6406V35H319.293ZM312.397 31.833C313.7 31.833 314.936 31.4961 316.104 30.8223C317.271 30.1484 318.118 29.2725 318.642 28.1943V23.208H315.385C310.294 23.208 307.748 24.6979 307.748 27.6777C307.748 28.9805 308.182 29.9987 309.051 30.7324C309.919 31.4661 311.035 31.833 312.397 31.833ZM333.241 10.6973L333.376 13.752C335.233 11.416 337.659 10.248 340.653 10.248C345.789 10.248 348.38 13.1455 348.425 18.9404V35H344.27V18.918C344.255 17.166 343.85 15.8708 343.057 15.0322C342.278 14.1937 341.058 13.7744 339.396 13.7744C338.048 13.7744 336.865 14.1338 335.847 14.8525C334.828 15.5713 334.035 16.5146 333.466 17.6826V35H329.311V10.6973H333.241ZM381.105 35C380.866 34.5208 380.671 33.6673 380.521 32.4395C378.59 34.446 376.284 35.4492 373.604 35.4492C371.208 35.4492 369.239 34.7754 367.696 33.4277C366.169 32.0651 365.405 30.3431 365.405 28.2617C365.405 25.7311 366.364 23.7695 368.28 22.377C370.212 20.9694 372.922 20.2656 376.411 20.2656H380.454V18.3564C380.454 16.904 380.02 15.751 379.151 14.8975C378.283 14.029 377.003 13.5947 375.311 13.5947C373.828 13.5947 372.585 13.9691 371.582 14.7178C370.579 15.4665 370.077 16.3724 370.077 17.4355H365.899C365.899 16.2227 366.326 15.0547 367.18 13.9316C368.048 12.7936 369.216 11.8952 370.684 11.2363C372.166 10.5775 373.791 10.248 375.558 10.248C378.358 10.248 380.551 10.9518 382.139 12.3594C383.726 13.752 384.549 15.6761 384.609 18.1318V29.3174C384.609 31.5485 384.894 33.3229 385.463 34.6406V35H381.105ZM374.21 31.833C375.513 31.833 376.748 31.4961 377.916 30.8223C379.084 30.1484 379.93 29.2725 380.454 28.1943V23.208H377.197C372.106 23.208 369.561 24.6979 369.561 27.6777C369.561 28.9805 369.995 29.9987 370.863 30.7324C371.732 31.4661 372.847 31.833 374.21 31.833ZM411.652 23.1182C411.652 26.8167 410.806 29.7965 409.114 32.0576C407.422 34.3187 405.131 35.4492 402.241 35.4492C399.291 35.4492 396.97 34.5133 395.278 32.6416V44.3438H391.123V10.6973H394.919L395.121 13.3926C396.813 11.2962 399.164 10.248 402.174 10.248C405.094 10.248 407.4 11.3486 409.092 13.5498C410.799 15.751 411.652 18.8132 411.652 22.7363V23.1182ZM407.497 22.6465C407.497 19.9062 406.913 17.7425 405.745 16.1553C404.577 14.568 402.975 13.7744 400.938 13.7744C398.423 13.7744 396.536 14.89 395.278 17.1211V28.7334C396.521 30.9495 398.423 32.0576 400.983 32.0576C402.975 32.0576 404.555 31.2715 405.723 29.6992C406.906 28.112 407.497 25.7611 407.497 22.6465ZM437.482 23.1182C437.482 26.8167 436.636 29.7965 434.944 32.0576C433.252 34.3187 430.961 35.4492 428.071 35.4492C425.121 35.4492 422.8 34.5133 421.108 32.6416V44.3438H416.953V10.6973H420.749L420.951 13.3926C422.643 11.2962 424.994 10.248 428.004 10.248C430.924 10.248 433.23 11.3486 434.922 13.5498C436.629 15.751 437.482 18.8132 437.482 22.7363V23.1182ZM433.327 22.6465C433.327 19.9062 432.743 17.7425 431.575 16.1553C430.407 14.568 428.805 13.7744 426.769 13.7744C424.253 13.7744 422.366 14.89 421.108 17.1211V28.7334C422.351 30.9495 424.253 32.0576 426.813 32.0576C428.805 32.0576 430.385 31.2715 431.553 29.6992C432.736 28.112 433.327 25.7611 433.327 22.6465ZM454.53 14.4258C453.901 14.321 453.22 14.2686 452.486 14.2686C449.761 14.2686 447.912 15.429 446.938 17.75V35H442.783V10.6973H446.826L446.894 13.5049C448.256 11.3337 450.188 10.248 452.688 10.248C453.497 10.248 454.111 10.3529 454.53 10.5625V14.4258ZM456.821 22.624C456.821 20.2432 457.285 18.1019 458.214 16.2002C459.157 14.2985 460.46 12.8311 462.122 11.7979C463.799 10.7646 465.708 10.248 467.85 10.248C471.159 10.248 473.832 11.3936 475.868 13.6846C477.92 15.9756 478.945 19.0228 478.945 22.8262V23.1182C478.945 25.484 478.489 27.6104 477.575 29.4971C476.677 31.3688 475.382 32.8288 473.689 33.877C472.012 34.9251 470.081 35.4492 467.895 35.4492C464.6 35.4492 461.927 34.3037 459.876 32.0127C457.84 29.7217 456.821 26.6895 456.821 22.916V22.624ZM460.999 23.1182C460.999 25.8135 461.62 27.9772 462.863 29.6094C464.121 31.2415 465.798 32.0576 467.895 32.0576C470.006 32.0576 471.683 31.234 472.926 29.5869C474.169 27.9248 474.79 25.6038 474.79 22.624C474.79 19.9587 474.154 17.8024 472.881 16.1553C471.623 14.4932 469.946 13.6621 467.85 13.6621C465.798 13.6621 464.144 14.4782 462.886 16.1104C461.628 17.7425 460.999 20.0785 460.999 23.1182ZM499.16 35C498.921 34.5208 498.726 33.6673 498.576 32.4395C496.645 34.446 494.339 35.4492 491.658 35.4492C489.262 35.4492 487.293 34.7754 485.751 33.4277C484.224 32.0651 483.46 30.3431 483.46 28.2617C483.46 25.7311 484.418 23.7695 486.335 22.377C488.267 20.9694 490.977 20.2656 494.466 20.2656H498.509V18.3564C498.509 16.904 498.075 15.751 497.206 14.8975C496.338 14.029 495.057 13.5947 493.365 13.5947C491.883 13.5947 490.64 13.9691 489.637 14.7178C488.633 15.4665 488.132 16.3724 488.132 17.4355H483.954C483.954 16.2227 484.381 15.0547 485.234 13.9316C486.103 12.7936 487.271 11.8952 488.738 11.2363C490.221 10.5775 491.845 10.248 493.612 10.248C496.412 10.248 498.606 10.9518 500.193 12.3594C501.781 13.752 502.604 15.6761 502.664 18.1318V29.3174C502.664 31.5485 502.949 33.3229 503.518 34.6406V35H499.16ZM492.265 31.833C493.567 31.833 494.803 31.4961 495.971 30.8223C497.139 30.1484 497.985 29.2725 498.509 28.1943V23.208H495.252C490.161 23.208 487.615 24.6979 487.615 27.6777C487.615 28.9805 488.049 29.9987 488.918 30.7324C489.786 31.4661 490.902 31.833 492.265 31.833ZM518.926 32.0576C520.408 32.0576 521.703 31.6084 522.812 30.71C523.92 29.8115 524.534 28.6885 524.653 27.3408H528.584C528.509 28.7334 528.03 30.0586 527.146 31.3164C526.263 32.5742 525.08 33.5775 523.598 34.3262C522.13 35.0749 520.573 35.4492 518.926 35.4492C515.617 35.4492 512.981 34.3486 511.02 32.1475C509.073 29.9313 508.1 26.9066 508.1 23.0732V22.377C508.1 20.0111 508.534 17.9072 509.402 16.0654C510.271 14.2236 511.514 12.7936 513.131 11.7754C514.763 10.7572 516.687 10.248 518.903 10.248C521.629 10.248 523.89 11.0641 525.687 12.6963C527.498 14.3285 528.464 16.4473 528.584 19.0527H524.653C524.534 17.4805 523.935 16.1927 522.856 15.1895C521.793 14.1712 520.476 13.6621 518.903 13.6621C516.792 13.6621 515.152 14.4258 513.984 15.9531C512.831 17.4655 512.255 19.6592 512.255 22.5342V23.3203C512.255 26.1204 512.831 28.2767 513.984 29.7891C515.137 31.3014 516.785 32.0576 518.926 32.0576ZM537.411 13.6396C539.253 11.3786 541.649 10.248 544.599 10.248C549.735 10.248 552.325 13.1455 552.37 18.9404V35H548.215V18.918C548.2 17.166 547.796 15.8708 547.002 15.0322C546.223 14.1937 545.003 13.7744 543.341 13.7744C541.993 13.7744 540.81 14.1338 539.792 14.8525C538.774 15.5713 537.98 16.5146 537.411 17.6826V35H533.256V0.5H537.411V13.6396ZM575.64 4.8125V10.6973H580.177V13.9092H575.64V28.9805C575.64 29.9538 575.842 30.6875 576.246 31.1816C576.65 31.6608 577.339 31.9004 578.312 31.9004C578.792 31.9004 579.451 31.8105 580.289 31.6309V35C579.196 35.2995 578.133 35.4492 577.1 35.4492C575.243 35.4492 573.843 34.8877 572.899 33.7646C571.956 32.6416 571.484 31.0469 571.484 28.9805V13.9092H567.06V10.6973H571.484V4.8125H575.64ZM583.501 22.624C583.501 20.2432 583.965 18.1019 584.894 16.2002C585.837 14.2985 587.14 12.8311 588.802 11.7979C590.479 10.7646 592.388 10.248 594.529 10.248C597.839 10.248 600.511 11.3936 602.548 13.6846C604.599 15.9756 605.625 19.0228 605.625 22.8262V23.1182C605.625 25.484 605.168 27.6104 604.255 29.4971C603.356 31.3688 602.061 32.8288 600.369 33.877C598.692 34.9251 596.76 35.4492 594.574 35.4492C591.28 35.4492 588.607 34.3037 586.556 32.0127C584.519 29.7217 583.501 26.6895 583.501 22.916V22.624ZM587.679 23.1182C587.679 25.8135 588.3 27.9772 589.543 29.6094C590.801 31.2415 592.478 32.0576 594.574 32.0576C596.686 32.0576 598.363 31.234 599.605 29.5869C600.848 27.9248 601.47 25.6038 601.47 22.624C601.47 19.9587 600.833 17.8024 599.561 16.1553C598.303 14.4932 596.626 13.6621 594.529 13.6621C592.478 13.6621 590.823 14.4782 589.565 16.1104C588.308 17.7425 587.679 20.0785 587.679 23.1182ZM637.25 35C637.01 34.5208 636.816 33.6673 636.666 32.4395C634.734 34.446 632.428 35.4492 629.748 35.4492C627.352 35.4492 625.383 34.7754 623.841 33.4277C622.313 32.0651 621.55 30.3431 621.55 28.2617C621.55 25.7311 622.508 23.7695 624.425 22.377C626.356 20.9694 629.067 20.2656 632.556 20.2656H636.599V18.3564C636.599 16.904 636.164 15.751 635.296 14.8975C634.427 14.029 633.147 13.5947 631.455 13.5947C629.973 13.5947 628.73 13.9691 627.727 14.7178C626.723 15.4665 626.222 16.3724 626.222 17.4355H622.044C622.044 16.2227 622.471 15.0547 623.324 13.9316C624.193 12.7936 625.361 11.8952 626.828 11.2363C628.311 10.5775 629.935 10.248 631.702 10.248C634.502 10.248 636.696 10.9518 638.283 12.3594C639.87 13.752 640.694 15.6761 640.754 18.1318V29.3174C640.754 31.5485 641.038 33.3229 641.607 34.6406V35H637.25ZM630.354 31.833C631.657 31.833 632.893 31.4961 634.061 30.8223C635.229 30.1484 636.075 29.2725 636.599 28.1943V23.208H633.342C628.251 23.208 625.705 24.6979 625.705 27.6777C625.705 28.9805 626.139 29.9987 627.008 30.7324C627.876 31.4661 628.992 31.833 630.354 31.833ZM22.7188 75.1182C22.7188 78.8317 21.8652 81.819 20.1582 84.0801C18.4512 86.3262 16.1602 87.4492 13.2852 87.4492C10.2155 87.4492 7.84212 86.3636 6.16504 84.1924L5.96289 87H2.14453V52.5H6.2998V65.3701C7.97689 63.2887 10.2904 62.248 13.2402 62.248C16.1901 62.248 18.5036 63.3636 20.1807 65.5947C21.8727 67.8258 22.7188 70.8805 22.7188 74.7588V75.1182ZM18.5635 74.6465C18.5635 71.8164 18.0169 69.6302 16.9238 68.0879C15.8307 66.5456 14.2585 65.7744 12.207 65.7744C9.4668 65.7744 7.49772 67.0472 6.2998 69.5928V80.1045C7.57259 82.6501 9.55664 83.9229 12.252 83.9229C14.2435 83.9229 15.7933 83.1517 16.9014 81.6094C18.0094 80.0671 18.5635 77.7461 18.5635 74.6465ZM42.9785 84.5967C41.3613 86.4984 38.988 87.4492 35.8584 87.4492C33.2679 87.4492 31.2913 86.7005 29.9287 85.2031C28.5811 83.6908 27.8997 81.4596 27.8848 78.5098V62.6973H32.04V78.3975C32.04 82.0811 33.5374 83.9229 36.5322 83.9229C39.7067 83.9229 41.818 82.7399 42.8662 80.374V62.6973H47.0215V87H43.0684L42.9785 84.5967ZM67.5059 80.5537C67.5059 79.4307 67.0791 78.5622 66.2256 77.9482C65.387 77.3193 63.9121 76.7803 61.8008 76.3311C59.7044 75.8818 58.0348 75.3428 56.792 74.7139C55.5641 74.085 54.6507 73.3363 54.0518 72.4678C53.4678 71.5993 53.1758 70.5661 53.1758 69.3682C53.1758 67.3766 54.0143 65.6921 55.6914 64.3145C57.3835 62.9368 59.5397 62.248 62.1602 62.248C64.9154 62.248 67.1465 62.9593 68.8535 64.3818C70.5755 65.8044 71.4365 67.6237 71.4365 69.8398H67.2588C67.2588 68.7018 66.7721 67.721 65.7988 66.8975C64.8405 66.0739 63.6276 65.6621 62.1602 65.6621C60.6478 65.6621 59.4648 65.9915 58.6113 66.6504C57.7578 67.3092 57.3311 68.1702 57.3311 69.2334C57.3311 70.2367 57.7279 70.9928 58.5215 71.502C59.3151 72.0111 60.7451 72.4977 62.8115 72.9619C64.8929 73.4261 66.5775 73.9801 67.8652 74.624C69.153 75.2679 70.1038 76.0465 70.7178 76.96C71.3467 77.8584 71.6611 78.959 71.6611 80.2617C71.6611 82.4329 70.7926 84.1774 69.0557 85.4951C67.3187 86.7979 65.0651 87.4492 62.2949 87.4492C60.3483 87.4492 58.6263 87.1048 57.1289 86.416C55.6315 85.7272 54.4561 84.7689 53.6025 83.541C52.764 82.2982 52.3447 80.958 52.3447 79.5205H56.5C56.5749 80.9131 57.1289 82.0212 58.1621 82.8447C59.2103 83.6533 60.5879 84.0576 62.2949 84.0576C63.8672 84.0576 65.125 83.7432 66.0684 83.1143C67.0267 82.4704 67.5059 81.6169 67.5059 80.5537ZM81.5889 87H77.4336V62.6973H81.5889V87ZM77.0967 56.251C77.0967 55.5771 77.2988 55.0081 77.7031 54.5439C78.1224 54.0798 78.7363 53.8477 79.5449 53.8477C80.3535 53.8477 80.9674 54.0798 81.3867 54.5439C81.806 55.0081 82.0156 55.5771 82.0156 56.251C82.0156 56.9248 81.806 57.4863 81.3867 57.9355C80.9674 58.3848 80.3535 58.6094 79.5449 58.6094C78.7363 58.6094 78.1224 58.3848 77.7031 57.9355C77.2988 57.4863 77.0967 56.9248 77.0967 56.251ZM92.1904 62.6973L92.3252 65.752C94.182 63.416 96.6077 62.248 99.6025 62.248C104.739 62.248 107.329 65.1455 107.374 70.9404V87H103.219V70.918C103.204 69.166 102.799 67.8708 102.006 67.0322C101.227 66.1937 100.007 65.7744 98.3447 65.7744C96.9971 65.7744 95.8141 66.1338 94.7959 66.8525C93.7777 67.5713 92.984 68.5146 92.415 69.6826V87H88.2598V62.6973H92.1904ZM123.726 87.4492C120.431 87.4492 117.751 86.3711 115.685 84.2148C113.618 82.0436 112.585 79.1462 112.585 75.5225V74.7588C112.585 72.348 113.042 70.1992 113.955 68.3125C114.883 66.4108 116.171 64.9284 117.818 63.8652C119.48 62.7871 121.277 62.248 123.209 62.248C126.368 62.248 128.824 63.2887 130.576 65.3701C132.328 67.4515 133.204 70.4313 133.204 74.3096V76.0391H116.74C116.8 78.4349 117.496 80.374 118.829 81.8564C120.177 83.3239 121.884 84.0576 123.95 84.0576C125.418 84.0576 126.66 83.7581 127.679 83.1592C128.697 82.5602 129.588 81.7666 130.352 80.7783L132.89 82.7549C130.853 85.8844 127.799 87.4492 123.726 87.4492ZM123.209 65.6621C121.532 65.6621 120.124 66.276 118.986 67.5039C117.848 68.7168 117.145 70.4238 116.875 72.625H129.049V72.3105C128.929 70.1992 128.36 68.5671 127.342 67.4141C126.324 66.2461 124.946 65.6621 123.209 65.6621ZM152.184 80.5537C152.184 79.4307 151.757 78.5622 150.903 77.9482C150.065 77.3193 148.59 76.7803 146.479 76.3311C144.382 75.8818 142.713 75.3428 141.47 74.7139C140.242 74.085 139.328 73.3363 138.729 72.4678C138.146 71.5993 137.854 70.5661 137.854 69.3682C137.854 67.3766 138.692 65.6921 140.369 64.3145C142.061 62.9368 144.217 62.248 146.838 62.248C149.593 62.248 151.824 62.9593 153.531 64.3818C155.253 65.8044 156.114 67.6237 156.114 69.8398H151.937C151.937 68.7018 151.45 67.721 150.477 66.8975C149.518 66.0739 148.305 65.6621 146.838 65.6621C145.326 65.6621 144.143 65.9915 143.289 66.6504C142.436 67.3092 142.009 68.1702 142.009 69.2334C142.009 70.2367 142.406 70.9928 143.199 71.502C143.993 72.0111 145.423 72.4977 147.489 72.9619C149.571 73.4261 151.255 73.9801 152.543 74.624C153.831 75.2679 154.782 76.0465 155.396 76.96C156.024 77.8584 156.339 78.959 156.339 80.2617C156.339 82.4329 155.47 84.1774 153.733 85.4951C151.996 86.7979 149.743 87.4492 146.973 87.4492C145.026 87.4492 143.304 87.1048 141.807 86.416C140.309 85.7272 139.134 84.7689 138.28 83.541C137.442 82.2982 137.022 80.958 137.022 79.5205H141.178C141.253 80.9131 141.807 82.0212 142.84 82.8447C143.888 83.6533 145.266 84.0576 146.973 84.0576C148.545 84.0576 149.803 83.7432 150.746 83.1143C151.704 82.4704 152.184 81.6169 152.184 80.5537ZM175.902 80.5537C175.902 79.4307 175.476 78.5622 174.622 77.9482C173.784 77.3193 172.309 76.7803 170.197 76.3311C168.101 75.8818 166.431 75.3428 165.188 74.7139C163.961 74.085 163.047 73.3363 162.448 72.4678C161.864 71.5993 161.572 70.5661 161.572 69.3682C161.572 67.3766 162.411 65.6921 164.088 64.3145C165.78 62.9368 167.936 62.248 170.557 62.248C173.312 62.248 175.543 62.9593 177.25 64.3818C178.972 65.8044 179.833 67.6237 179.833 69.8398H175.655C175.655 68.7018 175.169 67.721 174.195 66.8975C173.237 66.0739 172.024 65.6621 170.557 65.6621C169.044 65.6621 167.861 65.9915 167.008 66.6504C166.154 67.3092 165.728 68.1702 165.728 69.2334C165.728 70.2367 166.124 70.9928 166.918 71.502C167.712 72.0111 169.142 72.4977 171.208 72.9619C173.289 73.4261 174.974 73.9801 176.262 74.624C177.549 75.2679 178.5 76.0465 179.114 76.96C179.743 77.8584 180.058 78.959 180.058 80.2617C180.058 82.4329 179.189 84.1774 177.452 85.4951C175.715 86.7979 173.462 87.4492 170.691 87.4492C168.745 87.4492 167.023 87.1048 165.525 86.416C164.028 85.7272 162.853 84.7689 161.999 83.541C161.16 82.2982 160.741 80.958 160.741 79.5205H164.896C164.971 80.9131 165.525 82.0212 166.559 82.8447C167.607 83.6533 168.984 84.0576 170.691 84.0576C172.264 84.0576 173.521 83.7432 174.465 83.1143C175.423 82.4704 175.902 81.6169 175.902 80.5537ZM194.118 74.8037H183.157V71.4121H194.118V74.8037ZM203.821 56.8125V62.6973H208.358V65.9092H203.821V80.9805C203.821 81.9538 204.023 82.6875 204.428 83.1816C204.832 83.6608 205.521 83.9004 206.494 83.9004C206.973 83.9004 207.632 83.8105 208.471 83.6309V87C207.378 87.2995 206.314 87.4492 205.281 87.4492C203.424 87.4492 202.024 86.8877 201.081 85.7646C200.138 84.6416 199.666 83.0469 199.666 80.9805V65.9092H195.241V62.6973H199.666V56.8125H203.821ZM211.683 74.624C211.683 72.2432 212.147 70.1019 213.075 68.2002C214.019 66.2985 215.321 64.8311 216.983 63.7979C218.66 62.7646 220.57 62.248 222.711 62.248C226.02 62.248 228.693 63.3936 230.729 65.6846C232.781 67.9756 233.807 71.0228 233.807 74.8262V75.1182C233.807 77.484 233.35 79.6104 232.437 81.4971C231.538 83.3688 230.243 84.8288 228.551 85.877C226.874 86.9251 224.942 87.4492 222.756 87.4492C219.462 87.4492 216.789 86.3037 214.737 84.0127C212.701 81.7217 211.683 78.6895 211.683 74.916V74.624ZM215.86 75.1182C215.86 77.8135 216.482 79.9772 217.725 81.6094C218.982 83.2415 220.66 84.0576 222.756 84.0576C224.867 84.0576 226.544 83.234 227.787 81.5869C229.03 79.9248 229.651 77.6038 229.651 74.624C229.651 71.9587 229.015 69.8024 227.742 68.1553C226.484 66.4932 224.807 65.6621 222.711 65.6621C220.66 65.6621 219.005 66.4782 217.747 68.1104C216.489 69.7425 215.86 72.0785 215.86 75.1182ZM247.665 74.8037H236.704V71.4121H247.665V74.8037ZM272.305 75.1182C272.305 78.8317 271.451 81.819 269.744 84.0801C268.037 86.3262 265.746 87.4492 262.871 87.4492C259.801 87.4492 257.428 86.3636 255.751 84.1924L255.549 87H251.73V52.5H255.886V65.3701C257.563 63.2887 259.876 62.248 262.826 62.248C265.776 62.248 268.09 63.3636 269.767 65.5947C271.459 67.8258 272.305 70.8805 272.305 74.7588V75.1182ZM268.149 74.6465C268.149 71.8164 267.603 69.6302 266.51 68.0879C265.417 66.5456 263.844 65.7744 261.793 65.7744C259.053 65.7744 257.084 67.0472 255.886 69.5928V80.1045C257.159 82.6501 259.143 83.9229 261.838 83.9229C263.829 83.9229 265.379 83.1517 266.487 81.6094C267.595 80.0671 268.149 77.7461 268.149 74.6465ZM292.564 84.5967C290.947 86.4984 288.574 87.4492 285.444 87.4492C282.854 87.4492 280.877 86.7005 279.515 85.2031C278.167 83.6908 277.486 81.4596 277.471 78.5098V62.6973H281.626V78.3975C281.626 82.0811 283.123 83.9229 286.118 83.9229C289.293 83.9229 291.404 82.7399 292.452 80.374V62.6973H296.607V87H292.654L292.564 84.5967ZM317.092 80.5537C317.092 79.4307 316.665 78.5622 315.812 77.9482C314.973 77.3193 313.498 76.7803 311.387 76.3311C309.29 75.8818 307.621 75.3428 306.378 74.7139C305.15 74.085 304.237 73.3363 303.638 72.4678C303.054 71.5993 302.762 70.5661 302.762 69.3682C302.762 67.3766 303.6 65.6921 305.277 64.3145C306.969 62.9368 309.126 62.248 311.746 62.248C314.501 62.248 316.732 62.9593 318.439 64.3818C320.161 65.8044 321.022 67.6237 321.022 69.8398H316.845C316.845 68.7018 316.358 67.721 315.385 66.8975C314.426 66.0739 313.214 65.6621 311.746 65.6621C310.234 65.6621 309.051 65.9915 308.197 66.6504C307.344 67.3092 306.917 68.1702 306.917 69.2334C306.917 70.2367 307.314 70.9928 308.107 71.502C308.901 72.0111 310.331 72.4977 312.397 72.9619C314.479 73.4261 316.163 73.9801 317.451 74.624C318.739 75.2679 319.69 76.0465 320.304 76.96C320.933 77.8584 321.247 78.959 321.247 80.2617C321.247 82.4329 320.379 84.1774 318.642 85.4951C316.905 86.7979 314.651 87.4492 311.881 87.4492C309.934 87.4492 308.212 87.1048 306.715 86.416C305.217 85.7272 304.042 84.7689 303.188 83.541C302.35 82.2982 301.931 80.958 301.931 79.5205H306.086C306.161 80.9131 306.715 82.0212 307.748 82.8447C308.796 83.6533 310.174 84.0576 311.881 84.0576C313.453 84.0576 314.711 83.7432 315.654 83.1143C316.613 82.4704 317.092 81.6169 317.092 80.5537ZM331.175 87H327.02V62.6973H331.175V87ZM326.683 56.251C326.683 55.5771 326.885 55.0081 327.289 54.5439C327.708 54.0798 328.322 53.8477 329.131 53.8477C329.939 53.8477 330.553 54.0798 330.973 54.5439C331.392 55.0081 331.602 55.5771 331.602 56.251C331.602 56.9248 331.392 57.4863 330.973 57.9355C330.553 58.3848 329.939 58.6094 329.131 58.6094C328.322 58.6094 327.708 58.3848 327.289 57.9355C326.885 57.4863 326.683 56.9248 326.683 56.251ZM341.776 62.6973L341.911 65.752C343.768 63.416 346.194 62.248 349.188 62.248C354.325 62.248 356.915 65.1455 356.96 70.9404V87H352.805V70.918C352.79 69.166 352.385 67.8708 351.592 67.0322C350.813 66.1937 349.593 65.7744 347.931 65.7744C346.583 65.7744 345.4 66.1338 344.382 66.8525C343.364 67.5713 342.57 68.5146 342.001 69.6826V87H337.846V62.6973H341.776ZM373.312 87.4492C370.017 87.4492 367.337 86.3711 365.271 84.2148C363.204 82.0436 362.171 79.1462 362.171 75.5225V74.7588C362.171 72.348 362.628 70.1992 363.541 68.3125C364.469 66.4108 365.757 64.9284 367.404 63.8652C369.066 62.7871 370.863 62.248 372.795 62.248C375.954 62.248 378.41 63.2887 380.162 65.3701C381.914 67.4515 382.79 70.4313 382.79 74.3096V76.0391H366.326C366.386 78.4349 367.082 80.374 368.415 81.8564C369.763 83.3239 371.47 84.0576 373.536 84.0576C375.004 84.0576 376.246 83.7581 377.265 83.1592C378.283 82.5602 379.174 81.7666 379.938 80.7783L382.476 82.7549C380.439 85.8844 377.384 87.4492 373.312 87.4492ZM372.795 65.6621C371.118 65.6621 369.71 66.276 368.572 67.5039C367.434 68.7168 366.73 70.4238 366.461 72.625H378.635V72.3105C378.515 70.1992 377.946 68.5671 376.928 67.4141C375.91 66.2461 374.532 65.6621 372.795 65.6621ZM401.77 80.5537C401.77 79.4307 401.343 78.5622 400.489 77.9482C399.651 77.3193 398.176 76.7803 396.064 76.3311C393.968 75.8818 392.299 75.3428 391.056 74.7139C389.828 74.085 388.914 73.3363 388.315 72.4678C387.731 71.5993 387.439 70.5661 387.439 69.3682C387.439 67.3766 388.278 65.6921 389.955 64.3145C391.647 62.9368 393.803 62.248 396.424 62.248C399.179 62.248 401.41 62.9593 403.117 64.3818C404.839 65.8044 405.7 67.6237 405.7 69.8398H401.522C401.522 68.7018 401.036 67.721 400.062 66.8975C399.104 66.0739 397.891 65.6621 396.424 65.6621C394.911 65.6621 393.729 65.9915 392.875 66.6504C392.021 67.3092 391.595 68.1702 391.595 69.2334C391.595 70.2367 391.992 70.9928 392.785 71.502C393.579 72.0111 395.009 72.4977 397.075 72.9619C399.157 73.4261 400.841 73.9801 402.129 74.624C403.417 75.2679 404.368 76.0465 404.981 76.96C405.61 77.8584 405.925 78.959 405.925 80.2617C405.925 82.4329 405.056 84.1774 403.319 85.4951C401.582 86.7979 399.329 87.4492 396.559 87.4492C394.612 87.4492 392.89 87.1048 391.393 86.416C389.895 85.7272 388.72 84.7689 387.866 83.541C387.028 82.2982 386.608 80.958 386.608 79.5205H390.764C390.839 80.9131 391.393 82.0212 392.426 82.8447C393.474 83.6533 394.852 84.0576 396.559 84.0576C398.131 84.0576 399.389 83.7432 400.332 83.1143C401.29 82.4704 401.77 81.6169 401.77 80.5537ZM425.488 80.5537C425.488 79.4307 425.062 78.5622 424.208 77.9482C423.369 77.3193 421.895 76.7803 419.783 76.3311C417.687 75.8818 416.017 75.3428 414.774 74.7139C413.547 74.085 412.633 73.3363 412.034 72.4678C411.45 71.5993 411.158 70.5661 411.158 69.3682C411.158 67.3766 411.997 65.6921 413.674 64.3145C415.366 62.9368 417.522 62.248 420.143 62.248C422.898 62.248 425.129 62.9593 426.836 64.3818C428.558 65.8044 429.419 67.6237 429.419 69.8398H425.241C425.241 68.7018 424.755 67.721 423.781 66.8975C422.823 66.0739 421.61 65.6621 420.143 65.6621C418.63 65.6621 417.447 65.9915 416.594 66.6504C415.74 67.3092 415.313 68.1702 415.313 69.2334C415.313 70.2367 415.71 70.9928 416.504 71.502C417.298 72.0111 418.728 72.4977 420.794 72.9619C422.875 73.4261 424.56 73.9801 425.848 74.624C427.135 75.2679 428.086 76.0465 428.7 76.96C429.329 77.8584 429.644 78.959 429.644 80.2617C429.644 82.4329 428.775 84.1774 427.038 85.4951C425.301 86.7979 423.048 87.4492 420.277 87.4492C418.331 87.4492 416.609 87.1048 415.111 86.416C413.614 85.7272 412.438 84.7689 411.585 83.541C410.746 82.2982 410.327 80.958 410.327 79.5205H414.482C414.557 80.9131 415.111 82.0212 416.145 82.8447C417.193 83.6533 418.57 84.0576 420.277 84.0576C421.85 84.0576 423.107 83.7432 424.051 83.1143C425.009 82.4704 425.488 81.6169 425.488 80.5537ZM450.981 87H446.826V62.6973H450.981V87ZM446.489 56.251C446.489 55.5771 446.691 55.0081 447.096 54.5439C447.515 54.0798 448.129 53.8477 448.938 53.8477C449.746 53.8477 450.36 54.0798 450.779 54.5439C451.199 55.0081 451.408 55.5771 451.408 56.251C451.408 56.9248 451.199 57.4863 450.779 57.9355C450.36 58.3848 449.746 58.6094 448.938 58.6094C448.129 58.6094 447.515 58.3848 447.096 57.9355C446.691 57.4863 446.489 56.9248 446.489 56.251ZM461.583 62.6973L461.718 65.752C463.575 63.416 466 62.248 468.995 62.248C474.131 62.248 476.722 65.1455 476.767 70.9404V87H472.611V70.918C472.596 69.166 472.192 67.8708 471.398 67.0322C470.62 66.1937 469.399 65.7744 467.737 65.7744C466.39 65.7744 465.207 66.1338 464.188 66.8525C463.17 67.5713 462.377 68.5146 461.808 69.6826V87H457.652V62.6973H461.583ZM482.022 74.6465C482.022 70.918 482.906 67.9232 484.673 65.6621C486.44 63.3861 488.753 62.248 491.613 62.248C494.458 62.248 496.712 63.2214 498.374 65.168V52.5H502.529V87H498.711L498.509 84.3945C496.847 86.431 494.533 87.4492 491.568 87.4492C488.753 87.4492 486.455 86.2962 484.673 83.9902C482.906 81.6842 482.022 78.6745 482.022 74.9609V74.6465ZM486.178 75.1182C486.178 77.8734 486.747 80.0296 487.885 81.5869C489.023 83.1442 490.595 83.9229 492.602 83.9229C495.237 83.9229 497.161 82.7399 498.374 80.374V69.2109C497.131 66.9199 495.222 65.7744 492.646 65.7744C490.61 65.7744 489.023 66.5605 487.885 68.1328C486.747 69.7051 486.178 72.0335 486.178 75.1182ZM524.002 84.5967C522.385 86.4984 520.011 87.4492 516.882 87.4492C514.291 87.4492 512.315 86.7005 510.952 85.2031C509.604 83.6908 508.923 81.4596 508.908 78.5098V62.6973H513.063V78.3975C513.063 82.0811 514.561 83.9229 517.556 83.9229C520.73 83.9229 522.841 82.7399 523.89 80.374V62.6973H528.045V87H524.092L524.002 84.5967ZM548.529 80.5537C548.529 79.4307 548.103 78.5622 547.249 77.9482C546.41 77.3193 544.936 76.7803 542.824 76.3311C540.728 75.8818 539.058 75.3428 537.815 74.7139C536.588 74.085 535.674 73.3363 535.075 72.4678C534.491 71.5993 534.199 70.5661 534.199 69.3682C534.199 67.3766 535.038 65.6921 536.715 64.3145C538.407 62.9368 540.563 62.248 543.184 62.248C545.939 62.248 548.17 62.9593 549.877 64.3818C551.599 65.8044 552.46 67.6237 552.46 69.8398H548.282C548.282 68.7018 547.796 67.721 546.822 66.8975C545.864 66.0739 544.651 65.6621 543.184 65.6621C541.671 65.6621 540.488 65.9915 539.635 66.6504C538.781 67.3092 538.354 68.1702 538.354 69.2334C538.354 70.2367 538.751 70.9928 539.545 71.502C540.339 72.0111 541.769 72.4977 543.835 72.9619C545.916 73.4261 547.601 73.9801 548.889 74.624C550.176 75.2679 551.127 76.0465 551.741 76.96C552.37 77.8584 552.685 78.959 552.685 80.2617C552.685 82.4329 551.816 84.1774 550.079 85.4951C548.342 86.7979 546.089 87.4492 543.318 87.4492C541.372 87.4492 539.65 87.1048 538.152 86.416C536.655 85.7272 535.479 84.7689 534.626 83.541C533.787 82.2982 533.368 80.958 533.368 79.5205H537.523C537.598 80.9131 538.152 82.0212 539.186 82.8447C540.234 83.6533 541.611 84.0576 543.318 84.0576C544.891 84.0576 546.148 83.7432 547.092 83.1143C548.05 82.4704 548.529 81.6169 548.529 80.5537ZM563.735 56.8125V62.6973H568.272V65.9092H563.735V80.9805C563.735 81.9538 563.938 82.6875 564.342 83.1816C564.746 83.6608 565.435 83.9004 566.408 83.9004C566.887 83.9004 567.546 83.8105 568.385 83.6309V87C567.292 87.2995 566.229 87.4492 565.195 87.4492C563.339 87.4492 561.938 86.8877 560.995 85.7646C560.052 84.6416 559.58 83.0469 559.58 80.9805V65.9092H555.155V62.6973H559.58V56.8125H563.735ZM584.894 66.4258C584.265 66.321 583.583 66.2686 582.85 66.2686C580.124 66.2686 578.275 67.429 577.302 69.75V87H573.146V62.6973H577.189L577.257 65.5049C578.619 63.3337 580.551 62.248 583.052 62.248C583.86 62.248 584.474 62.3529 584.894 62.5625V66.4258ZM597.09 80.9131L602.75 62.6973H607.197L597.427 90.751C595.914 94.7939 593.511 96.8154 590.217 96.8154L589.431 96.748L587.881 96.4561V93.0869L589.004 93.1768C590.411 93.1768 591.505 92.8923 592.283 92.3232C593.077 91.7542 593.728 90.7135 594.237 89.2012L595.158 86.7305L586.488 62.6973H591.025L597.09 80.9131ZM608.365 93.5137L606.007 91.8965C607.414 89.9349 608.148 87.9134 608.208 85.832V82.0811H612.273V85.3379C612.273 86.8503 611.899 88.3626 611.15 89.875C610.417 91.3874 609.488 92.6003 608.365 93.5137ZM649.514 75.1182C649.514 78.8317 648.66 81.819 646.953 84.0801C645.246 86.3262 642.955 87.4492 640.08 87.4492C637.01 87.4492 634.637 86.3636 632.96 84.1924L632.758 87H628.939V52.5H633.095V65.3701C634.772 63.2887 637.085 62.248 640.035 62.248C642.985 62.248 645.299 63.3636 646.976 65.5947C648.668 67.8258 649.514 70.8805 649.514 74.7588V75.1182ZM645.358 74.6465C645.358 71.8164 644.812 69.6302 643.719 68.0879C642.626 66.5456 641.053 65.7744 639.002 65.7744C636.262 65.7744 634.293 67.0472 633.095 69.5928V80.1045C634.368 82.6501 636.352 83.9229 639.047 83.9229C641.038 83.9229 642.588 83.1517 643.696 81.6094C644.804 80.0671 645.358 77.7461 645.358 74.6465ZM666.517 66.4258C665.888 66.321 665.206 66.2686 664.473 66.2686C661.747 66.2686 659.898 67.429 658.925 69.75V87H654.77V62.6973H658.812L658.88 65.5049C660.243 63.3337 662.174 62.248 664.675 62.248C665.483 62.248 666.097 62.3529 666.517 62.5625V66.4258ZM679.993 87.4492C676.699 87.4492 674.019 86.3711 671.952 84.2148C669.886 82.0436 668.853 79.1462 668.853 75.5225V74.7588C668.853 72.348 669.309 70.1992 670.223 68.3125C671.151 66.4108 672.439 64.9284 674.086 63.8652C675.748 62.7871 677.545 62.248 679.477 62.248C682.636 62.248 685.092 63.2887 686.844 65.3701C688.596 67.4515 689.472 70.4313 689.472 74.3096V76.0391H673.008C673.068 78.4349 673.764 80.374 675.097 81.8564C676.444 83.3239 678.151 84.0576 680.218 84.0576C681.685 84.0576 682.928 83.7581 683.946 83.1592C684.965 82.5602 685.855 81.7666 686.619 80.7783L689.157 82.7549C687.121 85.8844 684.066 87.4492 679.993 87.4492ZM679.477 65.6621C677.799 65.6621 676.392 66.276 675.254 67.5039C674.116 68.7168 673.412 70.4238 673.143 72.625H685.316V72.3105C685.197 70.1992 684.628 68.5671 683.609 67.4141C682.591 66.2461 681.214 65.6621 679.477 65.6621ZM709.305 87C709.065 86.5208 708.87 85.6673 708.721 84.4395C706.789 86.446 704.483 87.4492 701.803 87.4492C699.407 87.4492 697.438 86.7754 695.896 85.4277C694.368 84.0651 693.604 82.3431 693.604 80.2617C693.604 77.7311 694.563 75.7695 696.479 74.377C698.411 72.9694 701.121 72.2656 704.61 72.2656H708.653V70.3564C708.653 68.904 708.219 67.751 707.351 66.8975C706.482 66.029 705.202 65.5947 703.51 65.5947C702.027 65.5947 700.785 65.9691 699.781 66.7178C698.778 67.4665 698.276 68.3724 698.276 69.4355H694.099C694.099 68.2227 694.525 67.0547 695.379 65.9316C696.247 64.7936 697.415 63.8952 698.883 63.2363C700.365 62.5775 701.99 62.248 703.757 62.248C706.557 62.248 708.751 62.9518 710.338 64.3594C711.925 65.752 712.749 67.6761 712.809 70.1318V81.3174C712.809 83.5485 713.093 85.3229 713.662 86.6406V87H709.305ZM702.409 83.833C703.712 83.833 704.947 83.4961 706.115 82.8223C707.283 82.1484 708.129 81.2725 708.653 80.1943V75.208H705.396C700.305 75.208 697.76 76.6979 697.76 79.6777C697.76 80.9805 698.194 81.9987 699.062 82.7324C699.931 83.4661 701.047 83.833 702.409 83.833ZM726.105 75.7471L723.5 78.4648V87H719.345V52.5H723.5V73.3662L725.724 70.6934L733.293 62.6973H738.347L728.891 72.8496L739.447 87H734.573L726.105 75.7471ZM747.151 87H742.996V62.6973H747.151V87ZM742.659 56.251C742.659 55.5771 742.861 55.0081 743.266 54.5439C743.685 54.0798 744.299 53.8477 745.107 53.8477C745.916 53.8477 746.53 54.0798 746.949 54.5439C747.368 55.0081 747.578 55.5771 747.578 56.251C747.578 56.9248 747.368 57.4863 746.949 57.9355C746.53 58.3848 745.916 58.6094 745.107 58.6094C744.299 58.6094 743.685 58.3848 743.266 57.9355C742.861 57.4863 742.659 56.9248 742.659 56.251ZM757.753 62.6973L757.888 65.752C759.744 63.416 762.17 62.248 765.165 62.248C770.301 62.248 772.892 65.1455 772.937 70.9404V87H768.781V70.918C768.766 69.166 768.362 67.8708 767.568 67.0322C766.79 66.1937 765.569 65.7744 763.907 65.7744C762.56 65.7744 761.377 66.1338 760.358 66.8525C759.34 67.5713 758.547 68.5146 757.978 69.6826V87H753.822V62.6973H757.753ZM778.215 74.6465C778.215 70.8581 779.091 67.8483 780.843 65.6172C782.595 63.3711 784.916 62.248 787.806 62.248C790.771 62.248 793.084 63.2962 794.746 65.3926L794.948 62.6973H798.744V86.416C798.744 89.5605 797.808 92.0387 795.937 93.8506C794.08 95.6624 791.579 96.5684 788.435 96.5684C786.683 96.5684 784.968 96.194 783.291 95.4453C781.614 94.6966 780.334 93.6709 779.45 92.3682L781.606 89.875C783.388 92.0762 785.567 93.1768 788.143 93.1768C790.164 93.1768 791.736 92.6077 792.859 91.4697C793.997 90.3317 794.566 88.7295 794.566 86.6631V84.5742C792.904 86.4909 790.636 87.4492 787.761 87.4492C784.916 87.4492 782.61 86.3037 780.843 84.0127C779.091 81.7217 778.215 78.5996 778.215 74.6465ZM782.393 75.1182C782.393 77.8584 782.954 80.0146 784.077 81.5869C785.2 83.1442 786.772 83.9229 788.794 83.9229C791.414 83.9229 793.339 82.7324 794.566 80.3516V69.2559C793.294 66.9349 791.384 65.7744 788.839 65.7744C786.817 65.7744 785.238 66.5605 784.1 68.1328C782.962 69.7051 782.393 72.0335 782.393 75.1182ZM822.081 56.8125V62.6973H826.618V65.9092H822.081V80.9805C822.081 81.9538 822.283 82.6875 822.688 83.1816C823.092 83.6608 823.781 83.9004 824.754 83.9004C825.233 83.9004 825.892 83.8105 826.73 83.6309V87C825.637 87.2995 824.574 87.4492 823.541 87.4492C821.684 87.4492 820.284 86.8877 819.341 85.7646C818.397 84.6416 817.926 83.0469 817.926 80.9805V65.9092H813.501V62.6973H817.926V56.8125H822.081ZM835.647 65.6396C837.489 63.3786 839.885 62.248 842.835 62.248C847.971 62.248 850.562 65.1455 850.606 70.9404V87H846.451V70.918C846.436 69.166 846.032 67.8708 845.238 67.0322C844.46 66.1937 843.239 65.7744 841.577 65.7744C840.229 65.7744 839.047 66.1338 838.028 66.8525C837.01 67.5713 836.216 68.5146 835.647 69.6826V87H831.492V52.5H835.647V65.6396ZM866.913 87.4492C863.619 87.4492 860.938 86.3711 858.872 84.2148C856.806 82.0436 855.772 79.1462 855.772 75.5225V74.7588C855.772 72.348 856.229 70.1992 857.143 68.3125C858.071 66.4108 859.359 64.9284 861.006 63.8652C862.668 62.7871 864.465 62.248 866.396 62.248C869.556 62.248 872.012 63.2887 873.764 65.3701C875.516 67.4515 876.392 70.4313 876.392 74.3096V76.0391H859.928C859.988 78.4349 860.684 80.374 862.017 81.8564C863.364 83.3239 865.071 84.0576 867.138 84.0576C868.605 84.0576 869.848 83.7581 870.866 83.1592C871.884 82.5602 872.775 81.7666 873.539 80.7783L876.077 82.7549C874.041 85.8844 870.986 87.4492 866.913 87.4492ZM866.396 65.6621C864.719 65.6621 863.312 66.276 862.174 67.5039C861.036 68.7168 860.332 70.4238 860.062 72.625H872.236V72.3105C872.117 70.1992 871.548 68.5671 870.529 67.4141C869.511 66.2461 868.133 65.6621 866.396 65.6621ZM22.7188 127.118C22.7188 130.832 21.8652 133.819 20.1582 136.08C18.4512 138.326 16.1602 139.449 13.2852 139.449C10.2155 139.449 7.84212 138.364 6.16504 136.192L5.96289 139H2.14453V104.5H6.2998V117.37C7.97689 115.289 10.2904 114.248 13.2402 114.248C16.1901 114.248 18.5036 115.364 20.1807 117.595C21.8727 119.826 22.7188 122.881 22.7188 126.759V127.118ZM18.5635 126.646C18.5635 123.816 18.0169 121.63 16.9238 120.088C15.8307 118.546 14.2585 117.774 12.207 117.774C9.4668 117.774 7.49772 119.047 6.2998 121.593V132.104C7.57259 134.65 9.55664 135.923 12.252 135.923C14.2435 135.923 15.7933 135.152 16.9014 133.609C18.0094 132.067 18.5635 129.746 18.5635 126.646ZM26.874 126.624C26.874 124.243 27.3382 122.102 28.2666 120.2C29.21 118.299 30.5127 116.831 32.1748 115.798C33.8519 114.765 35.7611 114.248 37.9023 114.248C41.2116 114.248 43.8844 115.394 45.9209 117.685C47.9723 119.976 48.998 123.023 48.998 126.826V127.118C48.998 129.484 48.5413 131.61 47.6279 133.497C46.7295 135.369 45.4342 136.829 43.7422 137.877C42.0651 138.925 40.1335 139.449 37.9473 139.449C34.653 139.449 31.9801 138.304 29.9287 136.013C27.8923 133.722 26.874 130.689 26.874 126.916V126.624ZM31.0518 127.118C31.0518 129.813 31.6732 131.977 32.916 133.609C34.1738 135.242 35.8509 136.058 37.9473 136.058C40.0586 136.058 41.7357 135.234 42.9785 133.587C44.2214 131.925 44.8428 129.604 44.8428 126.624C44.8428 123.959 44.2064 121.802 42.9336 120.155C41.6758 118.493 39.9987 117.662 37.9023 117.662C35.8509 117.662 34.1963 118.478 32.9385 120.11C31.6807 121.743 31.0518 124.078 31.0518 127.118ZM69.2129 136.597C67.5957 138.498 65.2223 139.449 62.0928 139.449C59.5023 139.449 57.5257 138.701 56.1631 137.203C54.8154 135.691 54.1341 133.46 54.1191 130.51V114.697H58.2744V130.397C58.2744 134.081 59.7718 135.923 62.7666 135.923C65.9411 135.923 68.0524 134.74 69.1006 132.374V114.697H73.2559V139H69.3027L69.2129 136.597ZM83.5205 114.697L83.6553 117.752C85.512 115.416 87.9378 114.248 90.9326 114.248C96.0687 114.248 98.6592 117.146 98.7041 122.94V139H94.5488V122.918C94.5339 121.166 94.1296 119.871 93.3359 119.032C92.5573 118.194 91.3369 117.774 89.6748 117.774C88.3271 117.774 87.1442 118.134 86.126 118.853C85.1077 119.571 84.3141 120.515 83.7451 121.683V139H79.5898V114.697H83.5205ZM103.96 126.646C103.96 122.918 104.843 119.923 106.61 117.662C108.377 115.386 110.691 114.248 113.551 114.248C116.396 114.248 118.649 115.221 120.312 117.168V104.5H124.467V139H120.648L120.446 136.395C118.784 138.431 116.471 139.449 113.506 139.449C110.691 139.449 108.392 138.296 106.61 135.99C104.843 133.684 103.96 130.674 103.96 126.961V126.646ZM108.115 127.118C108.115 129.873 108.684 132.03 109.822 133.587C110.96 135.144 112.533 135.923 114.539 135.923C117.174 135.923 119.099 134.74 120.312 132.374V121.211C119.069 118.92 117.16 117.774 114.584 117.774C112.548 117.774 110.96 118.561 109.822 120.133C108.684 121.705 108.115 124.034 108.115 127.118ZM145.939 139C145.7 138.521 145.505 137.667 145.355 136.439C143.424 138.446 141.118 139.449 138.438 139.449C136.042 139.449 134.073 138.775 132.53 137.428C131.003 136.065 130.239 134.343 130.239 132.262C130.239 129.731 131.198 127.77 133.114 126.377C135.046 124.969 137.756 124.266 141.245 124.266H145.288V122.356C145.288 120.904 144.854 119.751 143.985 118.897C143.117 118.029 141.837 117.595 140.145 117.595C138.662 117.595 137.419 117.969 136.416 118.718C135.413 119.466 134.911 120.372 134.911 121.436H130.733C130.733 120.223 131.16 119.055 132.014 117.932C132.882 116.794 134.05 115.895 135.518 115.236C137 114.577 138.625 114.248 140.392 114.248C143.192 114.248 145.385 114.952 146.973 116.359C148.56 117.752 149.383 119.676 149.443 122.132V133.317C149.443 135.549 149.728 137.323 150.297 138.641V139H145.939ZM139.044 135.833C140.347 135.833 141.582 135.496 142.75 134.822C143.918 134.148 144.764 133.272 145.288 132.194V127.208H142.031C136.94 127.208 134.395 128.698 134.395 131.678C134.395 132.98 134.829 133.999 135.697 134.732C136.566 135.466 137.681 135.833 139.044 135.833ZM167.704 118.426C167.075 118.321 166.394 118.269 165.66 118.269C162.935 118.269 161.086 119.429 160.112 121.75V139H155.957V114.697H160L160.067 117.505C161.43 115.334 163.362 114.248 165.862 114.248C166.671 114.248 167.285 114.353 167.704 114.562V118.426ZM176.06 139H171.904V114.697H176.06V139ZM171.567 108.251C171.567 107.577 171.77 107.008 172.174 106.544C172.593 106.08 173.207 105.848 174.016 105.848C174.824 105.848 175.438 106.08 175.857 106.544C176.277 107.008 176.486 107.577 176.486 108.251C176.486 108.925 176.277 109.486 175.857 109.936C175.438 110.385 174.824 110.609 174.016 110.609C173.207 110.609 172.593 110.385 172.174 109.936C171.77 109.486 171.567 108.925 171.567 108.251ZM192.815 139.449C189.521 139.449 186.841 138.371 184.774 136.215C182.708 134.044 181.675 131.146 181.675 127.522V126.759C181.675 124.348 182.132 122.199 183.045 120.312C183.973 118.411 185.261 116.928 186.908 115.865C188.57 114.787 190.367 114.248 192.299 114.248C195.458 114.248 197.914 115.289 199.666 117.37C201.418 119.451 202.294 122.431 202.294 126.31V128.039H185.83C185.89 130.435 186.586 132.374 187.919 133.856C189.267 135.324 190.974 136.058 193.04 136.058C194.507 136.058 195.75 135.758 196.769 135.159C197.787 134.56 198.678 133.767 199.441 132.778L201.979 134.755C199.943 137.884 196.888 139.449 192.815 139.449ZM192.299 117.662C190.622 117.662 189.214 118.276 188.076 119.504C186.938 120.717 186.234 122.424 185.965 124.625H198.139V124.311C198.019 122.199 197.45 120.567 196.432 119.414C195.413 118.246 194.036 117.662 192.299 117.662ZM221.273 132.554C221.273 131.431 220.847 130.562 219.993 129.948C219.155 129.319 217.68 128.78 215.568 128.331C213.472 127.882 211.802 127.343 210.56 126.714C209.332 126.085 208.418 125.336 207.819 124.468C207.235 123.599 206.943 122.566 206.943 121.368C206.943 119.377 207.782 117.692 209.459 116.314C211.151 114.937 213.307 114.248 215.928 114.248C218.683 114.248 220.914 114.959 222.621 116.382C224.343 117.804 225.204 119.624 225.204 121.84H221.026C221.026 120.702 220.54 119.721 219.566 118.897C218.608 118.074 217.395 117.662 215.928 117.662C214.415 117.662 213.232 117.992 212.379 118.65C211.525 119.309 211.099 120.17 211.099 121.233C211.099 122.237 211.495 122.993 212.289 123.502C213.083 124.011 214.513 124.498 216.579 124.962C218.66 125.426 220.345 125.98 221.633 126.624C222.921 127.268 223.871 128.047 224.485 128.96C225.114 129.858 225.429 130.959 225.429 132.262C225.429 134.433 224.56 136.177 222.823 137.495C221.086 138.798 218.833 139.449 216.062 139.449C214.116 139.449 212.394 139.105 210.896 138.416C209.399 137.727 208.224 136.769 207.37 135.541C206.532 134.298 206.112 132.958 206.112 131.521H210.268C210.342 132.913 210.896 134.021 211.93 134.845C212.978 135.653 214.355 136.058 216.062 136.058C217.635 136.058 218.893 135.743 219.836 135.114C220.794 134.47 221.273 133.617 221.273 132.554ZM262.826 127.118C262.826 130.832 261.973 133.819 260.266 136.08C258.559 138.326 256.268 139.449 253.393 139.449C250.323 139.449 247.95 138.364 246.272 136.192L246.07 139H242.252V104.5H246.407V117.37C248.084 115.289 250.398 114.248 253.348 114.248C256.298 114.248 258.611 115.364 260.288 117.595C261.98 119.826 262.826 122.881 262.826 126.759V127.118ZM258.671 126.646C258.671 123.816 258.124 121.63 257.031 120.088C255.938 118.546 254.366 117.774 252.314 117.774C249.574 117.774 247.605 119.047 246.407 121.593V132.104C247.68 134.65 249.664 135.923 252.359 135.923C254.351 135.923 255.901 135.152 257.009 133.609C258.117 132.067 258.671 129.746 258.671 126.646ZM278.167 139.449C274.873 139.449 272.192 138.371 270.126 136.215C268.06 134.044 267.026 131.146 267.026 127.522V126.759C267.026 124.348 267.483 122.199 268.396 120.312C269.325 118.411 270.613 116.928 272.26 115.865C273.922 114.787 275.719 114.248 277.65 114.248C280.81 114.248 283.266 115.289 285.018 117.37C286.77 119.451 287.646 122.431 287.646 126.31V128.039H271.182C271.242 130.435 271.938 132.374 273.271 133.856C274.618 135.324 276.325 136.058 278.392 136.058C279.859 136.058 281.102 135.758 282.12 135.159C283.138 134.56 284.029 133.767 284.793 132.778L287.331 134.755C285.295 137.884 282.24 139.449 278.167 139.449ZM277.65 117.662C275.973 117.662 274.566 118.276 273.428 119.504C272.29 120.717 271.586 122.424 271.316 124.625H283.49V124.311C283.37 122.199 282.801 120.567 281.783 119.414C280.765 118.246 279.387 117.662 277.65 117.662ZM298.112 108.812V114.697H302.649V117.909H298.112V132.98C298.112 133.954 298.314 134.688 298.719 135.182C299.123 135.661 299.812 135.9 300.785 135.9C301.264 135.9 301.923 135.811 302.762 135.631V139C301.669 139.299 300.605 139.449 299.572 139.449C297.715 139.449 296.315 138.888 295.372 137.765C294.429 136.642 293.957 135.047 293.957 132.98V117.909H289.532V114.697H293.957V108.812H298.112ZM329.041 133.272L333.713 114.697H337.868L330.793 139H327.424L321.517 120.582L315.767 139H312.397L305.345 114.697H309.478L314.262 132.891L319.922 114.697H323.269L329.041 133.272ZM352.198 139.449C348.904 139.449 346.224 138.371 344.157 136.215C342.091 134.044 341.058 131.146 341.058 127.522V126.759C341.058 124.348 341.514 122.199 342.428 120.312C343.356 118.411 344.644 116.928 346.291 115.865C347.953 114.787 349.75 114.248 351.682 114.248C354.841 114.248 357.297 115.289 359.049 117.37C360.801 119.451 361.677 122.431 361.677 126.31V128.039H345.213C345.273 130.435 345.969 132.374 347.302 133.856C348.649 135.324 350.356 136.058 352.423 136.058C353.89 136.058 355.133 135.758 356.151 135.159C357.17 134.56 358.061 133.767 358.824 132.778L361.362 134.755C359.326 137.884 356.271 139.449 352.198 139.449ZM351.682 117.662C350.005 117.662 348.597 118.276 347.459 119.504C346.321 120.717 345.617 122.424 345.348 124.625H357.521V124.311C357.402 122.199 356.833 120.567 355.814 119.414C354.796 118.246 353.419 117.662 351.682 117.662ZM376.591 139.449C373.297 139.449 370.616 138.371 368.55 136.215C366.483 134.044 365.45 131.146 365.45 127.522V126.759C365.45 124.348 365.907 122.199 366.82 120.312C367.749 118.411 369.036 116.928 370.684 115.865C372.346 114.787 374.143 114.248 376.074 114.248C379.234 114.248 381.689 115.289 383.441 117.37C385.193 119.451 386.069 122.431 386.069 126.31V128.039H369.605C369.665 130.435 370.362 132.374 371.694 133.856C373.042 135.324 374.749 136.058 376.815 136.058C378.283 136.058 379.526 135.758 380.544 135.159C381.562 134.56 382.453 133.767 383.217 132.778L385.755 134.755C383.718 137.884 380.664 139.449 376.591 139.449ZM376.074 117.662C374.397 117.662 372.99 118.276 371.852 119.504C370.714 120.717 370.01 122.424 369.74 124.625H381.914V124.311C381.794 122.199 381.225 120.567 380.207 119.414C379.189 118.246 377.811 117.662 376.074 117.662ZM394.829 114.697L394.964 117.752C396.821 115.416 399.246 114.248 402.241 114.248C407.377 114.248 409.968 117.146 410.013 122.94V139H405.857V122.918C405.842 121.166 405.438 119.871 404.645 119.032C403.866 118.194 402.646 117.774 400.983 117.774C399.636 117.774 398.453 118.134 397.435 118.853C396.416 119.571 395.623 120.515 395.054 121.683V139H390.898V114.697H394.829ZM437.438 136.058C438.92 136.058 440.215 135.608 441.323 134.71C442.431 133.812 443.045 132.688 443.165 131.341H447.096C447.021 132.733 446.542 134.059 445.658 135.316C444.775 136.574 443.592 137.577 442.109 138.326C440.642 139.075 439.085 139.449 437.438 139.449C434.128 139.449 431.493 138.349 429.531 136.147C427.585 133.931 426.611 130.907 426.611 127.073V126.377C426.611 124.011 427.046 121.907 427.914 120.065C428.783 118.224 430.025 116.794 431.643 115.775C433.275 114.757 435.199 114.248 437.415 114.248C440.14 114.248 442.401 115.064 444.198 116.696C446.01 118.328 446.976 120.447 447.096 123.053H443.165C443.045 121.48 442.446 120.193 441.368 119.189C440.305 118.171 438.987 117.662 437.415 117.662C435.304 117.662 433.664 118.426 432.496 119.953C431.343 121.465 430.767 123.659 430.767 126.534V127.32C430.767 130.12 431.343 132.277 432.496 133.789C433.649 135.301 435.296 136.058 437.438 136.058ZM450.667 126.624C450.667 124.243 451.131 122.102 452.06 120.2C453.003 118.299 454.306 116.831 455.968 115.798C457.645 114.765 459.554 114.248 461.695 114.248C465.005 114.248 467.677 115.394 469.714 117.685C471.765 119.976 472.791 123.023 472.791 126.826V127.118C472.791 129.484 472.334 131.61 471.421 133.497C470.522 135.369 469.227 136.829 467.535 137.877C465.858 138.925 463.926 139.449 461.74 139.449C458.446 139.449 455.773 138.304 453.722 136.013C451.685 133.722 450.667 130.689 450.667 126.916V126.624ZM454.845 127.118C454.845 129.813 455.466 131.977 456.709 133.609C457.967 135.242 459.644 136.058 461.74 136.058C463.852 136.058 465.529 135.234 466.771 133.587C468.014 131.925 468.636 129.604 468.636 126.624C468.636 123.959 467.999 121.802 466.727 120.155C465.469 118.493 463.792 117.662 461.695 117.662C459.644 117.662 457.989 118.478 456.731 120.11C455.474 121.743 454.845 124.078 454.845 127.118ZM489.749 118.426C489.12 118.321 488.439 118.269 487.705 118.269C484.98 118.269 483.131 119.429 482.157 121.75V139H478.002V114.697H482.045L482.112 117.505C483.475 115.334 485.407 114.248 487.907 114.248C488.716 114.248 489.33 114.353 489.749 114.562V118.426ZM514.119 127.118C514.119 130.817 513.273 133.797 511.581 136.058C509.889 138.319 507.598 139.449 504.708 139.449C501.758 139.449 499.437 138.513 497.745 136.642V148.344H493.59V114.697H497.386L497.588 117.393C499.28 115.296 501.631 114.248 504.641 114.248C507.561 114.248 509.867 115.349 511.559 117.55C513.266 119.751 514.119 122.813 514.119 126.736V127.118ZM509.964 126.646C509.964 123.906 509.38 121.743 508.212 120.155C507.044 118.568 505.442 117.774 503.405 117.774C500.89 117.774 499.003 118.89 497.745 121.121V132.733C498.988 134.95 500.89 136.058 503.45 136.058C505.442 136.058 507.021 135.271 508.189 133.699C509.372 132.112 509.964 129.761 509.964 126.646ZM518.319 126.624C518.319 124.243 518.784 122.102 519.712 120.2C520.655 118.299 521.958 116.831 523.62 115.798C525.297 114.765 527.206 114.248 529.348 114.248C532.657 114.248 535.33 115.394 537.366 117.685C539.418 119.976 540.443 123.023 540.443 126.826V127.118C540.443 129.484 539.987 131.61 539.073 133.497C538.175 135.369 536.88 136.829 535.188 137.877C533.51 138.925 531.579 139.449 529.393 139.449C526.098 139.449 523.425 138.304 521.374 136.013C519.338 133.722 518.319 130.689 518.319 126.916V126.624ZM522.497 127.118C522.497 129.813 523.118 131.977 524.361 133.609C525.619 135.242 527.296 136.058 529.393 136.058C531.504 136.058 533.181 135.234 534.424 133.587C535.667 131.925 536.288 129.604 536.288 126.624C536.288 123.959 535.652 121.802 534.379 120.155C533.121 118.493 531.444 117.662 529.348 117.662C527.296 117.662 525.642 118.478 524.384 120.11C523.126 121.743 522.497 124.078 522.497 127.118ZM557.401 118.426C556.772 118.321 556.091 118.269 555.357 118.269C552.632 118.269 550.783 119.429 549.81 121.75V139H545.654V114.697H549.697L549.765 117.505C551.127 115.334 553.059 114.248 555.56 114.248C556.368 114.248 556.982 114.353 557.401 114.562V118.426ZM575.348 139C575.108 138.521 574.913 137.667 574.764 136.439C572.832 138.446 570.526 139.449 567.846 139.449C565.45 139.449 563.481 138.775 561.938 137.428C560.411 136.065 559.647 134.343 559.647 132.262C559.647 129.731 560.606 127.77 562.522 126.377C564.454 124.969 567.164 124.266 570.653 124.266H574.696V122.356C574.696 120.904 574.262 119.751 573.394 118.897C572.525 118.029 571.245 117.595 569.553 117.595C568.07 117.595 566.827 117.969 565.824 118.718C564.821 119.466 564.319 120.372 564.319 121.436H560.142C560.142 120.223 560.568 119.055 561.422 117.932C562.29 116.794 563.458 115.895 564.926 115.236C566.408 114.577 568.033 114.248 569.8 114.248C572.6 114.248 574.794 114.952 576.381 116.359C577.968 117.752 578.792 119.676 578.852 122.132V133.317C578.852 135.549 579.136 137.323 579.705 138.641V139H575.348ZM568.452 135.833C569.755 135.833 570.99 135.496 572.158 134.822C573.326 134.148 574.172 133.272 574.696 132.194V127.208H571.439C566.348 127.208 563.803 128.698 563.803 131.678C563.803 132.98 564.237 133.999 565.105 134.732C565.974 135.466 567.09 135.833 568.452 135.833ZM591.003 108.812V114.697H595.54V117.909H591.003V132.98C591.003 133.954 591.205 134.688 591.609 135.182C592.014 135.661 592.702 135.9 593.676 135.9C594.155 135.9 594.814 135.811 595.652 135.631V139C594.559 139.299 593.496 139.449 592.463 139.449C590.606 139.449 589.206 138.888 588.263 137.765C587.319 136.642 586.848 135.047 586.848 132.98V117.909H582.423V114.697H586.848V108.812H591.003ZM610.499 139.449C607.205 139.449 604.524 138.371 602.458 136.215C600.392 134.044 599.358 131.146 599.358 127.522V126.759C599.358 124.348 599.815 122.199 600.729 120.312C601.657 118.411 602.945 116.928 604.592 115.865C606.254 114.787 608.051 114.248 609.982 114.248C613.142 114.248 615.598 115.289 617.35 117.37C619.102 119.451 619.978 122.431 619.978 126.31V128.039H603.514C603.574 130.435 604.27 132.374 605.603 133.856C606.95 135.324 608.657 136.058 610.724 136.058C612.191 136.058 613.434 135.758 614.452 135.159C615.47 134.56 616.361 133.767 617.125 132.778L619.663 134.755C617.627 137.884 614.572 139.449 610.499 139.449ZM609.982 117.662C608.305 117.662 606.898 118.276 605.76 119.504C604.622 120.717 603.918 122.424 603.648 124.625H615.822V124.311C615.702 122.199 615.133 120.567 614.115 119.414C613.097 118.246 611.719 117.662 609.982 117.662ZM651.221 139C650.981 138.521 650.786 137.667 650.637 136.439C648.705 138.446 646.399 139.449 643.719 139.449C641.323 139.449 639.354 138.775 637.812 137.428C636.284 136.065 635.521 134.343 635.521 132.262C635.521 129.731 636.479 127.77 638.396 126.377C640.327 124.969 643.037 124.266 646.526 124.266H650.569V122.356C650.569 120.904 650.135 119.751 649.267 118.897C648.398 118.029 647.118 117.595 645.426 117.595C643.943 117.595 642.701 117.969 641.697 118.718C640.694 119.466 640.192 120.372 640.192 121.436H636.015C636.015 120.223 636.441 119.055 637.295 117.932C638.163 116.794 639.331 115.895 640.799 115.236C642.281 114.577 643.906 114.248 645.673 114.248C648.473 114.248 650.667 114.952 652.254 116.359C653.841 117.752 654.665 119.676 654.725 122.132V133.317C654.725 135.549 655.009 137.323 655.578 138.641V139H651.221ZM644.325 135.833C645.628 135.833 646.863 135.496 648.031 134.822C649.199 134.148 650.045 133.272 650.569 132.194V127.208H647.312C642.221 127.208 639.676 128.698 639.676 131.678C639.676 132.98 640.11 133.999 640.979 134.732C641.847 135.466 642.963 135.833 644.325 135.833ZM665.169 114.697L665.304 117.752C667.16 115.416 669.586 114.248 672.581 114.248C677.717 114.248 680.308 117.146 680.353 122.94V139H676.197V122.918C676.182 121.166 675.778 119.871 674.984 119.032C674.206 118.194 672.985 117.774 671.323 117.774C669.976 117.774 668.793 118.134 667.774 118.853C666.756 119.571 665.963 120.515 665.394 121.683V139H661.238V114.697H665.169ZM685.608 126.646C685.608 122.918 686.492 119.923 688.259 117.662C690.026 115.386 692.339 114.248 695.199 114.248C698.044 114.248 700.298 115.221 701.96 117.168V104.5H706.115V139H702.297L702.095 136.395C700.433 138.431 698.119 139.449 695.154 139.449C692.339 139.449 690.041 138.296 688.259 135.99C686.492 133.684 685.608 130.674 685.608 126.961V126.646ZM689.764 127.118C689.764 129.873 690.333 132.03 691.471 133.587C692.609 135.144 694.181 135.923 696.188 135.923C698.823 135.923 700.747 134.74 701.96 132.374V121.211C700.717 118.92 698.808 117.774 696.232 117.774C694.196 117.774 692.609 118.561 691.471 120.133C690.333 121.705 689.764 124.034 689.764 127.118ZM22.6738 179.118C22.6738 182.817 21.8278 185.797 20.1357 188.058C18.4437 190.319 16.1527 191.449 13.2627 191.449C10.3128 191.449 7.99186 190.513 6.2998 188.642V200.344H2.14453V166.697H5.94043L6.14258 169.393C7.83464 167.296 10.1855 166.248 13.1953 166.248C16.1152 166.248 18.4212 167.349 20.1133 169.55C21.8203 171.751 22.6738 174.813 22.6738 178.736V179.118ZM18.5186 178.646C18.5186 175.906 17.9346 173.743 16.7666 172.155C15.5986 170.568 13.9964 169.774 11.96 169.774C9.44434 169.774 7.55762 170.89 6.2998 173.121V184.733C7.54264 186.95 9.44434 188.058 12.0049 188.058C13.9964 188.058 15.5762 187.271 16.7441 185.699C17.9271 184.112 18.5186 181.761 18.5186 178.646ZM38.0596 191.449C34.7653 191.449 32.085 190.371 30.0186 188.215C27.9521 186.044 26.9189 183.146 26.9189 179.522V178.759C26.9189 176.348 27.3757 174.199 28.2891 172.312C29.2174 170.411 30.5052 168.928 32.1523 167.865C33.8145 166.787 35.6113 166.248 37.543 166.248C40.7025 166.248 43.1582 167.289 44.9102 169.37C46.6621 171.451 47.5381 174.431 47.5381 178.31V180.039H31.0742C31.1341 182.435 31.8304 184.374 33.1631 185.856C34.5107 187.324 36.2178 188.058 38.2842 188.058C39.7516 188.058 40.9945 187.758 42.0127 187.159C43.0309 186.56 43.9219 185.767 44.6855 184.778L47.2236 186.755C45.1872 189.884 42.1325 191.449 38.0596 191.449ZM37.543 169.662C35.8659 169.662 34.4583 170.276 33.3203 171.504C32.1823 172.717 31.4785 174.424 31.209 176.625H43.3828V176.311C43.263 174.199 42.694 172.567 41.6758 171.414C40.6576 170.246 39.2799 169.662 37.543 169.662ZM64.1143 170.426C63.4854 170.321 62.804 170.269 62.0703 170.269C59.3451 170.269 57.4958 171.429 56.5225 173.75V191H52.3672V166.697H56.4102L56.4775 169.505C57.8402 167.334 59.7718 166.248 62.2725 166.248C63.0811 166.248 63.695 166.353 64.1143 166.562V170.426ZM82.1055 184.554C82.1055 183.431 81.6787 182.562 80.8252 181.948C79.9867 181.319 78.5117 180.78 76.4004 180.331C74.304 179.882 72.6344 179.343 71.3916 178.714C70.1637 178.085 69.2503 177.336 68.6514 176.468C68.0674 175.599 67.7754 174.566 67.7754 173.368C67.7754 171.377 68.6139 169.692 70.291 168.314C71.9831 166.937 74.1393 166.248 76.7598 166.248C79.515 166.248 81.7461 166.959 83.4531 168.382C85.1751 169.804 86.0361 171.624 86.0361 173.84H81.8584C81.8584 172.702 81.3717 171.721 80.3984 170.897C79.4401 170.074 78.2272 169.662 76.7598 169.662C75.2474 169.662 74.0645 169.992 73.2109 170.65C72.3574 171.309 71.9307 172.17 71.9307 173.233C71.9307 174.237 72.3275 174.993 73.1211 175.502C73.9147 176.011 75.3447 176.498 77.4111 176.962C79.4925 177.426 81.1771 177.98 82.4648 178.624C83.7526 179.268 84.7035 180.047 85.3174 180.96C85.9463 181.858 86.2607 182.959 86.2607 184.262C86.2607 186.433 85.3923 188.177 83.6553 189.495C81.9183 190.798 79.6647 191.449 76.8945 191.449C74.9479 191.449 73.2259 191.105 71.7285 190.416C70.2311 189.727 69.0557 188.769 68.2021 187.541C67.3636 186.298 66.9443 184.958 66.9443 183.521H71.0996C71.1745 184.913 71.7285 186.021 72.7617 186.845C73.8099 187.653 75.1875 188.058 76.8945 188.058C78.4668 188.058 79.7246 187.743 80.668 187.114C81.6263 186.47 82.1055 185.617 82.1055 184.554ZM90.5732 178.624C90.5732 176.243 91.0374 174.102 91.9658 172.2C92.9092 170.299 94.2119 168.831 95.874 167.798C97.5511 166.765 99.4603 166.248 101.602 166.248C104.911 166.248 107.584 167.394 109.62 169.685C111.672 171.976 112.697 175.023 112.697 178.826V179.118C112.697 181.484 112.241 183.61 111.327 185.497C110.429 187.369 109.133 188.829 107.441 189.877C105.764 190.925 103.833 191.449 101.646 191.449C98.3522 191.449 95.6794 190.304 93.6279 188.013C91.5915 185.722 90.5732 182.689 90.5732 178.916V178.624ZM94.751 179.118C94.751 181.813 95.3724 183.977 96.6152 185.609C97.873 187.242 99.5501 188.058 101.646 188.058C103.758 188.058 105.435 187.234 106.678 185.587C107.921 183.925 108.542 181.604 108.542 178.624C108.542 175.959 107.906 173.802 106.633 172.155C105.375 170.493 103.698 169.662 101.602 169.662C99.5501 169.662 97.8955 170.478 96.6377 172.11C95.3799 173.743 94.751 176.078 94.751 179.118ZM121.839 166.697L121.974 169.752C123.83 167.416 126.256 166.248 129.251 166.248C134.387 166.248 136.978 169.146 137.022 174.94V191H132.867V174.918C132.852 173.166 132.448 171.871 131.654 171.032C130.876 170.194 129.655 169.774 127.993 169.774C126.646 169.774 125.463 170.134 124.444 170.853C123.426 171.571 122.632 172.515 122.063 173.683V191H117.908V166.697H121.839ZM158.293 191C158.053 190.521 157.859 189.667 157.709 188.439C155.777 190.446 153.471 191.449 150.791 191.449C148.395 191.449 146.426 190.775 144.884 189.428C143.356 188.065 142.593 186.343 142.593 184.262C142.593 181.731 143.551 179.77 145.468 178.377C147.399 176.969 150.11 176.266 153.599 176.266H157.642V174.356C157.642 172.904 157.207 171.751 156.339 170.897C155.47 170.029 154.19 169.595 152.498 169.595C151.016 169.595 149.773 169.969 148.77 170.718C147.766 171.466 147.265 172.372 147.265 173.436H143.087C143.087 172.223 143.514 171.055 144.367 169.932C145.236 168.794 146.404 167.895 147.871 167.236C149.354 166.577 150.978 166.248 152.745 166.248C155.545 166.248 157.739 166.952 159.326 168.359C160.913 169.752 161.737 171.676 161.797 174.132V185.317C161.797 187.549 162.081 189.323 162.65 190.641V191H158.293ZM151.397 187.833C152.7 187.833 153.936 187.496 155.104 186.822C156.271 186.148 157.118 185.272 157.642 184.194V179.208H154.385C149.294 179.208 146.748 180.698 146.748 183.678C146.748 184.98 147.182 185.999 148.051 186.732C148.919 187.466 150.035 187.833 151.397 187.833ZM172.825 191H168.67V156.5H172.825V191ZM179.361 197.514L177.003 195.896C178.41 193.935 179.144 191.913 179.204 189.832V186.081H183.27V189.338C183.27 190.85 182.895 192.363 182.146 193.875C181.413 195.387 180.484 196.6 179.361 197.514ZM214.939 191C214.7 190.521 214.505 189.667 214.355 188.439C212.424 190.446 210.118 191.449 207.438 191.449C205.042 191.449 203.073 190.775 201.53 189.428C200.003 188.065 199.239 186.343 199.239 184.262C199.239 181.731 200.198 179.77 202.114 178.377C204.046 176.969 206.756 176.266 210.245 176.266H214.288V174.356C214.288 172.904 213.854 171.751 212.985 170.897C212.117 170.029 210.837 169.595 209.145 169.595C207.662 169.595 206.419 169.969 205.416 170.718C204.413 171.466 203.911 172.372 203.911 173.436H199.733C199.733 172.223 200.16 171.055 201.014 169.932C201.882 168.794 203.05 167.895 204.518 167.236C206 166.577 207.625 166.248 209.392 166.248C212.192 166.248 214.385 166.952 215.973 168.359C217.56 169.752 218.383 171.676 218.443 174.132V185.317C218.443 187.549 218.728 189.323 219.297 190.641V191H214.939ZM208.044 187.833C209.347 187.833 210.582 187.496 211.75 186.822C212.918 186.148 213.764 185.272 214.288 184.194V179.208H211.031C205.94 179.208 203.395 180.698 203.395 183.678C203.395 184.98 203.829 185.999 204.697 186.732C205.566 187.466 206.681 187.833 208.044 187.833ZM228.888 166.697L229.022 169.752C230.879 167.416 233.305 166.248 236.3 166.248C241.436 166.248 244.026 169.146 244.071 174.94V191H239.916V174.918C239.901 173.166 239.497 171.871 238.703 171.032C237.924 170.194 236.704 169.774 235.042 169.774C233.694 169.774 232.511 170.134 231.493 170.853C230.475 171.571 229.681 172.515 229.112 173.683V191H224.957V166.697H228.888ZM249.327 178.646C249.327 174.918 250.211 171.923 251.978 169.662C253.744 167.386 256.058 166.248 258.918 166.248C261.763 166.248 264.017 167.221 265.679 169.168V156.5H269.834V191H266.016L265.813 188.395C264.151 190.431 261.838 191.449 258.873 191.449C256.058 191.449 253.759 190.296 251.978 187.99C250.211 185.684 249.327 182.674 249.327 178.961V178.646ZM253.482 179.118C253.482 181.873 254.051 184.03 255.189 185.587C256.327 187.144 257.9 187.923 259.906 187.923C262.542 187.923 264.466 186.74 265.679 184.374V173.211C264.436 170.92 262.527 169.774 259.951 169.774C257.915 169.774 256.327 170.561 255.189 172.133C254.051 173.705 253.482 176.034 253.482 179.118ZM299.46 170.426C298.831 170.321 298.15 170.269 297.416 170.269C294.691 170.269 292.841 171.429 291.868 173.75V191H287.713V166.697H291.756L291.823 169.505C293.186 167.334 295.118 166.248 297.618 166.248C298.427 166.248 299.041 166.353 299.46 166.562V170.426ZM312.937 191.449C309.642 191.449 306.962 190.371 304.896 188.215C302.829 186.044 301.796 183.146 301.796 179.522V178.759C301.796 176.348 302.253 174.199 303.166 172.312C304.094 170.411 305.382 168.928 307.029 167.865C308.691 166.787 310.488 166.248 312.42 166.248C315.579 166.248 318.035 167.289 319.787 169.37C321.539 171.451 322.415 174.431 322.415 178.31V180.039H305.951C306.011 182.435 306.707 184.374 308.04 185.856C309.388 187.324 311.095 188.058 313.161 188.058C314.629 188.058 315.871 187.758 316.89 187.159C317.908 186.56 318.799 185.767 319.562 184.778L322.101 186.755C320.064 189.884 317.009 191.449 312.937 191.449ZM312.42 169.662C310.743 169.662 309.335 170.276 308.197 171.504C307.059 172.717 306.355 174.424 306.086 176.625H318.26V176.311C318.14 174.199 317.571 172.567 316.553 171.414C315.535 170.246 314.157 169.662 312.42 169.662ZM332.882 160.812V166.697H337.419V169.909H332.882V184.98C332.882 185.954 333.084 186.688 333.488 187.182C333.893 187.661 334.581 187.9 335.555 187.9C336.034 187.9 336.693 187.811 337.531 187.631V191C336.438 191.299 335.375 191.449 334.342 191.449C332.485 191.449 331.085 190.888 330.142 189.765C329.198 188.642 328.727 187.047 328.727 184.98V169.909H324.302V166.697H328.727V160.812H332.882ZM346.448 169.64C348.29 167.379 350.686 166.248 353.636 166.248C358.772 166.248 361.362 169.146 361.407 174.94V191H357.252V174.918C357.237 173.166 356.833 171.871 356.039 171.032C355.26 170.194 354.04 169.774 352.378 169.774C351.03 169.774 349.847 170.134 348.829 170.853C347.811 171.571 347.017 172.515 346.448 173.683V191H342.293V156.5H346.448V169.64ZM372.144 191H367.988V166.697H372.144V191ZM367.651 160.251C367.651 159.577 367.854 159.008 368.258 158.544C368.677 158.08 369.291 157.848 370.1 157.848C370.908 157.848 371.522 158.08 371.941 158.544C372.361 159.008 372.57 159.577 372.57 160.251C372.57 160.925 372.361 161.486 371.941 161.936C371.522 162.385 370.908 162.609 370.1 162.609C369.291 162.609 368.677 162.385 368.258 161.936C367.854 161.486 367.651 160.925 367.651 160.251ZM382.745 166.697L382.88 169.752C384.737 167.416 387.162 166.248 390.157 166.248C395.293 166.248 397.884 169.146 397.929 174.94V191H393.773V174.918C393.758 173.166 393.354 171.871 392.561 171.032C391.782 170.194 390.562 169.774 388.899 169.774C387.552 169.774 386.369 170.134 385.351 170.853C384.332 171.571 383.539 172.515 382.97 173.683V191H378.814V166.697H382.745ZM410.979 179.747L408.373 182.465V191H404.218V156.5H408.373V177.366L410.597 174.693L418.166 166.697H423.22L413.764 176.85L424.32 191H419.446L410.979 179.747ZM432.024 191H427.869V166.697H432.024V191ZM427.532 160.251C427.532 159.577 427.734 159.008 428.139 158.544C428.558 158.08 429.172 157.848 429.98 157.848C430.789 157.848 431.403 158.08 431.822 158.544C432.242 159.008 432.451 159.577 432.451 160.251C432.451 160.925 432.242 161.486 431.822 161.936C431.403 162.385 430.789 162.609 429.98 162.609C429.172 162.609 428.558 162.385 428.139 161.936C427.734 161.486 427.532 160.925 427.532 160.251ZM442.626 166.697L442.761 169.752C444.618 167.416 447.043 166.248 450.038 166.248C455.174 166.248 457.765 169.146 457.81 174.94V191H453.654V174.918C453.639 173.166 453.235 171.871 452.441 171.032C451.663 170.194 450.442 169.774 448.78 169.774C447.433 169.774 446.25 170.134 445.231 170.853C444.213 171.571 443.42 172.515 442.851 173.683V191H438.695V166.697H442.626ZM463.088 178.646C463.088 174.858 463.964 171.848 465.716 169.617C467.468 167.371 469.789 166.248 472.679 166.248C475.644 166.248 477.957 167.296 479.619 169.393L479.821 166.697H483.617V190.416C483.617 193.561 482.681 196.039 480.81 197.851C478.953 199.662 476.452 200.568 473.308 200.568C471.556 200.568 469.841 200.194 468.164 199.445C466.487 198.697 465.207 197.671 464.323 196.368L466.479 193.875C468.261 196.076 470.44 197.177 473.016 197.177C475.037 197.177 476.609 196.608 477.732 195.47C478.87 194.332 479.439 192.729 479.439 190.663V188.574C477.777 190.491 475.509 191.449 472.634 191.449C469.789 191.449 467.483 190.304 465.716 188.013C463.964 185.722 463.088 182.6 463.088 178.646ZM467.266 179.118C467.266 181.858 467.827 184.015 468.95 185.587C470.073 187.144 471.646 187.923 473.667 187.923C476.287 187.923 478.212 186.732 479.439 184.352V173.256C478.167 170.935 476.257 169.774 473.712 169.774C471.69 169.774 470.111 170.561 468.973 172.133C467.835 173.705 467.266 176.034 467.266 179.118ZM511.401 191.449C508.107 191.449 505.427 190.371 503.36 188.215C501.294 186.044 500.261 183.146 500.261 179.522V178.759C500.261 176.348 500.717 174.199 501.631 172.312C502.559 170.411 503.847 168.928 505.494 167.865C507.156 166.787 508.953 166.248 510.885 166.248C514.044 166.248 516.5 167.289 518.252 169.37C520.004 171.451 520.88 174.431 520.88 178.31V180.039H504.416C504.476 182.435 505.172 184.374 506.505 185.856C507.853 187.324 509.56 188.058 511.626 188.058C513.093 188.058 514.336 187.758 515.354 187.159C516.373 186.56 517.264 185.767 518.027 184.778L520.565 186.755C518.529 189.884 515.474 191.449 511.401 191.449ZM510.885 169.662C509.208 169.662 507.8 170.276 506.662 171.504C505.524 172.717 504.82 174.424 504.551 176.625H516.725V176.311C516.605 174.199 516.036 172.567 515.018 171.414C513.999 170.246 512.622 169.662 510.885 169.662ZM533.413 185.362L539.433 166.697H543.678L534.963 191H531.796L522.991 166.697H527.236L533.413 185.362ZM557.446 191.449C554.152 191.449 551.472 190.371 549.405 188.215C547.339 186.044 546.306 183.146 546.306 179.522V178.759C546.306 176.348 546.762 174.199 547.676 172.312C548.604 170.411 549.892 168.928 551.539 167.865C553.201 166.787 554.998 166.248 556.93 166.248C560.089 166.248 562.545 167.289 564.297 169.37C566.049 171.451 566.925 174.431 566.925 178.31V180.039H550.461C550.521 182.435 551.217 184.374 552.55 185.856C553.897 187.324 555.604 188.058 557.671 188.058C559.138 188.058 560.381 187.758 561.399 187.159C562.418 186.56 563.309 185.767 564.072 184.778L566.61 186.755C564.574 189.884 561.519 191.449 557.446 191.449ZM556.93 169.662C555.253 169.662 553.845 170.276 552.707 171.504C551.569 172.717 550.865 174.424 550.596 176.625H562.77V176.311C562.65 174.199 562.081 172.567 561.062 171.414C560.044 170.246 558.667 169.662 556.93 169.662ZM583.501 170.426C582.872 170.321 582.191 170.269 581.457 170.269C578.732 170.269 576.882 171.429 575.909 173.75V191H571.754V166.697H575.797L575.864 169.505C577.227 167.334 579.159 166.248 581.659 166.248C582.468 166.248 583.082 166.353 583.501 166.562V170.426ZM595.697 184.913L601.357 166.697H605.805L596.034 194.751C594.522 198.794 592.118 200.815 588.824 200.815L588.038 200.748L586.488 200.456V197.087L587.611 197.177C589.019 197.177 590.112 196.892 590.891 196.323C591.684 195.754 592.336 194.714 592.845 193.201L593.766 190.73L585.096 166.697H589.633L595.697 184.913ZM635.094 184.554C635.094 183.431 634.667 182.562 633.813 181.948C632.975 181.319 631.5 180.78 629.389 180.331C627.292 179.882 625.623 179.343 624.38 178.714C623.152 178.085 622.239 177.336 621.64 176.468C621.056 175.599 620.764 174.566 620.764 173.368C620.764 171.377 621.602 169.692 623.279 168.314C624.971 166.937 627.128 166.248 629.748 166.248C632.503 166.248 634.734 166.959 636.441 168.382C638.163 169.804 639.024 171.624 639.024 173.84H634.847C634.847 172.702 634.36 171.721 633.387 170.897C632.428 170.074 631.215 169.662 629.748 169.662C628.236 169.662 627.053 169.992 626.199 170.65C625.346 171.309 624.919 172.17 624.919 173.233C624.919 174.237 625.316 174.993 626.109 175.502C626.903 176.011 628.333 176.498 630.399 176.962C632.481 177.426 634.165 177.98 635.453 178.624C636.741 179.268 637.692 180.047 638.306 180.96C638.935 181.858 639.249 182.959 639.249 184.262C639.249 186.433 638.381 188.177 636.644 189.495C634.907 190.798 632.653 191.449 629.883 191.449C627.936 191.449 626.214 191.105 624.717 190.416C623.219 189.727 622.044 188.769 621.19 187.541C620.352 186.298 619.933 184.958 619.933 183.521H624.088C624.163 184.913 624.717 186.021 625.75 186.845C626.798 187.653 628.176 188.058 629.883 188.058C631.455 188.058 632.713 187.743 633.656 187.114C634.615 186.47 635.094 185.617 635.094 184.554ZM650.3 160.812V166.697H654.837V169.909H650.3V184.98C650.3 185.954 650.502 186.688 650.906 187.182C651.311 187.661 651.999 187.9 652.973 187.9C653.452 187.9 654.111 187.811 654.949 187.631V191C653.856 191.299 652.793 191.449 651.76 191.449C649.903 191.449 648.503 190.888 647.56 189.765C646.616 188.642 646.145 187.047 646.145 184.98V169.909H641.72V166.697H646.145V160.812H650.3ZM669.796 191.449C666.502 191.449 663.821 190.371 661.755 188.215C659.688 186.044 658.655 183.146 658.655 179.522V178.759C658.655 176.348 659.112 174.199 660.025 172.312C660.954 170.411 662.242 168.928 663.889 167.865C665.551 166.787 667.348 166.248 669.279 166.248C672.439 166.248 674.895 167.289 676.646 169.37C678.398 171.451 679.274 174.431 679.274 178.31V180.039H662.811C662.87 182.435 663.567 184.374 664.899 185.856C666.247 187.324 667.954 188.058 670.021 188.058C671.488 188.058 672.731 187.758 673.749 187.159C674.767 186.56 675.658 185.767 676.422 184.778L678.96 186.755C676.924 189.884 673.869 191.449 669.796 191.449ZM669.279 169.662C667.602 169.662 666.195 170.276 665.057 171.504C663.919 172.717 663.215 174.424 662.945 176.625H675.119V176.311C674.999 174.199 674.43 172.567 673.412 171.414C672.394 170.246 671.016 169.662 669.279 169.662ZM704.633 179.118C704.633 182.817 703.787 185.797 702.095 188.058C700.403 190.319 698.112 191.449 695.222 191.449C692.272 191.449 689.951 190.513 688.259 188.642V200.344H684.104V166.697H687.899L688.102 169.393C689.794 167.296 692.145 166.248 695.154 166.248C698.074 166.248 700.38 167.349 702.072 169.55C703.779 171.751 704.633 174.813 704.633 178.736V179.118ZM700.478 178.646C700.478 175.906 699.894 173.743 698.726 172.155C697.558 170.568 695.955 169.774 693.919 169.774C691.403 169.774 689.517 170.89 688.259 173.121V184.733C689.502 186.95 691.403 188.058 693.964 188.058C695.955 188.058 697.535 187.271 698.703 185.699C699.886 184.112 700.478 181.761 700.478 178.646ZM720.243 178.624C720.243 176.243 720.707 174.102 721.636 172.2C722.579 170.299 723.882 168.831 725.544 167.798C727.221 166.765 729.13 166.248 731.271 166.248C734.581 166.248 737.254 167.394 739.29 169.685C741.341 171.976 742.367 175.023 742.367 178.826V179.118C742.367 181.484 741.91 183.61 740.997 185.497C740.099 187.369 738.803 188.829 737.111 189.877C735.434 190.925 733.503 191.449 731.316 191.449C728.022 191.449 725.349 190.304 723.298 188.013C721.261 185.722 720.243 182.689 720.243 178.916V178.624ZM724.421 179.118C724.421 181.813 725.042 183.977 726.285 185.609C727.543 187.242 729.22 188.058 731.316 188.058C733.428 188.058 735.105 187.234 736.348 185.587C737.59 183.925 738.212 181.604 738.212 178.624C738.212 175.959 737.576 173.802 736.303 172.155C735.045 170.493 733.368 169.662 731.271 169.662C729.22 169.662 727.565 170.478 726.308 172.11C725.05 173.743 724.421 176.078 724.421 179.118ZM749.622 191V169.909H745.781V166.697H749.622V164.204C749.622 161.599 750.318 159.585 751.711 158.162C753.104 156.74 755.073 156.028 757.618 156.028C758.576 156.028 759.527 156.156 760.471 156.41L760.246 159.779C759.542 159.645 758.794 159.577 758 159.577C756.652 159.577 755.612 159.974 754.878 160.768C754.144 161.546 753.777 162.669 753.777 164.137V166.697H758.966V169.909H753.777V191H749.622ZM780.618 160.812V166.697H785.155V169.909H780.618V184.98C780.618 185.954 780.82 186.688 781.225 187.182C781.629 187.661 782.318 187.9 783.291 187.9C783.77 187.9 784.429 187.811 785.268 187.631V191C784.174 191.299 783.111 191.449 782.078 191.449C780.221 191.449 778.821 190.888 777.878 189.765C776.935 188.642 776.463 187.047 776.463 184.98V169.909H772.038V166.697H776.463V160.812H780.618ZM794.185 169.64C796.026 167.379 798.422 166.248 801.372 166.248C806.508 166.248 809.099 169.146 809.144 174.94V191H804.988V174.918C804.973 173.166 804.569 171.871 803.775 171.032C802.997 170.194 801.776 169.774 800.114 169.774C798.767 169.774 797.584 170.134 796.565 170.853C795.547 171.571 794.754 172.515 794.185 173.683V191H790.029V156.5H794.185V169.64ZM825.45 191.449C822.156 191.449 819.476 190.371 817.409 188.215C815.343 186.044 814.31 183.146 814.31 179.522V178.759C814.31 176.348 814.766 174.199 815.68 172.312C816.608 170.411 817.896 168.928 819.543 167.865C821.205 166.787 823.002 166.248 824.934 166.248C828.093 166.248 830.549 167.289 832.301 169.37C834.053 171.451 834.929 174.431 834.929 178.31V180.039H818.465C818.525 182.435 819.221 184.374 820.554 185.856C821.901 187.324 823.608 188.058 825.675 188.058C827.142 188.058 828.385 187.758 829.403 187.159C830.422 186.56 831.312 185.767 832.076 184.778L834.614 186.755C832.578 189.884 829.523 191.449 825.45 191.449ZM824.934 169.662C823.257 169.662 821.849 170.276 820.711 171.504C819.573 172.717 818.869 174.424 818.6 176.625H830.773V176.311C830.654 174.199 830.085 172.567 829.066 171.414C828.048 170.246 826.671 169.662 824.934 169.662ZM17.1484 240.597C15.5312 242.498 13.1579 243.449 10.0283 243.449C7.43783 243.449 5.46126 242.701 4.09863 241.203C2.75098 239.691 2.06966 237.46 2.05469 234.51V218.697H6.20996V234.397C6.20996 238.081 7.70736 239.923 10.7021 239.923C13.8766 239.923 15.988 238.74 17.0361 236.374V218.697H21.1914V243H17.2383L17.1484 240.597ZM41.6758 236.554C41.6758 235.431 41.249 234.562 40.3955 233.948C39.557 233.319 38.082 232.78 35.9707 232.331C33.8743 231.882 32.2048 231.343 30.9619 230.714C29.734 230.085 28.8206 229.336 28.2217 228.468C27.6377 227.599 27.3457 226.566 27.3457 225.368C27.3457 223.377 28.1842 221.692 29.8613 220.314C31.5534 218.937 33.7096 218.248 36.3301 218.248C39.0853 218.248 41.3164 218.959 43.0234 220.382C44.7454 221.804 45.6064 223.624 45.6064 225.84H41.4287C41.4287 224.702 40.9421 223.721 39.9688 222.897C39.0104 222.074 37.7975 221.662 36.3301 221.662C34.8177 221.662 33.6348 221.992 32.7812 222.65C31.9277 223.309 31.501 224.17 31.501 225.233C31.501 226.237 31.8978 226.993 32.6914 227.502C33.485 228.011 34.915 228.498 36.9814 228.962C39.0628 229.426 40.7474 229.98 42.0352 230.624C43.3229 231.268 44.2738 232.047 44.8877 232.96C45.5166 233.858 45.8311 234.959 45.8311 236.262C45.8311 238.433 44.9626 240.177 43.2256 241.495C41.4886 242.798 39.235 243.449 36.4648 243.449C34.5182 243.449 32.7962 243.105 31.2988 242.416C29.8014 241.727 28.626 240.769 27.7725 239.541C26.9339 238.298 26.5146 236.958 26.5146 235.521H30.6699C30.7448 236.913 31.2988 238.021 32.332 238.845C33.3802 239.653 34.7578 240.058 36.4648 240.058C38.0371 240.058 39.2949 239.743 40.2383 239.114C41.1966 238.47 41.6758 237.617 41.6758 236.554ZM61.3291 243.449C58.0348 243.449 55.3545 242.371 53.2881 240.215C51.2217 238.044 50.1885 235.146 50.1885 231.522V230.759C50.1885 228.348 50.6452 226.199 51.5586 224.312C52.487 222.411 53.7747 220.928 55.4219 219.865C57.084 218.787 58.8809 218.248 60.8125 218.248C63.972 218.248 66.4277 219.289 68.1797 221.37C69.9316 223.451 70.8076 226.431 70.8076 230.31V232.039H54.3438C54.4036 234.435 55.0999 236.374 56.4326 237.856C57.7803 239.324 59.4873 240.058 61.5537 240.058C63.0212 240.058 64.264 239.758 65.2822 239.159C66.3005 238.56 67.1914 237.767 67.9551 236.778L70.4932 238.755C68.4567 241.884 65.402 243.449 61.3291 243.449ZM60.8125 221.662C59.1354 221.662 57.7279 222.276 56.5898 223.504C55.4518 224.717 54.748 226.424 54.4785 228.625H66.6523V228.311C66.5326 226.199 65.9635 224.567 64.9453 223.414C63.9271 222.246 62.5495 221.662 60.8125 221.662ZM87.3838 222.426C86.7549 222.321 86.0736 222.269 85.3398 222.269C82.6146 222.269 80.7653 223.429 79.792 225.75V243H75.6367V218.697H79.6797L79.7471 221.505C81.1097 219.334 83.0413 218.248 85.542 218.248C86.3506 218.248 86.9645 218.353 87.3838 218.562V222.426ZM112.72 243.449C109.425 243.449 106.745 242.371 104.679 240.215C102.612 238.044 101.579 235.146 101.579 231.522V230.759C101.579 228.348 102.036 226.199 102.949 224.312C103.878 222.411 105.165 220.928 106.812 219.865C108.475 218.787 110.271 218.248 112.203 218.248C115.363 218.248 117.818 219.289 119.57 221.37C121.322 223.451 122.198 226.431 122.198 230.31V232.039H105.734C105.794 234.435 106.491 236.374 107.823 237.856C109.171 239.324 110.878 240.058 112.944 240.058C114.412 240.058 115.655 239.758 116.673 239.159C117.691 238.56 118.582 237.767 119.346 236.778L121.884 238.755C119.847 241.884 116.793 243.449 112.72 243.449ZM112.203 221.662C110.526 221.662 109.118 222.276 107.98 223.504C106.842 224.717 106.139 226.424 105.869 228.625H118.043V228.311C117.923 226.199 117.354 224.567 116.336 223.414C115.318 222.246 113.94 221.662 112.203 221.662ZM135.181 227.569L140.571 218.697H145.423L137.472 230.714L145.67 243H140.863L135.248 233.903L129.633 243H124.804L133.002 230.714L125.051 218.697H129.857L135.181 227.569ZM170.377 231.118C170.377 234.817 169.531 237.797 167.839 240.058C166.147 242.319 163.856 243.449 160.966 243.449C158.016 243.449 155.695 242.513 154.003 240.642V252.344H149.848V218.697H153.644L153.846 221.393C155.538 219.296 157.889 218.248 160.898 218.248C163.818 218.248 166.124 219.349 167.816 221.55C169.523 223.751 170.377 226.813 170.377 230.736V231.118ZM166.222 230.646C166.222 227.906 165.638 225.743 164.47 224.155C163.302 222.568 161.7 221.774 159.663 221.774C157.147 221.774 155.261 222.89 154.003 225.121V236.733C155.246 238.95 157.147 240.058 159.708 240.058C161.7 240.058 163.279 239.271 164.447 237.699C165.63 236.112 166.222 233.761 166.222 230.646ZM185.763 243.449C182.468 243.449 179.788 242.371 177.722 240.215C175.655 238.044 174.622 235.146 174.622 231.522V230.759C174.622 228.348 175.079 226.199 175.992 224.312C176.921 222.411 178.208 220.928 179.855 219.865C181.518 218.787 183.314 218.248 185.246 218.248C188.406 218.248 190.861 219.289 192.613 221.37C194.365 223.451 195.241 226.431 195.241 230.31V232.039H178.777C178.837 234.435 179.534 236.374 180.866 237.856C182.214 239.324 183.921 240.058 185.987 240.058C187.455 240.058 188.698 239.758 189.716 239.159C190.734 238.56 191.625 237.767 192.389 236.778L194.927 238.755C192.89 241.884 189.836 243.449 185.763 243.449ZM185.246 221.662C183.569 221.662 182.161 222.276 181.023 223.504C179.885 224.717 179.182 226.424 178.912 228.625H191.086V228.311C190.966 226.199 190.397 224.567 189.379 223.414C188.361 222.246 186.983 221.662 185.246 221.662ZM211.817 222.426C211.188 222.321 210.507 222.269 209.773 222.269C207.048 222.269 205.199 223.429 204.226 225.75V243H200.07V218.697H204.113L204.181 221.505C205.543 219.334 207.475 218.248 209.976 218.248C210.784 218.248 211.398 218.353 211.817 218.562V222.426ZM220.173 243H216.018V218.697H220.173V243ZM215.681 212.251C215.681 211.577 215.883 211.008 216.287 210.544C216.706 210.08 217.32 209.848 218.129 209.848C218.938 209.848 219.551 210.08 219.971 210.544C220.39 211.008 220.6 211.577 220.6 212.251C220.6 212.925 220.39 213.486 219.971 213.936C219.551 214.385 218.938 214.609 218.129 214.609C217.32 214.609 216.706 214.385 216.287 213.936C215.883 213.486 215.681 212.925 215.681 212.251ZM236.929 243.449C233.634 243.449 230.954 242.371 228.888 240.215C226.821 238.044 225.788 235.146 225.788 231.522V230.759C225.788 228.348 226.245 226.199 227.158 224.312C228.087 222.411 229.374 220.928 231.021 219.865C232.684 218.787 234.48 218.248 236.412 218.248C239.572 218.248 242.027 219.289 243.779 221.37C245.531 223.451 246.407 226.431 246.407 230.31V232.039H229.943C230.003 234.435 230.7 236.374 232.032 237.856C233.38 239.324 235.087 240.058 237.153 240.058C238.621 240.058 239.864 239.758 240.882 239.159C241.9 238.56 242.791 237.767 243.555 236.778L246.093 238.755C244.056 241.884 241.002 243.449 236.929 243.449ZM236.412 221.662C234.735 221.662 233.327 222.276 232.189 223.504C231.051 224.717 230.348 226.424 230.078 228.625H242.252V228.311C242.132 226.199 241.563 224.567 240.545 223.414C239.527 222.246 238.149 221.662 236.412 221.662ZM255.167 218.697L255.302 221.752C257.159 219.416 259.584 218.248 262.579 218.248C267.715 218.248 270.306 221.146 270.351 226.94V243H266.195V226.918C266.18 225.166 265.776 223.871 264.982 223.032C264.204 222.194 262.983 221.774 261.321 221.774C259.974 221.774 258.791 222.134 257.772 222.853C256.754 223.571 255.961 224.515 255.392 225.683V243H251.236V218.697H255.167ZM286.365 240.058C287.848 240.058 289.143 239.608 290.251 238.71C291.359 237.812 291.973 236.688 292.093 235.341H296.023C295.949 236.733 295.469 238.059 294.586 239.316C293.702 240.574 292.52 241.577 291.037 242.326C289.57 243.075 288.012 243.449 286.365 243.449C283.056 243.449 280.421 242.349 278.459 240.147C276.512 237.931 275.539 234.907 275.539 231.073V230.377C275.539 228.011 275.973 225.907 276.842 224.065C277.71 222.224 278.953 220.794 280.57 219.775C282.202 218.757 284.127 218.248 286.343 218.248C289.068 218.248 291.329 219.064 293.126 220.696C294.938 222.328 295.904 224.447 296.023 227.053H292.093C291.973 225.48 291.374 224.193 290.296 223.189C289.233 222.171 287.915 221.662 286.343 221.662C284.231 221.662 282.592 222.426 281.424 223.953C280.271 225.465 279.694 227.659 279.694 230.534V231.32C279.694 234.12 280.271 236.277 281.424 237.789C282.577 239.301 284.224 240.058 286.365 240.058ZM310.78 243.449C307.486 243.449 304.806 242.371 302.739 240.215C300.673 238.044 299.64 235.146 299.64 231.522V230.759C299.64 228.348 300.096 226.199 301.01 224.312C301.938 222.411 303.226 220.928 304.873 219.865C306.535 218.787 308.332 218.248 310.264 218.248C313.423 218.248 315.879 219.289 317.631 221.37C319.383 223.451 320.259 226.431 320.259 230.31V232.039H303.795C303.855 234.435 304.551 236.374 305.884 237.856C307.231 239.324 308.938 240.058 311.005 240.058C312.472 240.058 313.715 239.758 314.733 239.159C315.752 238.56 316.643 237.767 317.406 236.778L319.944 238.755C317.908 241.884 314.853 243.449 310.78 243.449ZM310.264 221.662C308.587 221.662 307.179 222.276 306.041 223.504C304.903 224.717 304.199 226.424 303.93 228.625H316.104V228.311C315.984 226.199 315.415 224.567 314.396 223.414C313.378 222.246 312.001 221.662 310.264 221.662ZM351.502 243C351.262 242.521 351.068 241.667 350.918 240.439C348.986 242.446 346.68 243.449 344 243.449C341.604 243.449 339.635 242.775 338.093 241.428C336.565 240.065 335.802 238.343 335.802 236.262C335.802 233.731 336.76 231.77 338.677 230.377C340.608 228.969 343.319 228.266 346.808 228.266H350.851V226.356C350.851 224.904 350.416 223.751 349.548 222.897C348.679 222.029 347.399 221.595 345.707 221.595C344.225 221.595 342.982 221.969 341.979 222.718C340.975 223.466 340.474 224.372 340.474 225.436H336.296C336.296 224.223 336.723 223.055 337.576 221.932C338.445 220.794 339.613 219.895 341.08 219.236C342.562 218.577 344.187 218.248 345.954 218.248C348.754 218.248 350.948 218.952 352.535 220.359C354.122 221.752 354.946 223.676 355.006 226.132V237.317C355.006 239.549 355.29 241.323 355.859 242.641V243H351.502ZM344.606 239.833C345.909 239.833 347.145 239.496 348.312 238.822C349.48 238.148 350.326 237.272 350.851 236.194V231.208H347.594C342.503 231.208 339.957 232.698 339.957 235.678C339.957 236.98 340.391 237.999 341.26 238.732C342.128 239.466 343.244 239.833 344.606 239.833ZM366.034 243H361.879V208.5H366.034V243ZM371.604 230.624C371.604 228.243 372.069 226.102 372.997 224.2C373.94 222.299 375.243 220.831 376.905 219.798C378.582 218.765 380.492 218.248 382.633 218.248C385.942 218.248 388.615 219.394 390.651 221.685C392.703 223.976 393.729 227.023 393.729 230.826V231.118C393.729 233.484 393.272 235.61 392.358 237.497C391.46 239.369 390.165 240.829 388.473 241.877C386.796 242.925 384.864 243.449 382.678 243.449C379.383 243.449 376.711 242.304 374.659 240.013C372.623 237.722 371.604 234.689 371.604 230.916V230.624ZM375.782 231.118C375.782 233.813 376.404 235.977 377.646 237.609C378.904 239.242 380.581 240.058 382.678 240.058C384.789 240.058 386.466 239.234 387.709 237.587C388.952 235.925 389.573 233.604 389.573 230.624C389.573 227.959 388.937 225.802 387.664 224.155C386.406 222.493 384.729 221.662 382.633 221.662C380.581 221.662 378.927 222.478 377.669 224.11C376.411 225.743 375.782 228.078 375.782 231.118ZM402.87 218.697L403.005 221.752C404.862 219.416 407.287 218.248 410.282 218.248C415.418 218.248 418.009 221.146 418.054 226.94V243H413.898V226.918C413.883 225.166 413.479 223.871 412.686 223.032C411.907 222.194 410.687 221.774 409.024 221.774C407.677 221.774 406.494 222.134 405.476 222.853C404.457 223.571 403.664 224.515 403.095 225.683V243H398.939V218.697H402.87ZM423.332 230.646C423.332 226.858 424.208 223.848 425.96 221.617C427.712 219.371 430.033 218.248 432.923 218.248C435.888 218.248 438.201 219.296 439.863 221.393L440.065 218.697H443.861V242.416C443.861 245.561 442.925 248.039 441.054 249.851C439.197 251.662 436.696 252.568 433.552 252.568C431.8 252.568 430.085 252.194 428.408 251.445C426.731 250.697 425.451 249.671 424.567 248.368L426.724 245.875C428.506 248.076 430.684 249.177 433.26 249.177C435.281 249.177 436.854 248.608 437.977 247.47C439.115 246.332 439.684 244.729 439.684 242.663V240.574C438.021 242.491 435.753 243.449 432.878 243.449C430.033 243.449 427.727 242.304 425.96 240.013C424.208 237.722 423.332 234.6 423.332 230.646ZM427.51 231.118C427.51 233.858 428.071 236.015 429.194 237.587C430.317 239.144 431.89 239.923 433.911 239.923C436.532 239.923 438.456 238.732 439.684 236.352V225.256C438.411 222.935 436.502 221.774 433.956 221.774C431.935 221.774 430.355 222.561 429.217 224.133C428.079 225.705 427.51 228.034 427.51 231.118ZM467.198 212.812V218.697H471.735V221.909H467.198V236.98C467.198 237.954 467.4 238.688 467.805 239.182C468.209 239.661 468.898 239.9 469.871 239.9C470.35 239.9 471.009 239.811 471.848 239.631V243C470.755 243.299 469.691 243.449 468.658 243.449C466.801 243.449 465.401 242.888 464.458 241.765C463.515 240.642 463.043 239.047 463.043 236.98V221.909H458.618V218.697H463.043V212.812H467.198ZM480.765 221.64C482.606 219.379 485.002 218.248 487.952 218.248C493.088 218.248 495.679 221.146 495.724 226.94V243H491.568V226.918C491.553 225.166 491.149 223.871 490.355 223.032C489.577 222.194 488.356 221.774 486.694 221.774C485.347 221.774 484.164 222.134 483.146 222.853C482.127 223.571 481.334 224.515 480.765 225.683V243H476.609V208.5H480.765V221.64ZM512.03 243.449C508.736 243.449 506.056 242.371 503.989 240.215C501.923 238.044 500.89 235.146 500.89 231.522V230.759C500.89 228.348 501.346 226.199 502.26 224.312C503.188 222.411 504.476 220.928 506.123 219.865C507.785 218.787 509.582 218.248 511.514 218.248C514.673 218.248 517.129 219.289 518.881 221.37C520.633 223.451 521.509 226.431 521.509 230.31V232.039H505.045C505.105 234.435 505.801 236.374 507.134 237.856C508.481 239.324 510.188 240.058 512.255 240.058C513.722 240.058 514.965 239.758 515.983 239.159C517.002 238.56 517.893 237.767 518.656 236.778L521.194 238.755C519.158 241.884 516.103 243.449 512.03 243.449ZM511.514 221.662C509.837 221.662 508.429 222.276 507.291 223.504C506.153 224.717 505.449 226.424 505.18 228.625H517.354V228.311C517.234 226.199 516.665 224.567 515.646 223.414C514.628 222.246 513.251 221.662 511.514 221.662ZM559.266 237.272L563.938 218.697H568.093L561.018 243H557.648L551.741 224.582L545.991 243H542.622L535.569 218.697H539.702L544.486 236.891L550.146 218.697H553.493L559.266 237.272ZM587.342 243C587.102 242.521 586.908 241.667 586.758 240.439C584.826 242.446 582.52 243.449 579.84 243.449C577.444 243.449 575.475 242.775 573.933 241.428C572.405 240.065 571.642 238.343 571.642 236.262C571.642 233.731 572.6 231.77 574.517 230.377C576.448 228.969 579.159 228.266 582.647 228.266H586.69V226.356C586.69 224.904 586.256 223.751 585.388 222.897C584.519 222.029 583.239 221.595 581.547 221.595C580.064 221.595 578.822 221.969 577.818 222.718C576.815 223.466 576.313 224.372 576.313 225.436H572.136C572.136 224.223 572.562 223.055 573.416 221.932C574.285 220.794 575.452 219.895 576.92 219.236C578.402 218.577 580.027 218.248 581.794 218.248C584.594 218.248 586.788 218.952 588.375 220.359C589.962 221.752 590.786 223.676 590.846 226.132V237.317C590.846 239.549 591.13 241.323 591.699 242.641V243H587.342ZM580.446 239.833C581.749 239.833 582.984 239.496 584.152 238.822C585.32 238.148 586.166 237.272 586.69 236.194V231.208H583.434C578.342 231.208 575.797 232.698 575.797 235.678C575.797 236.98 576.231 237.999 577.1 238.732C577.968 239.466 579.084 239.833 580.446 239.833ZM604.951 236.913L610.611 218.697H615.059L605.288 246.751C603.776 250.794 601.372 252.815 598.078 252.815L597.292 252.748L595.742 252.456V249.087L596.865 249.177C598.273 249.177 599.366 248.892 600.145 248.323C600.938 247.754 601.59 246.714 602.099 245.201L603.02 242.73L594.35 218.697H598.887L604.951 236.913ZM616.451 240.821C616.451 240.103 616.661 239.504 617.08 239.024C617.514 238.545 618.158 238.306 619.012 238.306C619.865 238.306 620.509 238.545 620.943 239.024C621.393 239.504 621.617 240.103 621.617 240.821C621.617 241.51 621.393 242.087 620.943 242.551C620.509 243.015 619.865 243.247 619.012 243.247C618.158 243.247 617.514 243.015 617.08 242.551C616.661 242.087 616.451 241.51 616.451 240.821Z" fill="#AAAAAA"/>
</svg>
