<svg width="581" height="45" viewBox="0 0 581 45" fill="none" xmlns="http://www.w3.org/2000/svg">
<path d="M9.84863 24.6904L10.4775 29.0029L11.3984 25.1172L17.8672 2.29688H21.5059L27.8174 25.1172L28.7158 29.0703L29.4121 24.668L34.4883 2.29688H38.8232L30.8945 35H26.9639L20.2256 11.1689L19.709 8.67578L19.1924 11.1689L12.207 35H8.27637L0.370117 2.29688H4.68262L9.84863 24.6904ZM52.3447 35.4492C49.0505 35.4492 46.3701 34.3711 44.3037 32.2148C42.2373 30.0436 41.2041 27.1462 41.2041 23.5225V22.7588C41.2041 20.348 41.6608 18.1992 42.5742 16.3125C43.5026 14.4108 44.7904 12.9284 46.4375 11.8652C48.0996 10.7871 49.8965 10.248 51.8281 10.248C54.9876 10.248 57.4434 11.2887 59.1953 13.3701C60.9473 15.4515 61.8232 18.4313 61.8232 22.3096V24.0391H45.3594C45.4193 26.4349 46.1156 28.374 47.4482 29.8564C48.7959 31.3239 50.5029 32.0576 52.5693 32.0576C54.0368 32.0576 55.2796 31.7581 56.2979 31.1592C57.3161 30.5602 58.207 29.7666 58.9707 28.7783L61.5088 30.7549C59.4723 33.8844 56.4176 35.4492 52.3447 35.4492ZM51.8281 13.6621C50.151 13.6621 48.7435 14.276 47.6055 15.5039C46.4674 16.7168 45.7637 18.4238 45.4941 20.625H57.668V20.3105C57.5482 18.1992 56.9792 16.5671 55.9609 15.4141C54.9427 14.2461 53.5651 13.6621 51.8281 13.6621ZM81.9707 10.6973L82.083 13.3926C83.8649 11.2962 86.2682 10.248 89.293 10.248C92.6921 10.248 95.0055 11.5508 96.2334 14.1562C97.042 12.9883 98.0902 12.0449 99.3779 11.3262C100.681 10.6074 102.215 10.248 103.982 10.248C109.313 10.248 112.023 13.0706 112.113 18.7158V35H107.958V18.9629C107.958 17.2259 107.561 15.9307 106.768 15.0771C105.974 14.2087 104.641 13.7744 102.77 13.7744C101.227 13.7744 99.9469 14.2386 98.9287 15.167C97.9105 16.0804 97.319 17.3158 97.1543 18.873V35H92.9766V19.0752C92.9766 15.5413 91.2471 13.7744 87.7881 13.7744C85.0628 13.7744 83.1986 14.9349 82.1953 17.2559V35H78.04V10.6973H81.9707ZM133.406 35C133.167 34.5208 132.972 33.6673 132.822 32.4395C130.891 34.446 128.585 35.4492 125.904 35.4492C123.508 35.4492 121.539 34.7754 119.997 33.4277C118.47 32.0651 117.706 30.3431 117.706 28.2617C117.706 25.7311 118.664 23.7695 120.581 22.377C122.513 20.9694 125.223 20.2656 128.712 20.2656H132.755V18.3564C132.755 16.904 132.321 15.751 131.452 14.8975C130.584 14.029 129.303 13.5947 127.611 13.5947C126.129 13.5947 124.886 13.9691 123.883 14.7178C122.88 15.4665 122.378 16.3724 122.378 17.4355H118.2C118.2 16.2227 118.627 15.0547 119.48 13.9316C120.349 12.7936 121.517 11.8952 122.984 11.2363C124.467 10.5775 126.091 10.248 127.858 10.248C130.659 10.248 132.852 10.9518 134.439 12.3594C136.027 13.752 136.85 15.6761 136.91 18.1318V29.3174C136.91 31.5485 137.195 33.3229 137.764 34.6406V35H133.406ZM126.511 31.833C127.813 31.833 129.049 31.4961 130.217 30.8223C131.385 30.1484 132.231 29.2725 132.755 28.1943V23.208H129.498C124.407 23.208 121.861 24.6979 121.861 27.6777C121.861 28.9805 122.296 29.9987 123.164 30.7324C124.033 31.4661 125.148 31.833 126.511 31.833ZM150.207 23.7471L147.602 26.4648V35H143.446V0.5H147.602V21.3662L149.825 18.6934L157.395 10.6973H162.448L152.992 20.8496L163.549 35H158.675L150.207 23.7471ZM176.374 35.4492C173.08 35.4492 170.399 34.3711 168.333 32.2148C166.267 30.0436 165.233 27.1462 165.233 23.5225V22.7588C165.233 20.348 165.69 18.1992 166.604 16.3125C167.532 14.4108 168.82 12.9284 170.467 11.8652C172.129 10.7871 173.926 10.248 175.857 10.248C179.017 10.248 181.473 11.2887 183.225 13.3701C184.977 15.4515 185.853 18.4313 185.853 22.3096V24.0391H169.389C169.449 26.4349 170.145 28.374 171.478 29.8564C172.825 31.3239 174.532 32.0576 176.599 32.0576C178.066 32.0576 179.309 31.7581 180.327 31.1592C181.345 30.5602 182.236 29.7666 183 28.7783L185.538 30.7549C183.502 33.8844 180.447 35.4492 176.374 35.4492ZM175.857 13.6621C174.18 13.6621 172.773 14.276 171.635 15.5039C170.497 16.7168 169.793 18.4238 169.523 20.625H181.697V20.3105C181.577 18.1992 181.008 16.5671 179.99 15.4141C178.972 14.2461 177.594 13.6621 175.857 13.6621ZM223.609 29.2725L228.281 10.6973H232.437L225.361 35H221.992L216.085 16.582L210.335 35H206.966L199.913 10.6973H204.046L208.83 28.8906L214.49 10.6973H217.837L223.609 29.2725ZM235.581 22.624C235.581 20.2432 236.045 18.1019 236.974 16.2002C237.917 14.2985 239.22 12.8311 240.882 11.7979C242.559 10.7646 244.468 10.248 246.609 10.248C249.919 10.248 252.591 11.3936 254.628 13.6846C256.679 15.9756 257.705 19.0228 257.705 22.8262V23.1182C257.705 25.484 257.248 27.6104 256.335 29.4971C255.437 31.3688 254.141 32.8288 252.449 33.877C250.772 34.9251 248.84 35.4492 246.654 35.4492C243.36 35.4492 240.687 34.3037 238.636 32.0127C236.599 29.7217 235.581 26.6895 235.581 22.916V22.624ZM239.759 23.1182C239.759 25.8135 240.38 27.9772 241.623 29.6094C242.881 31.2415 244.558 32.0576 246.654 32.0576C248.766 32.0576 250.443 31.234 251.686 29.5869C252.928 27.9248 253.55 25.6038 253.55 22.624C253.55 19.9587 252.913 17.8024 251.641 16.1553C250.383 14.4932 248.706 13.6621 246.609 13.6621C244.558 13.6621 242.903 14.4782 241.646 16.1104C240.388 17.7425 239.759 20.0785 239.759 23.1182ZM274.663 14.4258C274.034 14.321 273.353 14.2686 272.619 14.2686C269.894 14.2686 268.045 15.429 267.071 17.75V35H262.916V10.6973H266.959L267.026 13.5049C268.389 11.3337 270.321 10.248 272.821 10.248C273.63 10.248 274.244 10.3529 274.663 10.5625V14.4258ZM285.287 23.7471L282.682 26.4648V35H278.526V0.5H282.682V21.3662L284.905 18.6934L292.475 10.6973H297.528L288.072 20.8496L298.629 35H293.755L285.287 23.7471ZM301.684 41.5137L299.325 39.8965C300.733 37.9349 301.466 35.9134 301.526 33.832V30.0811H305.592V33.3379C305.592 34.8503 305.217 36.3626 304.469 37.875C303.735 39.3874 302.807 40.6003 301.684 41.5137ZM343.775 29.2725L348.447 10.6973H352.603L345.527 35H342.158L336.251 16.582L330.501 35H327.132L320.079 10.6973H324.212L328.996 28.8906L334.656 10.6973H338.003L343.775 29.2725ZM355.747 22.624C355.747 20.2432 356.211 18.1019 357.14 16.2002C358.083 14.2985 359.386 12.8311 361.048 11.7979C362.725 10.7646 364.634 10.248 366.775 10.248C370.085 10.248 372.757 11.3936 374.794 13.6846C376.845 15.9756 377.871 19.0228 377.871 22.8262V23.1182C377.871 25.484 377.414 27.6104 376.501 29.4971C375.603 31.3688 374.307 32.8288 372.615 33.877C370.938 34.9251 369.007 35.4492 366.82 35.4492C363.526 35.4492 360.853 34.3037 358.802 32.0127C356.765 29.7217 355.747 26.6895 355.747 22.916V22.624ZM359.925 23.1182C359.925 25.8135 360.546 27.9772 361.789 29.6094C363.047 31.2415 364.724 32.0576 366.82 32.0576C368.932 32.0576 370.609 31.234 371.852 29.5869C373.094 27.9248 373.716 25.6038 373.716 22.624C373.716 19.9587 373.079 17.8024 371.807 16.1553C370.549 14.4932 368.872 13.6621 366.775 13.6621C364.724 13.6621 363.069 14.4782 361.812 16.1104C360.554 17.7425 359.925 20.0785 359.925 23.1182ZM394.829 14.4258C394.2 14.321 393.519 14.2686 392.785 14.2686C390.06 14.2686 388.211 15.429 387.237 17.75V35H383.082V10.6973H387.125L387.192 13.5049C388.555 11.3337 390.487 10.248 392.987 10.248C393.796 10.248 394.41 10.3529 394.829 10.5625V14.4258ZM405.453 23.7471L402.848 26.4648V35H398.692V0.5H402.848V21.3662L405.071 18.6934L412.641 10.6973H417.694L408.238 20.8496L418.795 35H413.921L405.453 23.7471ZM435.438 35V13.9092H431.598V10.6973H435.438V8.2041C435.438 5.59863 436.135 3.58464 437.527 2.16211C438.92 0.739583 440.889 0.0283203 443.435 0.0283203C444.393 0.0283203 445.344 0.155599 446.287 0.410156L446.062 3.7793C445.359 3.64453 444.61 3.57715 443.816 3.57715C442.469 3.57715 441.428 3.97396 440.694 4.76758C439.961 5.54622 439.594 6.66927 439.594 8.13672V10.6973H444.782V13.9092H439.594V35H435.438ZM448.286 22.624C448.286 20.2432 448.75 18.1019 449.679 16.2002C450.622 14.2985 451.925 12.8311 453.587 11.7979C455.264 10.7646 457.173 10.248 459.314 10.248C462.624 10.248 465.297 11.3936 467.333 13.6846C469.384 15.9756 470.41 19.0228 470.41 22.8262V23.1182C470.41 25.484 469.953 27.6104 469.04 29.4971C468.142 31.3688 466.846 32.8288 465.154 33.877C463.477 34.9251 461.546 35.4492 459.359 35.4492C456.065 35.4492 453.392 34.3037 451.341 32.0127C449.304 29.7217 448.286 26.6895 448.286 22.916V22.624ZM452.464 23.1182C452.464 25.8135 453.085 27.9772 454.328 29.6094C455.586 31.2415 457.263 32.0576 459.359 32.0576C461.471 32.0576 463.148 31.234 464.391 29.5869C465.633 27.9248 466.255 25.6038 466.255 22.624C466.255 19.9587 465.618 17.8024 464.346 16.1553C463.088 14.4932 461.411 13.6621 459.314 13.6621C457.263 13.6621 455.608 14.4782 454.351 16.1104C453.093 17.7425 452.464 20.0785 452.464 23.1182ZM487.368 14.4258C486.739 14.321 486.058 14.2686 485.324 14.2686C482.599 14.2686 480.75 15.429 479.776 17.75V35H475.621V10.6973H479.664L479.731 13.5049C481.094 11.3337 483.026 10.248 485.526 10.248C486.335 10.248 486.949 10.3529 487.368 10.5625V14.4258ZM510.57 28.9131L516.23 10.6973H520.678L510.907 38.751C509.395 42.7939 506.992 44.8154 503.697 44.8154L502.911 44.748L501.361 44.4561V41.0869L502.484 41.1768C503.892 41.1768 504.985 40.8923 505.764 40.3232C506.557 39.7542 507.209 38.7135 507.718 37.2012L508.639 34.7305L499.969 10.6973H504.506L510.57 28.9131ZM522.946 22.624C522.946 20.2432 523.41 18.1019 524.339 16.2002C525.282 14.2985 526.585 12.8311 528.247 11.7979C529.924 10.7646 531.833 10.248 533.975 10.248C537.284 10.248 539.957 11.3936 541.993 13.6846C544.045 15.9756 545.07 19.0228 545.07 22.8262V23.1182C545.07 25.484 544.614 27.6104 543.7 29.4971C542.802 31.3688 541.507 32.8288 539.814 33.877C538.137 34.9251 536.206 35.4492 534.02 35.4492C530.725 35.4492 528.052 34.3037 526.001 32.0127C523.965 29.7217 522.946 26.6895 522.946 22.916V22.624ZM527.124 23.1182C527.124 25.8135 527.745 27.9772 528.988 29.6094C530.246 31.2415 531.923 32.0576 534.02 32.0576C536.131 32.0576 537.808 31.234 539.051 29.5869C540.294 27.9248 540.915 25.6038 540.915 22.624C540.915 19.9587 540.279 17.8024 539.006 16.1553C537.748 14.4932 536.071 13.6621 533.975 13.6621C531.923 13.6621 530.269 14.4782 529.011 16.1104C527.753 17.7425 527.124 20.0785 527.124 23.1182ZM565.285 32.5967C563.668 34.4984 561.295 35.4492 558.165 35.4492C555.575 35.4492 553.598 34.7005 552.235 33.2031C550.888 31.6908 550.206 29.4596 550.191 26.5098V10.6973H554.347V26.3975C554.347 30.0811 555.844 31.9229 558.839 31.9229C562.013 31.9229 564.125 30.7399 565.173 28.374V10.6973H569.328V35H565.375L565.285 32.5967ZM575.752 32.8213C575.752 32.1025 575.962 31.5036 576.381 31.0244C576.815 30.5452 577.459 30.3057 578.312 30.3057C579.166 30.3057 579.81 30.5452 580.244 31.0244C580.693 31.5036 580.918 32.1025 580.918 32.8213C580.918 33.5101 580.693 34.0866 580.244 34.5508C579.81 35.015 579.166 35.2471 578.312 35.2471C577.459 35.2471 576.815 35.015 576.381 34.5508C575.962 34.0866 575.752 33.5101 575.752 32.8213Z" fill="black"/>
</svg>
