<svg width="307" height="151" viewBox="0 0 307 151" fill="none" xmlns="http://www.w3.org/2000/svg">
<path d="M7.54688 16.8281L7.98438 19.8281L8.625 17.125L13.125 1.25H15.6562L20.0469 17.125L20.6719 19.875L21.1562 16.8125L24.6875 1.25H27.7031L22.1875 24H19.4531L14.7656 7.42188L14.4062 5.6875L14.0469 7.42188L9.1875 24H6.45312L0.953125 1.25H3.95312L7.54688 16.8281ZM37.1094 24.3125C34.8177 24.3125 32.9531 23.5625 31.5156 22.0625C30.0781 20.5521 29.3594 18.5365 29.3594 16.0156V15.4844C29.3594 13.8073 29.6771 12.3125 30.3125 11C30.9583 9.67708 31.8542 8.64583 33 7.90625C34.1562 7.15625 35.4062 6.78125 36.75 6.78125C38.9479 6.78125 40.6562 7.50521 41.875 8.95312C43.0938 10.401 43.7031 12.474 43.7031 15.1719V16.375H32.25C32.2917 18.0417 32.776 19.3906 33.7031 20.4219C34.6406 21.4427 35.8281 21.9531 37.2656 21.9531C38.2865 21.9531 39.151 21.7448 39.8594 21.3281C40.5677 20.9115 41.1875 20.3594 41.7188 19.6719L43.4844 21.0469C42.0677 23.224 39.9427 24.3125 37.1094 24.3125ZM36.75 9.15625C35.5833 9.15625 34.6042 9.58333 33.8125 10.4375C33.0208 11.2812 32.5312 12.4688 32.3438 14H40.8125V13.7812C40.7292 12.3125 40.3333 11.1771 39.625 10.375C38.9167 9.5625 37.9583 9.15625 36.75 9.15625ZM64.8438 19.5156C64.8438 18.7344 64.5469 18.1302 63.9531 17.7031C63.3698 17.2656 62.3438 16.8906 60.875 16.5781C59.4167 16.2656 58.2552 15.8906 57.3906 15.4531C56.5365 15.0156 55.901 14.4948 55.4844 13.8906C55.0781 13.2865 54.875 12.5677 54.875 11.7344C54.875 10.349 55.4583 9.17708 56.625 8.21875C57.8021 7.26042 59.3021 6.78125 61.125 6.78125C63.0417 6.78125 64.5938 7.27604 65.7812 8.26562C66.9792 9.25521 67.5781 10.5208 67.5781 12.0625H64.6719C64.6719 11.2708 64.3333 10.5885 63.6562 10.0156C62.9896 9.44271 62.1458 9.15625 61.125 9.15625C60.0729 9.15625 59.25 9.38542 58.6562 9.84375C58.0625 10.3021 57.7656 10.901 57.7656 11.6406C57.7656 12.3385 58.0417 12.8646 58.5938 13.2188C59.1458 13.5729 60.1406 13.9115 61.5781 14.2344C63.026 14.5573 64.1979 14.9427 65.0938 15.3906C65.9896 15.8385 66.651 16.3802 67.0781 17.0156C67.5156 17.6406 67.7344 18.4062 67.7344 19.3125C67.7344 20.8229 67.1302 22.0365 65.9219 22.9531C64.7135 23.8594 63.1458 24.3125 61.2188 24.3125C59.8646 24.3125 58.6667 24.0729 57.625 23.5938C56.5833 23.1146 55.7656 22.4479 55.1719 21.5938C54.5885 20.7292 54.2969 19.7969 54.2969 18.7969H57.1875C57.2396 19.7656 57.625 20.5365 58.3438 21.1094C59.0729 21.6719 60.0312 21.9531 61.2188 21.9531C62.3125 21.9531 63.1875 21.7344 63.8438 21.2969C64.5104 20.849 64.8438 20.2552 64.8438 19.5156ZM78.5156 24.3125C76.224 24.3125 74.3594 23.5625 72.9219 22.0625C71.4844 20.5521 70.7656 18.5365 70.7656 16.0156V15.4844C70.7656 13.8073 71.0833 12.3125 71.7188 11C72.3646 9.67708 73.2604 8.64583 74.4062 7.90625C75.5625 7.15625 76.8125 6.78125 78.1562 6.78125C80.3542 6.78125 82.0625 7.50521 83.2812 8.95312C84.5 10.401 85.1094 12.474 85.1094 15.1719V16.375H73.6562C73.6979 18.0417 74.1823 19.3906 75.1094 20.4219C76.0469 21.4427 77.2344 21.9531 78.6719 21.9531C79.6927 21.9531 80.5573 21.7448 81.2656 21.3281C81.974 20.9115 82.5938 20.3594 83.125 19.6719L84.8906 21.0469C83.474 23.224 81.349 24.3125 78.5156 24.3125ZM78.1562 9.15625C76.9896 9.15625 76.0104 9.58333 75.2188 10.4375C74.4271 11.2812 73.9375 12.4688 73.75 14H82.2188V13.7812C82.1354 12.3125 81.7396 11.1771 81.0312 10.375C80.3229 9.5625 79.3646 9.15625 78.1562 9.15625ZM91.6094 24H88.7188V0H91.6094V24ZM99.3906 24H96.5V0H99.3906V24ZM111.266 15.4062C111.266 12.8125 111.88 10.7292 113.109 9.15625C114.339 7.57292 115.948 6.78125 117.938 6.78125C119.917 6.78125 121.484 7.45833 122.641 8.8125V0H125.531V24H122.875L122.734 22.1875C121.578 23.6042 119.969 24.3125 117.906 24.3125C115.948 24.3125 114.349 23.5104 113.109 21.9062C111.88 20.3021 111.266 18.2083 111.266 15.625V15.4062ZM114.156 15.7344C114.156 17.651 114.552 19.151 115.344 20.2344C116.135 21.3177 117.229 21.8594 118.625 21.8594C120.458 21.8594 121.797 21.0365 122.641 19.3906V11.625C121.776 10.0312 120.448 9.23438 118.656 9.23438C117.24 9.23438 116.135 9.78125 115.344 10.875C114.552 11.9688 114.156 13.5885 114.156 15.7344ZM133.172 24H130.281V7.09375H133.172V24ZM130.047 2.60938C130.047 2.14062 130.188 1.74479 130.469 1.42188C130.76 1.09896 131.188 0.9375 131.75 0.9375C132.312 0.9375 132.74 1.09896 133.031 1.42188C133.323 1.74479 133.469 2.14062 133.469 2.60938C133.469 3.07812 133.323 3.46875 133.031 3.78125C132.74 4.09375 132.312 4.25 131.75 4.25C131.188 4.25 130.76 4.09375 130.469 3.78125C130.188 3.46875 130.047 3.07812 130.047 2.60938ZM145.984 9.6875C145.547 9.61458 145.073 9.57812 144.562 9.57812C142.667 9.57812 141.38 10.3854 140.703 12V24H137.812V7.09375H140.625L140.672 9.04688C141.62 7.53646 142.964 6.78125 144.703 6.78125C145.266 6.78125 145.693 6.85417 145.984 7V9.6875ZM155.359 24.3125C153.068 24.3125 151.203 23.5625 149.766 22.0625C148.328 20.5521 147.609 18.5365 147.609 16.0156V15.4844C147.609 13.8073 147.927 12.3125 148.562 11C149.208 9.67708 150.104 8.64583 151.25 7.90625C152.406 7.15625 153.656 6.78125 155 6.78125C157.198 6.78125 158.906 7.50521 160.125 8.95312C161.344 10.401 161.953 12.474 161.953 15.1719V16.375H150.5C150.542 18.0417 151.026 19.3906 151.953 20.4219C152.891 21.4427 154.078 21.9531 155.516 21.9531C156.536 21.9531 157.401 21.7448 158.109 21.3281C158.818 20.9115 159.438 20.3594 159.969 19.6719L161.734 21.0469C160.318 23.224 158.193 24.3125 155.359 24.3125ZM155 9.15625C153.833 9.15625 152.854 9.58333 152.062 10.4375C151.271 11.2812 150.781 12.4688 150.594 14H159.062V13.7812C158.979 12.3125 158.583 11.1771 157.875 10.375C157.167 9.5625 156.208 9.15625 155 9.15625ZM172.094 21.9531C173.125 21.9531 174.026 21.6406 174.797 21.0156C175.568 20.3906 175.995 19.6094 176.078 18.6719H178.812C178.76 19.6406 178.427 20.5625 177.812 21.4375C177.198 22.3125 176.375 23.0104 175.344 23.5312C174.323 24.0521 173.24 24.3125 172.094 24.3125C169.792 24.3125 167.958 23.5469 166.594 22.0156C165.24 20.474 164.562 18.3698 164.562 15.7031V15.2188C164.562 13.5729 164.865 12.1094 165.469 10.8281C166.073 9.54688 166.938 8.55208 168.062 7.84375C169.198 7.13542 170.536 6.78125 172.078 6.78125C173.974 6.78125 175.547 7.34896 176.797 8.48438C178.057 9.61979 178.729 11.0938 178.812 12.9062H176.078C175.995 11.8125 175.578 10.9167 174.828 10.2188C174.089 9.51042 173.172 9.15625 172.078 9.15625C170.609 9.15625 169.469 9.6875 168.656 10.75C167.854 11.8021 167.453 13.3281 167.453 15.3281V15.875C167.453 17.8229 167.854 19.3229 168.656 20.375C169.458 21.4271 170.604 21.9531 172.094 21.9531ZM185.984 3V7.09375H189.141V9.32812H185.984V19.8125C185.984 20.4896 186.125 21 186.406 21.3438C186.688 21.6771 187.167 21.8438 187.844 21.8438C188.177 21.8438 188.635 21.7812 189.219 21.6562V24C188.458 24.2083 187.719 24.3125 187 24.3125C185.708 24.3125 184.734 23.9219 184.078 23.1406C183.422 22.3594 183.094 21.25 183.094 19.8125V9.32812H180.016V7.09375H183.094V3H185.984ZM192.594 22.4844C192.594 21.9844 192.74 21.5677 193.031 21.2344C193.333 20.901 193.781 20.7344 194.375 20.7344C194.969 20.7344 195.417 20.901 195.719 21.2344C196.031 21.5677 196.188 21.9844 196.188 22.4844C196.188 22.9635 196.031 23.3646 195.719 23.6875C195.417 24.0104 194.969 24.1719 194.375 24.1719C193.781 24.1719 193.333 24.0104 193.031 23.6875C192.74 23.3646 192.594 22.9635 192.594 22.4844Z" fill="#1A1A1A"/>
<path d="M3.77344 71.4141L3.99219 72.9141L4.3125 71.5625L6.5625 63.625H7.82812L10.0234 71.5625L10.3359 72.9375L10.5781 71.4062L12.3438 63.625H13.8516L11.0938 75H9.72656L7.38281 66.7109L7.20312 65.8438L7.02344 66.7109L4.59375 75H3.22656L0.476562 63.625H1.97656L3.77344 71.4141ZM18.5547 75.1562C17.4089 75.1562 16.4766 74.7812 15.7578 74.0312C15.0391 73.276 14.6797 72.2682 14.6797 71.0078V70.7422C14.6797 69.9036 14.8385 69.1562 15.1562 68.5C15.4792 67.8385 15.9271 67.3229 16.5 66.9531C17.0781 66.5781 17.7031 66.3906 18.375 66.3906C19.474 66.3906 20.3281 66.7526 20.9375 67.4766C21.5469 68.2005 21.8516 69.237 21.8516 70.5859V71.1875H16.125C16.1458 72.0208 16.388 72.6953 16.8516 73.2109C17.3203 73.7214 17.9141 73.9766 18.6328 73.9766C19.1432 73.9766 19.5755 73.8724 19.9297 73.6641C20.2839 73.4557 20.5938 73.1797 20.8594 72.8359L21.7422 73.5234C21.0339 74.612 19.9714 75.1562 18.5547 75.1562ZM18.375 67.5781C17.7917 67.5781 17.3021 67.7917 16.9062 68.2188C16.5104 68.6406 16.2656 69.2344 16.1719 70H20.4062V69.8906C20.3646 69.1562 20.1667 68.5885 19.8125 68.1875C19.4583 67.7812 18.9792 67.5781 18.375 67.5781ZM28.8594 66.5469L28.8984 67.4844C29.5182 66.7552 30.3542 66.3906 31.4062 66.3906C32.5885 66.3906 33.3932 66.8438 33.8203 67.75C34.1016 67.3438 34.4661 67.0156 34.9141 66.7656C35.3672 66.5156 35.901 66.3906 36.5156 66.3906C38.3698 66.3906 39.3125 67.3724 39.3438 69.3359V75H37.8984V69.4219C37.8984 68.8177 37.7604 68.3672 37.4844 68.0703C37.2083 67.7682 36.7448 67.6172 36.0938 67.6172C35.5573 67.6172 35.112 67.7786 34.7578 68.1016C34.4036 68.4193 34.1979 68.849 34.1406 69.3906V75H32.6875V69.4609C32.6875 68.2318 32.0859 67.6172 30.8828 67.6172C29.9349 67.6172 29.2865 68.0208 28.9375 68.8281V75H27.4922V66.5469H28.8594ZM46.75 75C46.6667 74.8333 46.599 74.5365 46.5469 74.1094C45.875 74.8073 45.0729 75.1562 44.1406 75.1562C43.3073 75.1562 42.6224 74.9219 42.0859 74.4531C41.5547 73.9792 41.2891 73.3802 41.2891 72.6562C41.2891 71.776 41.6224 71.0938 42.2891 70.6094C42.9609 70.1198 43.9036 69.875 45.1172 69.875H46.5234V69.2109C46.5234 68.7057 46.3724 68.3047 46.0703 68.0078C45.7682 67.7057 45.3229 67.5547 44.7344 67.5547C44.2188 67.5547 43.7865 67.6849 43.4375 67.9453C43.0885 68.2057 42.9141 68.5208 42.9141 68.8906H41.4609C41.4609 68.4688 41.6094 68.0625 41.9062 67.6719C42.2083 67.276 42.6146 66.9635 43.125 66.7344C43.6406 66.5052 44.2057 66.3906 44.8203 66.3906C45.7943 66.3906 46.5573 66.6354 47.1094 67.125C47.6615 67.6094 47.9479 68.2786 47.9688 69.1328V73.0234C47.9688 73.7995 48.0677 74.4167 48.2656 74.875V75H46.75ZM44.3516 73.8984C44.8047 73.8984 45.2344 73.7812 45.6406 73.5469C46.0469 73.3125 46.3411 73.0078 46.5234 72.6328V70.8984H45.3906C43.6198 70.8984 42.7344 71.4167 42.7344 72.4531C42.7344 72.9062 42.8854 73.2604 43.1875 73.5156C43.4896 73.7708 43.8776 73.8984 44.3516 73.8984ZM52.5938 71.0859L51.6875 72.0312V75H50.2422V63H51.6875V70.2578L52.4609 69.3281L55.0938 66.5469H56.8516L53.5625 70.0781L57.2344 75H55.5391L52.5938 71.0859ZM61.6953 75.1562C60.5495 75.1562 59.6172 74.7812 58.8984 74.0312C58.1797 73.276 57.8203 72.2682 57.8203 71.0078V70.7422C57.8203 69.9036 57.9792 69.1562 58.2969 68.5C58.6198 67.8385 59.0677 67.3229 59.6406 66.9531C60.2188 66.5781 60.8438 66.3906 61.5156 66.3906C62.6146 66.3906 63.4688 66.7526 64.0781 67.4766C64.6875 68.2005 64.9922 69.237 64.9922 70.5859V71.1875H59.2656C59.2865 72.0208 59.5286 72.6953 59.9922 73.2109C60.4609 73.7214 61.0547 73.9766 61.7734 73.9766C62.2839 73.9766 62.7161 73.8724 63.0703 73.6641C63.4245 73.4557 63.7344 73.1797 64 72.8359L64.8828 73.5234C64.1745 74.612 63.112 75.1562 61.6953 75.1562ZM61.5156 67.5781C60.9323 67.5781 60.4427 67.7917 60.0469 68.2188C59.651 68.6406 59.4062 69.2344 59.3125 70H63.5469V69.8906C63.5052 69.1562 63.3073 68.5885 62.9531 68.1875C62.599 67.7812 62.1198 67.5781 61.5156 67.5781ZM74.1484 75.1562C73.0026 75.1562 72.0703 74.7812 71.3516 74.0312C70.6328 73.276 70.2734 72.2682 70.2734 71.0078V70.7422C70.2734 69.9036 70.4323 69.1562 70.75 68.5C71.0729 67.8385 71.5208 67.3229 72.0938 66.9531C72.6719 66.5781 73.2969 66.3906 73.9688 66.3906C75.0677 66.3906 75.9219 66.7526 76.5312 67.4766C77.1406 68.2005 77.4453 69.237 77.4453 70.5859V71.1875H71.7188C71.7396 72.0208 71.9818 72.6953 72.4453 73.2109C72.9141 73.7214 73.5078 73.9766 74.2266 73.9766C74.737 73.9766 75.1693 73.8724 75.5234 73.6641C75.8776 73.4557 76.1875 73.1797 76.4531 72.8359L77.3359 73.5234C76.6276 74.612 75.5651 75.1562 74.1484 75.1562ZM73.9688 67.5781C73.3854 67.5781 72.8958 67.7917 72.5 68.2188C72.1042 68.6406 71.8594 69.2344 71.7656 70H76V69.8906C75.9583 69.1562 75.7604 68.5885 75.4062 68.1875C75.0521 67.7812 74.5729 67.5781 73.9688 67.5781ZM81.9609 69.6328L83.8359 66.5469H85.5234L82.7578 70.7266L85.6094 75H83.9375L81.9844 71.8359L80.0312 75H78.3516L81.2031 70.7266L78.4375 66.5469H80.1094L81.9609 69.6328ZM89.0234 64.5V66.5469H90.6016V67.6641H89.0234V72.9062C89.0234 73.2448 89.0938 73.5 89.2344 73.6719C89.375 73.8385 89.6146 73.9219 89.9531 73.9219C90.1198 73.9219 90.349 73.8906 90.6406 73.8281V75C90.2604 75.1042 89.8906 75.1562 89.5312 75.1562C88.8854 75.1562 88.3984 74.9609 88.0703 74.5703C87.7422 74.1797 87.5781 73.625 87.5781 72.9062V67.6641H86.0391V66.5469H87.5781V64.5H89.0234ZM96.3828 67.8438C96.1641 67.8073 95.9271 67.7891 95.6719 67.7891C94.724 67.7891 94.0807 68.1927 93.7422 69V75H92.2969V66.5469H93.7031L93.7266 67.5234C94.2005 66.7682 94.8724 66.3906 95.7422 66.3906C96.0234 66.3906 96.237 66.4271 96.3828 66.5V67.8438ZM102.625 75C102.542 74.8333 102.474 74.5365 102.422 74.1094C101.75 74.8073 100.948 75.1562 100.016 75.1562C99.1823 75.1562 98.4974 74.9219 97.9609 74.4531C97.4297 73.9792 97.1641 73.3802 97.1641 72.6562C97.1641 71.776 97.4974 71.0938 98.1641 70.6094C98.8359 70.1198 99.7786 69.875 100.992 69.875H102.398V69.2109C102.398 68.7057 102.247 68.3047 101.945 68.0078C101.643 67.7057 101.198 67.5547 100.609 67.5547C100.094 67.5547 99.6615 67.6849 99.3125 67.9453C98.9635 68.2057 98.7891 68.5208 98.7891 68.8906H97.3359C97.3359 68.4688 97.4844 68.0625 97.7812 67.6719C98.0833 67.276 98.4896 66.9635 99 66.7344C99.5156 66.5052 100.081 66.3906 100.695 66.3906C101.669 66.3906 102.432 66.6354 102.984 67.125C103.536 67.6094 103.823 68.2786 103.844 69.1328V73.0234C103.844 73.7995 103.943 74.4167 104.141 74.875V75H102.625ZM100.227 73.8984C100.68 73.8984 101.109 73.7812 101.516 73.5469C101.922 73.3125 102.216 73.0078 102.398 72.6328V70.8984H101.266C99.4948 70.8984 98.6094 71.4167 98.6094 72.4531C98.6094 72.9062 98.7604 73.2604 99.0625 73.5156C99.3646 73.7708 99.7526 73.8984 100.227 73.8984ZM114.164 67.8438C113.945 67.8073 113.708 67.7891 113.453 67.7891C112.505 67.7891 111.862 68.1927 111.523 69V75H110.078V66.5469H111.484L111.508 67.5234C111.982 66.7682 112.654 66.3906 113.523 66.3906C113.805 66.3906 114.018 66.4271 114.164 66.5V67.8438ZM114.961 70.6953C114.961 69.8672 115.122 69.1224 115.445 68.4609C115.773 67.7995 116.227 67.2891 116.805 66.9297C117.388 66.5703 118.052 66.3906 118.797 66.3906C119.948 66.3906 120.878 66.7891 121.586 67.5859C122.299 68.3828 122.656 69.4427 122.656 70.7656V70.8672C122.656 71.6901 122.497 72.4297 122.18 73.0859C121.867 73.737 121.417 74.2448 120.828 74.6094C120.245 74.974 119.573 75.1562 118.812 75.1562C117.667 75.1562 116.737 74.7578 116.023 73.9609C115.315 73.1641 114.961 72.1094 114.961 70.7969V70.6953ZM116.414 70.8672C116.414 71.8047 116.63 72.5573 117.062 73.125C117.5 73.6927 118.083 73.9766 118.812 73.9766C119.547 73.9766 120.13 73.6901 120.562 73.1172C120.995 72.5391 121.211 71.7318 121.211 70.6953C121.211 69.7682 120.99 69.0182 120.547 68.4453C120.109 67.8672 119.526 67.5781 118.797 67.5781C118.083 67.5781 117.508 67.862 117.07 68.4297C116.633 68.9974 116.414 69.8099 116.414 70.8672ZM124.086 70.6953C124.086 69.8672 124.247 69.1224 124.57 68.4609C124.898 67.7995 125.352 67.2891 125.93 66.9297C126.513 66.5703 127.177 66.3906 127.922 66.3906C129.073 66.3906 130.003 66.7891 130.711 67.5859C131.424 68.3828 131.781 69.4427 131.781 70.7656V70.8672C131.781 71.6901 131.622 72.4297 131.305 73.0859C130.992 73.737 130.542 74.2448 129.953 74.6094C129.37 74.974 128.698 75.1562 127.938 75.1562C126.792 75.1562 125.862 74.7578 125.148 73.9609C124.44 73.1641 124.086 72.1094 124.086 70.7969V70.6953ZM125.539 70.8672C125.539 71.8047 125.755 72.5573 126.188 73.125C126.625 73.6927 127.208 73.9766 127.938 73.9766C128.672 73.9766 129.255 73.6901 129.688 73.1172C130.12 72.5391 130.336 71.7318 130.336 70.6953C130.336 69.7682 130.115 69.0182 129.672 68.4453C129.234 67.8672 128.651 67.5781 127.922 67.5781C127.208 67.5781 126.633 67.862 126.195 68.4297C125.758 68.9974 125.539 69.8099 125.539 70.8672ZM134.953 66.5469L134.992 67.4844C135.612 66.7552 136.448 66.3906 137.5 66.3906C138.682 66.3906 139.487 66.8438 139.914 67.75C140.195 67.3438 140.56 67.0156 141.008 66.7656C141.461 66.5156 141.995 66.3906 142.609 66.3906C144.464 66.3906 145.406 67.3724 145.438 69.3359V75H143.992V69.4219C143.992 68.8177 143.854 68.3672 143.578 68.0703C143.302 67.7682 142.839 67.6172 142.188 67.6172C141.651 67.6172 141.206 67.7786 140.852 68.1016C140.497 68.4193 140.292 68.849 140.234 69.3906V75H138.781V69.4609C138.781 68.2318 138.18 67.6172 136.977 67.6172C136.029 67.6172 135.38 68.0208 135.031 68.8281V75H133.586V66.5469H134.953ZM153.164 75H151.719V66.5469H153.164V75ZM151.602 64.3047C151.602 64.0703 151.672 63.8724 151.812 63.7109C151.958 63.5495 152.172 63.4688 152.453 63.4688C152.734 63.4688 152.948 63.5495 153.094 63.7109C153.24 63.8724 153.312 64.0703 153.312 64.3047C153.312 64.5391 153.24 64.7344 153.094 64.8906C152.948 65.0469 152.734 65.125 152.453 65.125C152.172 65.125 151.958 65.0469 151.812 64.8906C151.672 64.7344 151.602 64.5391 151.602 64.3047ZM156.852 66.5469L156.898 67.6094C157.544 66.7969 158.388 66.3906 159.43 66.3906C161.216 66.3906 162.117 67.3984 162.133 69.4141V75H160.688V69.4062C160.682 68.7969 160.542 68.3464 160.266 68.0547C159.995 67.763 159.57 67.6172 158.992 67.6172C158.523 67.6172 158.112 67.7422 157.758 67.9922C157.404 68.2422 157.128 68.5703 156.93 68.9766V75H155.484V66.5469H156.852ZM170.242 64.5V66.5469H171.82V67.6641H170.242V72.9062C170.242 73.2448 170.312 73.5 170.453 73.6719C170.594 73.8385 170.833 73.9219 171.172 73.9219C171.339 73.9219 171.568 73.8906 171.859 73.8281V75C171.479 75.1042 171.109 75.1562 170.75 75.1562C170.104 75.1562 169.617 74.9609 169.289 74.5703C168.961 74.1797 168.797 73.625 168.797 72.9062V67.6641H167.258V66.5469H168.797V64.5H170.242ZM174.961 67.5703C175.602 66.7839 176.435 66.3906 177.461 66.3906C179.247 66.3906 180.148 67.3984 180.164 69.4141V75H178.719V69.4062C178.714 68.7969 178.573 68.3464 178.297 68.0547C178.026 67.763 177.602 67.6172 177.023 67.6172C176.555 67.6172 176.143 67.7422 175.789 67.9922C175.435 68.2422 175.159 68.5703 174.961 68.9766V75H173.516V63H174.961V67.5703ZM185.836 75.1562C184.69 75.1562 183.758 74.7812 183.039 74.0312C182.32 73.276 181.961 72.2682 181.961 71.0078V70.7422C181.961 69.9036 182.12 69.1562 182.438 68.5C182.76 67.8385 183.208 67.3229 183.781 66.9531C184.359 66.5781 184.984 66.3906 185.656 66.3906C186.755 66.3906 187.609 66.7526 188.219 67.4766C188.828 68.2005 189.133 69.237 189.133 70.5859V71.1875H183.406C183.427 72.0208 183.669 72.6953 184.133 73.2109C184.602 73.7214 185.195 73.9766 185.914 73.9766C186.424 73.9766 186.857 73.8724 187.211 73.6641C187.565 73.4557 187.875 73.1797 188.141 72.8359L189.023 73.5234C188.315 74.612 187.253 75.1562 185.836 75.1562ZM185.656 67.5781C185.073 67.5781 184.583 67.7917 184.188 68.2188C183.792 68.6406 183.547 69.2344 183.453 70H187.688V69.8906C187.646 69.1562 187.448 68.5885 187.094 68.1875C186.74 67.7812 186.26 67.5781 185.656 67.5781ZM201.938 70.8672C201.938 72.1589 201.641 73.1979 201.047 73.9844C200.453 74.7656 199.656 75.1562 198.656 75.1562C197.589 75.1562 196.763 74.7786 196.18 74.0234L196.109 75H194.781V63H196.227V67.4766C196.81 66.7526 197.615 66.3906 198.641 66.3906C199.667 66.3906 200.471 66.7786 201.055 67.5547C201.643 68.3307 201.938 69.3932 201.938 70.7422V70.8672ZM200.492 70.7031C200.492 69.7188 200.302 68.9583 199.922 68.4219C199.542 67.8854 198.995 67.6172 198.281 67.6172C197.328 67.6172 196.643 68.0599 196.227 68.9453V72.6016C196.669 73.487 197.359 73.9297 198.297 73.9297C198.99 73.9297 199.529 73.6615 199.914 73.125C200.299 72.5885 200.492 71.7812 200.492 70.7031ZM208.984 74.1641C208.422 74.8255 207.596 75.1562 206.508 75.1562C205.607 75.1562 204.919 74.8958 204.445 74.375C203.977 73.849 203.74 73.0729 203.734 72.0469V66.5469H205.18V72.0078C205.18 73.2891 205.701 73.9297 206.742 73.9297C207.846 73.9297 208.581 73.5182 208.945 72.6953V66.5469H210.391V75H209.016L208.984 74.1641ZM212.242 70.7031C212.242 69.4062 212.549 68.3646 213.164 67.5781C213.779 66.7865 214.583 66.3906 215.578 66.3906C216.568 66.3906 217.352 66.7292 217.93 67.4062V63H219.375V75H218.047L217.977 74.0938C217.398 74.8021 216.594 75.1562 215.562 75.1562C214.583 75.1562 213.784 74.7552 213.164 73.9531C212.549 73.151 212.242 72.1042 212.242 70.8125V70.7031ZM213.688 70.8672C213.688 71.8255 213.885 72.5755 214.281 73.1172C214.677 73.6589 215.224 73.9297 215.922 73.9297C216.839 73.9297 217.508 73.5182 217.93 72.6953V68.8125C217.497 68.0156 216.833 67.6172 215.938 67.6172C215.229 67.6172 214.677 67.8906 214.281 68.4375C213.885 68.9844 213.688 69.7943 213.688 70.8672ZM221.281 70.7031C221.281 69.3854 221.586 68.3385 222.195 67.5625C222.805 66.7812 223.612 66.3906 224.617 66.3906C225.648 66.3906 226.453 66.7552 227.031 67.4844L227.102 66.5469H228.422V74.7969C228.422 75.8906 228.096 76.7526 227.445 77.3828C226.799 78.013 225.93 78.3281 224.836 78.3281C224.227 78.3281 223.63 78.1979 223.047 77.9375C222.464 77.6771 222.018 77.3203 221.711 76.8672L222.461 76C223.081 76.7656 223.839 77.1484 224.734 77.1484C225.438 77.1484 225.984 76.9505 226.375 76.5547C226.771 76.1589 226.969 75.6016 226.969 74.8828V74.1562C226.391 74.8229 225.602 75.1562 224.602 75.1562C223.612 75.1562 222.81 74.7578 222.195 73.9609C221.586 73.1641 221.281 72.0781 221.281 70.7031ZM222.734 70.8672C222.734 71.8203 222.93 72.5703 223.32 73.1172C223.711 73.6589 224.258 73.9297 224.961 73.9297C225.872 73.9297 226.542 73.5156 226.969 72.6875V68.8281C226.526 68.0208 225.862 67.6172 224.977 67.6172C224.273 67.6172 223.724 67.8906 223.328 68.4375C222.932 68.9844 222.734 69.7943 222.734 70.8672ZM234.117 75.1562C232.971 75.1562 232.039 74.7812 231.32 74.0312C230.602 73.276 230.242 72.2682 230.242 71.0078V70.7422C230.242 69.9036 230.401 69.1562 230.719 68.5C231.042 67.8385 231.49 67.3229 232.062 66.9531C232.641 66.5781 233.266 66.3906 233.938 66.3906C235.036 66.3906 235.891 66.7526 236.5 67.4766C237.109 68.2005 237.414 69.237 237.414 70.5859V71.1875H231.688C231.708 72.0208 231.951 72.6953 232.414 73.2109C232.883 73.7214 233.477 73.9766 234.195 73.9766C234.706 73.9766 235.138 73.8724 235.492 73.6641C235.846 73.4557 236.156 73.1797 236.422 72.8359L237.305 73.5234C236.596 74.612 235.534 75.1562 234.117 75.1562ZM233.938 67.5781C233.354 67.5781 232.865 67.7917 232.469 68.2188C232.073 68.6406 231.828 69.2344 231.734 70H235.969V69.8906C235.927 69.1562 235.729 68.5885 235.375 68.1875C235.021 67.7812 234.542 67.5781 233.938 67.5781ZM241.055 64.5V66.5469H242.633V67.6641H241.055V72.9062C241.055 73.2448 241.125 73.5 241.266 73.6719C241.406 73.8385 241.646 73.9219 241.984 73.9219C242.151 73.9219 242.38 73.8906 242.672 73.8281V75C242.292 75.1042 241.922 75.1562 241.562 75.1562C240.917 75.1562 240.43 74.9609 240.102 74.5703C239.773 74.1797 239.609 73.625 239.609 72.9062V67.6641H238.07V66.5469H239.609V64.5H241.055ZM255.781 73.0078L257.406 66.5469H258.852L256.391 75H255.219L253.164 68.5938L251.164 75H249.992L247.539 66.5469H248.977L250.641 72.875L252.609 66.5469H253.773L255.781 73.0078ZM261.898 75H260.453V66.5469H261.898V75ZM260.336 64.3047C260.336 64.0703 260.406 63.8724 260.547 63.7109C260.693 63.5495 260.906 63.4688 261.188 63.4688C261.469 63.4688 261.682 63.5495 261.828 63.7109C261.974 63.8724 262.047 64.0703 262.047 64.3047C262.047 64.5391 261.974 64.7344 261.828 64.8906C261.682 65.0469 261.469 65.125 261.188 65.125C260.906 65.125 260.693 65.0469 260.547 64.8906C260.406 64.7344 260.336 64.5391 260.336 64.3047ZM266.18 64.5V66.5469H267.758V67.6641H266.18V72.9062C266.18 73.2448 266.25 73.5 266.391 73.6719C266.531 73.8385 266.771 73.9219 267.109 73.9219C267.276 73.9219 267.505 73.8906 267.797 73.8281V75C267.417 75.1042 267.047 75.1562 266.688 75.1562C266.042 75.1562 265.555 74.9609 265.227 74.5703C264.898 74.1797 264.734 73.625 264.734 72.9062V67.6641H263.195V66.5469H264.734V64.5H266.18ZM270.898 67.5703C271.539 66.7839 272.372 66.3906 273.398 66.3906C275.185 66.3906 276.086 67.3984 276.102 69.4141V75H274.656V69.4062C274.651 68.7969 274.51 68.3464 274.234 68.0547C273.964 67.763 273.539 67.6172 272.961 67.6172C272.492 67.6172 272.081 67.7422 271.727 67.9922C271.372 68.2422 271.096 68.5703 270.898 68.9766V75H269.453V63H270.898V67.5703ZM277.883 70.6953C277.883 69.8672 278.044 69.1224 278.367 68.4609C278.695 67.7995 279.148 67.2891 279.727 66.9297C280.31 66.5703 280.974 66.3906 281.719 66.3906C282.87 66.3906 283.799 66.7891 284.508 67.5859C285.221 68.3828 285.578 69.4427 285.578 70.7656V70.8672C285.578 71.6901 285.419 72.4297 285.102 73.0859C284.789 73.737 284.339 74.2448 283.75 74.6094C283.167 74.974 282.495 75.1562 281.734 75.1562C280.589 75.1562 279.659 74.7578 278.945 73.9609C278.237 73.1641 277.883 72.1094 277.883 70.7969V70.6953ZM279.336 70.8672C279.336 71.8047 279.552 72.5573 279.984 73.125C280.422 73.6927 281.005 73.9766 281.734 73.9766C282.469 73.9766 283.052 73.6901 283.484 73.1172C283.917 72.5391 284.133 71.7318 284.133 70.6953C284.133 69.7682 283.911 69.0182 283.469 68.4453C283.031 67.8672 282.448 67.5781 281.719 67.5781C281.005 67.5781 280.43 67.862 279.992 68.4297C279.555 68.9974 279.336 69.8099 279.336 70.8672ZM292.609 74.1641C292.047 74.8255 291.221 75.1562 290.133 75.1562C289.232 75.1562 288.544 74.8958 288.07 74.375C287.602 73.849 287.365 73.0729 287.359 72.0469V66.5469H288.805V72.0078C288.805 73.2891 289.326 73.9297 290.367 73.9297C291.471 73.9297 292.206 73.5182 292.57 72.6953V66.5469H294.016V75H292.641L292.609 74.1641ZM298.18 64.5V66.5469H299.758V67.6641H298.18V72.9062C298.18 73.2448 298.25 73.5 298.391 73.6719C298.531 73.8385 298.771 73.9219 299.109 73.9219C299.276 73.9219 299.505 73.8906 299.797 73.8281V75C299.417 75.1042 299.047 75.1562 298.688 75.1562C298.042 75.1562 297.555 74.9609 297.227 74.5703C296.898 74.1797 296.734 73.625 296.734 72.9062V67.6641H295.195V66.5469H296.734V64.5H298.18ZM4.48438 97.9766C5 97.9766 5.45052 97.8203 5.83594 97.5078C6.22135 97.1953 6.4349 96.8047 6.47656 96.3359H7.84375C7.81771 96.8203 7.65104 97.2812 7.34375 97.7188C7.03646 98.1562 6.625 98.5052 6.10938 98.7656C5.59896 99.026 5.05729 99.1562 4.48438 99.1562C3.33333 99.1562 2.41667 98.7734 1.73438 98.0078C1.05729 97.237 0.71875 96.1849 0.71875 94.8516V94.6094C0.71875 93.7865 0.869792 93.0547 1.17188 92.4141C1.47396 91.7734 1.90625 91.276 2.46875 90.9219C3.03646 90.5677 3.70573 90.3906 4.47656 90.3906C5.42448 90.3906 6.21094 90.6745 6.83594 91.2422C7.46615 91.8099 7.80208 92.5469 7.84375 93.4531H6.47656C6.4349 92.9062 6.22656 92.4583 5.85156 92.1094C5.48177 91.7552 5.02344 91.5781 4.47656 91.5781C3.74219 91.5781 3.17188 91.8438 2.76562 92.375C2.36458 92.901 2.16406 93.6641 2.16406 94.6641V94.9375C2.16406 95.9115 2.36458 96.6615 2.76562 97.1875C3.16667 97.7135 3.73958 97.9766 4.48438 97.9766ZM9.08594 94.6953C9.08594 93.8672 9.2474 93.1224 9.57031 92.4609C9.89844 91.7995 10.3516 91.2891 10.9297 90.9297C11.513 90.5703 12.1771 90.3906 12.9219 90.3906C14.0729 90.3906 15.0026 90.7891 15.7109 91.5859C16.4245 92.3828 16.7812 93.4427 16.7812 94.7656V94.8672C16.7812 95.6901 16.6224 96.4297 16.3047 97.0859C15.9922 97.737 15.5417 98.2448 14.9531 98.6094C14.3698 98.974 13.6979 99.1562 12.9375 99.1562C11.7917 99.1562 10.862 98.7578 10.1484 97.9609C9.4401 97.1641 9.08594 96.1094 9.08594 94.7969V94.6953ZM10.5391 94.8672C10.5391 95.8047 10.7552 96.5573 11.1875 97.125C11.625 97.6927 12.2083 97.9766 12.9375 97.9766C13.6719 97.9766 14.2552 97.6901 14.6875 97.1172C15.1198 96.5391 15.3359 95.7318 15.3359 94.6953C15.3359 93.7682 15.1146 93.0182 14.6719 92.4453C14.2344 91.8672 13.651 91.5781 12.9219 91.5781C12.2083 91.5781 11.6328 91.862 11.1953 92.4297C10.7578 92.9974 10.5391 93.8099 10.5391 94.8672ZM19.9531 90.5469L19.9922 91.4844C20.612 90.7552 21.4479 90.3906 22.5 90.3906C23.6823 90.3906 24.487 90.8438 24.9141 91.75C25.1953 91.3438 25.5599 91.0156 26.0078 90.7656C26.4609 90.5156 26.9948 90.3906 27.6094 90.3906C29.4635 90.3906 30.4062 91.3724 30.4375 93.3359V99H28.9922V93.4219C28.9922 92.8177 28.8542 92.3672 28.5781 92.0703C28.3021 91.7682 27.8385 91.6172 27.1875 91.6172C26.651 91.6172 26.2057 91.7786 25.8516 92.1016C25.4974 92.4193 25.2917 92.849 25.2344 93.3906V99H23.7812V93.4609C23.7812 92.2318 23.1797 91.6172 21.9766 91.6172C21.0286 91.6172 20.3802 92.0208 20.0312 92.8281V99H18.5859V90.5469H19.9531ZM39.7656 94.8672C39.7656 96.1536 39.4714 97.1901 38.8828 97.9766C38.2943 98.763 37.4974 99.1562 36.4922 99.1562C35.4661 99.1562 34.6589 98.8307 34.0703 98.1797V102.25H32.625V90.5469H33.9453L34.0156 91.4844C34.6042 90.7552 35.4219 90.3906 36.4688 90.3906C37.4844 90.3906 38.2865 90.7734 38.875 91.5391C39.4688 92.3047 39.7656 93.3698 39.7656 94.7344V94.8672ZM38.3203 94.7031C38.3203 93.75 38.1172 92.9974 37.7109 92.4453C37.3047 91.8932 36.7474 91.6172 36.0391 91.6172C35.1641 91.6172 34.5078 92.0052 34.0703 92.7812V96.8203C34.5026 97.5911 35.1641 97.9766 36.0547 97.9766C36.7474 97.9766 37.2969 97.7031 37.7031 97.1562C38.1146 96.6042 38.3203 95.7865 38.3203 94.7031ZM45.6953 91.8438C45.4766 91.8073 45.2396 91.7891 44.9844 91.7891C44.0365 91.7891 43.3932 92.1927 43.0547 93V99H41.6094V90.5469H43.0156L43.0391 91.5234C43.513 90.7682 44.1849 90.3906 45.0547 90.3906C45.3359 90.3906 45.5495 90.4271 45.6953 90.5V91.8438ZM46.4922 94.6953C46.4922 93.8672 46.6536 93.1224 46.9766 92.4609C47.3047 91.7995 47.7578 91.2891 48.3359 90.9297C48.9193 90.5703 49.5833 90.3906 50.3281 90.3906C51.4792 90.3906 52.4089 90.7891 53.1172 91.5859C53.8307 92.3828 54.1875 93.4427 54.1875 94.7656V94.8672C54.1875 95.6901 54.0286 96.4297 53.7109 97.0859C53.3984 97.737 52.9479 98.2448 52.3594 98.6094C51.776 98.974 51.1042 99.1562 50.3438 99.1562C49.1979 99.1562 48.2682 98.7578 47.5547 97.9609C46.8464 97.1641 46.4922 96.1094 46.4922 94.7969V94.6953ZM47.9453 94.8672C47.9453 95.8047 48.1615 96.5573 48.5938 97.125C49.0312 97.6927 49.6146 97.9766 50.3438 97.9766C51.0781 97.9766 51.6615 97.6901 52.0938 97.1172C52.526 96.5391 52.7422 95.7318 52.7422 94.6953C52.7422 93.7682 52.5208 93.0182 52.0781 92.4453C51.6406 91.8672 51.0573 91.5781 50.3281 91.5781C49.6146 91.5781 49.0391 91.862 48.6016 92.4297C48.1641 92.9974 47.9453 93.8099 47.9453 94.8672ZM57.3594 90.5469L57.3984 91.4844C58.0182 90.7552 58.8542 90.3906 59.9062 90.3906C61.0885 90.3906 61.8932 90.8438 62.3203 91.75C62.6016 91.3438 62.9661 91.0156 63.4141 90.7656C63.8672 90.5156 64.401 90.3906 65.0156 90.3906C66.8698 90.3906 67.8125 91.3724 67.8438 93.3359V99H66.3984V93.4219C66.3984 92.8177 66.2604 92.3672 65.9844 92.0703C65.7083 91.7682 65.2448 91.6172 64.5938 91.6172C64.0573 91.6172 63.612 91.7786 63.2578 92.1016C62.9036 92.4193 62.6979 92.849 62.6406 93.3906V99H61.1875V93.4609C61.1875 92.2318 60.5859 91.6172 59.3828 91.6172C58.4349 91.6172 57.7865 92.0208 57.4375 92.8281V99H55.9922V90.5469H57.3594ZM71.6016 99H70.1562V90.5469H71.6016V99ZM70.0391 88.3047C70.0391 88.0703 70.1094 87.8724 70.25 87.7109C70.3958 87.5495 70.6094 87.4688 70.8906 87.4688C71.1719 87.4688 71.3854 87.5495 71.5312 87.7109C71.6771 87.8724 71.75 88.0703 71.75 88.3047C71.75 88.5391 71.6771 88.7344 71.5312 88.8906C71.3854 89.0469 71.1719 89.125 70.8906 89.125C70.6094 89.125 70.3958 89.0469 70.25 88.8906C70.1094 88.7344 70.0391 88.5391 70.0391 88.3047ZM78.8438 96.7578C78.8438 96.3672 78.6953 96.0651 78.3984 95.8516C78.1068 95.6328 77.5938 95.4453 76.8594 95.2891C76.1302 95.1328 75.5495 94.9453 75.1172 94.7266C74.6901 94.5078 74.3724 94.2474 74.1641 93.9453C73.9609 93.6432 73.8594 93.2839 73.8594 92.8672C73.8594 92.1745 74.151 91.5885 74.7344 91.1094C75.3229 90.6302 76.0729 90.3906 76.9844 90.3906C77.9427 90.3906 78.7188 90.638 79.3125 91.1328C79.9115 91.6276 80.2109 92.2604 80.2109 93.0312H78.7578C78.7578 92.6354 78.5885 92.2943 78.25 92.0078C77.9167 91.7214 77.4948 91.5781 76.9844 91.5781C76.4583 91.5781 76.0469 91.6927 75.75 91.9219C75.4531 92.151 75.3047 92.4505 75.3047 92.8203C75.3047 93.1693 75.4427 93.4323 75.7188 93.6094C75.9948 93.7865 76.4922 93.9557 77.2109 94.1172C77.9349 94.2786 78.5208 94.4714 78.9688 94.6953C79.4167 94.9193 79.7474 95.1901 79.9609 95.5078C80.1797 95.8203 80.2891 96.2031 80.2891 96.6562C80.2891 97.4115 79.987 98.0182 79.3828 98.4766C78.7786 98.9297 77.9948 99.1562 77.0312 99.1562C76.3542 99.1562 75.7552 99.0365 75.2344 98.7969C74.7135 98.5573 74.3047 98.224 74.0078 97.7969C73.7161 97.3646 73.5703 96.8984 73.5703 96.3984H75.0156C75.0417 96.8828 75.2344 97.2682 75.5938 97.5547C75.9583 97.8359 76.4375 97.9766 77.0312 97.9766C77.5781 97.9766 78.0156 97.8672 78.3438 97.6484C78.6771 97.4245 78.8438 97.1276 78.8438 96.7578ZM83.7422 99H82.2969V90.5469H83.7422V99ZM82.1797 88.3047C82.1797 88.0703 82.25 87.8724 82.3906 87.7109C82.5365 87.5495 82.75 87.4688 83.0312 87.4688C83.3125 87.4688 83.526 87.5495 83.6719 87.7109C83.8177 87.8724 83.8906 88.0703 83.8906 88.3047C83.8906 88.5391 83.8177 88.7344 83.6719 88.8906C83.526 89.0469 83.3125 89.125 83.0312 89.125C82.75 89.125 82.5365 89.0469 82.3906 88.8906C82.25 88.7344 82.1797 88.5391 82.1797 88.3047ZM87.4297 90.5469L87.4766 91.6094C88.1224 90.7969 88.9661 90.3906 90.0078 90.3906C91.7943 90.3906 92.6953 91.3984 92.7109 93.4141V99H91.2656V93.4062C91.2604 92.7969 91.1198 92.3464 90.8438 92.0547C90.5729 91.763 90.1484 91.6172 89.5703 91.6172C89.1016 91.6172 88.6901 91.7422 88.3359 91.9922C87.9818 92.2422 87.7057 92.5703 87.5078 92.9766V99H86.0625V90.5469H87.4297ZM94.5469 94.7031C94.5469 93.3854 94.8516 92.3385 95.4609 91.5625C96.0703 90.7812 96.8776 90.3906 97.8828 90.3906C98.9141 90.3906 99.7188 90.7552 100.297 91.4844L100.367 90.5469H101.688V98.7969C101.688 99.8906 101.362 100.753 100.711 101.383C100.065 102.013 99.1953 102.328 98.1016 102.328C97.4922 102.328 96.8958 102.198 96.3125 101.938C95.7292 101.677 95.2839 101.32 94.9766 100.867L95.7266 100C96.3464 100.766 97.1042 101.148 98 101.148C98.7031 101.148 99.25 100.951 99.6406 100.555C100.036 100.159 100.234 99.6016 100.234 98.8828V98.1562C99.6562 98.8229 98.8672 99.1562 97.8672 99.1562C96.8776 99.1562 96.0755 98.7578 95.4609 97.9609C94.8516 97.1641 94.5469 96.0781 94.5469 94.7031ZM96 94.8672C96 95.8203 96.1953 96.5703 96.5859 97.1172C96.9766 97.6589 97.5234 97.9297 98.2266 97.9297C99.138 97.9297 99.8073 97.5156 100.234 96.6875V92.8281C99.7917 92.0208 99.1276 91.6172 98.2422 91.6172C97.5391 91.6172 96.9896 91.8906 96.5938 92.4375C96.1979 92.9844 96 93.7943 96 94.8672ZM107.492 94.7031C107.492 93.375 107.797 92.3255 108.406 91.5547C109.016 90.7786 109.833 90.3906 110.859 90.3906C111.859 90.3906 112.648 90.7266 113.227 91.3984L113.289 90.5469H114.617V102.25H113.172V98.2188C112.589 98.8438 111.812 99.1562 110.844 99.1562C109.823 99.1562 109.008 98.7604 108.398 97.9688C107.794 97.1719 107.492 96.1172 107.492 94.8047V94.7031ZM108.938 94.8672C108.938 95.8359 109.141 96.5964 109.547 97.1484C109.958 97.7005 110.51 97.9766 111.203 97.9766C112.062 97.9766 112.719 97.5964 113.172 96.8359V92.6953C112.714 91.9505 112.062 91.5781 111.219 91.5781C110.521 91.5781 109.966 91.8568 109.555 92.4141C109.143 92.9661 108.938 93.7839 108.938 94.8672ZM122.156 98.1641C121.594 98.8255 120.768 99.1562 119.68 99.1562C118.779 99.1562 118.091 98.8958 117.617 98.375C117.148 97.849 116.911 97.0729 116.906 96.0469V90.5469H118.352V96.0078C118.352 97.2891 118.872 97.9297 119.914 97.9297C121.018 97.9297 121.753 97.5182 122.117 96.6953V90.5469H123.562V99H122.188L122.156 98.1641ZM130.984 99C130.901 98.8333 130.833 98.5365 130.781 98.1094C130.109 98.8073 129.307 99.1562 128.375 99.1562C127.542 99.1562 126.857 98.9219 126.32 98.4531C125.789 97.9792 125.523 97.3802 125.523 96.6562C125.523 95.776 125.857 95.0938 126.523 94.6094C127.195 94.1198 128.138 93.875 129.352 93.875H130.758V93.2109C130.758 92.7057 130.607 92.3047 130.305 92.0078C130.003 91.7057 129.557 91.5547 128.969 91.5547C128.453 91.5547 128.021 91.6849 127.672 91.9453C127.323 92.2057 127.148 92.5208 127.148 92.8906H125.695C125.695 92.4688 125.844 92.0625 126.141 91.6719C126.443 91.276 126.849 90.9635 127.359 90.7344C127.875 90.5052 128.44 90.3906 129.055 90.3906C130.029 90.3906 130.792 90.6354 131.344 91.125C131.896 91.6094 132.182 92.2786 132.203 93.1328V97.0234C132.203 97.7995 132.302 98.4167 132.5 98.875V99H130.984ZM128.586 97.8984C129.039 97.8984 129.469 97.7812 129.875 97.5469C130.281 97.3125 130.576 97.0078 130.758 96.6328V94.8984H129.625C127.854 94.8984 126.969 95.4167 126.969 96.4531C126.969 96.9062 127.12 97.2604 127.422 97.5156C127.724 97.7708 128.112 97.8984 128.586 97.8984ZM136.039 99H134.594V87H136.039V99ZM139.93 99H138.484V90.5469H139.93V99ZM138.367 88.3047C138.367 88.0703 138.438 87.8724 138.578 87.7109C138.724 87.5495 138.938 87.4688 139.219 87.4688C139.5 87.4688 139.714 87.5495 139.859 87.7109C140.005 87.8724 140.078 88.0703 140.078 88.3047C140.078 88.5391 140.005 88.7344 139.859 88.8906C139.714 89.0469 139.5 89.125 139.219 89.125C138.938 89.125 138.724 89.0469 138.578 88.8906C138.438 88.7344 138.367 88.5391 138.367 88.3047ZM144.211 88.5V90.5469H145.789V91.6641H144.211V96.9062C144.211 97.2448 144.281 97.5 144.422 97.6719C144.562 97.8385 144.802 97.9219 145.141 97.9219C145.307 97.9219 145.536 97.8906 145.828 97.8281V99C145.448 99.1042 145.078 99.1562 144.719 99.1562C144.073 99.1562 143.586 98.9609 143.258 98.5703C142.93 98.1797 142.766 97.625 142.766 96.9062V91.6641H141.227V90.5469H142.766V88.5H144.211ZM150.25 96.8828L152.219 90.5469H153.766L150.367 100.305C149.841 101.711 149.005 102.414 147.859 102.414L147.586 102.391L147.047 102.289V101.117L147.438 101.148C147.927 101.148 148.307 101.049 148.578 100.852C148.854 100.654 149.081 100.292 149.258 99.7656L149.578 98.9062L146.562 90.5469H148.141L150.25 96.8828ZM166.188 94.8672C166.188 96.1589 165.891 97.1979 165.297 97.9844C164.703 98.7656 163.906 99.1562 162.906 99.1562C161.839 99.1562 161.013 98.7786 160.43 98.0234L160.359 99H159.031V87H160.477V91.4766C161.06 90.7526 161.865 90.3906 162.891 90.3906C163.917 90.3906 164.721 90.7786 165.305 91.5547C165.893 92.3307 166.188 93.3932 166.188 94.7422V94.8672ZM164.742 94.7031C164.742 93.7188 164.552 92.9583 164.172 92.4219C163.792 91.8854 163.245 91.6172 162.531 91.6172C161.578 91.6172 160.893 92.0599 160.477 92.9453V96.6016C160.919 97.487 161.609 97.9297 162.547 97.9297C163.24 97.9297 163.779 97.6615 164.164 97.125C164.549 96.5885 164.742 95.7812 164.742 94.7031ZM170.688 96.8828L172.656 90.5469H174.203L170.805 100.305C170.279 101.711 169.443 102.414 168.297 102.414L168.023 102.391L167.484 102.289V101.117L167.875 101.148C168.365 101.148 168.745 101.049 169.016 100.852C169.292 100.654 169.518 100.292 169.695 99.7656L170.016 98.9062L167 90.5469H168.578L170.688 96.8828ZM184.391 96.7578C184.391 96.3672 184.242 96.0651 183.945 95.8516C183.654 95.6328 183.141 95.4453 182.406 95.2891C181.677 95.1328 181.096 94.9453 180.664 94.7266C180.237 94.5078 179.919 94.2474 179.711 93.9453C179.508 93.6432 179.406 93.2839 179.406 92.8672C179.406 92.1745 179.698 91.5885 180.281 91.1094C180.87 90.6302 181.62 90.3906 182.531 90.3906C183.49 90.3906 184.266 90.638 184.859 91.1328C185.458 91.6276 185.758 92.2604 185.758 93.0312H184.305C184.305 92.6354 184.135 92.2943 183.797 92.0078C183.464 91.7214 183.042 91.5781 182.531 91.5781C182.005 91.5781 181.594 91.6927 181.297 91.9219C181 92.151 180.852 92.4505 180.852 92.8203C180.852 93.1693 180.99 93.4323 181.266 93.6094C181.542 93.7865 182.039 93.9557 182.758 94.1172C183.482 94.2786 184.068 94.4714 184.516 94.6953C184.964 94.9193 185.294 95.1901 185.508 95.5078C185.727 95.8203 185.836 96.2031 185.836 96.6562C185.836 97.4115 185.534 98.0182 184.93 98.4766C184.326 98.9297 183.542 99.1562 182.578 99.1562C181.901 99.1562 181.302 99.0365 180.781 98.7969C180.26 98.5573 179.852 98.224 179.555 97.7969C179.263 97.3646 179.117 96.8984 179.117 96.3984H180.562C180.589 96.8828 180.781 97.2682 181.141 97.5547C181.505 97.8359 181.984 97.9766 182.578 97.9766C183.125 97.9766 183.562 97.8672 183.891 97.6484C184.224 97.4245 184.391 97.1276 184.391 96.7578ZM191.227 99.1562C190.081 99.1562 189.148 98.7812 188.43 98.0312C187.711 97.276 187.352 96.2682 187.352 95.0078V94.7422C187.352 93.9036 187.51 93.1562 187.828 92.5C188.151 91.8385 188.599 91.3229 189.172 90.9531C189.75 90.5781 190.375 90.3906 191.047 90.3906C192.146 90.3906 193 90.7526 193.609 91.4766C194.219 92.2005 194.523 93.237 194.523 94.5859V95.1875H188.797C188.818 96.0208 189.06 96.6953 189.523 97.2109C189.992 97.7214 190.586 97.9766 191.305 97.9766C191.815 97.9766 192.247 97.8724 192.602 97.6641C192.956 97.4557 193.266 97.1797 193.531 96.8359L194.414 97.5234C193.706 98.612 192.643 99.1562 191.227 99.1562ZM191.047 91.5781C190.464 91.5781 189.974 91.7917 189.578 92.2188C189.182 92.6406 188.938 93.2344 188.844 94H193.078V93.8906C193.036 93.1562 192.839 92.5885 192.484 92.1875C192.13 91.7812 191.651 91.5781 191.047 91.5781ZM197.773 99H196.328V87H197.773V99ZM201.664 99H200.219V87H201.664V99ZM205.555 99H204.109V90.5469H205.555V99ZM203.992 88.3047C203.992 88.0703 204.062 87.8724 204.203 87.7109C204.349 87.5495 204.562 87.4688 204.844 87.4688C205.125 87.4688 205.339 87.5495 205.484 87.7109C205.63 87.8724 205.703 88.0703 205.703 88.3047C205.703 88.5391 205.63 88.7344 205.484 88.8906C205.339 89.0469 205.125 89.125 204.844 89.125C204.562 89.125 204.349 89.0469 204.203 88.8906C204.062 88.7344 203.992 88.5391 203.992 88.3047ZM209.242 90.5469L209.289 91.6094C209.935 90.7969 210.779 90.3906 211.82 90.3906C213.607 90.3906 214.508 91.3984 214.523 93.4141V99H213.078V93.4062C213.073 92.7969 212.932 92.3464 212.656 92.0547C212.385 91.763 211.961 91.6172 211.383 91.6172C210.914 91.6172 210.503 91.7422 210.148 91.9922C209.794 92.2422 209.518 92.5703 209.32 92.9766V99H207.875V90.5469H209.242ZM216.359 94.7031C216.359 93.3854 216.664 92.3385 217.273 91.5625C217.883 90.7812 218.69 90.3906 219.695 90.3906C220.727 90.3906 221.531 90.7552 222.109 91.4844L222.18 90.5469H223.5V98.7969C223.5 99.8906 223.174 100.753 222.523 101.383C221.878 102.013 221.008 102.328 219.914 102.328C219.305 102.328 218.708 102.198 218.125 101.938C217.542 101.677 217.096 101.32 216.789 100.867L217.539 100C218.159 100.766 218.917 101.148 219.812 101.148C220.516 101.148 221.062 100.951 221.453 100.555C221.849 100.159 222.047 99.6016 222.047 98.8828V98.1562C221.469 98.8229 220.68 99.1562 219.68 99.1562C218.69 99.1562 217.888 98.7578 217.273 97.9609C216.664 97.1641 216.359 96.0781 216.359 94.7031ZM217.812 94.8672C217.812 95.8203 218.008 96.5703 218.398 97.1172C218.789 97.6589 219.336 97.9297 220.039 97.9297C220.951 97.9297 221.62 97.5156 222.047 96.6875V92.8281C221.604 92.0208 220.94 91.6172 220.055 91.6172C219.352 91.6172 218.802 91.8906 218.406 92.4375C218.01 92.9844 217.812 93.7943 217.812 94.8672ZM229.305 94.7031C229.305 93.4062 229.612 92.3646 230.227 91.5781C230.841 90.7865 231.646 90.3906 232.641 90.3906C233.63 90.3906 234.414 90.7292 234.992 91.4062V87H236.438V99H235.109L235.039 98.0938C234.461 98.8021 233.656 99.1562 232.625 99.1562C231.646 99.1562 230.846 98.7552 230.227 97.9531C229.612 97.151 229.305 96.1042 229.305 94.8125V94.7031ZM230.75 94.8672C230.75 95.8255 230.948 96.5755 231.344 97.1172C231.74 97.6589 232.286 97.9297 232.984 97.9297C233.901 97.9297 234.57 97.5182 234.992 96.6953V92.8125C234.56 92.0156 233.896 91.6172 233 91.6172C232.292 91.6172 231.74 91.8906 231.344 92.4375C230.948 92.9844 230.75 93.7943 230.75 94.8672ZM240.258 99H238.812V90.5469H240.258V99ZM238.695 88.3047C238.695 88.0703 238.766 87.8724 238.906 87.7109C239.052 87.5495 239.266 87.4688 239.547 87.4688C239.828 87.4688 240.042 87.5495 240.188 87.7109C240.333 87.8724 240.406 88.0703 240.406 88.3047C240.406 88.5391 240.333 88.7344 240.188 88.8906C240.042 89.0469 239.828 89.125 239.547 89.125C239.266 89.125 239.052 89.0469 238.906 88.8906C238.766 88.7344 238.695 88.5391 238.695 88.3047ZM246.664 91.8438C246.445 91.8073 246.208 91.7891 245.953 91.7891C245.005 91.7891 244.362 92.1927 244.023 93V99H242.578V90.5469H243.984L244.008 91.5234C244.482 90.7682 245.154 90.3906 246.023 90.3906C246.305 90.3906 246.518 90.4271 246.664 90.5V91.8438ZM251.352 99.1562C250.206 99.1562 249.273 98.7812 248.555 98.0312C247.836 97.276 247.477 96.2682 247.477 95.0078V94.7422C247.477 93.9036 247.635 93.1562 247.953 92.5C248.276 91.8385 248.724 91.3229 249.297 90.9531C249.875 90.5781 250.5 90.3906 251.172 90.3906C252.271 90.3906 253.125 90.7526 253.734 91.4766C254.344 92.2005 254.648 93.237 254.648 94.5859V95.1875H248.922C248.943 96.0208 249.185 96.6953 249.648 97.2109C250.117 97.7214 250.711 97.9766 251.43 97.9766C251.94 97.9766 252.372 97.8724 252.727 97.6641C253.081 97.4557 253.391 97.1797 253.656 96.8359L254.539 97.5234C253.831 98.612 252.768 99.1562 251.352 99.1562ZM251.172 91.5781C250.589 91.5781 250.099 91.7917 249.703 92.2188C249.307 92.6406 249.062 93.2344 248.969 94H253.203V93.8906C253.161 93.1562 252.964 92.5885 252.609 92.1875C252.255 91.7812 251.776 91.5781 251.172 91.5781ZM259.719 97.9766C260.234 97.9766 260.685 97.8203 261.07 97.5078C261.456 97.1953 261.669 96.8047 261.711 96.3359H263.078C263.052 96.8203 262.885 97.2812 262.578 97.7188C262.271 98.1562 261.859 98.5052 261.344 98.7656C260.833 99.026 260.292 99.1562 259.719 99.1562C258.568 99.1562 257.651 98.7734 256.969 98.0078C256.292 97.237 255.953 96.1849 255.953 94.8516V94.6094C255.953 93.7865 256.104 93.0547 256.406 92.4141C256.708 91.7734 257.141 91.276 257.703 90.9219C258.271 90.5677 258.94 90.3906 259.711 90.3906C260.659 90.3906 261.445 90.6745 262.07 91.2422C262.701 91.8099 263.036 92.5469 263.078 93.4531H261.711C261.669 92.9062 261.461 92.4583 261.086 92.1094C260.716 91.7552 260.258 91.5781 259.711 91.5781C258.977 91.5781 258.406 91.8438 258 92.375C257.599 92.901 257.398 93.6641 257.398 94.6641V94.9375C257.398 95.9115 257.599 96.6615 258 97.1875C258.401 97.7135 258.974 97.9766 259.719 97.9766ZM266.664 88.5V90.5469H268.242V91.6641H266.664V96.9062C266.664 97.2448 266.734 97.5 266.875 97.6719C267.016 97.8385 267.255 97.9219 267.594 97.9219C267.76 97.9219 267.99 97.8906 268.281 97.8281V99C267.901 99.1042 267.531 99.1562 267.172 99.1562C266.526 99.1562 266.039 98.9609 265.711 98.5703C265.383 98.1797 265.219 97.625 265.219 96.9062V91.6641H263.68V90.5469H265.219V88.5H266.664ZM269.969 98.2422C269.969 97.9922 270.042 97.7839 270.188 97.6172C270.339 97.4505 270.562 97.3672 270.859 97.3672C271.156 97.3672 271.38 97.4505 271.531 97.6172C271.688 97.7839 271.766 97.9922 271.766 98.2422C271.766 98.4818 271.688 98.6823 271.531 98.8438C271.38 99.0052 271.156 99.0859 270.859 99.0859C270.562 99.0859 270.339 99.0052 270.188 98.8438C270.042 98.6823 269.969 98.4818 269.969 98.2422ZM287.094 99H285.586L279.859 90.2344V99H278.352V87.625H279.859L285.602 96.4297V87.625H287.094V99ZM289.148 94.6953C289.148 93.8672 289.31 93.1224 289.633 92.4609C289.961 91.7995 290.414 91.2891 290.992 90.9297C291.576 90.5703 292.24 90.3906 292.984 90.3906C294.135 90.3906 295.065 90.7891 295.773 91.5859C296.487 92.3828 296.844 93.4427 296.844 94.7656V94.8672C296.844 95.6901 296.685 96.4297 296.367 97.0859C296.055 97.737 295.604 98.2448 295.016 98.6094C294.432 98.974 293.76 99.1562 293 99.1562C291.854 99.1562 290.924 98.7578 290.211 97.9609C289.503 97.1641 289.148 96.1094 289.148 94.7969V94.6953ZM290.602 94.8672C290.602 95.8047 290.818 96.5573 291.25 97.125C291.688 97.6927 292.271 97.9766 293 97.9766C293.734 97.9766 294.318 97.6901 294.75 97.1172C295.182 96.5391 295.398 95.7318 295.398 94.6953C295.398 93.7682 295.177 93.0182 294.734 92.4453C294.297 91.8672 293.714 91.5781 292.984 91.5781C292.271 91.5781 291.695 91.862 291.258 92.4297C290.82 92.9974 290.602 93.8099 290.602 94.8672ZM2.45312 114.547L2.49219 115.484C3.11198 114.755 3.94792 114.391 5 114.391C6.18229 114.391 6.98698 114.844 7.41406 115.75C7.69531 115.344 8.0599 115.016 8.50781 114.766C8.96094 114.516 9.49479 114.391 10.1094 114.391C11.9635 114.391 12.9062 115.372 12.9375 117.336V123H11.4922V117.422C11.4922 116.818 11.3542 116.367 11.0781 116.07C10.8021 115.768 10.3385 115.617 9.6875 115.617C9.15104 115.617 8.70573 115.779 8.35156 116.102C7.9974 116.419 7.79167 116.849 7.73438 117.391V123H6.28125V117.461C6.28125 116.232 5.67969 115.617 4.47656 115.617C3.52865 115.617 2.88021 116.021 2.53125 116.828V123H1.08594V114.547H2.45312ZM16.6953 123H15.25V114.547H16.6953V123ZM15.1328 112.305C15.1328 112.07 15.2031 111.872 15.3438 111.711C15.4896 111.549 15.7031 111.469 15.9844 111.469C16.2656 111.469 16.4792 111.549 16.625 111.711C16.7708 111.872 16.8438 112.07 16.8438 112.305C16.8438 112.539 16.7708 112.734 16.625 112.891C16.4792 113.047 16.2656 113.125 15.9844 113.125C15.7031 113.125 15.4896 113.047 15.3438 112.891C15.2031 112.734 15.1328 112.539 15.1328 112.305ZM18.6641 118.703C18.6641 117.406 18.9714 116.365 19.5859 115.578C20.2005 114.786 21.0052 114.391 22 114.391C22.9896 114.391 23.7734 114.729 24.3516 115.406V111H25.7969V123H24.4688L24.3984 122.094C23.8203 122.802 23.0156 123.156 21.9844 123.156C21.0052 123.156 20.2057 122.755 19.5859 121.953C18.9714 121.151 18.6641 120.104 18.6641 118.812V118.703ZM20.1094 118.867C20.1094 119.826 20.3073 120.576 20.7031 121.117C21.099 121.659 21.6458 121.93 22.3438 121.93C23.2604 121.93 23.9297 121.518 24.3516 120.695V116.812C23.9193 116.016 23.2552 115.617 22.3594 115.617C21.651 115.617 21.099 115.891 20.7031 116.438C20.3073 116.984 20.1094 117.794 20.1094 118.867ZM27.6953 118.703C27.6953 117.406 28.0026 116.365 28.6172 115.578C29.2318 114.786 30.0365 114.391 31.0312 114.391C32.0208 114.391 32.8047 114.729 33.3828 115.406V111H34.8281V123H33.5L33.4297 122.094C32.8516 122.802 32.0469 123.156 31.0156 123.156C30.0365 123.156 29.237 122.755 28.6172 121.953C28.0026 121.151 27.6953 120.104 27.6953 118.812V118.703ZM29.1406 118.867C29.1406 119.826 29.3385 120.576 29.7344 121.117C30.1302 121.659 30.6771 121.93 31.375 121.93C32.2917 121.93 32.9609 121.518 33.3828 120.695V116.812C32.9505 116.016 32.2865 115.617 31.3906 115.617C30.6823 115.617 30.1302 115.891 29.7344 116.438C29.3385 116.984 29.1406 117.794 29.1406 118.867ZM38.6484 123H37.2031V111H38.6484V123ZM44.4766 123.156C43.3307 123.156 42.3984 122.781 41.6797 122.031C40.9609 121.276 40.6016 120.268 40.6016 119.008V118.742C40.6016 117.904 40.7604 117.156 41.0781 116.5C41.401 115.839 41.849 115.323 42.4219 114.953C43 114.578 43.625 114.391 44.2969 114.391C45.3958 114.391 46.25 114.753 46.8594 115.477C47.4688 116.201 47.7734 117.237 47.7734 118.586V119.188H42.0469C42.0677 120.021 42.3099 120.695 42.7734 121.211C43.2422 121.721 43.8359 121.977 44.5547 121.977C45.0651 121.977 45.4974 121.872 45.8516 121.664C46.2057 121.456 46.5156 121.18 46.7812 120.836L47.6641 121.523C46.9557 122.612 45.8932 123.156 44.4766 123.156ZM44.2969 115.578C43.7135 115.578 43.224 115.792 42.8281 116.219C42.4323 116.641 42.1875 117.234 42.0938 118H46.3281V117.891C46.2865 117.156 46.0885 116.589 45.7344 116.188C45.3802 115.781 44.901 115.578 44.2969 115.578ZM54.7812 114.547L54.8203 115.484C55.4401 114.755 56.276 114.391 57.3281 114.391C58.5104 114.391 59.3151 114.844 59.7422 115.75C60.0234 115.344 60.388 115.016 60.8359 114.766C61.2891 114.516 61.8229 114.391 62.4375 114.391C64.2917 114.391 65.2344 115.372 65.2656 117.336V123H63.8203V117.422C63.8203 116.818 63.6823 116.367 63.4062 116.07C63.1302 115.768 62.6667 115.617 62.0156 115.617C61.4792 115.617 61.0339 115.779 60.6797 116.102C60.3255 116.419 60.1198 116.849 60.0625 117.391V123H58.6094V117.461C58.6094 116.232 58.0078 115.617 56.8047 115.617C55.8568 115.617 55.2083 116.021 54.8594 116.828V123H53.4141V114.547H54.7812ZM72.6719 123C72.5885 122.833 72.5208 122.536 72.4688 122.109C71.7969 122.807 70.9948 123.156 70.0625 123.156C69.2292 123.156 68.5443 122.922 68.0078 122.453C67.4766 121.979 67.2109 121.38 67.2109 120.656C67.2109 119.776 67.5443 119.094 68.2109 118.609C68.8828 118.12 69.8255 117.875 71.0391 117.875H72.4453V117.211C72.4453 116.706 72.2943 116.305 71.9922 116.008C71.6901 115.706 71.2448 115.555 70.6562 115.555C70.1406 115.555 69.7083 115.685 69.3594 115.945C69.0104 116.206 68.8359 116.521 68.8359 116.891H67.3828C67.3828 116.469 67.5312 116.062 67.8281 115.672C68.1302 115.276 68.5365 114.964 69.0469 114.734C69.5625 114.505 70.1276 114.391 70.7422 114.391C71.7161 114.391 72.4792 114.635 73.0312 115.125C73.5833 115.609 73.8698 116.279 73.8906 117.133V121.023C73.8906 121.799 73.9896 122.417 74.1875 122.875V123H72.6719ZM70.2734 121.898C70.7266 121.898 71.1562 121.781 71.5625 121.547C71.9688 121.312 72.263 121.008 72.4453 120.633V118.898H71.3125C69.5417 118.898 68.6562 119.417 68.6562 120.453C68.6562 120.906 68.8073 121.26 69.1094 121.516C69.4115 121.771 69.7995 121.898 70.2734 121.898ZM77.5234 114.547L77.5703 115.609C78.2161 114.797 79.0599 114.391 80.1016 114.391C81.888 114.391 82.7891 115.398 82.8047 117.414V123H81.3594V117.406C81.3542 116.797 81.2135 116.346 80.9375 116.055C80.6667 115.763 80.2422 115.617 79.6641 115.617C79.1953 115.617 78.7839 115.742 78.4297 115.992C78.0755 116.242 77.7995 116.57 77.6016 116.977V123H76.1562V114.547H77.5234ZM84.9375 125.266L84.1172 124.703C84.6068 124.021 84.862 123.318 84.8828 122.594V121.289H86.2969V122.422C86.2969 122.948 86.1667 123.474 85.9062 124C85.651 124.526 85.3281 124.948 84.9375 125.266ZM97.3125 123C97.2292 122.833 97.1615 122.536 97.1094 122.109C96.4375 122.807 95.6354 123.156 94.7031 123.156C93.8698 123.156 93.1849 122.922 92.6484 122.453C92.1172 121.979 91.8516 121.38 91.8516 120.656C91.8516 119.776 92.1849 119.094 92.8516 118.609C93.5234 118.12 94.4661 117.875 95.6797 117.875H97.0859V117.211C97.0859 116.706 96.9349 116.305 96.6328 116.008C96.3307 115.706 95.8854 115.555 95.2969 115.555C94.7812 115.555 94.349 115.685 94 115.945C93.651 116.206 93.4766 116.521 93.4766 116.891H92.0234C92.0234 116.469 92.1719 116.062 92.4688 115.672C92.7708 115.276 93.1771 114.964 93.6875 114.734C94.2031 114.505 94.7682 114.391 95.3828 114.391C96.3568 114.391 97.1198 114.635 97.6719 115.125C98.224 115.609 98.5104 116.279 98.5312 117.133V121.023C98.5312 121.799 98.6302 122.417 98.8281 122.875V123H97.3125ZM94.9141 121.898C95.3672 121.898 95.7969 121.781 96.2031 121.547C96.6094 121.312 96.9036 121.008 97.0859 120.633V118.898H95.9531C94.1823 118.898 93.2969 119.417 93.2969 120.453C93.2969 120.906 93.4479 121.26 93.75 121.516C94.0521 121.771 94.4401 121.898 94.9141 121.898ZM102.164 114.547L102.211 115.609C102.857 114.797 103.701 114.391 104.742 114.391C106.529 114.391 107.43 115.398 107.445 117.414V123H106V117.406C105.995 116.797 105.854 116.346 105.578 116.055C105.307 115.763 104.883 115.617 104.305 115.617C103.836 115.617 103.424 115.742 103.07 115.992C102.716 116.242 102.44 116.57 102.242 116.977V123H100.797V114.547H102.164ZM109.273 118.703C109.273 117.406 109.581 116.365 110.195 115.578C110.81 114.786 111.615 114.391 112.609 114.391C113.599 114.391 114.383 114.729 114.961 115.406V111H116.406V123H115.078L115.008 122.094C114.43 122.802 113.625 123.156 112.594 123.156C111.615 123.156 110.815 122.755 110.195 121.953C109.581 121.151 109.273 120.104 109.273 118.812V118.703ZM110.719 118.867C110.719 119.826 110.917 120.576 111.312 121.117C111.708 121.659 112.255 121.93 112.953 121.93C113.87 121.93 114.539 121.518 114.961 120.695V116.812C114.529 116.016 113.865 115.617 112.969 115.617C112.26 115.617 111.708 115.891 111.312 116.438C110.917 116.984 110.719 117.794 110.719 118.867ZM123.992 114.547L124.039 115.609C124.685 114.797 125.529 114.391 126.57 114.391C128.357 114.391 129.258 115.398 129.273 117.414V123H127.828V117.406C127.823 116.797 127.682 116.346 127.406 116.055C127.135 115.763 126.711 115.617 126.133 115.617C125.664 115.617 125.253 115.742 124.898 115.992C124.544 116.242 124.268 116.57 124.07 116.977V123H122.625V114.547H123.992ZM131.07 118.695C131.07 117.867 131.232 117.122 131.555 116.461C131.883 115.799 132.336 115.289 132.914 114.93C133.497 114.57 134.161 114.391 134.906 114.391C136.057 114.391 136.987 114.789 137.695 115.586C138.409 116.383 138.766 117.443 138.766 118.766V118.867C138.766 119.69 138.607 120.43 138.289 121.086C137.977 121.737 137.526 122.245 136.938 122.609C136.354 122.974 135.682 123.156 134.922 123.156C133.776 123.156 132.846 122.758 132.133 121.961C131.424 121.164 131.07 120.109 131.07 118.797V118.695ZM132.523 118.867C132.523 119.805 132.74 120.557 133.172 121.125C133.609 121.693 134.193 121.977 134.922 121.977C135.656 121.977 136.24 121.69 136.672 121.117C137.104 120.539 137.32 119.732 137.32 118.695C137.32 117.768 137.099 117.018 136.656 116.445C136.219 115.867 135.635 115.578 134.906 115.578C134.193 115.578 133.617 115.862 133.18 116.43C132.742 116.997 132.523 117.81 132.523 118.867ZM149.766 123C149.682 122.833 149.615 122.536 149.562 122.109C148.891 122.807 148.089 123.156 147.156 123.156C146.323 123.156 145.638 122.922 145.102 122.453C144.57 121.979 144.305 121.38 144.305 120.656C144.305 119.776 144.638 119.094 145.305 118.609C145.977 118.12 146.919 117.875 148.133 117.875H149.539V117.211C149.539 116.706 149.388 116.305 149.086 116.008C148.784 115.706 148.339 115.555 147.75 115.555C147.234 115.555 146.802 115.685 146.453 115.945C146.104 116.206 145.93 116.521 145.93 116.891H144.477C144.477 116.469 144.625 116.062 144.922 115.672C145.224 115.276 145.63 114.964 146.141 114.734C146.656 114.505 147.221 114.391 147.836 114.391C148.81 114.391 149.573 114.635 150.125 115.125C150.677 115.609 150.964 116.279 150.984 117.133V121.023C150.984 121.799 151.083 122.417 151.281 122.875V123H149.766ZM147.367 121.898C147.82 121.898 148.25 121.781 148.656 121.547C149.062 121.312 149.357 121.008 149.539 120.633V118.898H148.406C146.635 118.898 145.75 119.417 145.75 120.453C145.75 120.906 145.901 121.26 146.203 121.516C146.505 121.771 146.893 121.898 147.367 121.898ZM152.898 118.703C152.898 117.406 153.206 116.365 153.82 115.578C154.435 114.786 155.24 114.391 156.234 114.391C157.224 114.391 158.008 114.729 158.586 115.406V111H160.031V123H158.703L158.633 122.094C158.055 122.802 157.25 123.156 156.219 123.156C155.24 123.156 154.44 122.755 153.82 121.953C153.206 121.151 152.898 120.104 152.898 118.812V118.703ZM154.344 118.867C154.344 119.826 154.542 120.576 154.938 121.117C155.333 121.659 155.88 121.93 156.578 121.93C157.495 121.93 158.164 121.518 158.586 120.695V116.812C158.154 116.016 157.49 115.617 156.594 115.617C155.885 115.617 155.333 115.891 154.938 116.438C154.542 116.984 154.344 117.794 154.344 118.867ZM161.93 118.703C161.93 117.406 162.237 116.365 162.852 115.578C163.466 114.786 164.271 114.391 165.266 114.391C166.255 114.391 167.039 114.729 167.617 115.406V111H169.062V123H167.734L167.664 122.094C167.086 122.802 166.281 123.156 165.25 123.156C164.271 123.156 163.471 122.755 162.852 121.953C162.237 121.151 161.93 120.104 161.93 118.812V118.703ZM163.375 118.867C163.375 119.826 163.573 120.576 163.969 121.117C164.365 121.659 164.911 121.93 165.609 121.93C166.526 121.93 167.195 121.518 167.617 120.695V116.812C167.185 116.016 166.521 115.617 165.625 115.617C164.917 115.617 164.365 115.891 163.969 116.438C163.573 116.984 163.375 117.794 163.375 118.867ZM172.883 123H171.438V114.547H172.883V123ZM171.32 112.305C171.32 112.07 171.391 111.872 171.531 111.711C171.677 111.549 171.891 111.469 172.172 111.469C172.453 111.469 172.667 111.549 172.812 111.711C172.958 111.872 173.031 112.07 173.031 112.305C173.031 112.539 172.958 112.734 172.812 112.891C172.667 113.047 172.453 113.125 172.172 113.125C171.891 113.125 171.677 113.047 171.531 112.891C171.391 112.734 171.32 112.539 171.32 112.305ZM177.164 112.5V114.547H178.742V115.664H177.164V120.906C177.164 121.245 177.234 121.5 177.375 121.672C177.516 121.839 177.755 121.922 178.094 121.922C178.26 121.922 178.49 121.891 178.781 121.828V123C178.401 123.104 178.031 123.156 177.672 123.156C177.026 123.156 176.539 122.961 176.211 122.57C175.883 122.18 175.719 121.625 175.719 120.906V115.664H174.18V114.547H175.719V112.5H177.164ZM182.008 123H180.562V114.547H182.008V123ZM180.445 112.305C180.445 112.07 180.516 111.872 180.656 111.711C180.802 111.549 181.016 111.469 181.297 111.469C181.578 111.469 181.792 111.549 181.938 111.711C182.083 111.872 182.156 112.07 182.156 112.305C182.156 112.539 182.083 112.734 181.938 112.891C181.792 113.047 181.578 113.125 181.297 113.125C181.016 113.125 180.802 113.047 180.656 112.891C180.516 112.734 180.445 112.539 180.445 112.305ZM183.945 118.695C183.945 117.867 184.107 117.122 184.43 116.461C184.758 115.799 185.211 115.289 185.789 114.93C186.372 114.57 187.036 114.391 187.781 114.391C188.932 114.391 189.862 114.789 190.57 115.586C191.284 116.383 191.641 117.443 191.641 118.766V118.867C191.641 119.69 191.482 120.43 191.164 121.086C190.852 121.737 190.401 122.245 189.812 122.609C189.229 122.974 188.557 123.156 187.797 123.156C186.651 123.156 185.721 122.758 185.008 121.961C184.299 121.164 183.945 120.109 183.945 118.797V118.695ZM185.398 118.867C185.398 119.805 185.615 120.557 186.047 121.125C186.484 121.693 187.068 121.977 187.797 121.977C188.531 121.977 189.115 121.69 189.547 121.117C189.979 120.539 190.195 119.732 190.195 118.695C190.195 117.768 189.974 117.018 189.531 116.445C189.094 115.867 188.51 115.578 187.781 115.578C187.068 115.578 186.492 115.862 186.055 116.43C185.617 116.997 185.398 117.81 185.398 118.867ZM194.82 114.547L194.867 115.609C195.513 114.797 196.357 114.391 197.398 114.391C199.185 114.391 200.086 115.398 200.102 117.414V123H198.656V117.406C198.651 116.797 198.51 116.346 198.234 116.055C197.964 115.763 197.539 115.617 196.961 115.617C196.492 115.617 196.081 115.742 195.727 115.992C195.372 116.242 195.096 116.57 194.898 116.977V123H193.453V114.547H194.82ZM207.5 123C207.417 122.833 207.349 122.536 207.297 122.109C206.625 122.807 205.823 123.156 204.891 123.156C204.057 123.156 203.372 122.922 202.836 122.453C202.305 121.979 202.039 121.38 202.039 120.656C202.039 119.776 202.372 119.094 203.039 118.609C203.711 118.12 204.654 117.875 205.867 117.875H207.273V117.211C207.273 116.706 207.122 116.305 206.82 116.008C206.518 115.706 206.073 115.555 205.484 115.555C204.969 115.555 204.536 115.685 204.188 115.945C203.839 116.206 203.664 116.521 203.664 116.891H202.211C202.211 116.469 202.359 116.062 202.656 115.672C202.958 115.276 203.365 114.964 203.875 114.734C204.391 114.505 204.956 114.391 205.57 114.391C206.544 114.391 207.307 114.635 207.859 115.125C208.411 115.609 208.698 116.279 208.719 117.133V121.023C208.719 121.799 208.818 122.417 209.016 122.875V123H207.5ZM205.102 121.898C205.555 121.898 205.984 121.781 206.391 121.547C206.797 121.312 207.091 121.008 207.273 120.633V118.898H206.141C204.37 118.898 203.484 119.417 203.484 120.453C203.484 120.906 203.635 121.26 203.938 121.516C204.24 121.771 204.628 121.898 205.102 121.898ZM212.555 123H211.109V111H212.555V123ZM222.234 121.977C222.75 121.977 223.201 121.82 223.586 121.508C223.971 121.195 224.185 120.805 224.227 120.336H225.594C225.568 120.82 225.401 121.281 225.094 121.719C224.786 122.156 224.375 122.505 223.859 122.766C223.349 123.026 222.807 123.156 222.234 123.156C221.083 123.156 220.167 122.773 219.484 122.008C218.807 121.237 218.469 120.185 218.469 118.852V118.609C218.469 117.786 218.62 117.055 218.922 116.414C219.224 115.773 219.656 115.276 220.219 114.922C220.786 114.568 221.456 114.391 222.227 114.391C223.174 114.391 223.961 114.674 224.586 115.242C225.216 115.81 225.552 116.547 225.594 117.453H224.227C224.185 116.906 223.977 116.458 223.602 116.109C223.232 115.755 222.773 115.578 222.227 115.578C221.492 115.578 220.922 115.844 220.516 116.375C220.115 116.901 219.914 117.664 219.914 118.664V118.938C219.914 119.911 220.115 120.661 220.516 121.188C220.917 121.714 221.49 121.977 222.234 121.977ZM226.836 118.695C226.836 117.867 226.997 117.122 227.32 116.461C227.648 115.799 228.102 115.289 228.68 114.93C229.263 114.57 229.927 114.391 230.672 114.391C231.823 114.391 232.753 114.789 233.461 115.586C234.174 116.383 234.531 117.443 234.531 118.766V118.867C234.531 119.69 234.372 120.43 234.055 121.086C233.742 121.737 233.292 122.245 232.703 122.609C232.12 122.974 231.448 123.156 230.688 123.156C229.542 123.156 228.612 122.758 227.898 121.961C227.19 121.164 226.836 120.109 226.836 118.797V118.695ZM228.289 118.867C228.289 119.805 228.505 120.557 228.938 121.125C229.375 121.693 229.958 121.977 230.688 121.977C231.422 121.977 232.005 121.69 232.438 121.117C232.87 120.539 233.086 119.732 233.086 118.695C233.086 117.768 232.865 117.018 232.422 116.445C231.984 115.867 231.401 115.578 230.672 115.578C229.958 115.578 229.383 115.862 228.945 116.43C228.508 116.997 228.289 117.81 228.289 118.867ZM237.711 114.547L237.758 115.609C238.404 114.797 239.247 114.391 240.289 114.391C242.076 114.391 242.977 115.398 242.992 117.414V123H241.547V117.406C241.542 116.797 241.401 116.346 241.125 116.055C240.854 115.763 240.43 115.617 239.852 115.617C239.383 115.617 238.971 115.742 238.617 115.992C238.263 116.242 237.987 116.57 237.789 116.977V123H236.344V114.547H237.711ZM250.094 120.758C250.094 120.367 249.945 120.065 249.648 119.852C249.357 119.633 248.844 119.445 248.109 119.289C247.38 119.133 246.799 118.945 246.367 118.727C245.94 118.508 245.622 118.247 245.414 117.945C245.211 117.643 245.109 117.284 245.109 116.867C245.109 116.174 245.401 115.589 245.984 115.109C246.573 114.63 247.323 114.391 248.234 114.391C249.193 114.391 249.969 114.638 250.562 115.133C251.161 115.628 251.461 116.26 251.461 117.031H250.008C250.008 116.635 249.839 116.294 249.5 116.008C249.167 115.721 248.745 115.578 248.234 115.578C247.708 115.578 247.297 115.693 247 115.922C246.703 116.151 246.555 116.451 246.555 116.82C246.555 117.169 246.693 117.432 246.969 117.609C247.245 117.786 247.742 117.956 248.461 118.117C249.185 118.279 249.771 118.471 250.219 118.695C250.667 118.919 250.997 119.19 251.211 119.508C251.43 119.82 251.539 120.203 251.539 120.656C251.539 121.411 251.237 122.018 250.633 122.477C250.029 122.93 249.245 123.156 248.281 123.156C247.604 123.156 247.005 123.036 246.484 122.797C245.964 122.557 245.555 122.224 245.258 121.797C244.966 121.365 244.82 120.898 244.82 120.398H246.266C246.292 120.883 246.484 121.268 246.844 121.555C247.208 121.836 247.688 121.977 248.281 121.977C248.828 121.977 249.266 121.867 249.594 121.648C249.927 121.424 250.094 121.128 250.094 120.758ZM255.383 112.5V114.547H256.961V115.664H255.383V120.906C255.383 121.245 255.453 121.5 255.594 121.672C255.734 121.839 255.974 121.922 256.312 121.922C256.479 121.922 256.708 121.891 257 121.828V123C256.62 123.104 256.25 123.156 255.891 123.156C255.245 123.156 254.758 122.961 254.43 122.57C254.102 122.18 253.938 121.625 253.938 120.906V115.664H252.398V114.547H253.938V112.5H255.383ZM262.742 115.844C262.523 115.807 262.286 115.789 262.031 115.789C261.083 115.789 260.44 116.193 260.102 117V123H258.656V114.547H260.062L260.086 115.523C260.56 114.768 261.232 114.391 262.102 114.391C262.383 114.391 262.596 114.427 262.742 114.5V115.844ZM269.297 122.164C268.734 122.826 267.909 123.156 266.82 123.156C265.919 123.156 265.232 122.896 264.758 122.375C264.289 121.849 264.052 121.073 264.047 120.047V114.547H265.492V120.008C265.492 121.289 266.013 121.93 267.055 121.93C268.159 121.93 268.893 121.518 269.258 120.695V114.547H270.703V123H269.328L269.297 122.164ZM276.297 121.977C276.812 121.977 277.263 121.82 277.648 121.508C278.034 121.195 278.247 120.805 278.289 120.336H279.656C279.63 120.82 279.464 121.281 279.156 121.719C278.849 122.156 278.438 122.505 277.922 122.766C277.411 123.026 276.87 123.156 276.297 123.156C275.146 123.156 274.229 122.773 273.547 122.008C272.87 121.237 272.531 120.185 272.531 118.852V118.609C272.531 117.786 272.682 117.055 272.984 116.414C273.286 115.773 273.719 115.276 274.281 114.922C274.849 114.568 275.518 114.391 276.289 114.391C277.237 114.391 278.023 114.674 278.648 115.242C279.279 115.81 279.615 116.547 279.656 117.453H278.289C278.247 116.906 278.039 116.458 277.664 116.109C277.294 115.755 276.836 115.578 276.289 115.578C275.555 115.578 274.984 115.844 274.578 116.375C274.177 116.901 273.977 117.664 273.977 118.664V118.938C273.977 119.911 274.177 120.661 274.578 121.188C274.979 121.714 275.552 121.977 276.297 121.977ZM283.242 112.5V114.547H284.82V115.664H283.242V120.906C283.242 121.245 283.312 121.5 283.453 121.672C283.594 121.839 283.833 121.922 284.172 121.922C284.339 121.922 284.568 121.891 284.859 121.828V123C284.479 123.104 284.109 123.156 283.75 123.156C283.104 123.156 282.617 122.961 282.289 122.57C281.961 122.18 281.797 121.625 281.797 120.906V115.664H280.258V114.547H281.797V112.5H283.242ZM288.086 123H286.641V114.547H288.086V123ZM286.523 112.305C286.523 112.07 286.594 111.872 286.734 111.711C286.88 111.549 287.094 111.469 287.375 111.469C287.656 111.469 287.87 111.549 288.016 111.711C288.161 111.872 288.234 112.07 288.234 112.305C288.234 112.539 288.161 112.734 288.016 112.891C287.87 113.047 287.656 113.125 287.375 113.125C287.094 113.125 286.88 113.047 286.734 112.891C286.594 112.734 286.523 112.539 286.523 112.305ZM290.023 118.695C290.023 117.867 290.185 117.122 290.508 116.461C290.836 115.799 291.289 115.289 291.867 114.93C292.451 114.57 293.115 114.391 293.859 114.391C295.01 114.391 295.94 114.789 296.648 115.586C297.362 116.383 297.719 117.443 297.719 118.766V118.867C297.719 119.69 297.56 120.43 297.242 121.086C296.93 121.737 296.479 122.245 295.891 122.609C295.307 122.974 294.635 123.156 293.875 123.156C292.729 123.156 291.799 122.758 291.086 121.961C290.378 121.164 290.023 120.109 290.023 118.797V118.695ZM291.477 118.867C291.477 119.805 291.693 120.557 292.125 121.125C292.562 121.693 293.146 121.977 293.875 121.977C294.609 121.977 295.193 121.69 295.625 121.117C296.057 120.539 296.273 119.732 296.273 118.695C296.273 117.768 296.052 117.018 295.609 116.445C295.172 115.867 294.589 115.578 293.859 115.578C293.146 115.578 292.57 115.862 292.133 116.43C291.695 116.997 291.477 117.81 291.477 118.867ZM300.898 114.547L300.945 115.609C301.591 114.797 302.435 114.391 303.477 114.391C305.263 114.391 306.164 115.398 306.18 117.414V123H304.734V117.406C304.729 116.797 304.589 116.346 304.312 116.055C304.042 115.763 303.617 115.617 303.039 115.617C302.57 115.617 302.159 115.742 301.805 115.992C301.451 116.242 301.174 116.57 300.977 116.977V123H299.531V114.547H300.898ZM5.17969 139.844C4.96094 139.807 4.72396 139.789 4.46875 139.789C3.52083 139.789 2.8776 140.193 2.53906 141V147H1.09375V138.547H2.5L2.52344 139.523C2.9974 138.768 3.66927 138.391 4.53906 138.391C4.82031 138.391 5.03385 138.427 5.17969 138.5V139.844ZM9.86719 147.156C8.72135 147.156 7.78906 146.781 7.07031 146.031C6.35156 145.276 5.99219 144.268 5.99219 143.008V142.742C5.99219 141.904 6.15104 141.156 6.46875 140.5C6.79167 139.839 7.23958 139.323 7.8125 138.953C8.39062 138.578 9.01562 138.391 9.6875 138.391C10.7865 138.391 11.6406 138.753 12.25 139.477C12.8594 140.201 13.1641 141.237 13.1641 142.586V143.188H7.4375C7.45833 144.021 7.70052 144.695 8.16406 145.211C8.63281 145.721 9.22656 145.977 9.94531 145.977C10.4557 145.977 10.888 145.872 11.2422 145.664C11.5964 145.456 11.9062 145.18 12.1719 144.836L13.0547 145.523C12.3464 146.612 11.2839 147.156 9.86719 147.156ZM9.6875 139.578C9.10417 139.578 8.61458 139.792 8.21875 140.219C7.82292 140.641 7.57812 141.234 7.48438 142H11.7188V141.891C11.6771 141.156 11.4792 140.589 11.125 140.188C10.7708 139.781 10.2917 139.578 9.6875 139.578ZM14.4922 142.703C14.4922 141.375 14.7969 140.326 15.4062 139.555C16.0156 138.779 16.8333 138.391 17.8594 138.391C18.8594 138.391 19.6484 138.727 20.2266 139.398L20.2891 138.547H21.6172V150.25H20.1719V146.219C19.5885 146.844 18.8125 147.156 17.8438 147.156C16.8229 147.156 16.0078 146.76 15.3984 145.969C14.7943 145.172 14.4922 144.117 14.4922 142.805V142.703ZM15.9375 142.867C15.9375 143.836 16.1406 144.596 16.5469 145.148C16.9583 145.701 17.5104 145.977 18.2031 145.977C19.0625 145.977 19.7188 145.596 20.1719 144.836V140.695C19.7135 139.951 19.0625 139.578 18.2188 139.578C17.5208 139.578 16.9661 139.857 16.5547 140.414C16.1432 140.966 15.9375 141.784 15.9375 142.867ZM29.1562 146.164C28.5938 146.826 27.7682 147.156 26.6797 147.156C25.7786 147.156 25.0911 146.896 24.6172 146.375C24.1484 145.849 23.9115 145.073 23.9062 144.047V138.547H25.3516V144.008C25.3516 145.289 25.8724 145.93 26.9141 145.93C28.0182 145.93 28.7526 145.518 29.1172 144.695V138.547H30.5625V147H29.1875L29.1562 146.164ZM34.3359 147H32.8906V138.547H34.3359V147ZM32.7734 136.305C32.7734 136.07 32.8438 135.872 32.9844 135.711C33.1302 135.549 33.3438 135.469 33.625 135.469C33.9062 135.469 34.1198 135.549 34.2656 135.711C34.4115 135.872 34.4844 136.07 34.4844 136.305C34.4844 136.539 34.4115 136.734 34.2656 136.891C34.1198 137.047 33.9062 137.125 33.625 137.125C33.3438 137.125 33.1302 137.047 32.9844 136.891C32.8438 136.734 32.7734 136.539 32.7734 136.305ZM40.7422 139.844C40.5234 139.807 40.2865 139.789 40.0312 139.789C39.0833 139.789 38.4401 140.193 38.1016 141V147H36.6562V138.547H38.0625L38.0859 139.523C38.5599 138.768 39.2318 138.391 40.1016 138.391C40.3828 138.391 40.5964 138.427 40.7422 138.5V139.844ZM45.4297 147.156C44.2839 147.156 43.3516 146.781 42.6328 146.031C41.9141 145.276 41.5547 144.268 41.5547 143.008V142.742C41.5547 141.904 41.7135 141.156 42.0312 140.5C42.3542 139.839 42.8021 139.323 43.375 138.953C43.9531 138.578 44.5781 138.391 45.25 138.391C46.349 138.391 47.2031 138.753 47.8125 139.477C48.4219 140.201 48.7266 141.237 48.7266 142.586V143.188H43C43.0208 144.021 43.263 144.695 43.7266 145.211C44.1953 145.721 44.7891 145.977 45.5078 145.977C46.0182 145.977 46.4505 145.872 46.8047 145.664C47.1589 145.456 47.4688 145.18 47.7344 144.836L48.6172 145.523C47.9089 146.612 46.8464 147.156 45.4297 147.156ZM45.25 139.578C44.6667 139.578 44.1771 139.792 43.7812 140.219C43.3854 140.641 43.1406 141.234 43.0469 142H47.2812V141.891C47.2396 141.156 47.0417 140.589 46.6875 140.188C46.3333 139.781 45.8542 139.578 45.25 139.578ZM50.0547 142.703C50.0547 141.406 50.362 140.365 50.9766 139.578C51.5911 138.786 52.3958 138.391 53.3906 138.391C54.3802 138.391 55.1641 138.729 55.7422 139.406V135H57.1875V147H55.8594L55.7891 146.094C55.2109 146.802 54.4062 147.156 53.375 147.156C52.3958 147.156 51.5964 146.755 50.9766 145.953C50.362 145.151 50.0547 144.104 50.0547 142.812V142.703ZM51.5 142.867C51.5 143.826 51.6979 144.576 52.0938 145.117C52.4896 145.659 53.0365 145.93 53.7344 145.93C54.651 145.93 55.3203 145.518 55.7422 144.695V140.812C55.3099 140.016 54.6458 139.617 53.75 139.617C53.0417 139.617 52.4896 139.891 52.0938 140.438C51.6979 140.984 51.5 141.794 51.5 142.867ZM59.4688 146.242C59.4688 145.992 59.5417 145.784 59.6875 145.617C59.8385 145.451 60.0625 145.367 60.3594 145.367C60.6562 145.367 60.8802 145.451 61.0312 145.617C61.1875 145.784 61.2656 145.992 61.2656 146.242C61.2656 146.482 61.1875 146.682 61.0312 146.844C60.8802 147.005 60.6562 147.086 60.3594 147.086C60.0625 147.086 59.8385 147.005 59.6875 146.844C59.5417 146.682 59.4688 146.482 59.4688 146.242Z" fill="#AAAAAA"/>
</svg>
