<svg width="422" height="45" viewBox="0 0 422 45" fill="none" xmlns="http://www.w3.org/2000/svg">
<path d="M13.0742 35H8.89648V7.30566L0.518555 10.3828V6.60938L12.4229 2.13965H13.0742V35ZM45.7549 21.0518C45.7549 25.9183 44.9238 29.5345 43.2617 31.9004C41.5996 34.2663 39.0016 35.4492 35.4678 35.4492C31.9788 35.4492 29.3958 34.2962 27.7188 31.9902C26.0417 29.6693 25.1732 26.2103 25.1133 21.6133V16.0654C25.1133 11.2588 25.9443 7.6875 27.6064 5.35156C29.2686 3.01562 31.874 1.84766 35.4229 1.84766C38.9417 1.84766 41.5322 2.97819 43.1943 5.23926C44.8564 7.48535 45.71 10.9593 45.7549 15.6611V21.0518ZM41.5996 15.3691C41.5996 11.8503 41.1055 9.28971 40.1172 7.6875C39.1289 6.07031 37.5641 5.26172 35.4229 5.26172C33.2965 5.26172 31.7467 6.06283 30.7734 7.66504C29.8001 9.26725 29.2985 11.7305 29.2686 15.0547V21.7031C29.2686 25.237 29.7777 27.8499 30.7959 29.542C31.8291 31.2191 33.3864 32.0576 35.4678 32.0576C37.5192 32.0576 39.0391 31.264 40.0273 29.6768C41.0306 28.0895 41.5547 25.5889 41.5996 22.1748V15.3691ZM71.585 21.0518C71.585 25.9183 70.7539 29.5345 69.0918 31.9004C67.4297 34.2663 64.8317 35.4492 61.2979 35.4492C57.8089 35.4492 55.2259 34.2962 53.5488 31.9902C51.8717 29.6693 51.0033 26.2103 50.9434 21.6133V16.0654C50.9434 11.2588 51.7744 7.6875 53.4365 5.35156C55.0986 3.01562 57.7041 1.84766 61.2529 1.84766C64.7718 1.84766 67.3623 2.97819 69.0244 5.23926C70.6865 7.48535 71.54 10.9593 71.585 15.6611V21.0518ZM67.4297 15.3691C67.4297 11.8503 66.9355 9.28971 65.9473 7.6875C64.959 6.07031 63.3942 5.26172 61.2529 5.26172C59.1266 5.26172 57.5768 6.06283 56.6035 7.66504C55.6302 9.26725 55.1286 11.7305 55.0986 15.0547V21.7031C55.0986 25.237 55.6077 27.8499 56.626 29.542C57.6592 31.2191 59.2165 32.0576 61.2979 32.0576C63.3493 32.0576 64.8691 31.264 65.8574 29.6768C66.8607 28.0895 67.3848 25.5889 67.4297 22.1748V15.3691ZM87.7344 22.6465C87.7344 18.918 88.6178 15.9232 90.3848 13.6621C92.1517 11.3861 94.4652 10.248 97.3252 10.248C100.17 10.248 102.424 11.2214 104.086 13.168V0.5H108.241V35H104.423L104.221 32.3945C102.559 34.431 100.245 35.4492 97.2803 35.4492C94.4652 35.4492 92.1667 34.2962 90.3848 31.9902C88.6178 29.6842 87.7344 26.6745 87.7344 22.9609V22.6465ZM91.8896 23.1182C91.8896 25.8734 92.4587 28.0296 93.5967 29.5869C94.7347 31.1442 96.307 31.9229 98.3135 31.9229C100.949 31.9229 102.873 30.7399 104.086 28.374V17.2109C102.843 14.9199 100.934 13.7744 98.3584 13.7744C96.3219 13.7744 94.7347 14.5605 93.5967 16.1328C92.4587 17.7051 91.8896 20.0335 91.8896 23.1182ZM129.714 35C129.474 34.5208 129.28 33.6673 129.13 32.4395C127.198 34.446 124.892 35.4492 122.212 35.4492C119.816 35.4492 117.847 34.7754 116.305 33.4277C114.777 32.0651 114.014 30.3431 114.014 28.2617C114.014 25.7311 114.972 23.7695 116.889 22.377C118.82 20.9694 121.531 20.2656 125.02 20.2656H129.062V18.3564C129.062 16.904 128.628 15.751 127.76 14.8975C126.891 14.029 125.611 13.5947 123.919 13.5947C122.437 13.5947 121.194 13.9691 120.19 14.7178C119.187 15.4665 118.686 16.3724 118.686 17.4355H114.508C114.508 16.2227 114.935 15.0547 115.788 13.9316C116.657 12.7936 117.825 11.8952 119.292 11.2363C120.774 10.5775 122.399 10.248 124.166 10.248C126.966 10.248 129.16 10.9518 130.747 12.3594C132.334 13.752 133.158 15.6761 133.218 18.1318V29.3174C133.218 31.5485 133.502 33.3229 134.071 34.6406V35H129.714ZM122.818 31.833C124.121 31.833 125.356 31.4961 126.524 30.8223C127.692 30.1484 128.538 29.2725 129.062 28.1943V23.208H125.806C120.715 23.208 118.169 24.6979 118.169 27.6777C118.169 28.9805 118.603 29.9987 119.472 30.7324C120.34 31.4661 121.456 31.833 122.818 31.833ZM147.323 28.9131L152.983 10.6973H157.431L147.66 38.751C146.148 42.7939 143.744 44.8154 140.45 44.8154L139.664 44.748L138.114 44.4561V41.0869L139.237 41.1768C140.645 41.1768 141.738 40.8923 142.517 40.3232C143.31 39.7542 143.962 38.7135 144.471 37.2012L145.392 34.7305L136.722 10.6973H141.259L147.323 28.9131ZM184.316 14.4258C183.688 14.321 183.006 14.2686 182.272 14.2686C179.547 14.2686 177.698 15.429 176.725 17.75V35H172.569V10.6973H176.612L176.68 13.5049C178.042 11.3337 179.974 10.248 182.475 10.248C183.283 10.248 183.897 10.3529 184.316 10.5625V14.4258ZM192.672 35H188.517V10.6973H192.672V35ZM188.18 4.25098C188.18 3.57715 188.382 3.00814 188.786 2.54395C189.205 2.07975 189.819 1.84766 190.628 1.84766C191.437 1.84766 192.05 2.07975 192.47 2.54395C192.889 3.00814 193.099 3.57715 193.099 4.25098C193.099 4.9248 192.889 5.48633 192.47 5.93555C192.05 6.38477 191.437 6.60938 190.628 6.60938C189.819 6.60938 189.205 6.38477 188.786 5.93555C188.382 5.48633 188.18 4.9248 188.18 4.25098ZM213.493 28.5537C213.493 27.4307 213.066 26.5622 212.213 25.9482C211.374 25.3193 209.899 24.7803 207.788 24.3311C205.692 23.8818 204.022 23.3428 202.779 22.7139C201.551 22.085 200.638 21.3363 200.039 20.4678C199.455 19.5993 199.163 18.5661 199.163 17.3682C199.163 15.3766 200.002 13.6921 201.679 12.3145C203.371 10.9368 205.527 10.248 208.147 10.248C210.903 10.248 213.134 10.9593 214.841 12.3818C216.563 13.8044 217.424 15.6237 217.424 17.8398H213.246C213.246 16.7018 212.759 15.721 211.786 14.8975C210.828 14.0739 209.615 13.6621 208.147 13.6621C206.635 13.6621 205.452 13.9915 204.599 14.6504C203.745 15.3092 203.318 16.1702 203.318 17.2334C203.318 18.2367 203.715 18.9928 204.509 19.502C205.302 20.0111 206.732 20.4977 208.799 20.9619C210.88 21.4261 212.565 21.9801 213.853 22.624C215.14 23.2679 216.091 24.0465 216.705 24.96C217.334 25.8584 217.648 26.959 217.648 28.2617C217.648 30.4329 216.78 32.1774 215.043 33.4951C213.306 34.7979 211.052 35.4492 208.282 35.4492C206.336 35.4492 204.614 35.1048 203.116 34.416C201.619 33.7272 200.443 32.7689 199.59 31.541C198.751 30.2982 198.332 28.958 198.332 27.5205H202.487C202.562 28.9131 203.116 30.0212 204.149 30.8447C205.198 31.6533 206.575 32.0576 208.282 32.0576C209.854 32.0576 211.112 31.7432 212.056 31.1143C213.014 30.4704 213.493 29.6169 213.493 28.5537ZM229.845 23.7471L227.239 26.4648V35H223.084V0.5H227.239V21.3662L229.463 18.6934L237.032 10.6973H242.086L232.63 20.8496L243.187 35H238.312L229.845 23.7471ZM255.023 22.8037H244.062V19.4121H255.023V22.8037ZM261.133 35V13.9092H257.292V10.6973H261.133V8.2041C261.133 5.59863 261.829 3.58464 263.222 2.16211C264.614 0.739583 266.583 0.0283203 269.129 0.0283203C270.087 0.0283203 271.038 0.155599 271.981 0.410156L271.757 3.7793C271.053 3.64453 270.304 3.57715 269.511 3.57715C268.163 3.57715 267.122 3.97396 266.389 4.76758C265.655 5.54622 265.288 6.66927 265.288 8.13672V10.6973H270.477V13.9092H265.288V35H261.133ZM286.828 14.4258C286.199 14.321 285.518 14.2686 284.784 14.2686C282.059 14.2686 280.21 15.429 279.236 17.75V35H275.081V10.6973H279.124L279.191 13.5049C280.554 11.3337 282.486 10.248 284.986 10.248C285.795 10.248 286.409 10.3529 286.828 10.5625V14.4258ZM300.305 35.4492C297.01 35.4492 294.33 34.3711 292.264 32.2148C290.197 30.0436 289.164 27.1462 289.164 23.5225V22.7588C289.164 20.348 289.621 18.1992 290.534 16.3125C291.463 14.4108 292.75 12.9284 294.397 11.8652C296.06 10.7871 297.856 10.248 299.788 10.248C302.948 10.248 305.403 11.2887 307.155 13.3701C308.907 15.4515 309.783 18.4313 309.783 22.3096V24.0391H293.319C293.379 26.4349 294.076 28.374 295.408 29.8564C296.756 31.3239 298.463 32.0576 300.529 32.0576C301.997 32.0576 303.24 31.7581 304.258 31.1592C305.276 30.5602 306.167 29.7666 306.931 28.7783L309.469 30.7549C307.432 33.8844 304.378 35.4492 300.305 35.4492ZM299.788 13.6621C298.111 13.6621 296.703 14.276 295.565 15.5039C294.427 16.7168 293.724 18.4238 293.454 20.625H305.628V20.3105C305.508 18.1992 304.939 16.5671 303.921 15.4141C302.903 14.2461 301.525 13.6621 299.788 13.6621ZM324.697 35.4492C321.403 35.4492 318.723 34.3711 316.656 32.2148C314.59 30.0436 313.557 27.1462 313.557 23.5225V22.7588C313.557 20.348 314.013 18.1992 314.927 16.3125C315.855 14.4108 317.143 12.9284 318.79 11.8652C320.452 10.7871 322.249 10.248 324.181 10.248C327.34 10.248 329.796 11.2887 331.548 13.3701C333.3 15.4515 334.176 18.4313 334.176 22.3096V24.0391H317.712C317.772 26.4349 318.468 28.374 319.801 29.8564C321.148 31.3239 322.855 32.0576 324.922 32.0576C326.389 32.0576 327.632 31.7581 328.65 31.1592C329.669 30.5602 330.56 29.7666 331.323 28.7783L333.861 30.7549C331.825 33.8844 328.77 35.4492 324.697 35.4492ZM324.181 13.6621C322.504 13.6621 321.096 14.276 319.958 15.5039C318.82 16.7168 318.116 18.4238 317.847 20.625H330.021V20.3105C329.901 18.1992 329.332 16.5671 328.313 15.4141C327.295 14.2461 325.918 13.6621 324.181 13.6621ZM356.053 4.8125V10.6973H360.59V13.9092H356.053V28.9805C356.053 29.9538 356.255 30.6875 356.659 31.1816C357.063 31.6608 357.752 31.9004 358.726 31.9004C359.205 31.9004 359.864 31.8105 360.702 31.6309V35C359.609 35.2995 358.546 35.4492 357.513 35.4492C355.656 35.4492 354.256 34.8877 353.312 33.7646C352.369 32.6416 351.897 31.0469 351.897 28.9805V13.9092H347.473V10.6973H351.897V4.8125H356.053ZM377.211 14.4258C376.582 14.321 375.901 14.2686 375.167 14.2686C372.442 14.2686 370.592 15.429 369.619 17.75V35H365.464V10.6973H369.507L369.574 13.5049C370.937 11.3337 372.868 10.248 375.369 10.248C376.178 10.248 376.792 10.3529 377.211 10.5625V14.4258ZM385.566 35H381.411V10.6973H385.566V35ZM381.074 4.25098C381.074 3.57715 381.276 3.00814 381.681 2.54395C382.1 2.07975 382.714 1.84766 383.522 1.84766C384.331 1.84766 384.945 2.07975 385.364 2.54395C385.784 3.00814 385.993 3.57715 385.993 4.25098C385.993 4.9248 385.784 5.48633 385.364 5.93555C384.945 6.38477 384.331 6.60938 383.522 6.60938C382.714 6.60938 382.1 6.38477 381.681 5.93555C381.276 5.48633 381.074 4.9248 381.074 4.25098ZM407.241 35C407.002 34.5208 406.807 33.6673 406.657 32.4395C404.726 34.446 402.42 35.4492 399.739 35.4492C397.343 35.4492 395.374 34.7754 393.832 33.4277C392.305 32.0651 391.541 30.3431 391.541 28.2617C391.541 25.7311 392.499 23.7695 394.416 22.377C396.348 20.9694 399.058 20.2656 402.547 20.2656H406.59V18.3564C406.59 16.904 406.156 15.751 405.287 14.8975C404.419 14.029 403.138 13.5947 401.446 13.5947C399.964 13.5947 398.721 13.9691 397.718 14.7178C396.715 15.4665 396.213 16.3724 396.213 17.4355H392.035C392.035 16.2227 392.462 15.0547 393.315 13.9316C394.184 12.7936 395.352 11.8952 396.819 11.2363C398.302 10.5775 399.926 10.248 401.693 10.248C404.493 10.248 406.687 10.9518 408.274 12.3594C409.862 13.752 410.685 15.6761 410.745 18.1318V29.3174C410.745 31.5485 411.03 33.3229 411.599 34.6406V35H407.241ZM400.346 31.833C401.648 31.833 402.884 31.4961 404.052 30.8223C405.22 30.1484 406.066 29.2725 406.59 28.1943V23.208H403.333C398.242 23.208 395.696 24.6979 395.696 27.6777C395.696 28.9805 396.131 29.9987 396.999 30.7324C397.868 31.4661 398.983 31.833 400.346 31.833ZM421.773 35H417.618V0.5H421.773V35Z" fill="black"/>
</svg>
