<svg width="93" height="10" viewBox="0 0 93 10" fill="none" xmlns="http://www.w3.org/2000/svg">
<path d="M5.32617 5.23242H1.74609V9H0.621094V0.46875H5.90625V1.39453H1.74609V4.3125H5.32617V5.23242ZM11.1328 5.54883H9.12891V9H7.99805V0.46875H10.8223C11.7832 0.46875 12.5215 0.6875 13.0371 1.125C13.5566 1.5625 13.8164 2.19922 13.8164 3.03516C13.8164 3.56641 13.6719 4.0293 13.3828 4.42383C13.0977 4.81836 12.6992 5.11328 12.1875 5.30859L14.1914 8.92969V9H12.9844L11.1328 5.54883ZM9.12891 4.62891H10.8574C11.416 4.62891 11.8594 4.48438 12.1875 4.19531C12.5195 3.90625 12.6855 3.51953 12.6855 3.03516C12.6855 2.50781 12.5273 2.10352 12.2109 1.82227C11.8984 1.54102 11.4453 1.39844 10.8516 1.39453H9.12891V4.62891ZM20.9707 5.05664H17.2734V8.08008H21.5684V9H16.1484V0.46875H21.5098V1.39453H17.2734V4.13672H20.9707V5.05664ZM28.541 5.05664H24.8438V8.08008H29.1387V9H23.7188V0.46875H29.0801V1.39453H24.8438V4.13672H28.541V5.05664ZM37.5293 5.19727C36.5645 4.91992 35.8613 4.58008 35.4199 4.17773C34.9824 3.77148 34.7637 3.27148 34.7637 2.67773C34.7637 2.00586 35.0312 1.45117 35.5664 1.01367C36.1055 0.572266 36.8047 0.351562 37.6641 0.351562C38.25 0.351562 38.7715 0.464844 39.2285 0.691406C39.6895 0.917969 40.0449 1.23047 40.2949 1.62891C40.5488 2.02734 40.6758 2.46289 40.6758 2.93555H39.5449C39.5449 2.41992 39.3809 2.01562 39.0527 1.72266C38.7246 1.42578 38.2617 1.27734 37.6641 1.27734C37.1094 1.27734 36.6758 1.40039 36.3633 1.64648C36.0547 1.88867 35.9004 2.22656 35.9004 2.66016C35.9004 3.00781 36.0469 3.30273 36.3398 3.54492C36.6367 3.7832 37.1387 4.00195 37.8457 4.20117C38.5566 4.40039 39.1113 4.62109 39.5098 4.86328C39.9121 5.10156 40.209 5.38086 40.4004 5.70117C40.5957 6.02148 40.6934 6.39844 40.6934 6.83203C40.6934 7.52344 40.4238 8.07812 39.8848 8.49609C39.3457 8.91016 38.625 9.11719 37.7227 9.11719C37.1367 9.11719 36.5898 9.00586 36.082 8.7832C35.5742 8.55664 35.1816 8.24805 34.9043 7.85742C34.6309 7.4668 34.4941 7.02344 34.4941 6.52734H35.625C35.625 7.04297 35.8145 7.45117 36.1934 7.75195C36.5762 8.04883 37.0859 8.19727 37.7227 8.19727C38.3164 8.19727 38.7715 8.07617 39.0879 7.83398C39.4043 7.5918 39.5625 7.26172 39.5625 6.84375C39.5625 6.42578 39.416 6.10352 39.123 5.87695C38.8301 5.64648 38.2988 5.41992 37.5293 5.19727ZM49.4473 9H48.3164V5.05664H44.0156V9H42.8906V0.46875H44.0156V4.13672H48.3164V0.46875H49.4473V9ZM53.4023 9H52.2773V0.46875H53.4023V9ZM57.3398 5.66016V9H56.2148V0.46875H59.3613C60.2949 0.46875 61.0254 0.707031 61.5527 1.18359C62.084 1.66016 62.3496 2.29102 62.3496 3.07617C62.3496 3.9043 62.0898 4.54297 61.5703 4.99219C61.0547 5.4375 60.3145 5.66016 59.3496 5.66016H57.3398ZM57.3398 4.74023H59.3613C59.9629 4.74023 60.4238 4.59961 60.7441 4.31836C61.0645 4.0332 61.2246 3.62305 61.2246 3.08789C61.2246 2.58008 61.0645 2.17383 60.7441 1.86914C60.4238 1.56445 59.9844 1.40625 59.4258 1.39453H57.3398V4.74023ZM65.6602 5.66016V9H64.5352V0.46875H67.6816C68.6152 0.46875 69.3457 0.707031 69.873 1.18359C70.4043 1.66016 70.6699 2.29102 70.6699 3.07617C70.6699 3.9043 70.4102 4.54297 69.8906 4.99219C69.375 5.4375 68.6348 5.66016 67.6699 5.66016H65.6602ZM65.6602 4.74023H67.6816C68.2832 4.74023 68.7441 4.59961 69.0645 4.31836C69.3848 4.0332 69.5449 3.62305 69.5449 3.08789C69.5449 2.58008 69.3848 2.17383 69.0645 1.86914C68.7441 1.56445 68.3047 1.40625 67.7461 1.39453H65.6602V4.74023ZM74.0625 9H72.9375V0.46875H74.0625V9ZM83.4316 9H82.3008L78.0059 2.42578V9H76.875V0.46875H78.0059L82.3125 7.07227V0.46875H83.4316V9ZM92.4785 7.88086C92.1895 8.29492 91.7852 8.60547 91.2656 8.8125C90.75 9.01562 90.1484 9.11719 89.4609 9.11719C88.7656 9.11719 88.1484 8.95508 87.6094 8.63086C87.0703 8.30273 86.6523 7.83789 86.3555 7.23633C86.0625 6.63477 85.9121 5.9375 85.9043 5.14453V4.40039C85.9043 3.11523 86.2031 2.11914 86.8008 1.41211C87.4023 0.705078 88.2461 0.351562 89.332 0.351562C90.2227 0.351562 90.9395 0.580078 91.4824 1.03711C92.0254 1.49023 92.3574 2.13477 92.4785 2.9707H91.3535C91.1426 1.8418 90.4707 1.27734 89.3379 1.27734C88.584 1.27734 88.0117 1.54297 87.6211 2.07422C87.2344 2.60156 87.0391 3.36719 87.0352 4.37109V5.06836C87.0352 6.02539 87.2539 6.78711 87.6914 7.35352C88.1289 7.91602 88.7207 8.19727 89.4668 8.19727C89.8887 8.19727 90.2578 8.15039 90.5742 8.05664C90.8906 7.96289 91.1523 7.80469 91.3594 7.58203V5.66602H89.3848V4.75195H92.4785V7.88086Z" fill="#1A1A1A"/>
</svg>
