<svg width="79" height="10" viewBox="0 0 79 10" fill="none" xmlns="http://www.w3.org/2000/svg">
<path d="M2.00586 5.66016V9H0.880859V0.46875H4.02734C4.96094 0.46875 5.69141 0.707031 6.21875 1.18359C6.75 1.66016 7.01562 2.29102 7.01562 3.07617C7.01562 3.9043 6.75586 4.54297 6.23633 4.99219C5.7207 5.4375 4.98047 5.66016 4.01562 5.66016H2.00586ZM2.00586 4.74023H4.02734C4.62891 4.74023 5.08984 4.59961 5.41016 4.31836C5.73047 4.0332 5.89062 3.62305 5.89062 3.08789C5.89062 2.58008 5.73047 2.17383 5.41016 1.86914C5.08984 1.56445 4.65039 1.40625 4.0918 1.39453H2.00586V4.74023ZM10.332 8.08008H14.375V9H9.20117V0.46875H10.332V8.08008ZM22.0977 0.46875V6.26953C22.0938 7.07422 21.8398 7.73242 21.3359 8.24414C20.8359 8.75586 20.1562 9.04297 19.2969 9.10547L18.998 9.11719C18.0645 9.11719 17.3203 8.86523 16.7656 8.36133C16.2109 7.85742 15.9297 7.16406 15.9219 6.28125V0.46875H17.0352V6.24609C17.0352 6.86328 17.2051 7.34375 17.5449 7.6875C17.8848 8.02734 18.3691 8.19727 18.998 8.19727C19.6348 8.19727 20.1211 8.02734 20.457 7.6875C20.7969 7.34766 20.9668 6.86914 20.9668 6.25195V0.46875H22.0977ZM30.9219 7.88086C30.6328 8.29492 30.2285 8.60547 29.709 8.8125C29.1934 9.01562 28.5918 9.11719 27.9043 9.11719C27.209 9.11719 26.5918 8.95508 26.0527 8.63086C25.5137 8.30273 25.0957 7.83789 24.7988 7.23633C24.5059 6.63477 24.3555 5.9375 24.3477 5.14453V4.40039C24.3477 3.11523 24.6465 2.11914 25.2441 1.41211C25.8457 0.705078 26.6895 0.351562 27.7754 0.351562C28.666 0.351562 29.3828 0.580078 29.9258 1.03711C30.4688 1.49023 30.8008 2.13477 30.9219 2.9707H29.7969C29.5859 1.8418 28.9141 1.27734 27.7812 1.27734C27.0273 1.27734 26.4551 1.54297 26.0645 2.07422C25.6777 2.60156 25.4824 3.36719 25.4785 4.37109V5.06836C25.4785 6.02539 25.6973 6.78711 26.1348 7.35352C26.5723 7.91602 27.1641 8.19727 27.9102 8.19727C28.332 8.19727 28.7012 8.15039 29.0176 8.05664C29.334 7.96289 29.5957 7.80469 29.8027 7.58203V5.66602H27.8281V4.75195H30.9219V7.88086ZM36.8809 6.70898C36.8809 6.29883 36.9941 5.92188 37.2207 5.57812C37.4512 5.23438 37.8887 4.83398 38.5332 4.37695C38.1543 3.91602 37.9004 3.54492 37.7715 3.26367C37.6426 2.98242 37.5781 2.70312 37.5781 2.42578C37.5781 1.77734 37.7695 1.26953 38.1523 0.902344C38.5352 0.535156 39.0547 0.351562 39.7109 0.351562C40.2969 0.351562 40.7812 0.523437 41.1641 0.867188C41.5469 1.20703 41.7383 1.63672 41.7383 2.15625C41.7383 2.5 41.6504 2.81836 41.4746 3.11133C41.3027 3.40039 41 3.70508 40.5664 4.02539L39.9395 4.48828L41.8379 6.75586C42.1035 6.24805 42.2363 5.68359 42.2363 5.0625H43.2148C43.2148 6.05859 42.9746 6.88477 42.4941 7.54102L43.7129 9H42.4121L41.8438 8.32617C41.5547 8.58398 41.2148 8.78125 40.8242 8.91797C40.4375 9.05078 40.043 9.11719 39.6406 9.11719C38.8086 9.11719 38.1406 8.89648 37.6367 8.45508C37.1328 8.01367 36.8809 7.43164 36.8809 6.70898ZM39.6406 8.23242C40.2148 8.23242 40.7402 8.01367 41.2168 7.57617L39.1367 5.08594L38.9434 5.22656C38.291 5.70703 37.9648 6.20117 37.9648 6.70898C37.9648 7.16992 38.1133 7.53906 38.4102 7.81641C38.7109 8.09375 39.1211 8.23242 39.6406 8.23242ZM38.6621 2.39062C38.6621 2.76562 38.8926 3.23438 39.3535 3.79688L40.0449 3.31055C40.3105 3.12305 40.4922 2.94531 40.5898 2.77734C40.6875 2.60547 40.7363 2.39844 40.7363 2.15625C40.7363 1.89453 40.6387 1.67773 40.4434 1.50586C40.248 1.33008 40.002 1.24219 39.7051 1.24219C39.3848 1.24219 39.1309 1.35156 38.9434 1.57031C38.7559 1.78516 38.6621 2.05859 38.6621 2.39062ZM50.3457 5.66016V9H49.2207V0.46875H52.3672C53.3008 0.46875 54.0312 0.707031 54.5586 1.18359C55.0898 1.66016 55.3555 2.29102 55.3555 3.07617C55.3555 3.9043 55.0957 4.54297 54.5762 4.99219C54.0605 5.4375 53.3203 5.66016 52.3555 5.66016H50.3457ZM50.3457 4.74023H52.3672C52.9688 4.74023 53.4297 4.59961 53.75 4.31836C54.0703 4.0332 54.2305 3.62305 54.2305 3.08789C54.2305 2.58008 54.0703 2.17383 53.75 1.86914C53.4297 1.56445 52.9902 1.40625 52.4316 1.39453H50.3457V4.74023ZM58.6719 8.08008H62.7148V9H57.541V0.46875H58.6719V8.08008ZM69.5762 6.77344H66.002L65.1992 9H64.0391L67.2969 0.46875H68.2812L71.5449 9H70.3906L69.5762 6.77344ZM66.3418 5.84766H69.2422L67.7891 1.85742L66.3418 5.84766ZM75.4941 4.75195L77.7207 0.46875H78.998L76.0566 5.81836V9H74.9316V5.81836L71.9902 0.46875H73.2793L75.4941 4.75195Z" fill="#1A1A1A"/>
</svg>
