<svg width="91" height="10" viewBox="0 0 91 10" fill="none" xmlns="http://www.w3.org/2000/svg">
<path d="M5.57422 5.23242H1.99414V9H0.869141V0.46875H6.1543V1.39453H1.99414V4.3125H5.57422V5.23242ZM11.3809 5.54883H9.37695V9H8.24609V0.46875H11.0703C12.0312 0.46875 12.7695 0.6875 13.2852 1.125C13.8047 1.5625 14.0645 2.19922 14.0645 3.03516C14.0645 3.56641 13.9199 4.0293 13.6309 4.42383C13.3457 4.81836 12.9473 5.11328 12.4355 5.30859L14.4395 8.92969V9H13.2324L11.3809 5.54883ZM9.37695 4.62891H11.1055C11.6641 4.62891 12.1074 4.48438 12.4355 4.19531C12.7676 3.90625 12.9336 3.51953 12.9336 3.03516C12.9336 2.50781 12.7754 2.10352 12.459 1.82227C12.1465 1.54102 11.6934 1.39844 11.0996 1.39453H9.37695V4.62891ZM21.2188 5.05664H17.5215V8.08008H21.8164V9H16.3965V0.46875H21.7578V1.39453H17.5215V4.13672H21.2188V5.05664ZM28.7891 5.05664H25.0918V8.08008H29.3867V9H23.9668V0.46875H29.3281V1.39453H25.0918V4.13672H28.7891V5.05664ZM38.3926 5.54883H36.3887V9H35.2578V0.46875H38.082C39.043 0.46875 39.7812 0.6875 40.2969 1.125C40.8164 1.5625 41.0762 2.19922 41.0762 3.03516C41.0762 3.56641 40.9316 4.0293 40.6426 4.42383C40.3574 4.81836 39.959 5.11328 39.4473 5.30859L41.4512 8.92969V9H40.2441L38.3926 5.54883ZM36.3887 4.62891H38.1172C38.6758 4.62891 39.1191 4.48438 39.4473 4.19531C39.7793 3.90625 39.9453 3.51953 39.9453 3.03516C39.9453 2.50781 39.7871 2.10352 39.4707 1.82227C39.1582 1.54102 38.7051 1.39844 38.1113 1.39453H36.3887V4.62891ZM48.2305 5.05664H44.5332V8.08008H48.8281V9H43.4082V0.46875H48.7695V1.39453H44.5332V4.13672H48.2305V5.05664ZM56.9902 1.39453H54.248V9H53.1289V1.39453H50.3926V0.46875H56.9902V1.39453ZM65.0117 0.46875V6.26953C65.0078 7.07422 64.7539 7.73242 64.25 8.24414C63.75 8.75586 63.0703 9.04297 62.2109 9.10547L61.9121 9.11719C60.9785 9.11719 60.2344 8.86523 59.6797 8.36133C59.125 7.85742 58.8438 7.16406 58.8359 6.28125V0.46875H59.9492V6.24609C59.9492 6.86328 60.1191 7.34375 60.459 7.6875C60.7988 8.02734 61.2832 8.19727 61.9121 8.19727C62.5488 8.19727 63.0352 8.02734 63.3711 7.6875C63.7109 7.34766 63.8809 6.86914 63.8809 6.25195V0.46875H65.0117ZM70.666 5.54883H68.6621V9H67.5312V0.46875H70.3555C71.3164 0.46875 72.0547 0.6875 72.5703 1.125C73.0898 1.5625 73.3496 2.19922 73.3496 3.03516C73.3496 3.56641 73.2051 4.0293 72.916 4.42383C72.6309 4.81836 72.2324 5.11328 71.7207 5.30859L73.7246 8.92969V9H72.5176L70.666 5.54883ZM68.6621 4.62891H70.3906C70.9492 4.62891 71.3926 4.48438 71.7207 4.19531C72.0527 3.90625 72.2188 3.51953 72.2188 3.03516C72.2188 2.50781 72.0605 2.10352 71.7441 1.82227C71.4316 1.54102 70.9785 1.39844 70.3848 1.39453H68.6621V4.62891ZM82.2383 9H81.1074L76.8125 2.42578V9H75.6816V0.46875H76.8125L81.1191 7.07227V0.46875H82.2383V9ZM87.5 5.19727C86.5352 4.91992 85.832 4.58008 85.3906 4.17773C84.9531 3.77148 84.7344 3.27148 84.7344 2.67773C84.7344 2.00586 85.002 1.45117 85.5371 1.01367C86.0762 0.572266 86.7754 0.351562 87.6348 0.351562C88.2207 0.351562 88.7422 0.464844 89.1992 0.691406C89.6602 0.917969 90.0156 1.23047 90.2656 1.62891C90.5195 2.02734 90.6465 2.46289 90.6465 2.93555H89.5156C89.5156 2.41992 89.3516 2.01562 89.0234 1.72266C88.6953 1.42578 88.2324 1.27734 87.6348 1.27734C87.0801 1.27734 86.6465 1.40039 86.334 1.64648C86.0254 1.88867 85.8711 2.22656 85.8711 2.66016C85.8711 3.00781 86.0176 3.30273 86.3105 3.54492C86.6074 3.7832 87.1094 4.00195 87.8164 4.20117C88.5273 4.40039 89.082 4.62109 89.4805 4.86328C89.8828 5.10156 90.1797 5.38086 90.3711 5.70117C90.5664 6.02148 90.6641 6.39844 90.6641 6.83203C90.6641 7.52344 90.3945 8.07812 89.8555 8.49609C89.3164 8.91016 88.5957 9.11719 87.6934 9.11719C87.1074 9.11719 86.5605 9.00586 86.0527 8.7832C85.5449 8.55664 85.1523 8.24805 84.875 7.85742C84.6016 7.4668 84.4648 7.02344 84.4648 6.52734H85.5957C85.5957 7.04297 85.7852 7.45117 86.1641 7.75195C86.5469 8.04883 87.0566 8.19727 87.6934 8.19727C88.2871 8.19727 88.7422 8.07617 89.0586 7.83398C89.375 7.5918 89.5332 7.26172 89.5332 6.84375C89.5332 6.42578 89.3867 6.10352 89.0938 5.87695C88.8008 5.64648 88.2695 5.41992 87.5 5.19727Z" fill="#1A1A1A"/>
</svg>
