<svg width="136" height="12" viewBox="0 0 136 12" fill="none" xmlns="http://www.w3.org/2000/svg">
<path d="M111.734 9C111.672 8.875 111.621 8.65234 111.582 8.33203C111.078 8.85547 110.477 9.11719 109.777 9.11719C109.152 9.11719 108.639 8.94141 108.236 8.58984C107.838 8.23438 107.639 7.78516 107.639 7.24219C107.639 6.58203 107.889 6.07031 108.389 5.70703C108.893 5.33984 109.6 5.15625 110.51 5.15625H111.564V4.6582C111.564 4.2793 111.451 3.97852 111.225 3.75586C110.998 3.5293 110.664 3.41602 110.223 3.41602C109.836 3.41602 109.512 3.51367 109.25 3.70898C108.988 3.9043 108.857 4.14062 108.857 4.41797H107.768C107.768 4.10156 107.879 3.79688 108.102 3.50391C108.328 3.20703 108.633 2.97266 109.016 2.80078C109.402 2.62891 109.826 2.54297 110.287 2.54297C111.018 2.54297 111.59 2.72656 112.004 3.09375C112.418 3.45703 112.633 3.95898 112.648 4.59961V7.51758C112.648 8.09961 112.723 8.5625 112.871 8.90625V9H111.734ZM109.936 8.17383C110.275 8.17383 110.598 8.08594 110.902 7.91016C111.207 7.73438 111.428 7.50586 111.564 7.22461V5.92383H110.715C109.387 5.92383 108.723 6.3125 108.723 7.08984C108.723 7.42969 108.836 7.69531 109.062 7.88672C109.289 8.07812 109.58 8.17383 109.936 8.17383ZM119.703 5.90039C119.703 6.86523 119.482 7.64258 119.041 8.23242C118.6 8.82227 118.002 9.11719 117.248 9.11719C116.479 9.11719 115.873 8.87305 115.432 8.38477V11.4375H114.348V2.66016H115.338L115.391 3.36328C115.832 2.81641 116.445 2.54297 117.23 2.54297C117.992 2.54297 118.594 2.83008 119.035 3.4043C119.48 3.97852 119.703 4.77734 119.703 5.80078V5.90039ZM118.619 5.77734C118.619 5.0625 118.467 4.49805 118.162 4.08398C117.857 3.66992 117.439 3.46289 116.908 3.46289C116.252 3.46289 115.76 3.75391 115.432 4.33594V7.36523C115.756 7.94336 116.252 8.23242 116.92 8.23242C117.439 8.23242 117.852 8.02734 118.156 7.61719C118.465 7.20312 118.619 6.58984 118.619 5.77734ZM126.441 5.90039C126.441 6.86523 126.221 7.64258 125.779 8.23242C125.338 8.82227 124.74 9.11719 123.986 9.11719C123.217 9.11719 122.611 8.87305 122.17 8.38477V11.4375H121.086V2.66016H122.076L122.129 3.36328C122.57 2.81641 123.184 2.54297 123.969 2.54297C124.73 2.54297 125.332 2.83008 125.773 3.4043C126.219 3.97852 126.441 4.77734 126.441 5.80078V5.90039ZM125.357 5.77734C125.357 5.0625 125.205 4.49805 124.9 4.08398C124.596 3.66992 124.178 3.46289 123.646 3.46289C122.99 3.46289 122.498 3.75391 122.17 4.33594V7.36523C122.494 7.94336 122.99 8.23242 123.658 8.23242C124.178 8.23242 124.59 8.02734 124.895 7.61719C125.203 7.20312 125.357 6.58984 125.357 5.77734ZM129.002 9H127.918V0H129.002V9ZM132.816 7.41211L134.293 2.66016H135.453L132.904 9.97852C132.51 11.0332 131.883 11.5605 131.023 11.5605L130.818 11.543L130.414 11.4668V10.5879L130.707 10.6113C131.074 10.6113 131.359 10.5371 131.562 10.3887C131.77 10.2402 131.939 9.96875 132.072 9.57422L132.312 8.92969L130.051 2.66016H131.234L132.816 7.41211Z" fill="#AAAAAA"/>
<path d="M6.88477 1.39453H4.14258V9H3.02344V1.39453H0.287109V0.46875H6.88477V1.39453ZM10.0254 9.11719C9.16602 9.11719 8.4668 8.83594 7.92773 8.27344C7.38867 7.70703 7.11914 6.95117 7.11914 6.00586V5.80664C7.11914 5.17773 7.23828 4.61719 7.47656 4.125C7.71875 3.62891 8.05469 3.24219 8.48438 2.96484C8.91797 2.68359 9.38672 2.54297 9.89062 2.54297C10.7148 2.54297 11.3555 2.81445 11.8125 3.35742C12.2695 3.90039 12.498 4.67773 12.498 5.68945V6.14062H8.20312C8.21875 6.76562 8.40039 7.27148 8.74805 7.6582C9.09961 8.04102 9.54492 8.23242 10.084 8.23242C10.4668 8.23242 10.791 8.1543 11.0566 7.99805C11.3223 7.8418 11.5547 7.63477 11.7539 7.37695L12.416 7.89258C11.8848 8.70898 11.0879 9.11719 10.0254 9.11719ZM9.89062 3.43359C9.45312 3.43359 9.08594 3.59375 8.78906 3.91406C8.49219 4.23047 8.30859 4.67578 8.23828 5.25H11.4141V5.16797C11.3828 4.61719 11.2344 4.19141 10.9688 3.89062C10.7031 3.58594 10.3438 3.43359 9.89062 3.43359ZM16.8223 3.63281C16.6582 3.60547 16.4805 3.5918 16.2891 3.5918C15.5781 3.5918 15.0957 3.89453 14.8418 4.5V9H13.7578V2.66016H14.8125L14.8301 3.39258C15.1855 2.82617 15.6895 2.54297 16.3418 2.54297C16.5527 2.54297 16.7129 2.57031 16.8223 2.625V3.63281ZM18.8438 2.66016L18.873 3.36328C19.3379 2.81641 19.9648 2.54297 20.7539 2.54297C21.6406 2.54297 22.2441 2.88281 22.5645 3.5625C22.7754 3.25781 23.0488 3.01172 23.3848 2.82422C23.7246 2.63672 24.125 2.54297 24.5859 2.54297C25.9766 2.54297 26.6836 3.2793 26.707 4.75195V9H25.623V4.81641C25.623 4.36328 25.5195 4.02539 25.3125 3.80273C25.1055 3.57617 24.7578 3.46289 24.2695 3.46289C23.8672 3.46289 23.5332 3.58398 23.2676 3.82617C23.002 4.06445 22.8477 4.38672 22.8047 4.79297V9H21.7148V4.8457C21.7148 3.92383 21.2637 3.46289 20.3613 3.46289C19.6504 3.46289 19.1641 3.76562 18.9023 4.37109V9H17.8184V2.66016H18.8438ZM32.0391 7.31836C32.0391 7.02539 31.9277 6.79883 31.7051 6.63867C31.4863 6.47461 31.1016 6.33398 30.5508 6.2168C30.0039 6.09961 29.5684 5.95898 29.2441 5.79492C28.9238 5.63086 28.6855 5.43555 28.5293 5.20898C28.377 4.98242 28.3008 4.71289 28.3008 4.40039C28.3008 3.88086 28.5195 3.44141 28.957 3.08203C29.3984 2.72266 29.9609 2.54297 30.6445 2.54297C31.3633 2.54297 31.9453 2.72852 32.3906 3.09961C32.8398 3.4707 33.0645 3.94531 33.0645 4.52344H31.9746C31.9746 4.22656 31.8477 3.9707 31.5938 3.75586C31.3438 3.54102 31.0273 3.43359 30.6445 3.43359C30.25 3.43359 29.9414 3.51953 29.7188 3.69141C29.4961 3.86328 29.3848 4.08789 29.3848 4.36523C29.3848 4.62695 29.4883 4.82422 29.6953 4.95703C29.9023 5.08984 30.2754 5.2168 30.8145 5.33789C31.3574 5.45898 31.7969 5.60352 32.1328 5.77148C32.4688 5.93945 32.7168 6.14258 32.877 6.38086C33.041 6.61523 33.123 6.90234 33.123 7.24219C33.123 7.80859 32.8965 8.26367 32.4434 8.60742C31.9902 8.94727 31.4023 9.11719 30.6797 9.11719C30.1719 9.11719 29.7227 9.02734 29.332 8.84766C28.9414 8.66797 28.6348 8.41797 28.4121 8.09766C28.1934 7.77344 28.084 7.42383 28.084 7.04883H29.168C29.1875 7.41211 29.332 7.70117 29.6016 7.91602C29.875 8.12695 30.2344 8.23242 30.6797 8.23242C31.0898 8.23242 31.418 8.15039 31.6641 7.98633C31.9141 7.81836 32.0391 7.5957 32.0391 7.31836ZM37.2832 6.70898C37.2832 6.29883 37.3965 5.92188 37.623 5.57812C37.8535 5.23438 38.291 4.83398 38.9355 4.37695C38.5566 3.91602 38.3027 3.54492 38.1738 3.26367C38.0449 2.98242 37.9805 2.70312 37.9805 2.42578C37.9805 1.77734 38.1719 1.26953 38.5547 0.902344C38.9375 0.535156 39.457 0.351562 40.1133 0.351562C40.6992 0.351562 41.1836 0.523437 41.5664 0.867188C41.9492 1.20703 42.1406 1.63672 42.1406 2.15625C42.1406 2.5 42.0527 2.81836 41.877 3.11133C41.7051 3.40039 41.4023 3.70508 40.9688 4.02539L40.3418 4.48828L42.2402 6.75586C42.5059 6.24805 42.6387 5.68359 42.6387 5.0625H43.6172C43.6172 6.05859 43.377 6.88477 42.8965 7.54102L44.1152 9H42.8145L42.2461 8.32617C41.957 8.58398 41.6172 8.78125 41.2266 8.91797C40.8398 9.05078 40.4453 9.11719 40.043 9.11719C39.2109 9.11719 38.543 8.89648 38.0391 8.45508C37.5352 8.01367 37.2832 7.43164 37.2832 6.70898ZM40.043 8.23242C40.6172 8.23242 41.1426 8.01367 41.6191 7.57617L39.5391 5.08594L39.3457 5.22656C38.6934 5.70703 38.3672 6.20117 38.3672 6.70898C38.3672 7.16992 38.5156 7.53906 38.8125 7.81641C39.1133 8.09375 39.5234 8.23242 40.043 8.23242ZM39.0645 2.39062C39.0645 2.76562 39.2949 3.23438 39.7559 3.79688L40.4473 3.31055C40.7129 3.12305 40.8945 2.94531 40.9922 2.77734C41.0898 2.60547 41.1387 2.39844 41.1387 2.15625C41.1387 1.89453 41.041 1.67773 40.8457 1.50586C40.6504 1.33008 40.4043 1.24219 40.1074 1.24219C39.7871 1.24219 39.5332 1.35156 39.3457 1.57031C39.1582 1.78516 39.0645 2.05859 39.0645 2.39062ZM54.3984 6.29297C54.293 7.19531 53.959 7.89258 53.3965 8.38477C52.8379 8.87305 52.0938 9.11719 51.1641 9.11719C50.1562 9.11719 49.3477 8.75586 48.7383 8.0332C48.1328 7.31055 47.8301 6.34375 47.8301 5.13281V4.3125C47.8301 3.51953 47.9707 2.82227 48.252 2.2207C48.5371 1.61914 48.9395 1.1582 49.459 0.837891C49.9785 0.513672 50.5801 0.351562 51.2637 0.351562C52.1699 0.351562 52.8965 0.605469 53.4434 1.11328C53.9902 1.61719 54.3086 2.31641 54.3984 3.21094H53.2676C53.1699 2.53125 52.957 2.03906 52.6289 1.73438C52.3047 1.42969 51.8496 1.27734 51.2637 1.27734C50.5449 1.27734 49.9805 1.54297 49.5703 2.07422C49.1641 2.60547 48.9609 3.36133 48.9609 4.3418V5.16797C48.9609 6.09375 49.1543 6.83008 49.541 7.37695C49.9277 7.92383 50.4688 8.19727 51.1641 8.19727C51.7891 8.19727 52.2676 8.05664 52.5996 7.77539C52.9355 7.49023 53.1582 6.99609 53.2676 6.29297H54.3984ZM55.4824 5.77148C55.4824 5.15039 55.6035 4.5918 55.8457 4.0957C56.0918 3.59961 56.4316 3.2168 56.8652 2.94727C57.3027 2.67773 57.8008 2.54297 58.3594 2.54297C59.2227 2.54297 59.9199 2.8418 60.4512 3.43945C60.9863 4.03711 61.2539 4.83203 61.2539 5.82422V5.90039C61.2539 6.51758 61.1348 7.07227 60.8965 7.56445C60.6621 8.05273 60.3242 8.43359 59.8828 8.70703C59.4453 8.98047 58.9414 9.11719 58.3711 9.11719C57.5117 9.11719 56.8145 8.81836 56.2793 8.2207C55.748 7.62305 55.4824 6.83203 55.4824 5.84766V5.77148ZM56.5723 5.90039C56.5723 6.60352 56.7344 7.16797 57.0586 7.59375C57.3867 8.01953 57.8242 8.23242 58.3711 8.23242C58.9219 8.23242 59.3594 8.01758 59.6836 7.58789C60.0078 7.1543 60.1699 6.54883 60.1699 5.77148C60.1699 5.07617 60.0039 4.51367 59.6719 4.08398C59.3438 3.65039 58.9062 3.43359 58.3594 3.43359C57.8242 3.43359 57.3926 3.64648 57.0645 4.07227C56.7363 4.49805 56.5723 5.10742 56.5723 5.90039ZM63.6387 2.66016L63.6738 3.45703C64.1582 2.84766 64.791 2.54297 65.5723 2.54297C66.9121 2.54297 67.5879 3.29883 67.5996 4.81055V9H66.5156V4.80469C66.5117 4.34766 66.4062 4.00977 66.1992 3.79102C65.9961 3.57227 65.6777 3.46289 65.2441 3.46289C64.8926 3.46289 64.584 3.55664 64.3184 3.74414C64.0527 3.93164 63.8457 4.17773 63.6973 4.48242V9H62.6133V2.66016H63.6387ZM68.9707 5.77734C68.9707 4.80469 69.2012 4.02344 69.6621 3.43359C70.123 2.83984 70.7266 2.54297 71.4727 2.54297C72.2148 2.54297 72.8027 2.79688 73.2363 3.30469V0H74.3203V9H73.3242L73.2715 8.32031C72.8379 8.85156 72.2344 9.11719 71.4609 9.11719C70.7266 9.11719 70.127 8.81641 69.6621 8.21484C69.2012 7.61328 68.9707 6.82812 68.9707 5.85938V5.77734ZM70.0547 5.90039C70.0547 6.61914 70.2031 7.18164 70.5 7.58789C70.7969 7.99414 71.207 8.19727 71.7305 8.19727C72.418 8.19727 72.9199 7.88867 73.2363 7.27148V4.35938C72.9121 3.76172 72.4141 3.46289 71.7422 3.46289C71.2109 3.46289 70.7969 3.66797 70.5 4.07812C70.2031 4.48828 70.0547 5.0957 70.0547 5.90039ZM77.1855 9H76.1016V2.66016H77.1855V9ZM76.0137 0.978516C76.0137 0.802734 76.0664 0.654297 76.1719 0.533203C76.2812 0.412109 76.4414 0.351562 76.6523 0.351562C76.8633 0.351562 77.0234 0.412109 77.1328 0.533203C77.2422 0.654297 77.2969 0.802734 77.2969 0.978516C77.2969 1.1543 77.2422 1.30078 77.1328 1.41797C77.0234 1.53516 76.8633 1.59375 76.6523 1.59375C76.4414 1.59375 76.2812 1.53516 76.1719 1.41797C76.0664 1.30078 76.0137 1.1543 76.0137 0.978516ZM80.3965 1.125V2.66016H81.5801V3.49805H80.3965V7.42969C80.3965 7.68359 80.4492 7.875 80.5547 8.00391C80.6602 8.12891 80.8398 8.19141 81.0938 8.19141C81.2188 8.19141 81.3906 8.16797 81.6094 8.12109V9C81.3242 9.07812 81.0469 9.11719 80.7773 9.11719C80.293 9.11719 79.9277 8.9707 79.6816 8.67773C79.4355 8.38477 79.3125 7.96875 79.3125 7.42969V3.49805H78.1582V2.66016H79.3125V1.125H80.3965ZM84.0293 9H82.9453V2.66016H84.0293V9ZM82.8574 0.978516C82.8574 0.802734 82.9102 0.654297 83.0156 0.533203C83.125 0.412109 83.2852 0.351562 83.4961 0.351562C83.707 0.351562 83.8672 0.412109 83.9766 0.533203C84.0859 0.654297 84.1406 0.802734 84.1406 0.978516C84.1406 1.1543 84.0859 1.30078 83.9766 1.41797C83.8672 1.53516 83.707 1.59375 83.4961 1.59375C83.2852 1.59375 83.125 1.53516 83.0156 1.41797C82.9102 1.30078 82.8574 1.1543 82.8574 0.978516ZM85.4824 5.77148C85.4824 5.15039 85.6035 4.5918 85.8457 4.0957C86.0918 3.59961 86.4316 3.2168 86.8652 2.94727C87.3027 2.67773 87.8008 2.54297 88.3594 2.54297C89.2227 2.54297 89.9199 2.8418 90.4512 3.43945C90.9863 4.03711 91.2539 4.83203 91.2539 5.82422V5.90039C91.2539 6.51758 91.1348 7.07227 90.8965 7.56445C90.6621 8.05273 90.3242 8.43359 89.8828 8.70703C89.4453 8.98047 88.9414 9.11719 88.3711 9.11719C87.5117 9.11719 86.8145 8.81836 86.2793 8.2207C85.748 7.62305 85.4824 6.83203 85.4824 5.84766V5.77148ZM86.5723 5.90039C86.5723 6.60352 86.7344 7.16797 87.0586 7.59375C87.3867 8.01953 87.8242 8.23242 88.3711 8.23242C88.9219 8.23242 89.3594 8.01758 89.6836 7.58789C90.0078 7.1543 90.1699 6.54883 90.1699 5.77148C90.1699 5.07617 90.0039 4.51367 89.6719 4.08398C89.3438 3.65039 88.9062 3.43359 88.3594 3.43359C87.8242 3.43359 87.3926 3.64648 87.0645 4.07227C86.7363 4.49805 86.5723 5.10742 86.5723 5.90039ZM93.6387 2.66016L93.6738 3.45703C94.1582 2.84766 94.791 2.54297 95.5723 2.54297C96.9121 2.54297 97.5879 3.29883 97.5996 4.81055V9H96.5156V4.80469C96.5117 4.34766 96.4062 4.00977 96.1992 3.79102C95.9961 3.57227 95.6777 3.46289 95.2441 3.46289C94.8926 3.46289 94.584 3.55664 94.3184 3.74414C94.0527 3.93164 93.8457 4.17773 93.6973 4.48242V9H92.6133V2.66016H93.6387ZM102.926 7.31836C102.926 7.02539 102.814 6.79883 102.592 6.63867C102.373 6.47461 101.988 6.33398 101.438 6.2168C100.891 6.09961 100.455 5.95898 100.131 5.79492C99.8105 5.63086 99.5723 5.43555 99.416 5.20898C99.2637 4.98242 99.1875 4.71289 99.1875 4.40039C99.1875 3.88086 99.4062 3.44141 99.8438 3.08203C100.285 2.72266 100.848 2.54297 101.531 2.54297C102.25 2.54297 102.832 2.72852 103.277 3.09961C103.727 3.4707 103.951 3.94531 103.951 4.52344H102.861C102.861 4.22656 102.734 3.9707 102.48 3.75586C102.23 3.54102 101.914 3.43359 101.531 3.43359C101.137 3.43359 100.828 3.51953 100.605 3.69141C100.383 3.86328 100.271 4.08789 100.271 4.36523C100.271 4.62695 100.375 4.82422 100.582 4.95703C100.789 5.08984 101.162 5.2168 101.701 5.33789C102.244 5.45898 102.684 5.60352 103.02 5.77148C103.355 5.93945 103.604 6.14258 103.764 6.38086C103.928 6.61523 104.01 6.90234 104.01 7.24219C104.01 7.80859 103.783 8.26367 103.33 8.60742C102.877 8.94727 102.289 9.11719 101.566 9.11719C101.059 9.11719 100.609 9.02734 100.219 8.84766C99.8281 8.66797 99.5215 8.41797 99.2988 8.09766C99.0801 7.77344 98.9707 7.42383 98.9707 7.04883H100.055C100.074 7.41211 100.219 7.70117 100.488 7.91602C100.762 8.12695 101.121 8.23242 101.566 8.23242C101.977 8.23242 102.305 8.15039 102.551 7.98633C102.801 7.81836 102.926 7.5957 102.926 7.31836Z" fill="#AAAAAA"/>
</svg>
