<svg width="894" height="46" viewBox="0 0 894 46" fill="none" xmlns="http://www.w3.org/2000/svg">
<path d="M26.7188 5.57812H15.75V36H11.2734V5.57812H0.328125V1.875H26.7188V5.57812ZM35.4375 13.7109C37.3594 11.3516 39.8594 10.1719 42.9375 10.1719C48.2969 10.1719 51 13.1953 51.0469 19.2422V36H46.7109V19.2188C46.6953 17.3906 46.2734 16.0391 45.4453 15.1641C44.6328 14.2891 43.3594 13.8516 41.625 13.8516C40.2188 13.8516 38.9844 14.2266 37.9219 14.9766C36.8594 15.7266 36.0312 16.7109 35.4375 17.9297V36H31.1016V0H35.4375V13.7109ZM68.0625 36.4688C64.625 36.4688 61.8281 35.3438 59.6719 33.0938C57.5156 30.8281 56.4375 27.8047 56.4375 24.0234V23.2266C56.4375 20.7109 56.9141 18.4688 57.8672 16.5C58.8359 14.5156 60.1797 12.9688 61.8984 11.8594C63.6328 10.7344 65.5078 10.1719 67.5234 10.1719C70.8203 10.1719 73.3828 11.2578 75.2109 13.4297C77.0391 15.6016 77.9531 18.7109 77.9531 22.7578V24.5625H60.7734C60.8359 27.0625 61.5625 29.0859 62.9531 30.6328C64.3594 32.1641 66.1406 32.9297 68.2969 32.9297C69.8281 32.9297 71.125 32.6172 72.1875 31.9922C73.25 31.3672 74.1797 30.5391 74.9766 29.5078L77.625 31.5703C75.5 34.8359 72.3125 36.4688 68.0625 36.4688ZM67.5234 13.7344C65.7734 13.7344 64.3047 14.375 63.1172 15.6562C61.9297 16.9219 61.1953 18.7031 60.9141 21H73.6172V20.6719C73.4922 18.4688 72.8984 16.7656 71.8359 15.5625C70.7734 14.3438 69.3359 13.7344 67.5234 13.7344ZM117.352 30.0234L122.227 10.6406H126.562L119.18 36H115.664L109.5 16.7812L103.5 36H99.9844L92.625 10.6406H96.9375L101.93 29.625L107.836 10.6406H111.328L117.352 30.0234ZM129.844 23.0859C129.844 20.6016 130.328 18.3672 131.297 16.3828C132.281 14.3984 133.641 12.8672 135.375 11.7891C137.125 10.7109 139.117 10.1719 141.352 10.1719C144.805 10.1719 147.594 11.3672 149.719 13.7578C151.859 16.1484 152.93 19.3281 152.93 23.2969V23.6016C152.93 26.0703 152.453 28.2891 151.5 30.2578C150.562 32.2109 149.211 33.7344 147.445 34.8281C145.695 35.9219 143.68 36.4688 141.398 36.4688C137.961 36.4688 135.172 35.2734 133.031 32.8828C130.906 30.4922 129.844 27.3281 129.844 23.3906V23.0859ZM134.203 23.6016C134.203 26.4141 134.852 28.6719 136.148 30.375C137.461 32.0781 139.211 32.9297 141.398 32.9297C143.602 32.9297 145.352 32.0703 146.648 30.3516C147.945 28.6172 148.594 26.1953 148.594 23.0859C148.594 20.3047 147.93 18.0547 146.602 16.3359C145.289 14.6016 143.539 13.7344 141.352 13.7344C139.211 13.7344 137.484 14.5859 136.172 16.2891C134.859 17.9922 134.203 20.4297 134.203 23.6016ZM170.625 14.5312C169.969 14.4219 169.258 14.3672 168.492 14.3672C165.648 14.3672 163.719 15.5781 162.703 18V36H158.367V10.6406H162.586L162.656 13.5703C164.078 11.3047 166.094 10.1719 168.703 10.1719C169.547 10.1719 170.188 10.2813 170.625 10.5V14.5312ZM179.344 36H175.008V0H179.344V36ZM185.25 23.1094C185.25 19.2188 186.172 16.0938 188.016 13.7344C189.859 11.3594 192.273 10.1719 195.258 10.1719C198.227 10.1719 200.578 11.1875 202.312 13.2188V0H206.648V36H202.664L202.453 33.2812C200.719 35.4062 198.305 36.4688 195.211 36.4688C192.273 36.4688 189.875 35.2656 188.016 32.8594C186.172 30.4531 185.25 27.3125 185.25 23.4375V23.1094ZM189.586 23.6016C189.586 26.4766 190.18 28.7266 191.367 30.3516C192.555 31.9766 194.195 32.7891 196.289 32.7891C199.039 32.7891 201.047 31.5547 202.312 29.0859V17.4375C201.016 15.0469 199.023 13.8516 196.336 13.8516C194.211 13.8516 192.555 14.6719 191.367 16.3125C190.18 17.9531 189.586 20.3828 189.586 23.6016ZM216.047 2.60156L215.555 11.2266H212.531L212.555 0H216.047V2.60156ZM234.68 29.2734C234.68 28.1016 234.234 27.1953 233.344 26.5547C232.469 25.8984 230.93 25.3359 228.727 24.8672C226.539 24.3984 224.797 23.8359 223.5 23.1797C222.219 22.5234 221.266 21.7422 220.641 20.8359C220.031 19.9297 219.727 18.8516 219.727 17.6016C219.727 15.5234 220.602 13.7656 222.352 12.3281C224.117 10.8906 226.367 10.1719 229.102 10.1719C231.977 10.1719 234.305 10.9141 236.086 12.3984C237.883 13.8828 238.781 15.7812 238.781 18.0938H234.422C234.422 16.9062 233.914 15.8828 232.898 15.0234C231.898 14.1641 230.633 13.7344 229.102 13.7344C227.523 13.7344 226.289 14.0781 225.398 14.7656C224.508 15.4531 224.062 16.3516 224.062 17.4609C224.062 18.5078 224.477 19.2969 225.305 19.8281C226.133 20.3594 227.625 20.8672 229.781 21.3516C231.953 21.8359 233.711 22.4141 235.055 23.0859C236.398 23.7578 237.391 24.5703 238.031 25.5234C238.688 26.4609 239.016 27.6094 239.016 28.9688C239.016 31.2344 238.109 33.0547 236.297 34.4297C234.484 35.7891 232.133 36.4688 229.242 36.4688C227.211 36.4688 225.414 36.1094 223.852 35.3906C222.289 34.6719 221.062 33.6719 220.172 32.3906C219.297 31.0938 218.859 29.6953 218.859 28.1953H223.195C223.273 29.6484 223.852 30.8047 224.93 31.6641C226.023 32.5078 227.461 32.9297 229.242 32.9297C230.883 32.9297 232.195 32.6016 233.18 31.9453C234.18 31.2734 234.68 30.3828 234.68 29.2734ZM261.281 36H256.945V0H261.281V36ZM278.766 36.4688C275.328 36.4688 272.531 35.3438 270.375 33.0938C268.219 30.8281 267.141 27.8047 267.141 24.0234V23.2266C267.141 20.7109 267.617 18.4688 268.57 16.5C269.539 14.5156 270.883 12.9688 272.602 11.8594C274.336 10.7344 276.211 10.1719 278.227 10.1719C281.523 10.1719 284.086 11.2578 285.914 13.4297C287.742 15.6016 288.656 18.7109 288.656 22.7578V24.5625H271.477C271.539 27.0625 272.266 29.0859 273.656 30.6328C275.062 32.1641 276.844 32.9297 279 32.9297C280.531 32.9297 281.828 32.6172 282.891 31.9922C283.953 31.3672 284.883 30.5391 285.68 29.5078L288.328 31.5703C286.203 34.8359 283.016 36.4688 278.766 36.4688ZM278.227 13.7344C276.477 13.7344 275.008 14.375 273.82 15.6562C272.633 16.9219 271.898 18.7031 271.617 21H284.32V20.6719C284.195 18.4688 283.602 16.7656 282.539 15.5625C281.477 14.3438 280.039 13.7344 278.227 13.7344ZM309.352 36C309.102 35.5 308.898 34.6094 308.742 33.3281C306.727 35.4219 304.32 36.4688 301.523 36.4688C299.023 36.4688 296.969 35.7656 295.359 34.3594C293.766 32.9375 292.969 31.1406 292.969 28.9688C292.969 26.3281 293.969 24.2812 295.969 22.8281C297.984 21.3594 300.812 20.625 304.453 20.625H308.672V18.6328C308.672 17.1172 308.219 15.9141 307.312 15.0234C306.406 14.1172 305.07 13.6641 303.305 13.6641C301.758 13.6641 300.461 14.0547 299.414 14.8359C298.367 15.6172 297.844 16.5625 297.844 17.6719H293.484C293.484 16.4062 293.93 15.1875 294.82 14.0156C295.727 12.8281 296.945 11.8906 298.477 11.2031C300.023 10.5156 301.719 10.1719 303.562 10.1719C306.484 10.1719 308.773 10.9062 310.43 12.375C312.086 13.8281 312.945 15.8359 313.008 18.3984V30.0703C313.008 32.3984 313.305 34.25 313.898 35.625V36H309.352ZM302.156 32.6953C303.516 32.6953 304.805 32.3438 306.023 31.6406C307.242 30.9375 308.125 30.0234 308.672 28.8984V23.6953H305.273C299.961 23.6953 297.305 25.25 297.305 28.3594C297.305 29.7188 297.758 30.7812 298.664 31.5469C299.57 32.3125 300.734 32.6953 302.156 32.6953ZM318.75 23.1094C318.75 19.2188 319.672 16.0938 321.516 13.7344C323.359 11.3594 325.773 10.1719 328.758 10.1719C331.727 10.1719 334.078 11.1875 335.812 13.2188V0H340.148V36H336.164L335.953 33.2812C334.219 35.4062 331.805 36.4688 328.711 36.4688C325.773 36.4688 323.375 35.2656 321.516 32.8594C319.672 30.4531 318.75 27.3125 318.75 23.4375V23.1094ZM323.086 23.6016C323.086 26.4766 323.68 28.7266 324.867 30.3516C326.055 31.9766 327.695 32.7891 329.789 32.7891C332.539 32.7891 334.547 31.5547 335.812 29.0859V17.4375C334.516 15.0469 332.523 13.8516 329.836 13.8516C327.711 13.8516 326.055 14.6719 324.867 16.3125C323.68 17.9531 323.086 20.3828 323.086 23.6016ZM351.609 36H347.273V10.6406H351.609V36ZM346.922 3.91406C346.922 3.21094 347.133 2.61719 347.555 2.13281C347.992 1.64844 348.633 1.40625 349.477 1.40625C350.32 1.40625 350.961 1.64844 351.398 2.13281C351.836 2.61719 352.055 3.21094 352.055 3.91406C352.055 4.61719 351.836 5.20312 351.398 5.67188C350.961 6.14062 350.32 6.375 349.477 6.375C348.633 6.375 347.992 6.14062 347.555 5.67188C347.133 5.20312 346.922 4.61719 346.922 3.91406ZM362.672 10.6406L362.812 13.8281C364.75 11.3906 367.281 10.1719 370.406 10.1719C375.766 10.1719 378.469 13.1953 378.516 19.2422V36H374.18V19.2188C374.164 17.3906 373.742 16.0391 372.914 15.1641C372.102 14.2891 370.828 13.8516 369.094 13.8516C367.688 13.8516 366.453 14.2266 365.391 14.9766C364.328 15.7266 363.5 16.7109 362.906 17.9297V36H358.57V10.6406H362.672ZM384.023 23.1094C384.023 19.1562 384.938 16.0156 386.766 13.6875C388.594 11.3438 391.016 10.1719 394.031 10.1719C397.125 10.1719 399.539 11.2656 401.273 13.4531L401.484 10.6406H405.445V35.3906C405.445 38.6719 404.469 41.2578 402.516 43.1484C400.578 45.0391 397.969 45.9844 394.688 45.9844C392.859 45.9844 391.07 45.5938 389.32 44.8125C387.57 44.0312 386.234 42.9609 385.312 41.6016L387.562 39C389.422 41.2969 391.695 42.4453 394.383 42.4453C396.492 42.4453 398.133 41.8516 399.305 40.6641C400.492 39.4766 401.086 37.8047 401.086 35.6484V33.4688C399.352 35.4688 396.984 36.4688 393.984 36.4688C391.016 36.4688 388.609 35.2734 386.766 32.8828C384.938 30.4922 384.023 27.2344 384.023 23.1094ZM388.383 23.6016C388.383 26.4609 388.969 28.7109 390.141 30.3516C391.312 31.9766 392.953 32.7891 395.062 32.7891C397.797 32.7891 399.805 31.5469 401.086 29.0625V17.4844C399.758 15.0625 397.766 13.8516 395.109 13.8516C393 13.8516 391.352 14.6719 390.164 16.3125C388.977 17.9531 388.383 20.3828 388.383 23.6016ZM445.383 23.6016C445.383 27.4766 444.492 30.5938 442.711 32.9531C440.93 35.2969 438.539 36.4688 435.539 36.4688C432.336 36.4688 429.859 35.3359 428.109 33.0703L427.898 36H423.914V0H428.25V13.4297C430 11.2578 432.414 10.1719 435.492 10.1719C438.57 10.1719 440.984 11.3359 442.734 13.6641C444.5 15.9922 445.383 19.1797 445.383 23.2266V23.6016ZM441.047 23.1094C441.047 20.1562 440.477 17.875 439.336 16.2656C438.195 14.6562 436.555 13.8516 434.414 13.8516C431.555 13.8516 429.5 15.1797 428.25 17.8359V28.8047C429.578 31.4609 431.648 32.7891 434.461 32.7891C436.539 32.7891 438.156 31.9844 439.312 30.375C440.469 28.7656 441.047 26.3438 441.047 23.1094ZM463.125 14.5312C462.469 14.4219 461.758 14.3672 460.992 14.3672C458.148 14.3672 456.219 15.5781 455.203 18V36H450.867V10.6406H455.086L455.156 13.5703C456.578 11.3047 458.594 10.1719 461.203 10.1719C462.047 10.1719 462.688 10.2813 463.125 10.5V14.5312ZM481.852 36C481.602 35.5 481.398 34.6094 481.242 33.3281C479.227 35.4219 476.82 36.4688 474.023 36.4688C471.523 36.4688 469.469 35.7656 467.859 34.3594C466.266 32.9375 465.469 31.1406 465.469 28.9688C465.469 26.3281 466.469 24.2812 468.469 22.8281C470.484 21.3594 473.312 20.625 476.953 20.625H481.172V18.6328C481.172 17.1172 480.719 15.9141 479.812 15.0234C478.906 14.1172 477.57 13.6641 475.805 13.6641C474.258 13.6641 472.961 14.0547 471.914 14.8359C470.867 15.6172 470.344 16.5625 470.344 17.6719H465.984C465.984 16.4062 466.43 15.1875 467.32 14.0156C468.227 12.8281 469.445 11.8906 470.977 11.2031C472.523 10.5156 474.219 10.1719 476.062 10.1719C478.984 10.1719 481.273 10.9062 482.93 12.375C484.586 13.8281 485.445 15.8359 485.508 18.3984V30.0703C485.508 32.3984 485.805 34.25 486.398 35.625V36H481.852ZM474.656 32.6953C476.016 32.6953 477.305 32.3438 478.523 31.6406C479.742 30.9375 480.625 30.0234 481.172 28.8984V23.6953H477.773C472.461 23.6953 469.805 25.25 469.805 28.3594C469.805 29.7188 470.258 30.7812 471.164 31.5469C472.07 32.3125 473.234 32.6953 474.656 32.6953ZM496.406 10.6406L496.547 13.8281C498.484 11.3906 501.016 10.1719 504.141 10.1719C509.5 10.1719 512.203 13.1953 512.25 19.2422V36H507.914V19.2188C507.898 17.3906 507.477 16.0391 506.648 15.1641C505.836 14.2891 504.562 13.8516 502.828 13.8516C501.422 13.8516 500.188 14.2266 499.125 14.9766C498.062 15.7266 497.234 16.7109 496.641 17.9297V36H492.305V10.6406H496.406ZM517.734 23.1094C517.734 19.2188 518.656 16.0938 520.5 13.7344C522.344 11.3594 524.758 10.1719 527.742 10.1719C530.711 10.1719 533.062 11.1875 534.797 13.2188V0H539.133V36H535.148L534.938 33.2812C533.203 35.4062 530.789 36.4688 527.695 36.4688C524.758 36.4688 522.359 35.2656 520.5 32.8594C518.656 30.4531 517.734 27.3125 517.734 23.4375V23.1094ZM522.07 23.6016C522.07 26.4766 522.664 28.7266 523.852 30.3516C525.039 31.9766 526.68 32.7891 528.773 32.7891C531.523 32.7891 533.531 31.5547 534.797 29.0859V17.4375C533.5 15.0469 531.508 13.8516 528.82 13.8516C526.695 13.8516 525.039 14.6719 523.852 16.3125C522.664 17.9531 522.07 20.3828 522.07 23.6016ZM560.648 29.2734C560.648 28.1016 560.203 27.1953 559.312 26.5547C558.438 25.8984 556.898 25.3359 554.695 24.8672C552.508 24.3984 550.766 23.8359 549.469 23.1797C548.188 22.5234 547.234 21.7422 546.609 20.8359C546 19.9297 545.695 18.8516 545.695 17.6016C545.695 15.5234 546.57 13.7656 548.32 12.3281C550.086 10.8906 552.336 10.1719 555.07 10.1719C557.945 10.1719 560.273 10.9141 562.055 12.3984C563.852 13.8828 564.75 15.7812 564.75 18.0938H560.391C560.391 16.9062 559.883 15.8828 558.867 15.0234C557.867 14.1641 556.602 13.7344 555.07 13.7344C553.492 13.7344 552.258 14.0781 551.367 14.7656C550.477 15.4531 550.031 16.3516 550.031 17.4609C550.031 18.5078 550.445 19.2969 551.273 19.8281C552.102 20.3594 553.594 20.8672 555.75 21.3516C557.922 21.8359 559.68 22.4141 561.023 23.0859C562.367 23.7578 563.359 24.5703 564 25.5234C564.656 26.4609 564.984 27.6094 564.984 28.9688C564.984 31.2344 564.078 33.0547 562.266 34.4297C560.453 35.7891 558.102 36.4688 555.211 36.4688C553.18 36.4688 551.383 36.1094 549.82 35.3906C548.258 34.6719 547.031 33.6719 546.141 32.3906C545.266 31.0938 544.828 29.6953 544.828 28.1953H549.164C549.242 29.6484 549.82 30.8047 550.898 31.6641C551.992 32.5078 553.43 32.9297 555.211 32.9297C556.852 32.9297 558.164 32.6016 559.148 31.9453C560.148 31.2734 560.648 30.3828 560.648 29.2734ZM592.711 32.9297C594.258 32.9297 595.609 32.4609 596.766 31.5234C597.922 30.5859 598.562 29.4141 598.688 28.0078H602.789C602.711 29.4609 602.211 30.8438 601.289 32.1562C600.367 33.4688 599.133 34.5156 597.586 35.2969C596.055 36.0781 594.43 36.4688 592.711 36.4688C589.258 36.4688 586.508 35.3203 584.461 33.0234C582.43 30.7109 581.414 27.5547 581.414 23.5547V22.8281C581.414 20.3594 581.867 18.1641 582.773 16.2422C583.68 14.3203 584.977 12.8281 586.664 11.7656C588.367 10.7031 590.375 10.1719 592.688 10.1719C595.531 10.1719 597.891 11.0234 599.766 12.7266C601.656 14.4297 602.664 16.6406 602.789 19.3594H598.688C598.562 17.7188 597.938 16.375 596.812 15.3281C595.703 14.2656 594.328 13.7344 592.688 13.7344C590.484 13.7344 588.773 14.5312 587.555 16.125C586.352 17.7031 585.75 19.9922 585.75 22.9922V23.8125C585.75 26.7344 586.352 28.9844 587.555 30.5625C588.758 32.1406 590.477 32.9297 592.711 32.9297ZM612 13.7109C613.922 11.3516 616.422 10.1719 619.5 10.1719C624.859 10.1719 627.562 13.1953 627.609 19.2422V36H623.273V19.2188C623.258 17.3906 622.836 16.0391 622.008 15.1641C621.195 14.2891 619.922 13.8516 618.188 13.8516C616.781 13.8516 615.547 14.2266 614.484 14.9766C613.422 15.7266 612.594 16.7109 612 17.9297V36H607.664V0H612V13.7109ZM632.953 23.0859C632.953 20.6016 633.438 18.3672 634.406 16.3828C635.391 14.3984 636.75 12.8672 638.484 11.7891C640.234 10.7109 642.227 10.1719 644.461 10.1719C647.914 10.1719 650.703 11.3672 652.828 13.7578C654.969 16.1484 656.039 19.3281 656.039 23.2969V23.6016C656.039 26.0703 655.562 28.2891 654.609 30.2578C653.672 32.2109 652.32 33.7344 650.555 34.8281C648.805 35.9219 646.789 36.4688 644.508 36.4688C641.07 36.4688 638.281 35.2734 636.141 32.8828C634.016 30.4922 632.953 27.3281 632.953 23.3906V23.0859ZM637.312 23.6016C637.312 26.4141 637.961 28.6719 639.258 30.375C640.57 32.0781 642.32 32.9297 644.508 32.9297C646.711 32.9297 648.461 32.0703 649.758 30.3516C651.055 28.6172 651.703 26.1953 651.703 23.0859C651.703 20.3047 651.039 18.0547 649.711 16.3359C648.398 14.6016 646.648 13.7344 644.461 13.7344C642.32 13.7344 640.594 14.5859 639.281 16.2891C637.969 17.9922 637.312 20.4297 637.312 23.6016ZM660.328 23.0859C660.328 20.6016 660.812 18.3672 661.781 16.3828C662.766 14.3984 664.125 12.8672 665.859 11.7891C667.609 10.7109 669.602 10.1719 671.836 10.1719C675.289 10.1719 678.078 11.3672 680.203 13.7578C682.344 16.1484 683.414 19.3281 683.414 23.2969V23.6016C683.414 26.0703 682.938 28.2891 681.984 30.2578C681.047 32.2109 679.695 33.7344 677.93 34.8281C676.18 35.9219 674.164 36.4688 671.883 36.4688C668.445 36.4688 665.656 35.2734 663.516 32.8828C661.391 30.4922 660.328 27.3281 660.328 23.3906V23.0859ZM664.688 23.6016C664.688 26.4141 665.336 28.6719 666.633 30.375C667.945 32.0781 669.695 32.9297 671.883 32.9297C674.086 32.9297 675.836 32.0703 677.133 30.3516C678.43 28.6172 679.078 26.1953 679.078 23.0859C679.078 20.3047 678.414 18.0547 677.086 16.3359C675.773 14.6016 674.023 13.7344 671.836 13.7344C669.695 13.7344 667.969 14.5859 666.656 16.2891C665.344 17.9922 664.688 20.4297 664.688 23.6016ZM703.617 29.2734C703.617 28.1016 703.172 27.1953 702.281 26.5547C701.406 25.8984 699.867 25.3359 697.664 24.8672C695.477 24.3984 693.734 23.8359 692.438 23.1797C691.156 22.5234 690.203 21.7422 689.578 20.8359C688.969 19.9297 688.664 18.8516 688.664 17.6016C688.664 15.5234 689.539 13.7656 691.289 12.3281C693.055 10.8906 695.305 10.1719 698.039 10.1719C700.914 10.1719 703.242 10.9141 705.023 12.3984C706.82 13.8828 707.719 15.7812 707.719 18.0938H703.359C703.359 16.9062 702.852 15.8828 701.836 15.0234C700.836 14.1641 699.57 13.7344 698.039 13.7344C696.461 13.7344 695.227 14.0781 694.336 14.7656C693.445 15.4531 693 16.3516 693 17.4609C693 18.5078 693.414 19.2969 694.242 19.8281C695.07 20.3594 696.562 20.8672 698.719 21.3516C700.891 21.8359 702.648 22.4141 703.992 23.0859C705.336 23.7578 706.328 24.5703 706.969 25.5234C707.625 26.4609 707.953 27.6094 707.953 28.9688C707.953 31.2344 707.047 33.0547 705.234 34.4297C703.422 35.7891 701.07 36.4688 698.18 36.4688C696.148 36.4688 694.352 36.1094 692.789 35.3906C691.227 34.6719 690 33.6719 689.109 32.3906C688.234 31.0938 687.797 29.6953 687.797 28.1953H692.133C692.211 29.6484 692.789 30.8047 693.867 31.6641C694.961 32.5078 696.398 32.9297 698.18 32.9297C699.82 32.9297 701.133 32.6016 702.117 31.9453C703.117 31.2734 703.617 30.3828 703.617 29.2734ZM724.125 36.4688C720.688 36.4688 717.891 35.3438 715.734 33.0938C713.578 30.8281 712.5 27.8047 712.5 24.0234V23.2266C712.5 20.7109 712.977 18.4688 713.93 16.5C714.898 14.5156 716.242 12.9688 717.961 11.8594C719.695 10.7344 721.57 10.1719 723.586 10.1719C726.883 10.1719 729.445 11.2578 731.273 13.4297C733.102 15.6016 734.016 18.7109 734.016 22.7578V24.5625H716.836C716.898 27.0625 717.625 29.0859 719.016 30.6328C720.422 32.1641 722.203 32.9297 724.359 32.9297C725.891 32.9297 727.188 32.6172 728.25 31.9922C729.312 31.3672 730.242 30.5391 731.039 29.5078L733.688 31.5703C731.562 34.8359 728.375 36.4688 724.125 36.4688ZM723.586 13.7344C721.836 13.7344 720.367 14.375 719.18 15.6562C717.992 16.9219 717.258 18.7031 716.977 21H729.68V20.6719C729.555 18.4688 728.961 16.7656 727.898 15.5625C726.836 14.3438 725.398 13.7344 723.586 13.7344ZM764.156 22.1953H756.141V36H751.617V1.875H762.914C766.758 1.875 769.711 2.75 771.773 4.5C773.852 6.25 774.891 8.79687 774.891 12.1406C774.891 14.2656 774.312 16.1172 773.156 17.6953C772.016 19.2734 770.422 20.4531 768.375 21.2344L776.391 35.7188V36H771.562L764.156 22.1953ZM756.141 18.5156H763.055C765.289 18.5156 767.062 17.9375 768.375 16.7812C769.703 15.625 770.367 14.0781 770.367 12.1406C770.367 10.0312 769.734 8.41406 768.469 7.28906C767.219 6.16406 765.406 5.59375 763.031 5.57812H756.141V18.5156ZM807.469 20.0391C807.469 23.3828 806.906 26.3047 805.781 28.8047C804.656 31.2891 803.062 33.1875 801 34.5C798.938 35.8125 796.531 36.4688 793.781 36.4688C791.094 36.4688 788.711 35.8125 786.633 34.5C784.555 33.1719 782.938 31.2891 781.781 28.8516C780.641 26.3984 780.055 23.5625 780.023 20.3438V17.8828C780.023 14.6016 780.594 11.7031 781.734 9.1875C782.875 6.67188 784.484 4.75 786.562 3.42188C788.656 2.07813 791.047 1.40625 793.734 1.40625C796.469 1.40625 798.875 2.07031 800.953 3.39844C803.047 4.71094 804.656 6.625 805.781 9.14062C806.906 11.6406 807.469 14.5547 807.469 17.8828V20.0391ZM802.992 17.8359C802.992 13.7891 802.18 10.6875 800.555 8.53125C798.93 6.35937 796.656 5.27344 793.734 5.27344C790.891 5.27344 788.648 6.35937 787.008 8.53125C785.383 10.6875 784.547 13.6875 784.5 17.5312V20.0391C784.5 23.9609 785.32 27.0469 786.961 29.2969C788.617 31.5312 790.891 32.6484 793.781 32.6484C796.688 32.6484 798.938 31.5938 800.531 29.4844C802.125 27.3594 802.945 24.3203 802.992 20.3672V17.8359ZM840.469 20.0391C840.469 23.3828 839.906 26.3047 838.781 28.8047C837.656 31.2891 836.062 33.1875 834 34.5C831.938 35.8125 829.531 36.4688 826.781 36.4688C824.094 36.4688 821.711 35.8125 819.633 34.5C817.555 33.1719 815.938 31.2891 814.781 28.8516C813.641 26.3984 813.055 23.5625 813.023 20.3438V17.8828C813.023 14.6016 813.594 11.7031 814.734 9.1875C815.875 6.67188 817.484 4.75 819.562 3.42188C821.656 2.07813 824.047 1.40625 826.734 1.40625C829.469 1.40625 831.875 2.07031 833.953 3.39844C836.047 4.71094 837.656 6.625 838.781 9.14062C839.906 11.6406 840.469 14.5547 840.469 17.8828V20.0391ZM835.992 17.8359C835.992 13.7891 835.18 10.6875 833.555 8.53125C831.93 6.35937 829.656 5.27344 826.734 5.27344C823.891 5.27344 821.648 6.35937 820.008 8.53125C818.383 10.6875 817.547 13.6875 817.5 17.5312V20.0391C817.5 23.9609 818.32 27.0469 819.961 29.2969C821.617 31.5312 823.891 32.6484 826.781 32.6484C829.688 32.6484 831.938 31.5938 833.531 29.4844C835.125 27.3594 835.945 24.3203 835.992 20.3672V17.8359ZM853.031 1.875L864.188 29.7188L875.344 1.875H881.18V36H876.68V22.7109L877.102 8.36719L865.898 36H862.453L851.273 8.4375L851.719 22.7109V36H847.219V1.875H853.031ZM888.539 33.7266C888.539 32.9766 888.758 32.3516 889.195 31.8516C889.648 31.3516 890.32 31.1016 891.211 31.1016C892.102 31.1016 892.773 31.3516 893.227 31.8516C893.695 32.3516 893.93 32.9766 893.93 33.7266C893.93 34.4453 893.695 35.0469 893.227 35.5312C892.773 36.0156 892.102 36.2578 891.211 36.2578C890.32 36.2578 889.648 36.0156 889.195 35.5312C888.758 35.0469 888.539 34.4453 888.539 33.7266Z" fill="#1A1A1A"/>
</svg>
