<svg width="262" height="23" viewBox="0 0 262 23" fill="none" xmlns="http://www.w3.org/2000/svg">
<path d="M13.8008 10.0195C13.8008 11.6914 13.5195 13.1523 12.957 14.4023C12.3945 15.6445 11.5977 16.5938 10.5664 17.25C9.53516 17.9062 8.33203 18.2344 6.95703 18.2344C5.61328 18.2344 4.42188 17.9062 3.38281 17.25C2.34375 16.5859 1.53516 15.6445 0.957031 14.4258C0.386719 13.1992 0.09375 11.7812 0.078125 10.1719V8.94141C0.078125 7.30078 0.363281 5.85156 0.933594 4.59375C1.50391 3.33594 2.30859 2.375 3.34766 1.71094C4.39453 1.03906 5.58984 0.703125 6.93359 0.703125C8.30078 0.703125 9.50391 1.03516 10.543 1.69922C11.5898 2.35547 12.3945 3.3125 12.957 4.57031C13.5195 5.82031 13.8008 7.27734 13.8008 8.94141V10.0195ZM11.5625 8.91797C11.5625 6.89453 11.1562 5.34375 10.3438 4.26562C9.53125 3.17969 8.39453 2.63672 6.93359 2.63672C5.51172 2.63672 4.39062 3.17969 3.57031 4.26562C2.75781 5.34375 2.33984 6.84375 2.31641 8.76562V10.0195C2.31641 11.9805 2.72656 13.5234 3.54688 14.6484C4.375 15.7656 5.51172 16.3242 6.95703 16.3242C8.41016 16.3242 9.53516 15.7969 10.332 14.7422C11.1289 13.6797 11.5391 12.1602 11.5625 10.1836V8.91797ZM21.0195 15.0586L24.1602 5.32031H26.375L21.8281 18H20.1758L15.582 5.32031H17.7969L21.0195 15.0586ZM33.5586 18.2344C31.8398 18.2344 30.4414 17.6719 29.3633 16.5469C28.2852 15.4141 27.7461 13.9023 27.7461 12.0117V11.6133C27.7461 10.3555 27.9844 9.23438 28.4609 8.25C28.9453 7.25781 29.6172 6.48438 30.4766 5.92969C31.3438 5.36719 32.2812 5.08594 33.2891 5.08594C34.9375 5.08594 36.2188 5.62891 37.1328 6.71484C38.0469 7.80078 38.5039 9.35547 38.5039 11.3789V12.2812H29.9141C29.9453 13.5312 30.3086 14.543 31.0039 15.3164C31.707 16.082 32.5977 16.4648 33.6758 16.4648C34.4414 16.4648 35.0898 16.3086 35.6211 15.9961C36.1523 15.6836 36.6172 15.2695 37.0156 14.7539L38.3398 15.7852C37.2773 17.418 35.6836 18.2344 33.5586 18.2344ZM33.2891 6.86719C32.4141 6.86719 31.6797 7.1875 31.0859 7.82812C30.4922 8.46094 30.125 9.35156 29.9844 10.5H36.3359V10.3359C36.2734 9.23438 35.9766 8.38281 35.4453 7.78125C34.9141 7.17188 34.1953 6.86719 33.2891 6.86719ZM47.1523 7.26562C46.8242 7.21094 46.4688 7.18359 46.0859 7.18359C44.6641 7.18359 43.6992 7.78906 43.1914 9V18H41.0234V5.32031H43.1328L43.168 6.78516C43.8789 5.65234 44.8867 5.08594 46.1914 5.08594C46.6133 5.08594 46.9336 5.14062 47.1523 5.25V7.26562ZM58.0391 8.41406H59.668C60.6914 8.39844 61.4961 8.12891 62.082 7.60547C62.668 7.08203 62.9609 6.375 62.9609 5.48438C62.9609 3.48438 61.9648 2.48438 59.9727 2.48438C59.0352 2.48438 58.2852 2.75391 57.7227 3.29297C57.168 3.82422 56.8906 4.53125 56.8906 5.41406H54.7227C54.7227 4.0625 55.2148 2.94141 56.1992 2.05078C57.1914 1.15234 58.4492 0.703125 59.9727 0.703125C61.582 0.703125 62.8438 1.12891 63.7578 1.98047C64.6719 2.83203 65.1289 4.01562 65.1289 5.53125C65.1289 6.27344 64.8867 6.99219 64.4023 7.6875C63.9258 8.38281 63.2734 8.90234 62.4453 9.24609C63.3828 9.54297 64.1055 10.0352 64.6133 10.7227C65.1289 11.4102 65.3867 12.25 65.3867 13.2422C65.3867 14.7734 64.8867 15.9883 63.8867 16.8867C62.8867 17.7852 61.5859 18.2344 59.9844 18.2344C58.3828 18.2344 57.0781 17.8008 56.0703 16.9336C55.0703 16.0664 54.5703 14.9219 54.5703 13.5H56.75C56.75 14.3984 57.043 15.1172 57.6289 15.6562C58.2148 16.1953 59 16.4648 59.9844 16.4648C61.0312 16.4648 61.832 16.1914 62.3867 15.6445C62.9414 15.0977 63.2188 14.3125 63.2188 13.2891C63.2188 12.2969 62.9141 11.5352 62.3047 11.0039C61.6953 10.4727 60.8164 10.1992 59.668 10.1836H58.0391V8.41406ZM68.5156 21.3984L67.2852 20.5547C68.0195 19.5312 68.4023 18.4766 68.4336 17.3906V15.4336H70.5547V17.1328C70.5547 17.9219 70.3594 18.7109 69.9688 19.5C69.5859 20.2891 69.1016 20.9219 68.5156 21.3984ZM83.7734 10.7227C83.7734 13.2617 83.3398 15.1484 82.4727 16.3828C81.6055 17.6172 80.25 18.2344 78.4062 18.2344C76.5859 18.2344 75.2383 17.6328 74.3633 16.4297C73.4883 15.2188 73.0352 13.4141 73.0039 11.0156V8.12109C73.0039 5.61328 73.4375 3.75 74.3047 2.53125C75.1719 1.3125 76.5312 0.703125 78.3828 0.703125C80.2188 0.703125 81.5703 1.29297 82.4375 2.47266C83.3047 3.64453 83.75 5.45703 83.7734 7.91016V10.7227ZM81.6055 7.75781C81.6055 5.92188 81.3477 4.58594 80.832 3.75C80.3164 2.90625 79.5 2.48438 78.3828 2.48438C77.2734 2.48438 76.4648 2.90234 75.957 3.73828C75.4492 4.57422 75.1875 5.85938 75.1719 7.59375V11.0625C75.1719 12.9062 75.4375 14.2695 75.9688 15.1523C76.5078 16.0273 77.3203 16.4648 78.4062 16.4648C79.4766 16.4648 80.2695 16.0508 80.7852 15.2227C81.3086 14.3945 81.582 13.0898 81.6055 11.3086V7.75781ZM97.25 10.7227C97.25 13.2617 96.8164 15.1484 95.9492 16.3828C95.082 17.6172 93.7266 18.2344 91.8828 18.2344C90.0625 18.2344 88.7148 17.6328 87.8398 16.4297C86.9648 15.2188 86.5117 13.4141 86.4805 11.0156V8.12109C86.4805 5.61328 86.9141 3.75 87.7812 2.53125C88.6484 1.3125 90.0078 0.703125 91.8594 0.703125C93.6953 0.703125 95.0469 1.29297 95.9141 2.47266C96.7812 3.64453 97.2266 5.45703 97.25 7.91016V10.7227ZM95.082 7.75781C95.082 5.92188 94.8242 4.58594 94.3086 3.75C93.793 2.90625 92.9766 2.48438 91.8594 2.48438C90.75 2.48438 89.9414 2.90234 89.4336 3.73828C88.9258 4.57422 88.6641 5.85938 88.6484 7.59375V11.0625C88.6484 12.9062 88.9141 14.2695 89.4453 15.1523C89.9844 16.0273 90.7969 16.4648 91.8828 16.4648C92.9531 16.4648 93.7461 16.0508 94.2617 15.2227C94.7852 14.3945 95.0586 13.0898 95.082 11.3086V7.75781ZM110.727 10.7227C110.727 13.2617 110.293 15.1484 109.426 16.3828C108.559 17.6172 107.203 18.2344 105.359 18.2344C103.539 18.2344 102.191 17.6328 101.316 16.4297C100.441 15.2188 99.9883 13.4141 99.957 11.0156V8.12109C99.957 5.61328 100.391 3.75 101.258 2.53125C102.125 1.3125 103.484 0.703125 105.336 0.703125C107.172 0.703125 108.523 1.29297 109.391 2.47266C110.258 3.64453 110.703 5.45703 110.727 7.91016V10.7227ZM108.559 7.75781C108.559 5.92188 108.301 4.58594 107.785 3.75C107.27 2.90625 106.453 2.48438 105.336 2.48438C104.227 2.48438 103.418 2.90234 102.91 3.73828C102.402 4.57422 102.141 5.85938 102.125 7.59375V11.0625C102.125 12.9062 102.391 14.2695 102.922 15.1523C103.461 16.0273 104.273 16.4648 105.359 16.4648C106.43 16.4648 107.223 16.0508 107.738 15.2227C108.262 14.3945 108.535 13.0898 108.559 11.3086V7.75781ZM127.508 18C127.383 17.75 127.281 17.3047 127.203 16.6641C126.195 17.7109 124.992 18.2344 123.594 18.2344C122.344 18.2344 121.316 17.8828 120.512 17.1797C119.715 16.4688 119.316 15.5703 119.316 14.4844C119.316 13.1641 119.816 12.1406 120.816 11.4141C121.824 10.6797 123.238 10.3125 125.059 10.3125H127.168V9.31641C127.168 8.55859 126.941 7.95703 126.488 7.51172C126.035 7.05859 125.367 6.83203 124.484 6.83203C123.711 6.83203 123.062 7.02734 122.539 7.41797C122.016 7.80859 121.754 8.28125 121.754 8.83594H119.574C119.574 8.20312 119.797 7.59375 120.242 7.00781C120.695 6.41406 121.305 5.94531 122.07 5.60156C122.844 5.25781 123.691 5.08594 124.613 5.08594C126.074 5.08594 127.219 5.45312 128.047 6.1875C128.875 6.91406 129.305 7.91797 129.336 9.19922V15.0352C129.336 16.1992 129.484 17.125 129.781 17.8125V18H127.508ZM123.91 16.3477C124.59 16.3477 125.234 16.1719 125.844 15.8203C126.453 15.4688 126.895 15.0117 127.168 14.4492V11.8477H125.469C122.812 11.8477 121.484 12.625 121.484 14.1797C121.484 14.8594 121.711 15.3906 122.164 15.7734C122.617 16.1562 123.199 16.3477 123.91 16.3477ZM134.785 5.32031L134.855 6.91406C135.824 5.69531 137.09 5.08594 138.652 5.08594C141.332 5.08594 142.684 6.59766 142.707 9.62109V18H140.539V9.60938C140.531 8.69531 140.32 8.01953 139.906 7.58203C139.5 7.14453 138.863 6.92578 137.996 6.92578C137.293 6.92578 136.676 7.11328 136.145 7.48828C135.613 7.86328 135.199 8.35547 134.902 8.96484V18H132.734V5.32031H134.785ZM145.449 11.5547C145.449 9.60938 145.91 8.04688 146.832 6.86719C147.754 5.67969 148.961 5.08594 150.453 5.08594C151.938 5.08594 153.113 5.59375 153.98 6.60938V0H156.148V18H154.156L154.051 16.6406C153.184 17.7031 151.977 18.2344 150.43 18.2344C148.961 18.2344 147.762 17.6328 146.832 16.4297C145.91 15.2266 145.449 13.6562 145.449 11.7188V11.5547ZM147.617 11.8008C147.617 13.2383 147.914 14.3633 148.508 15.1758C149.102 15.9883 149.922 16.3945 150.969 16.3945C152.344 16.3945 153.348 15.7773 153.98 14.543V8.71875C153.332 7.52344 152.336 6.92578 150.992 6.92578C149.93 6.92578 149.102 7.33594 148.508 8.15625C147.914 8.97656 147.617 10.1914 147.617 11.8008ZM170.562 16.4648C171.336 16.4648 172.012 16.2305 172.59 15.7617C173.168 15.293 173.488 14.707 173.551 14.0039H175.602C175.562 14.7305 175.312 15.4219 174.852 16.0781C174.391 16.7344 173.773 17.2578 173 17.6484C172.234 18.0391 171.422 18.2344 170.562 18.2344C168.836 18.2344 167.461 17.6602 166.438 16.5117C165.422 15.3555 164.914 13.7773 164.914 11.7773V11.4141C164.914 10.1797 165.141 9.08203 165.594 8.12109C166.047 7.16016 166.695 6.41406 167.539 5.88281C168.391 5.35156 169.395 5.08594 170.551 5.08594C171.973 5.08594 173.152 5.51172 174.09 6.36328C175.035 7.21484 175.539 8.32031 175.602 9.67969H173.551C173.488 8.85938 173.176 8.1875 172.613 7.66406C172.059 7.13281 171.371 6.86719 170.551 6.86719C169.449 6.86719 168.594 7.26562 167.984 8.0625C167.383 8.85156 167.082 9.99609 167.082 11.4961V11.9062C167.082 13.3672 167.383 14.4922 167.984 15.2812C168.586 16.0703 169.445 16.4648 170.562 16.4648ZM177.465 11.543C177.465 10.3008 177.707 9.18359 178.191 8.19141C178.684 7.19922 179.363 6.43359 180.23 5.89453C181.105 5.35547 182.102 5.08594 183.219 5.08594C184.945 5.08594 186.34 5.68359 187.402 6.87891C188.473 8.07422 189.008 9.66406 189.008 11.6484V11.8008C189.008 13.0352 188.77 14.1445 188.293 15.1289C187.824 16.1055 187.148 16.8672 186.266 17.4141C185.391 17.9609 184.383 18.2344 183.242 18.2344C181.523 18.2344 180.129 17.6367 179.059 16.4414C177.996 15.2461 177.465 13.6641 177.465 11.6953V11.543ZM179.645 11.8008C179.645 13.207 179.969 14.3359 180.617 15.1875C181.273 16.0391 182.148 16.4648 183.242 16.4648C184.344 16.4648 185.219 16.0352 185.867 15.1758C186.516 14.3086 186.84 13.0977 186.84 11.543C186.84 10.1523 186.508 9.02734 185.844 8.16797C185.188 7.30078 184.312 6.86719 183.219 6.86719C182.148 6.86719 181.285 7.29297 180.629 8.14453C179.973 8.99609 179.645 10.2148 179.645 11.8008ZM199.555 16.7461C198.711 17.7383 197.473 18.2344 195.84 18.2344C194.488 18.2344 193.457 17.8438 192.746 17.0625C192.043 16.2734 191.688 15.1094 191.68 13.5703V5.32031H193.848V13.5117C193.848 15.4336 194.629 16.3945 196.191 16.3945C197.848 16.3945 198.949 15.7773 199.496 14.543V5.32031H201.664V18H199.602L199.555 16.7461ZM207.02 5.32031L207.09 6.91406C208.059 5.69531 209.324 5.08594 210.887 5.08594C213.566 5.08594 214.918 6.59766 214.941 9.62109V18H212.773V9.60938C212.766 8.69531 212.555 8.01953 212.141 7.58203C211.734 7.14453 211.098 6.92578 210.23 6.92578C209.527 6.92578 208.91 7.11328 208.379 7.48828C207.848 7.86328 207.434 8.35547 207.137 8.96484V18H204.969V5.32031H207.02ZM221.152 2.25V5.32031H223.52V6.99609H221.152V14.8594C221.152 15.3672 221.258 15.75 221.469 16.0078C221.68 16.2578 222.039 16.3828 222.547 16.3828C222.797 16.3828 223.141 16.3359 223.578 16.2422V18C223.008 18.1562 222.453 18.2344 221.914 18.2344C220.945 18.2344 220.215 17.9414 219.723 17.3555C219.23 16.7695 218.984 15.9375 218.984 14.8594V6.99609H216.676V5.32031H218.984V2.25H221.152ZM228.418 18H226.25V5.32031H228.418V18ZM226.074 1.95703C226.074 1.60547 226.18 1.30859 226.391 1.06641C226.609 0.824219 226.93 0.703125 227.352 0.703125C227.773 0.703125 228.094 0.824219 228.312 1.06641C228.531 1.30859 228.641 1.60547 228.641 1.95703C228.641 2.30859 228.531 2.60156 228.312 2.83594C228.094 3.07031 227.773 3.1875 227.352 3.1875C226.93 3.1875 226.609 3.07031 226.391 2.83594C226.18 2.60156 226.074 2.30859 226.074 1.95703ZM233.949 5.32031L234.02 6.91406C234.988 5.69531 236.254 5.08594 237.816 5.08594C240.496 5.08594 241.848 6.59766 241.871 9.62109V18H239.703V9.60938C239.695 8.69531 239.484 8.01953 239.07 7.58203C238.664 7.14453 238.027 6.92578 237.16 6.92578C236.457 6.92578 235.84 7.11328 235.309 7.48828C234.777 7.86328 234.363 8.35547 234.066 8.96484V18H231.898V5.32031H233.949ZM244.625 11.5547C244.625 9.57812 245.082 8.00781 245.996 6.84375C246.91 5.67188 248.121 5.08594 249.629 5.08594C251.176 5.08594 252.383 5.63281 253.25 6.72656L253.355 5.32031H255.336V17.6953C255.336 19.3359 254.848 20.6289 253.871 21.5742C252.902 22.5195 251.598 22.9922 249.957 22.9922C249.043 22.9922 248.148 22.7969 247.273 22.4062C246.398 22.0156 245.73 21.4805 245.27 20.8008L246.395 19.5C247.324 20.6484 248.461 21.2227 249.805 21.2227C250.859 21.2227 251.68 20.9258 252.266 20.332C252.859 19.7383 253.156 18.9023 253.156 17.8242V16.7344C252.289 17.7344 251.105 18.2344 249.605 18.2344C248.121 18.2344 246.918 17.6367 245.996 16.4414C245.082 15.2461 244.625 13.6172 244.625 11.5547ZM246.805 11.8008C246.805 13.2305 247.098 14.3555 247.684 15.1758C248.27 15.9883 249.09 16.3945 250.145 16.3945C251.512 16.3945 252.516 15.7734 253.156 14.5312V8.74219C252.492 7.53125 251.496 6.92578 250.168 6.92578C249.113 6.92578 248.289 7.33594 247.695 8.15625C247.102 8.97656 246.805 10.1914 246.805 11.8008ZM258.664 16.8633C258.664 16.4883 258.773 16.1758 258.992 15.9258C259.219 15.6758 259.555 15.5508 260 15.5508C260.445 15.5508 260.781 15.6758 261.008 15.9258C261.242 16.1758 261.359 16.4883 261.359 16.8633C261.359 17.2227 261.242 17.5234 261.008 17.7656C260.781 18.0078 260.445 18.1289 260 18.1289C259.555 18.1289 259.219 18.0078 258.992 17.7656C258.773 17.5234 258.664 17.2227 258.664 16.8633Z" fill="#4A4A4A"/>
</svg>
