<svg width="1053" height="196" viewBox="0 0 1053 196" fill="none" xmlns="http://www.w3.org/2000/svg">
<path d="M30.2109 20.0391C30.2109 23.3828 29.6484 26.3047 28.5234 28.8047C27.3984 31.2891 25.8047 33.1875 23.7422 34.5C21.6797 35.8125 19.2734 36.4688 16.5234 36.4688C13.8359 36.4688 11.4531 35.8125 9.375 34.5C7.29688 33.1719 5.67969 31.2891 4.52344 28.8516C3.38281 26.3984 2.79688 23.5625 2.76562 20.3438V17.8828C2.76562 14.6016 3.33594 11.7031 4.47656 9.1875C5.61719 6.67188 7.22656 4.75 9.30469 3.42188C11.3984 2.07813 13.7891 1.40625 16.4766 1.40625C19.2109 1.40625 21.6172 2.07031 23.6953 3.39844C25.7891 4.71094 27.3984 6.625 28.5234 9.14062C29.6484 11.6406 30.2109 14.5547 30.2109 17.8828V20.0391ZM25.7344 17.8359C25.7344 13.7891 24.9219 10.6875 23.2969 8.53125C21.6719 6.35937 19.3984 5.27344 16.4766 5.27344C13.6328 5.27344 11.3906 6.35937 9.75 8.53125C8.125 10.6875 7.28906 13.6875 7.24219 17.5312V20.0391C7.24219 23.9609 8.0625 27.0469 9.70312 29.2969C11.3594 31.5312 13.6328 32.6484 16.5234 32.6484C19.4297 32.6484 21.6797 31.5938 23.2734 29.4844C24.8672 27.3594 25.6875 24.3203 25.7344 20.3672V17.8359ZM51.9375 33.4922C50.25 35.4766 47.7734 36.4688 44.5078 36.4688C41.8047 36.4688 39.7422 35.6875 38.3203 34.125C36.9141 32.5469 36.2031 30.2188 36.1875 27.1406V10.6406H40.5234V27.0234C40.5234 30.8672 42.0859 32.7891 45.2109 32.7891C48.5234 32.7891 50.7266 31.5547 51.8203 29.0859V10.6406H56.1562V36H52.0312L51.9375 33.4922ZM75.0234 14.5312C74.3672 14.4219 73.6562 14.3672 72.8906 14.3672C70.0469 14.3672 68.1172 15.5781 67.1016 18V36H62.7656V10.6406H66.9844L67.0547 13.5703C68.4766 11.3047 70.4922 10.1719 73.1016 10.1719C73.9453 10.1719 74.5859 10.2812 75.0234 10.5V14.5312ZM105.703 29.2734C105.703 28.1016 105.258 27.1953 104.367 26.5547C103.492 25.8984 101.953 25.3359 99.75 24.8672C97.5625 24.3984 95.8203 23.8359 94.5234 23.1797C93.2422 22.5234 92.2891 21.7422 91.6641 20.8359C91.0547 19.9297 90.75 18.8516 90.75 17.6016C90.75 15.5234 91.625 13.7656 93.375 12.3281C95.1406 10.8906 97.3906 10.1719 100.125 10.1719C103 10.1719 105.328 10.9141 107.109 12.3984C108.906 13.8828 109.805 15.7812 109.805 18.0938H105.445C105.445 16.9062 104.938 15.8828 103.922 15.0234C102.922 14.1641 101.656 13.7344 100.125 13.7344C98.5469 13.7344 97.3125 14.0781 96.4219 14.7656C95.5312 15.4531 95.0859 16.3516 95.0859 17.4609C95.0859 18.5078 95.5 19.2969 96.3281 19.8281C97.1562 20.3594 98.6484 20.8672 100.805 21.3516C102.977 21.8359 104.734 22.4141 106.078 23.0859C107.422 23.7578 108.414 24.5703 109.055 25.5234C109.711 26.4609 110.039 27.6094 110.039 28.9688C110.039 31.2344 109.133 33.0547 107.32 34.4297C105.508 35.7891 103.156 36.4688 100.266 36.4688C98.2344 36.4688 96.4375 36.1094 94.875 35.3906C93.3125 34.6719 92.0859 33.6719 91.1953 32.3906C90.3203 31.0938 89.8828 29.6953 89.8828 28.1953H94.2188C94.2969 29.6484 94.875 30.8047 95.9531 31.6641C97.0469 32.5078 98.4844 32.9297 100.266 32.9297C101.906 32.9297 103.219 32.6016 104.203 31.9453C105.203 31.2734 105.703 30.3828 105.703 29.2734ZM120.398 36H116.062V10.6406H120.398V36ZM115.711 3.91406C115.711 3.21094 115.922 2.61719 116.344 2.13281C116.781 1.64844 117.422 1.40625 118.266 1.40625C119.109 1.40625 119.75 1.64844 120.188 2.13281C120.625 2.61719 120.844 3.21094 120.844 3.91406C120.844 4.61719 120.625 5.20312 120.188 5.67188C119.75 6.14062 119.109 6.375 118.266 6.375C117.422 6.375 116.781 6.14062 116.344 5.67188C115.922 5.20312 115.711 4.61719 115.711 3.91406ZM131.438 10.6406L131.555 13.4531C133.414 11.2656 135.922 10.1719 139.078 10.1719C142.625 10.1719 145.039 11.5312 146.32 14.25C147.164 13.0312 148.258 12.0469 149.602 11.2969C150.961 10.5469 152.562 10.1719 154.406 10.1719C159.969 10.1719 162.797 13.1172 162.891 19.0078V36H158.555V19.2656C158.555 17.4531 158.141 16.1016 157.312 15.2109C156.484 14.3047 155.094 13.8516 153.141 13.8516C151.531 13.8516 150.195 14.3359 149.133 15.3047C148.07 16.2578 147.453 17.5469 147.281 19.1719V36H142.922V19.3828C142.922 15.6953 141.117 13.8516 137.508 13.8516C134.664 13.8516 132.719 15.0625 131.672 17.4844V36H127.336V10.6406H131.438ZM190.875 23.6016C190.875 27.4609 189.992 30.5703 188.227 32.9297C186.461 35.2891 184.07 36.4688 181.055 36.4688C177.977 36.4688 175.555 35.4922 173.789 33.5391V45.75H169.453V10.6406H173.414L173.625 13.4531C175.391 11.2656 177.844 10.1719 180.984 10.1719C184.031 10.1719 186.438 11.3203 188.203 13.6172C189.984 15.9141 190.875 19.1094 190.875 23.2031V23.6016ZM186.539 23.1094C186.539 20.25 185.93 17.9922 184.711 16.3359C183.492 14.6797 181.82 13.8516 179.695 13.8516C177.07 13.8516 175.102 15.0156 173.789 17.3438V29.4609C175.086 31.7734 177.07 32.9297 179.742 32.9297C181.82 32.9297 183.469 32.1094 184.688 30.4688C185.922 28.8125 186.539 26.3594 186.539 23.1094ZM201.117 36H196.781V0H201.117V36ZM218.602 36.4688C215.164 36.4688 212.367 35.3438 210.211 33.0938C208.055 30.8281 206.977 27.8047 206.977 24.0234V23.2266C206.977 20.7109 207.453 18.4688 208.406 16.5C209.375 14.5156 210.719 12.9688 212.438 11.8594C214.172 10.7344 216.047 10.1719 218.062 10.1719C221.359 10.1719 223.922 11.2578 225.75 13.4297C227.578 15.6016 228.492 18.7109 228.492 22.7578V24.5625H211.312C211.375 27.0625 212.102 29.0859 213.492 30.6328C214.898 32.1641 216.68 32.9297 218.836 32.9297C220.367 32.9297 221.664 32.6172 222.727 31.9922C223.789 31.3672 224.719 30.5391 225.516 29.5078L228.164 31.5703C226.039 34.8359 222.852 36.4688 218.602 36.4688ZM218.062 13.7344C216.312 13.7344 214.844 14.375 213.656 15.6562C212.469 16.9219 211.734 18.7031 211.453 21H224.156V20.6719C224.031 18.4688 223.438 16.7656 222.375 15.5625C221.312 14.3438 219.875 13.7344 218.062 13.7344ZM261.094 36C260.844 35.5 260.641 34.6094 260.484 33.3281C258.469 35.4219 256.062 36.4688 253.266 36.4688C250.766 36.4688 248.711 35.7656 247.102 34.3594C245.508 32.9375 244.711 31.1406 244.711 28.9688C244.711 26.3281 245.711 24.2812 247.711 22.8281C249.727 21.3594 252.555 20.625 256.195 20.625H260.414V18.6328C260.414 17.1172 259.961 15.9141 259.055 15.0234C258.148 14.1172 256.812 13.6641 255.047 13.6641C253.5 13.6641 252.203 14.0547 251.156 14.8359C250.109 15.6172 249.586 16.5625 249.586 17.6719H245.227C245.227 16.4062 245.672 15.1875 246.562 14.0156C247.469 12.8281 248.688 11.8906 250.219 11.2031C251.766 10.5156 253.461 10.1719 255.305 10.1719C258.227 10.1719 260.516 10.9062 262.172 12.375C263.828 13.8281 264.688 15.8359 264.75 18.3984V30.0703C264.75 32.3984 265.047 34.25 265.641 35.625V36H261.094ZM253.898 32.6953C255.258 32.6953 256.547 32.3438 257.766 31.6406C258.984 30.9375 259.867 30.0234 260.414 28.8984V23.6953H257.016C251.703 23.6953 249.047 25.25 249.047 28.3594C249.047 29.7188 249.5 30.7812 250.406 31.5469C251.312 32.3125 252.477 32.6953 253.898 32.6953ZM275.648 10.6406L275.789 13.8281C277.727 11.3906 280.258 10.1719 283.383 10.1719C288.742 10.1719 291.445 13.1953 291.492 19.2422V36H287.156V19.2188C287.141 17.3906 286.719 16.0391 285.891 15.1641C285.078 14.2891 283.805 13.8516 282.07 13.8516C280.664 13.8516 279.43 14.2266 278.367 14.9766C277.305 15.7266 276.477 16.7109 275.883 17.9297V36H271.547V10.6406H275.648ZM296.977 23.1094C296.977 19.2188 297.898 16.0938 299.742 13.7344C301.586 11.3594 304 10.1719 306.984 10.1719C309.953 10.1719 312.305 11.1875 314.039 13.2188V0H318.375V36H314.391L314.18 33.2812C312.445 35.4062 310.031 36.4688 306.938 36.4688C304 36.4688 301.602 35.2656 299.742 32.8594C297.898 30.4531 296.977 27.3125 296.977 23.4375V23.1094ZM301.312 23.6016C301.312 26.4766 301.906 28.7266 303.094 30.3516C304.281 31.9766 305.922 32.7891 308.016 32.7891C310.766 32.7891 312.773 31.5547 314.039 29.0859V17.4375C312.742 15.0469 310.75 13.8516 308.062 13.8516C305.938 13.8516 304.281 14.6719 303.094 16.3125C301.906 17.9531 301.312 20.3828 301.312 23.6016ZM351.797 29.2734C351.797 28.1016 351.352 27.1953 350.461 26.5547C349.586 25.8984 348.047 25.3359 345.844 24.8672C343.656 24.3984 341.914 23.8359 340.617 23.1797C339.336 22.5234 338.383 21.7422 337.758 20.8359C337.148 19.9297 336.844 18.8516 336.844 17.6016C336.844 15.5234 337.719 13.7656 339.469 12.3281C341.234 10.8906 343.484 10.1719 346.219 10.1719C349.094 10.1719 351.422 10.9141 353.203 12.3984C355 13.8828 355.898 15.7812 355.898 18.0938H351.539C351.539 16.9062 351.031 15.8828 350.016 15.0234C349.016 14.1641 347.75 13.7344 346.219 13.7344C344.641 13.7344 343.406 14.0781 342.516 14.7656C341.625 15.4531 341.18 16.3516 341.18 17.4609C341.18 18.5078 341.594 19.2969 342.422 19.8281C343.25 20.3594 344.742 20.8672 346.898 21.3516C349.07 21.8359 350.828 22.4141 352.172 23.0859C353.516 23.7578 354.508 24.5703 355.148 25.5234C355.805 26.4609 356.133 27.6094 356.133 28.9688C356.133 31.2344 355.227 33.0547 353.414 34.4297C351.602 35.7891 349.25 36.4688 346.359 36.4688C344.328 36.4688 342.531 36.1094 340.969 35.3906C339.406 34.6719 338.18 33.6719 337.289 32.3906C336.414 31.0938 335.977 29.6953 335.977 28.1953H340.312C340.391 29.6484 340.969 30.8047 342.047 31.6641C343.141 32.5078 344.578 32.9297 346.359 32.9297C348 32.9297 349.312 32.6016 350.297 31.9453C351.297 31.2734 351.797 30.3828 351.797 29.2734ZM372.305 36.4688C368.867 36.4688 366.07 35.3438 363.914 33.0938C361.758 30.8281 360.68 27.8047 360.68 24.0234V23.2266C360.68 20.7109 361.156 18.4688 362.109 16.5C363.078 14.5156 364.422 12.9688 366.141 11.8594C367.875 10.7344 369.75 10.1719 371.766 10.1719C375.062 10.1719 377.625 11.2578 379.453 13.4297C381.281 15.6016 382.195 18.7109 382.195 22.7578V24.5625H365.016C365.078 27.0625 365.805 29.0859 367.195 30.6328C368.602 32.1641 370.383 32.9297 372.539 32.9297C374.07 32.9297 375.367 32.6172 376.43 31.9922C377.492 31.3672 378.422 30.5391 379.219 29.5078L381.867 31.5703C379.742 34.8359 376.555 36.4688 372.305 36.4688ZM371.766 13.7344C370.016 13.7344 368.547 14.375 367.359 15.6562C366.172 16.9219 365.438 18.7031 365.156 21H377.859V20.6719C377.734 18.4688 377.141 16.7656 376.078 15.5625C375.016 14.3438 373.578 13.7344 371.766 13.7344ZM402.891 36C402.641 35.5 402.438 34.6094 402.281 33.3281C400.266 35.4219 397.859 36.4688 395.062 36.4688C392.562 36.4688 390.508 35.7656 388.898 34.3594C387.305 32.9375 386.508 31.1406 386.508 28.9688C386.508 26.3281 387.508 24.2812 389.508 22.8281C391.523 21.3594 394.352 20.625 397.992 20.625H402.211V18.6328C402.211 17.1172 401.758 15.9141 400.852 15.0234C399.945 14.1172 398.609 13.6641 396.844 13.6641C395.297 13.6641 394 14.0547 392.953 14.8359C391.906 15.6172 391.383 16.5625 391.383 17.6719H387.023C387.023 16.4062 387.469 15.1875 388.359 14.0156C389.266 12.8281 390.484 11.8906 392.016 11.2031C393.562 10.5156 395.258 10.1719 397.102 10.1719C400.023 10.1719 402.312 10.9062 403.969 12.375C405.625 13.8281 406.484 15.8359 406.547 18.3984V30.0703C406.547 32.3984 406.844 34.25 407.438 35.625V36H402.891ZM395.695 32.6953C397.055 32.6953 398.344 32.3438 399.562 31.6406C400.781 30.9375 401.664 30.0234 402.211 28.8984V23.6953H398.812C393.5 23.6953 390.844 25.25 390.844 28.3594C390.844 29.7188 391.297 30.7812 392.203 31.5469C393.109 32.3125 394.273 32.6953 395.695 32.6953ZM417.422 10.6406L417.539 13.4531C419.398 11.2656 421.906 10.1719 425.062 10.1719C428.609 10.1719 431.023 11.5312 432.305 14.25C433.148 13.0312 434.242 12.0469 435.586 11.2969C436.945 10.5469 438.547 10.1719 440.391 10.1719C445.953 10.1719 448.781 13.1172 448.875 19.0078V36H444.539V19.2656C444.539 17.4531 444.125 16.1016 443.297 15.2109C442.469 14.3047 441.078 13.8516 439.125 13.8516C437.516 13.8516 436.18 14.3359 435.117 15.3047C434.055 16.2578 433.438 17.5469 433.266 19.1719V36H428.906V19.3828C428.906 15.6953 427.102 13.8516 423.492 13.8516C420.648 13.8516 418.703 15.0625 417.656 17.4844V36H413.32V10.6406H417.422ZM460.148 36H455.812V0H460.148V36ZM477.633 36.4688C474.195 36.4688 471.398 35.3438 469.242 33.0938C467.086 30.8281 466.008 27.8047 466.008 24.0234V23.2266C466.008 20.7109 466.484 18.4688 467.438 16.5C468.406 14.5156 469.75 12.9688 471.469 11.8594C473.203 10.7344 475.078 10.1719 477.094 10.1719C480.391 10.1719 482.953 11.2578 484.781 13.4297C486.609 15.6016 487.523 18.7109 487.523 22.7578V24.5625H470.344C470.406 27.0625 471.133 29.0859 472.523 30.6328C473.93 32.1641 475.711 32.9297 477.867 32.9297C479.398 32.9297 480.695 32.6172 481.758 31.9922C482.82 31.3672 483.75 30.5391 484.547 29.5078L487.195 31.5703C485.07 34.8359 481.883 36.4688 477.633 36.4688ZM477.094 13.7344C475.344 13.7344 473.875 14.375 472.688 15.6562C471.5 16.9219 470.766 18.7031 470.484 21H483.188V20.6719C483.062 18.4688 482.469 16.7656 481.406 15.5625C480.344 14.3438 478.906 13.7344 477.094 13.7344ZM507.328 29.2734C507.328 28.1016 506.883 27.1953 505.992 26.5547C505.117 25.8984 503.578 25.3359 501.375 24.8672C499.188 24.3984 497.445 23.8359 496.148 23.1797C494.867 22.5234 493.914 21.7422 493.289 20.8359C492.68 19.9297 492.375 18.8516 492.375 17.6016C492.375 15.5234 493.25 13.7656 495 12.3281C496.766 10.8906 499.016 10.1719 501.75 10.1719C504.625 10.1719 506.953 10.9141 508.734 12.3984C510.531 13.8828 511.43 15.7812 511.43 18.0938H507.07C507.07 16.9062 506.562 15.8828 505.547 15.0234C504.547 14.1641 503.281 13.7344 501.75 13.7344C500.172 13.7344 498.938 14.0781 498.047 14.7656C497.156 15.4531 496.711 16.3516 496.711 17.4609C496.711 18.5078 497.125 19.2969 497.953 19.8281C498.781 20.3594 500.273 20.8672 502.43 21.3516C504.602 21.8359 506.359 22.4141 507.703 23.0859C509.047 23.7578 510.039 24.5703 510.68 25.5234C511.336 26.4609 511.664 27.6094 511.664 28.9688C511.664 31.2344 510.758 33.0547 508.945 34.4297C507.133 35.7891 504.781 36.4688 501.891 36.4688C499.859 36.4688 498.062 36.1094 496.5 35.3906C494.938 34.6719 493.711 33.6719 492.82 32.3906C491.945 31.0938 491.508 29.6953 491.508 28.1953H495.844C495.922 29.6484 496.5 30.8047 497.578 31.6641C498.672 32.5078 500.109 32.9297 501.891 32.9297C503.531 32.9297 504.844 32.6016 505.828 31.9453C506.828 31.2734 507.328 30.3828 507.328 29.2734ZM532.078 29.2734C532.078 28.1016 531.633 27.1953 530.742 26.5547C529.867 25.8984 528.328 25.3359 526.125 24.8672C523.938 24.3984 522.195 23.8359 520.898 23.1797C519.617 22.5234 518.664 21.7422 518.039 20.8359C517.43 19.9297 517.125 18.8516 517.125 17.6016C517.125 15.5234 518 13.7656 519.75 12.3281C521.516 10.8906 523.766 10.1719 526.5 10.1719C529.375 10.1719 531.703 10.9141 533.484 12.3984C535.281 13.8828 536.18 15.7812 536.18 18.0938H531.82C531.82 16.9062 531.312 15.8828 530.297 15.0234C529.297 14.1641 528.031 13.7344 526.5 13.7344C524.922 13.7344 523.688 14.0781 522.797 14.7656C521.906 15.4531 521.461 16.3516 521.461 17.4609C521.461 18.5078 521.875 19.2969 522.703 19.8281C523.531 20.3594 525.023 20.8672 527.18 21.3516C529.352 21.8359 531.109 22.4141 532.453 23.0859C533.797 23.7578 534.789 24.5703 535.43 25.5234C536.086 26.4609 536.414 27.6094 536.414 28.9688C536.414 31.2344 535.508 33.0547 533.695 34.4297C531.883 35.7891 529.531 36.4688 526.641 36.4688C524.609 36.4688 522.812 36.1094 521.25 35.3906C519.688 34.6719 518.461 33.6719 517.57 32.3906C516.695 31.0938 516.258 29.6953 516.258 28.1953H520.594C520.672 29.6484 521.25 30.8047 522.328 31.6641C523.422 32.5078 524.859 32.9297 526.641 32.9297C528.281 32.9297 529.594 32.6016 530.578 31.9453C531.578 31.2734 532.078 30.3828 532.078 29.2734ZM558.047 10.6406L558.164 13.4531C560.023 11.2656 562.531 10.1719 565.688 10.1719C569.234 10.1719 571.648 11.5312 572.93 14.25C573.773 13.0312 574.867 12.0469 576.211 11.2969C577.57 10.5469 579.172 10.1719 581.016 10.1719C586.578 10.1719 589.406 13.1172 589.5 19.0078V36H585.164V19.2656C585.164 17.4531 584.75 16.1016 583.922 15.2109C583.094 14.3047 581.703 13.8516 579.75 13.8516C578.141 13.8516 576.805 14.3359 575.742 15.3047C574.68 16.2578 574.062 17.5469 573.891 19.1719V36H569.531V19.3828C569.531 15.6953 567.727 13.8516 564.117 13.8516C561.273 13.8516 559.328 15.0625 558.281 17.4844V36H553.945V10.6406H558.047ZM594.914 23.0859C594.914 20.6016 595.398 18.3672 596.367 16.3828C597.352 14.3984 598.711 12.8672 600.445 11.7891C602.195 10.7109 604.188 10.1719 606.422 10.1719C609.875 10.1719 612.664 11.3672 614.789 13.7578C616.93 16.1484 618 19.3281 618 23.2969V23.6016C618 26.0703 617.523 28.2891 616.57 30.2578C615.633 32.2109 614.281 33.7344 612.516 34.8281C610.766 35.9219 608.75 36.4688 606.469 36.4688C603.031 36.4688 600.242 35.2734 598.102 32.8828C595.977 30.4922 594.914 27.3281 594.914 23.3906V23.0859ZM599.273 23.6016C599.273 26.4141 599.922 28.6719 601.219 30.375C602.531 32.0781 604.281 32.9297 606.469 32.9297C608.672 32.9297 610.422 32.0703 611.719 30.3516C613.016 28.6172 613.664 26.1953 613.664 23.0859C613.664 20.3047 613 18.0547 611.672 16.3359C610.359 14.6016 608.609 13.7344 606.422 13.7344C604.281 13.7344 602.555 14.5859 601.242 16.2891C599.93 17.9922 599.273 20.4297 599.273 23.6016ZM622.383 23.1094C622.383 19.2188 623.305 16.0938 625.148 13.7344C626.992 11.3594 629.406 10.1719 632.391 10.1719C635.359 10.1719 637.711 11.1875 639.445 13.2188V0H643.781V36H639.797L639.586 33.2812C637.852 35.4062 635.438 36.4688 632.344 36.4688C629.406 36.4688 627.008 35.2656 625.148 32.8594C623.305 30.4531 622.383 27.3125 622.383 23.4375V23.1094ZM626.719 23.6016C626.719 26.4766 627.312 28.7266 628.5 30.3516C629.688 31.9766 631.328 32.7891 633.422 32.7891C636.172 32.7891 638.18 31.5547 639.445 29.0859V17.4375C638.148 15.0469 636.156 13.8516 633.469 13.8516C631.344 13.8516 629.688 14.6719 628.5 16.3125C627.312 17.9531 626.719 20.3828 626.719 23.6016ZM666.188 33.4922C664.5 35.4766 662.023 36.4688 658.758 36.4688C656.055 36.4688 653.992 35.6875 652.57 34.125C651.164 32.5469 650.453 30.2188 650.438 27.1406V10.6406H654.773V27.0234C654.773 30.8672 656.336 32.7891 659.461 32.7891C662.773 32.7891 664.977 31.5547 666.07 29.0859V10.6406H670.406V36H666.281L666.188 33.4922ZM681.727 36H677.391V0H681.727V36ZM704.344 36C704.094 35.5 703.891 34.6094 703.734 33.3281C701.719 35.4219 699.312 36.4688 696.516 36.4688C694.016 36.4688 691.961 35.7656 690.352 34.3594C688.758 32.9375 687.961 31.1406 687.961 28.9688C687.961 26.3281 688.961 24.2812 690.961 22.8281C692.977 21.3594 695.805 20.625 699.445 20.625H703.664V18.6328C703.664 17.1172 703.211 15.9141 702.305 15.0234C701.398 14.1172 700.062 13.6641 698.297 13.6641C696.75 13.6641 695.453 14.0547 694.406 14.8359C693.359 15.6172 692.836 16.5625 692.836 17.6719H688.477C688.477 16.4062 688.922 15.1875 689.812 14.0156C690.719 12.8281 691.938 11.8906 693.469 11.2031C695.016 10.5156 696.711 10.1719 698.555 10.1719C701.477 10.1719 703.766 10.9062 705.422 12.375C707.078 13.8281 707.938 15.8359 708 18.3984V30.0703C708 32.3984 708.297 34.25 708.891 35.625V36H704.344ZM697.148 32.6953C698.508 32.6953 699.797 32.3438 701.016 31.6406C702.234 30.9375 703.117 30.0234 703.664 28.8984V23.6953H700.266C694.953 23.6953 692.297 25.25 692.297 28.3594C692.297 29.7188 692.75 30.7812 693.656 31.5469C694.562 32.3125 695.727 32.6953 697.148 32.6953ZM727.055 14.5312C726.398 14.4219 725.688 14.3672 724.922 14.3672C722.078 14.3672 720.148 15.5781 719.133 18V36H714.797V10.6406H719.016L719.086 13.5703C720.508 11.3047 722.523 10.1719 725.133 10.1719C725.977 10.1719 726.617 10.2812 727.055 10.5V14.5312ZM764.391 23.6016C764.391 27.4609 763.508 30.5703 761.742 32.9297C759.977 35.2891 757.586 36.4688 754.57 36.4688C751.492 36.4688 749.07 35.4922 747.305 33.5391V45.75H742.969V10.6406H746.93L747.141 13.4531C748.906 11.2656 751.359 10.1719 754.5 10.1719C757.547 10.1719 759.953 11.3203 761.719 13.6172C763.5 15.9141 764.391 19.1094 764.391 23.2031V23.6016ZM760.055 23.1094C760.055 20.25 759.445 17.9922 758.227 16.3359C757.008 14.6797 755.336 13.8516 753.211 13.8516C750.586 13.8516 748.617 15.0156 747.305 17.3438V29.4609C748.602 31.7734 750.586 32.9297 753.258 32.9297C755.336 32.9297 756.984 32.1094 758.203 30.4688C759.438 28.8125 760.055 26.3594 760.055 23.1094ZM782.18 14.5312C781.523 14.4219 780.812 14.3672 780.047 14.3672C777.203 14.3672 775.273 15.5781 774.258 18V36H769.922V10.6406H774.141L774.211 13.5703C775.633 11.3047 777.648 10.1719 780.258 10.1719C781.102 10.1719 781.742 10.2812 782.18 10.5V14.5312ZM784.57 23.0859C784.57 20.6016 785.055 18.3672 786.023 16.3828C787.008 14.3984 788.367 12.8672 790.102 11.7891C791.852 10.7109 793.844 10.1719 796.078 10.1719C799.531 10.1719 802.32 11.3672 804.445 13.7578C806.586 16.1484 807.656 19.3281 807.656 23.2969V23.6016C807.656 26.0703 807.18 28.2891 806.227 30.2578C805.289 32.2109 803.938 33.7344 802.172 34.8281C800.422 35.9219 798.406 36.4688 796.125 36.4688C792.688 36.4688 789.898 35.2734 787.758 32.8828C785.633 30.4922 784.57 27.3281 784.57 23.3906V23.0859ZM788.93 23.6016C788.93 26.4141 789.578 28.6719 790.875 30.375C792.188 32.0781 793.938 32.9297 796.125 32.9297C798.328 32.9297 800.078 32.0703 801.375 30.3516C802.672 28.6172 803.32 26.1953 803.32 23.0859C803.32 20.3047 802.656 18.0547 801.328 16.3359C800.016 14.6016 798.266 13.7344 796.078 13.7344C793.938 13.7344 792.211 14.5859 790.898 16.2891C789.586 17.9922 788.93 20.4297 788.93 23.6016ZM812.039 23.1094C812.039 19.2188 812.961 16.0938 814.805 13.7344C816.648 11.3594 819.062 10.1719 822.047 10.1719C825.016 10.1719 827.367 11.1875 829.102 13.2188V0H833.438V36H829.453L829.242 33.2812C827.508 35.4062 825.094 36.4688 822 36.4688C819.062 36.4688 816.664 35.2656 814.805 32.8594C812.961 30.4531 812.039 27.3125 812.039 23.4375V23.1094ZM816.375 23.6016C816.375 26.4766 816.969 28.7266 818.156 30.3516C819.344 31.9766 820.984 32.7891 823.078 32.7891C825.828 32.7891 827.836 31.5547 829.102 29.0859V17.4375C827.805 15.0469 825.812 13.8516 823.125 13.8516C821 13.8516 819.344 14.6719 818.156 16.3125C816.969 17.9531 816.375 20.3828 816.375 23.6016ZM855.844 33.4922C854.156 35.4766 851.68 36.4688 848.414 36.4688C845.711 36.4688 843.648 35.6875 842.227 34.125C840.82 32.5469 840.109 30.2188 840.094 27.1406V10.6406H844.43V27.0234C844.43 30.8672 845.992 32.7891 849.117 32.7891C852.43 32.7891 854.633 31.5547 855.727 29.0859V10.6406H860.062V36H855.938L855.844 33.4922ZM876.844 32.9297C878.391 32.9297 879.742 32.4609 880.898 31.5234C882.055 30.5859 882.695 29.4141 882.82 28.0078H886.922C886.844 29.4609 886.344 30.8438 885.422 32.1562C884.5 33.4688 883.266 34.5156 881.719 35.2969C880.188 36.0781 878.562 36.4688 876.844 36.4688C873.391 36.4688 870.641 35.3203 868.594 33.0234C866.562 30.7109 865.547 27.5547 865.547 23.5547V22.8281C865.547 20.3594 866 18.1641 866.906 16.2422C867.812 14.3203 869.109 12.8281 870.797 11.7656C872.5 10.7031 874.508 10.1719 876.82 10.1719C879.664 10.1719 882.023 11.0234 883.898 12.7266C885.789 14.4297 886.797 16.6406 886.922 19.3594H882.82C882.695 17.7188 882.07 16.375 880.945 15.3281C879.836 14.2656 878.461 13.7344 876.82 13.7344C874.617 13.7344 872.906 14.5312 871.688 16.125C870.484 17.7031 869.883 19.9922 869.883 22.9922V23.8125C869.883 26.7344 870.484 28.9844 871.688 30.5625C872.891 32.1406 874.609 32.9297 876.844 32.9297ZM897.68 4.5V10.6406H902.414V13.9922H897.68V29.7188C897.68 30.7344 897.891 31.5 898.312 32.0156C898.734 32.5156 899.453 32.7656 900.469 32.7656C900.969 32.7656 901.656 32.6719 902.531 32.4844V36C901.391 36.3125 900.281 36.4688 899.203 36.4688C897.266 36.4688 895.805 35.8828 894.82 34.7109C893.836 33.5391 893.344 31.875 893.344 29.7188V13.9922H888.727V10.6406H893.344V4.5H897.68ZM922.266 29.2734C922.266 28.1016 921.82 27.1953 920.93 26.5547C920.055 25.8984 918.516 25.3359 916.312 24.8672C914.125 24.3984 912.383 23.8359 911.086 23.1797C909.805 22.5234 908.852 21.7422 908.227 20.8359C907.617 19.9297 907.312 18.8516 907.312 17.6016C907.312 15.5234 908.188 13.7656 909.938 12.3281C911.703 10.8906 913.953 10.1719 916.688 10.1719C919.562 10.1719 921.891 10.9141 923.672 12.3984C925.469 13.8828 926.367 15.7812 926.367 18.0938H922.008C922.008 16.9062 921.5 15.8828 920.484 15.0234C919.484 14.1641 918.219 13.7344 916.688 13.7344C915.109 13.7344 913.875 14.0781 912.984 14.7656C912.094 15.4531 911.648 16.3516 911.648 17.4609C911.648 18.5078 912.062 19.2969 912.891 19.8281C913.719 20.3594 915.211 20.8672 917.367 21.3516C919.539 21.8359 921.297 22.4141 922.641 23.0859C923.984 23.7578 924.977 24.5703 925.617 25.5234C926.273 26.4609 926.602 27.6094 926.602 28.9688C926.602 31.2344 925.695 33.0547 923.883 34.4297C922.07 35.7891 919.719 36.4688 916.828 36.4688C914.797 36.4688 913 36.1094 911.438 35.3906C909.875 34.6719 908.648 33.6719 907.758 32.3906C906.883 31.0938 906.445 29.6953 906.445 28.1953H910.781C910.859 29.6484 911.438 30.8047 912.516 31.6641C913.609 32.5078 915.047 32.9297 916.828 32.9297C918.469 32.9297 919.781 32.6016 920.766 31.9453C921.766 31.2734 922.266 30.3828 922.266 29.2734ZM959.812 36C959.562 35.5 959.359 34.6094 959.203 33.3281C957.188 35.4219 954.781 36.4688 951.984 36.4688C949.484 36.4688 947.43 35.7656 945.82 34.3594C944.227 32.9375 943.43 31.1406 943.43 28.9688C943.43 26.3281 944.43 24.2812 946.43 22.8281C948.445 21.3594 951.273 20.625 954.914 20.625H959.133V18.6328C959.133 17.1172 958.68 15.9141 957.773 15.0234C956.867 14.1172 955.531 13.6641 953.766 13.6641C952.219 13.6641 950.922 14.0547 949.875 14.8359C948.828 15.6172 948.305 16.5625 948.305 17.6719H943.945C943.945 16.4062 944.391 15.1875 945.281 14.0156C946.188 12.8281 947.406 11.8906 948.938 11.2031C950.484 10.5156 952.18 10.1719 954.023 10.1719C956.945 10.1719 959.234 10.9062 960.891 12.375C962.547 13.8281 963.406 15.8359 963.469 18.3984V30.0703C963.469 32.3984 963.766 34.25 964.359 35.625V36H959.812ZM952.617 32.6953C953.977 32.6953 955.266 32.3438 956.484 31.6406C957.703 30.9375 958.586 30.0234 959.133 28.8984V23.6953H955.734C950.422 23.6953 947.766 25.25 947.766 28.3594C947.766 29.7188 948.219 30.7812 949.125 31.5469C950.031 32.3125 951.195 32.6953 952.617 32.6953ZM974.977 36H970.641V0H974.977V36ZM986.648 36H982.312V0H986.648V36ZM992.461 23.0859C992.461 20.6016 992.945 18.3672 993.914 16.3828C994.898 14.3984 996.258 12.8672 997.992 11.7891C999.742 10.7109 1001.73 10.1719 1003.97 10.1719C1007.42 10.1719 1010.21 11.3672 1012.34 13.7578C1014.48 16.1484 1015.55 19.3281 1015.55 23.2969V23.6016C1015.55 26.0703 1015.07 28.2891 1014.12 30.2578C1013.18 32.2109 1011.83 33.7344 1010.06 34.8281C1008.31 35.9219 1006.3 36.4688 1004.02 36.4688C1000.58 36.4688 997.789 35.2734 995.648 32.8828C993.523 30.4922 992.461 27.3281 992.461 23.3906V23.0859ZM996.82 23.6016C996.82 26.4141 997.469 28.6719 998.766 30.375C1000.08 32.0781 1001.83 32.9297 1004.02 32.9297C1006.22 32.9297 1007.97 32.0703 1009.27 30.3516C1010.56 28.6172 1011.21 26.1953 1011.21 23.0859C1011.21 20.3047 1010.55 18.0547 1009.22 16.3359C1007.91 14.6016 1006.16 13.7344 1003.97 13.7344C1001.83 13.7344 1000.1 14.5859 998.789 16.2891C997.477 17.9922 996.82 20.4297 996.82 23.6016ZM1043.44 30.0234L1048.31 10.6406H1052.65L1045.27 36H1041.75L1035.59 16.7812L1029.59 36H1026.07L1018.71 10.6406H1023.02L1028.02 29.625L1033.92 10.6406H1037.41L1043.44 30.0234ZM9.16406 60.5V66.6406H13.8984V69.9922H9.16406V85.7188C9.16406 86.7344 9.375 87.5 9.79688 88.0156C10.2188 88.5156 10.9375 88.7656 11.9531 88.7656C12.4531 88.7656 13.1406 88.6719 14.0156 88.4844V92C12.875 92.3125 11.7656 92.4688 10.6875 92.4688C8.75 92.4688 7.28906 91.8828 6.30469 90.7109C5.32031 89.5391 4.82812 87.875 4.82812 85.7188V69.9922H0.210938V66.6406H4.82812V60.5H9.16406ZM29.5078 92.4688C26.0703 92.4688 23.2734 91.3438 21.1172 89.0938C18.9609 86.8281 17.8828 83.8047 17.8828 80.0234V79.2266C17.8828 76.7109 18.3594 74.4688 19.3125 72.5C20.2812 70.5156 21.625 68.9688 23.3438 67.8594C25.0781 66.7344 26.9531 66.1719 28.9688 66.1719C32.2656 66.1719 34.8281 67.2578 36.6562 69.4297C38.4844 71.6016 39.3984 74.7109 39.3984 78.7578V80.5625H22.2188C22.2812 83.0625 23.0078 85.0859 24.3984 86.6328C25.8047 88.1641 27.5859 88.9297 29.7422 88.9297C31.2734 88.9297 32.5703 88.6172 33.6328 87.9922C34.6953 87.3672 35.625 86.5391 36.4219 85.5078L39.0703 87.5703C36.9453 90.8359 33.7578 92.4688 29.5078 92.4688ZM28.9688 69.7344C27.2188 69.7344 25.75 70.375 24.5625 71.6562C23.375 72.9219 22.6406 74.7031 22.3594 77H35.0625V76.6719C34.9375 74.4688 34.3438 72.7656 33.2812 71.5625C32.2188 70.3438 30.7812 69.7344 28.9688 69.7344ZM60.0938 92C59.8438 91.5 59.6406 90.6094 59.4844 89.3281C57.4688 91.4219 55.0625 92.4688 52.2656 92.4688C49.7656 92.4688 47.7109 91.7656 46.1016 90.3594C44.5078 88.9375 43.7109 87.1406 43.7109 84.9688C43.7109 82.3281 44.7109 80.2812 46.7109 78.8281C48.7266 77.3594 51.5547 76.625 55.1953 76.625H59.4141V74.6328C59.4141 73.1172 58.9609 71.9141 58.0547 71.0234C57.1484 70.1172 55.8125 69.6641 54.0469 69.6641C52.5 69.6641 51.2031 70.0547 50.1562 70.8359C49.1094 71.6172 48.5859 72.5625 48.5859 73.6719H44.2266C44.2266 72.4062 44.6719 71.1875 45.5625 70.0156C46.4688 68.8281 47.6875 67.8906 49.2188 67.2031C50.7656 66.5156 52.4609 66.1719 54.3047 66.1719C57.2266 66.1719 59.5156 66.9062 61.1719 68.375C62.8281 69.8281 63.6875 71.8359 63.75 74.3984V86.0703C63.75 88.3984 64.0469 90.25 64.6406 91.625V92H60.0938ZM52.8984 88.6953C54.2578 88.6953 55.5469 88.3438 56.7656 87.6406C57.9844 86.9375 58.8672 86.0234 59.4141 84.8984V79.6953H56.0156C50.7031 79.6953 48.0469 81.25 48.0469 84.3594C48.0469 85.7188 48.5 86.7812 49.4062 87.5469C50.3125 88.3125 51.4766 88.6953 52.8984 88.6953ZM74.625 66.6406L74.7422 69.4531C76.6016 67.2656 79.1094 66.1719 82.2656 66.1719C85.8125 66.1719 88.2266 67.5312 89.5078 70.25C90.3516 69.0312 91.4453 68.0469 92.7891 67.2969C94.1484 66.5469 95.75 66.1719 97.5938 66.1719C103.156 66.1719 105.984 69.1172 106.078 75.0078V92H101.742V75.2656C101.742 73.4531 101.328 72.1016 100.5 71.2109C99.6719 70.3047 98.2812 69.8516 96.3281 69.8516C94.7188 69.8516 93.3828 70.3359 92.3203 71.3047C91.2578 72.2578 90.6406 73.5469 90.4688 75.1719V92H86.1094V75.3828C86.1094 71.6953 84.3047 69.8516 80.6953 69.8516C77.8516 69.8516 75.9062 71.0625 74.8594 73.4844V92H70.5234V66.6406H74.625ZM127.406 85.2734C127.406 84.1016 126.961 83.1953 126.07 82.5547C125.195 81.8984 123.656 81.3359 121.453 80.8672C119.266 80.3984 117.523 79.8359 116.227 79.1797C114.945 78.5234 113.992 77.7422 113.367 76.8359C112.758 75.9297 112.453 74.8516 112.453 73.6016C112.453 71.5234 113.328 69.7656 115.078 68.3281C116.844 66.8906 119.094 66.1719 121.828 66.1719C124.703 66.1719 127.031 66.9141 128.812 68.3984C130.609 69.8828 131.508 71.7812 131.508 74.0938H127.148C127.148 72.9062 126.641 71.8828 125.625 71.0234C124.625 70.1641 123.359 69.7344 121.828 69.7344C120.25 69.7344 119.016 70.0781 118.125 70.7656C117.234 71.4531 116.789 72.3516 116.789 73.4609C116.789 74.5078 117.203 75.2969 118.031 75.8281C118.859 76.3594 120.352 76.8672 122.508 77.3516C124.68 77.8359 126.438 78.4141 127.781 79.0859C129.125 79.7578 130.117 80.5703 130.758 81.5234C131.414 82.4609 131.742 83.6094 131.742 84.9688C131.742 87.2344 130.836 89.0547 129.023 90.4297C127.211 91.7891 124.859 92.4688 121.969 92.4688C119.938 92.4688 118.141 92.1094 116.578 91.3906C115.016 90.6719 113.789 89.6719 112.898 88.3906C112.023 87.0938 111.586 85.6953 111.586 84.1953H115.922C116 85.6484 116.578 86.8047 117.656 87.6641C118.75 88.5078 120.188 88.9297 121.969 88.9297C123.609 88.9297 124.922 88.6016 125.906 87.9453C126.906 87.2734 127.406 86.3828 127.406 85.2734ZM155.18 60.5V66.6406H159.914V69.9922H155.18V85.7188C155.18 86.7344 155.391 87.5 155.812 88.0156C156.234 88.5156 156.953 88.7656 157.969 88.7656C158.469 88.7656 159.156 88.6719 160.031 88.4844V92C158.891 92.3125 157.781 92.4688 156.703 92.4688C154.766 92.4688 153.305 91.8828 152.32 90.7109C151.336 89.5391 150.844 87.875 150.844 85.7188V69.9922H146.227V66.6406H150.844V60.5H155.18ZM163.383 79.0859C163.383 76.6016 163.867 74.3672 164.836 72.3828C165.82 70.3984 167.18 68.8672 168.914 67.7891C170.664 66.7109 172.656 66.1719 174.891 66.1719C178.344 66.1719 181.133 67.3672 183.258 69.7578C185.398 72.1484 186.469 75.3281 186.469 79.2969V79.6016C186.469 82.0703 185.992 84.2891 185.039 86.2578C184.102 88.2109 182.75 89.7344 180.984 90.8281C179.234 91.9219 177.219 92.4688 174.938 92.4688C171.5 92.4688 168.711 91.2734 166.57 88.8828C164.445 86.4922 163.383 83.3281 163.383 79.3906V79.0859ZM167.742 79.6016C167.742 82.4141 168.391 84.6719 169.688 86.375C171 88.0781 172.75 88.9297 174.938 88.9297C177.141 88.9297 178.891 88.0703 180.188 86.3516C181.484 84.6172 182.133 82.1953 182.133 79.0859C182.133 76.3047 181.469 74.0547 180.141 72.3359C178.828 70.6016 177.078 69.7344 174.891 69.7344C172.75 69.7344 171.023 70.5859 169.711 72.2891C168.398 73.9922 167.742 76.4297 167.742 79.6016ZM218.578 85.2734C218.578 84.1016 218.133 83.1953 217.242 82.5547C216.367 81.8984 214.828 81.3359 212.625 80.8672C210.438 80.3984 208.695 79.8359 207.398 79.1797C206.117 78.5234 205.164 77.7422 204.539 76.8359C203.93 75.9297 203.625 74.8516 203.625 73.6016C203.625 71.5234 204.5 69.7656 206.25 68.3281C208.016 66.8906 210.266 66.1719 213 66.1719C215.875 66.1719 218.203 66.9141 219.984 68.3984C221.781 69.8828 222.68 71.7812 222.68 74.0938H218.32C218.32 72.9062 217.812 71.8828 216.797 71.0234C215.797 70.1641 214.531 69.7344 213 69.7344C211.422 69.7344 210.188 70.0781 209.297 70.7656C208.406 71.4531 207.961 72.3516 207.961 73.4609C207.961 74.5078 208.375 75.2969 209.203 75.8281C210.031 76.3594 211.523 76.8672 213.68 77.3516C215.852 77.8359 217.609 78.4141 218.953 79.0859C220.297 79.7578 221.289 80.5703 221.93 81.5234C222.586 82.4609 222.914 83.6094 222.914 84.9688C222.914 87.2344 222.008 89.0547 220.195 90.4297C218.383 91.7891 216.031 92.4688 213.141 92.4688C211.109 92.4688 209.312 92.1094 207.75 91.3906C206.188 90.6719 204.961 89.6719 204.07 88.3906C203.195 87.0938 202.758 85.6953 202.758 84.1953H207.094C207.172 85.6484 207.75 86.8047 208.828 87.6641C209.922 88.5078 211.359 88.9297 213.141 88.9297C214.781 88.9297 216.094 88.6016 217.078 87.9453C218.078 87.2734 218.578 86.3828 218.578 85.2734ZM232.898 69.7109C234.82 67.3516 237.32 66.1719 240.398 66.1719C245.758 66.1719 248.461 69.1953 248.508 75.2422V92H244.172V75.2188C244.156 73.3906 243.734 72.0391 242.906 71.1641C242.094 70.2891 240.82 69.8516 239.086 69.8516C237.68 69.8516 236.445 70.2266 235.383 70.9766C234.32 71.7266 233.492 72.7109 232.898 73.9297V92H228.562V56H232.898V69.7109ZM270.656 92C270.406 91.5 270.203 90.6094 270.047 89.3281C268.031 91.4219 265.625 92.4688 262.828 92.4688C260.328 92.4688 258.273 91.7656 256.664 90.3594C255.07 88.9375 254.273 87.1406 254.273 84.9688C254.273 82.3281 255.273 80.2812 257.273 78.8281C259.289 77.3594 262.117 76.625 265.758 76.625H269.977V74.6328C269.977 73.1172 269.523 71.9141 268.617 71.0234C267.711 70.1172 266.375 69.6641 264.609 69.6641C263.062 69.6641 261.766 70.0547 260.719 70.8359C259.672 71.6172 259.148 72.5625 259.148 73.6719H254.789C254.789 72.4062 255.234 71.1875 256.125 70.0156C257.031 68.8281 258.25 67.8906 259.781 67.2031C261.328 66.5156 263.023 66.1719 264.867 66.1719C267.789 66.1719 270.078 66.9062 271.734 68.375C273.391 69.8281 274.25 71.8359 274.312 74.3984V86.0703C274.312 88.3984 274.609 90.25 275.203 91.625V92H270.656ZM263.461 88.6953C264.82 88.6953 266.109 88.3438 267.328 87.6406C268.547 86.9375 269.43 86.0234 269.977 84.8984V79.6953H266.578C261.266 79.6953 258.609 81.25 258.609 84.3594C258.609 85.7188 259.062 86.7812 259.969 87.5469C260.875 88.3125 262.039 88.6953 263.461 88.6953ZM302.531 79.6016C302.531 83.4609 301.648 86.5703 299.883 88.9297C298.117 91.2891 295.727 92.4688 292.711 92.4688C289.633 92.4688 287.211 91.4922 285.445 89.5391V101.75H281.109V66.6406H285.07L285.281 69.4531C287.047 67.2656 289.5 66.1719 292.641 66.1719C295.688 66.1719 298.094 67.3203 299.859 69.6172C301.641 71.9141 302.531 75.1094 302.531 79.2031V79.6016ZM298.195 79.1094C298.195 76.25 297.586 73.9922 296.367 72.3359C295.148 70.6797 293.477 69.8516 291.352 69.8516C288.727 69.8516 286.758 71.0156 285.445 73.3438V85.4609C286.742 87.7734 288.727 88.9297 291.398 88.9297C293.477 88.9297 295.125 88.1094 296.344 86.4688C297.578 84.8125 298.195 82.3594 298.195 79.1094ZM318.586 92.4688C315.148 92.4688 312.352 91.3438 310.195 89.0938C308.039 86.8281 306.961 83.8047 306.961 80.0234V79.2266C306.961 76.7109 307.438 74.4688 308.391 72.5C309.359 70.5156 310.703 68.9688 312.422 67.8594C314.156 66.7344 316.031 66.1719 318.047 66.1719C321.344 66.1719 323.906 67.2578 325.734 69.4297C327.562 71.6016 328.477 74.7109 328.477 78.7578V80.5625H311.297C311.359 83.0625 312.086 85.0859 313.477 86.6328C314.883 88.1641 316.664 88.9297 318.82 88.9297C320.352 88.9297 321.648 88.6172 322.711 87.9922C323.773 87.3672 324.703 86.5391 325.5 85.5078L328.148 87.5703C326.023 90.8359 322.836 92.4688 318.586 92.4688ZM318.047 69.7344C316.297 69.7344 314.828 70.375 313.641 71.6562C312.453 72.9219 311.719 74.7031 311.438 77H324.141V76.6719C324.016 74.4688 323.422 72.7656 322.359 71.5625C321.297 70.3438 319.859 69.7344 318.047 69.7344ZM361.078 92C360.828 91.5 360.625 90.6094 360.469 89.3281C358.453 91.4219 356.047 92.4688 353.25 92.4688C350.75 92.4688 348.695 91.7656 347.086 90.3594C345.492 88.9375 344.695 87.1406 344.695 84.9688C344.695 82.3281 345.695 80.2812 347.695 78.8281C349.711 77.3594 352.539 76.625 356.18 76.625H360.398V74.6328C360.398 73.1172 359.945 71.9141 359.039 71.0234C358.133 70.1172 356.797 69.6641 355.031 69.6641C353.484 69.6641 352.188 70.0547 351.141 70.8359C350.094 71.6172 349.57 72.5625 349.57 73.6719H345.211C345.211 72.4062 345.656 71.1875 346.547 70.0156C347.453 68.8281 348.672 67.8906 350.203 67.2031C351.75 66.5156 353.445 66.1719 355.289 66.1719C358.211 66.1719 360.5 66.9062 362.156 68.375C363.812 69.8281 364.672 71.8359 364.734 74.3984V86.0703C364.734 88.3984 365.031 90.25 365.625 91.625V92H361.078ZM353.883 88.6953C355.242 88.6953 356.531 88.3438 357.75 87.6406C358.969 86.9375 359.852 86.0234 360.398 84.8984V79.6953H357C351.688 79.6953 349.031 81.25 349.031 84.3594C349.031 85.7188 349.484 86.7812 350.391 87.5469C351.297 88.3125 352.461 88.6953 353.883 88.6953ZM375.633 66.6406L375.773 69.8281C377.711 67.3906 380.242 66.1719 383.367 66.1719C388.727 66.1719 391.43 69.1953 391.477 75.2422V92H387.141V75.2188C387.125 73.3906 386.703 72.0391 385.875 71.1641C385.062 70.2891 383.789 69.8516 382.055 69.8516C380.648 69.8516 379.414 70.2266 378.352 70.9766C377.289 71.7266 376.461 72.7109 375.867 73.9297V92H371.531V66.6406H375.633ZM396.961 79.1094C396.961 75.2188 397.883 72.0938 399.727 69.7344C401.57 67.3594 403.984 66.1719 406.969 66.1719C409.938 66.1719 412.289 67.1875 414.023 69.2188V56H418.359V92H414.375L414.164 89.2812C412.43 91.4062 410.016 92.4688 406.922 92.4688C403.984 92.4688 401.586 91.2656 399.727 88.8594C397.883 86.4531 396.961 83.3125 396.961 79.4375V79.1094ZM401.297 79.6016C401.297 82.4766 401.891 84.7266 403.078 86.3516C404.266 87.9766 405.906 88.7891 408 88.7891C410.75 88.7891 412.758 87.5547 414.023 85.0859V73.4375C412.727 71.0469 410.734 69.8516 408.047 69.8516C405.922 69.8516 404.266 70.6719 403.078 72.3125C401.891 73.9531 401.297 76.3828 401.297 79.6016ZM442.898 60.5V66.6406H447.633V69.9922H442.898V85.7188C442.898 86.7344 443.109 87.5 443.531 88.0156C443.953 88.5156 444.672 88.7656 445.688 88.7656C446.188 88.7656 446.875 88.6719 447.75 88.4844V92C446.609 92.3125 445.5 92.4688 444.422 92.4688C442.484 92.4688 441.023 91.8828 440.039 90.7109C439.055 89.5391 438.562 87.875 438.562 85.7188V69.9922H433.945V66.6406H438.562V60.5H442.898ZM457.055 69.7109C458.977 67.3516 461.477 66.1719 464.555 66.1719C469.914 66.1719 472.617 69.1953 472.664 75.2422V92H468.328V75.2188C468.312 73.3906 467.891 72.0391 467.062 71.1641C466.25 70.2891 464.977 69.8516 463.242 69.8516C461.836 69.8516 460.602 70.2266 459.539 70.9766C458.477 71.7266 457.648 72.7109 457.055 73.9297V92H452.719V56H457.055V69.7109ZM489.68 92.4688C486.242 92.4688 483.445 91.3438 481.289 89.0938C479.133 86.8281 478.055 83.8047 478.055 80.0234V79.2266C478.055 76.7109 478.531 74.4688 479.484 72.5C480.453 70.5156 481.797 68.9688 483.516 67.8594C485.25 66.7344 487.125 66.1719 489.141 66.1719C492.438 66.1719 495 67.2578 496.828 69.4297C498.656 71.6016 499.57 74.7109 499.57 78.7578V80.5625H482.391C482.453 83.0625 483.18 85.0859 484.57 86.6328C485.977 88.1641 487.758 88.9297 489.914 88.9297C491.445 88.9297 492.742 88.6172 493.805 87.9922C494.867 87.3672 495.797 86.5391 496.594 85.5078L499.242 87.5703C497.117 90.8359 493.93 92.4688 489.68 92.4688ZM489.141 69.7344C487.391 69.7344 485.922 70.375 484.734 71.6562C483.547 72.9219 482.812 74.7031 482.531 77H495.234V76.6719C495.109 74.4688 494.516 72.7656 493.453 71.5625C492.391 70.3438 490.953 69.7344 489.141 69.7344ZM508.711 66.6406L508.852 69.8281C510.789 67.3906 513.32 66.1719 516.445 66.1719C521.805 66.1719 524.508 69.1953 524.555 75.2422V92H520.219V75.2188C520.203 73.3906 519.781 72.0391 518.953 71.1641C518.141 70.2891 516.867 69.8516 515.133 69.8516C513.727 69.8516 512.492 70.2266 511.43 70.9766C510.367 71.7266 509.539 72.7109 508.945 73.9297V92H504.609V66.6406H508.711ZM555.258 70.5312C554.602 70.4219 553.891 70.3672 553.125 70.3672C550.281 70.3672 548.352 71.5781 547.336 74V92H543V66.6406H547.219L547.289 69.5703C548.711 67.3047 550.727 66.1719 553.336 66.1719C554.18 66.1719 554.82 66.2812 555.258 66.5V70.5312ZM569.32 92.4688C565.883 92.4688 563.086 91.3438 560.93 89.0938C558.773 86.8281 557.695 83.8047 557.695 80.0234V79.2266C557.695 76.7109 558.172 74.4688 559.125 72.5C560.094 70.5156 561.438 68.9688 563.156 67.8594C564.891 66.7344 566.766 66.1719 568.781 66.1719C572.078 66.1719 574.641 67.2578 576.469 69.4297C578.297 71.6016 579.211 74.7109 579.211 78.7578V80.5625H562.031C562.094 83.0625 562.82 85.0859 564.211 86.6328C565.617 88.1641 567.398 88.9297 569.555 88.9297C571.086 88.9297 572.383 88.6172 573.445 87.9922C574.508 87.3672 575.438 86.5391 576.234 85.5078L578.883 87.5703C576.758 90.8359 573.57 92.4688 569.32 92.4688ZM568.781 69.7344C567.031 69.7344 565.562 70.375 564.375 71.6562C563.188 72.9219 562.453 74.7031 562.172 77H574.875V76.6719C574.75 74.4688 574.156 72.7656 573.094 71.5625C572.031 70.3438 570.594 69.7344 568.781 69.7344ZM599.016 85.2734C599.016 84.1016 598.57 83.1953 597.68 82.5547C596.805 81.8984 595.266 81.3359 593.062 80.8672C590.875 80.3984 589.133 79.8359 587.836 79.1797C586.555 78.5234 585.602 77.7422 584.977 76.8359C584.367 75.9297 584.062 74.8516 584.062 73.6016C584.062 71.5234 584.938 69.7656 586.688 68.3281C588.453 66.8906 590.703 66.1719 593.438 66.1719C596.312 66.1719 598.641 66.9141 600.422 68.3984C602.219 69.8828 603.117 71.7812 603.117 74.0938H598.758C598.758 72.9062 598.25 71.8828 597.234 71.0234C596.234 70.1641 594.969 69.7344 593.438 69.7344C591.859 69.7344 590.625 70.0781 589.734 70.7656C588.844 71.4531 588.398 72.3516 588.398 73.4609C588.398 74.5078 588.812 75.2969 589.641 75.8281C590.469 76.3594 591.961 76.8672 594.117 77.3516C596.289 77.8359 598.047 78.4141 599.391 79.0859C600.734 79.7578 601.727 80.5703 602.367 81.5234C603.023 82.4609 603.352 83.6094 603.352 84.9688C603.352 87.2344 602.445 89.0547 600.633 90.4297C598.82 91.7891 596.469 92.4688 593.578 92.4688C591.547 92.4688 589.75 92.1094 588.188 91.3906C586.625 90.6719 585.398 89.6719 584.508 88.3906C583.633 87.0938 583.195 85.6953 583.195 84.1953H587.531C587.609 85.6484 588.188 86.8047 589.266 87.6641C590.359 88.5078 591.797 88.9297 593.578 88.9297C595.219 88.9297 596.531 88.6016 597.516 87.9453C598.516 87.2734 599.016 86.3828 599.016 85.2734ZM613.336 69.7109C615.258 67.3516 617.758 66.1719 620.836 66.1719C626.195 66.1719 628.898 69.1953 628.945 75.2422V92H624.609V75.2188C624.594 73.3906 624.172 72.0391 623.344 71.1641C622.531 70.2891 621.258 69.8516 619.523 69.8516C618.117 69.8516 616.883 70.2266 615.82 70.9766C614.758 71.7266 613.93 72.7109 613.336 73.9297V92H609V56H613.336V69.7109ZM651.094 92C650.844 91.5 650.641 90.6094 650.484 89.3281C648.469 91.4219 646.062 92.4688 643.266 92.4688C640.766 92.4688 638.711 91.7656 637.102 90.3594C635.508 88.9375 634.711 87.1406 634.711 84.9688C634.711 82.3281 635.711 80.2812 637.711 78.8281C639.727 77.3594 642.555 76.625 646.195 76.625H650.414V74.6328C650.414 73.1172 649.961 71.9141 649.055 71.0234C648.148 70.1172 646.812 69.6641 645.047 69.6641C643.5 69.6641 642.203 70.0547 641.156 70.8359C640.109 71.6172 639.586 72.5625 639.586 73.6719H635.227C635.227 72.4062 635.672 71.1875 636.562 70.0156C637.469 68.8281 638.688 67.8906 640.219 67.2031C641.766 66.5156 643.461 66.1719 645.305 66.1719C648.227 66.1719 650.516 66.9062 652.172 68.375C653.828 69.8281 654.688 71.8359 654.75 74.3984V86.0703C654.75 88.3984 655.047 90.25 655.641 91.625V92H651.094ZM643.898 88.6953C645.258 88.6953 646.547 88.3438 647.766 87.6406C648.984 86.9375 649.867 86.0234 650.414 84.8984V79.6953H647.016C641.703 79.6953 639.047 81.25 639.047 84.3594C639.047 85.7188 639.5 86.7812 640.406 87.5469C641.312 88.3125 642.477 88.6953 643.898 88.6953ZM682.969 79.6016C682.969 83.4609 682.086 86.5703 680.32 88.9297C678.555 91.2891 676.164 92.4688 673.148 92.4688C670.07 92.4688 667.648 91.4922 665.883 89.5391V101.75H661.547V66.6406H665.508L665.719 69.4531C667.484 67.2656 669.938 66.1719 673.078 66.1719C676.125 66.1719 678.531 67.3203 680.297 69.6172C682.078 71.9141 682.969 75.1094 682.969 79.2031V79.6016ZM678.633 79.1094C678.633 76.25 678.023 73.9922 676.805 72.3359C675.586 70.6797 673.914 69.8516 671.789 69.8516C669.164 69.8516 667.195 71.0156 665.883 73.3438V85.4609C667.18 87.7734 669.164 88.9297 671.836 88.9297C673.914 88.9297 675.562 88.1094 676.781 86.4688C678.016 84.8125 678.633 82.3594 678.633 79.1094ZM699.023 92.4688C695.586 92.4688 692.789 91.3438 690.633 89.0938C688.477 86.8281 687.398 83.8047 687.398 80.0234V79.2266C687.398 76.7109 687.875 74.4688 688.828 72.5C689.797 70.5156 691.141 68.9688 692.859 67.8594C694.594 66.7344 696.469 66.1719 698.484 66.1719C701.781 66.1719 704.344 67.2578 706.172 69.4297C708 71.6016 708.914 74.7109 708.914 78.7578V80.5625H691.734C691.797 83.0625 692.523 85.0859 693.914 86.6328C695.32 88.1641 697.102 88.9297 699.258 88.9297C700.789 88.9297 702.086 88.6172 703.148 87.9922C704.211 87.3672 705.141 86.5391 705.938 85.5078L708.586 87.5703C706.461 90.8359 703.273 92.4688 699.023 92.4688ZM698.484 69.7344C696.734 69.7344 695.266 70.375 694.078 71.6562C692.891 72.9219 692.156 74.7031 691.875 77H704.578V76.6719C704.453 74.4688 703.859 72.7656 702.797 71.5625C701.734 70.3438 700.297 69.7344 698.484 69.7344ZM731.742 60.5V66.6406H736.477V69.9922H731.742V85.7188C731.742 86.7344 731.953 87.5 732.375 88.0156C732.797 88.5156 733.516 88.7656 734.531 88.7656C735.031 88.7656 735.719 88.6719 736.594 88.4844V92C735.453 92.3125 734.344 92.4688 733.266 92.4688C731.328 92.4688 729.867 91.8828 728.883 90.7109C727.898 89.5391 727.406 87.875 727.406 85.7188V69.9922H722.789V66.6406H727.406V60.5H731.742ZM745.898 69.7109C747.82 67.3516 750.32 66.1719 753.398 66.1719C758.758 66.1719 761.461 69.1953 761.508 75.2422V92H757.172V75.2188C757.156 73.3906 756.734 72.0391 755.906 71.1641C755.094 70.2891 753.82 69.8516 752.086 69.8516C750.68 69.8516 749.445 70.2266 748.383 70.9766C747.32 71.7266 746.492 72.7109 745.898 73.9297V92H741.562V56H745.898V69.7109ZM778.523 92.4688C775.086 92.4688 772.289 91.3438 770.133 89.0938C767.977 86.8281 766.898 83.8047 766.898 80.0234V79.2266C766.898 76.7109 767.375 74.4688 768.328 72.5C769.297 70.5156 770.641 68.9688 772.359 67.8594C774.094 66.7344 775.969 66.1719 777.984 66.1719C781.281 66.1719 783.844 67.2578 785.672 69.4297C787.5 71.6016 788.414 74.7109 788.414 78.7578V80.5625H771.234C771.297 83.0625 772.023 85.0859 773.414 86.6328C774.82 88.1641 776.602 88.9297 778.758 88.9297C780.289 88.9297 781.586 88.6172 782.648 87.9922C783.711 87.3672 784.641 86.5391 785.438 85.5078L788.086 87.5703C785.961 90.8359 782.773 92.4688 778.523 92.4688ZM777.984 69.7344C776.234 69.7344 774.766 70.375 773.578 71.6562C772.391 72.9219 771.656 74.7031 771.375 77H784.078V76.6719C783.953 74.4688 783.359 72.7656 782.297 71.5625C781.234 70.3438 779.797 69.7344 777.984 69.7344ZM798.164 92H793.828V66.6406H798.164V92ZM793.477 59.9141C793.477 59.2109 793.688 58.6172 794.109 58.1328C794.547 57.6484 795.188 57.4062 796.031 57.4062C796.875 57.4062 797.516 57.6484 797.953 58.1328C798.391 58.6172 798.609 59.2109 798.609 59.9141C798.609 60.6172 798.391 61.2031 797.953 61.6719C797.516 62.1406 796.875 62.375 796.031 62.375C795.188 62.375 794.547 62.1406 794.109 61.6719C793.688 61.2031 793.477 60.6172 793.477 59.9141ZM817.383 70.5312C816.727 70.4219 816.016 70.3672 815.25 70.3672C812.406 70.3672 810.477 71.5781 809.461 74V92H805.125V66.6406H809.344L809.414 69.5703C810.836 67.3047 812.852 66.1719 815.461 66.1719C816.305 66.1719 816.945 66.2812 817.383 66.5V70.5312ZM855.75 86.0234L860.625 66.6406H864.961L857.578 92H854.062L847.898 72.7812L841.898 92H838.383L831.023 66.6406H835.336L840.328 85.625L846.234 66.6406H849.727L855.75 86.0234ZM868.242 79.0859C868.242 76.6016 868.727 74.3672 869.695 72.3828C870.68 70.3984 872.039 68.8672 873.773 67.7891C875.523 66.7109 877.516 66.1719 879.75 66.1719C883.203 66.1719 885.992 67.3672 888.117 69.7578C890.258 72.1484 891.328 75.3281 891.328 79.2969V79.6016C891.328 82.0703 890.852 84.2891 889.898 86.2578C888.961 88.2109 887.609 89.7344 885.844 90.8281C884.094 91.9219 882.078 92.4688 879.797 92.4688C876.359 92.4688 873.57 91.2734 871.43 88.8828C869.305 86.4922 868.242 83.3281 868.242 79.3906V79.0859ZM872.602 79.6016C872.602 82.4141 873.25 84.6719 874.547 86.375C875.859 88.0781 877.609 88.9297 879.797 88.9297C882 88.9297 883.75 88.0703 885.047 86.3516C886.344 84.6172 886.992 82.1953 886.992 79.0859C886.992 76.3047 886.328 74.0547 885 72.3359C883.688 70.6016 881.938 69.7344 879.75 69.7344C877.609 69.7344 875.883 70.5859 874.57 72.2891C873.258 73.9922 872.602 76.4297 872.602 79.6016ZM909.023 70.5312C908.367 70.4219 907.656 70.3672 906.891 70.3672C904.047 70.3672 902.117 71.5781 901.102 74V92H896.766V66.6406H900.984L901.055 69.5703C902.477 67.3047 904.492 66.1719 907.102 66.1719C907.945 66.1719 908.586 66.2812 909.023 66.5V70.5312ZM920.109 80.2578L917.391 83.0938V92H913.055V56H917.391V77.7734L919.711 74.9844L927.609 66.6406H932.883L923.016 77.2344L934.031 92H928.945L920.109 80.2578ZM13.8047 148.469C10.3672 148.469 7.57031 147.344 5.41406 145.094C3.25781 142.828 2.17969 139.805 2.17969 136.023V135.227C2.17969 132.711 2.65625 130.469 3.60938 128.5C4.57812 126.516 5.92188 124.969 7.64062 123.859C9.375 122.734 11.25 122.172 13.2656 122.172C16.5625 122.172 19.125 123.258 20.9531 125.43C22.7812 127.602 23.6953 130.711 23.6953 134.758V136.562H6.51562C6.57812 139.062 7.30469 141.086 8.69531 142.633C10.1016 144.164 11.8828 144.93 14.0391 144.93C15.5703 144.93 16.8672 144.617 17.9297 143.992C18.9922 143.367 19.9219 142.539 20.7188 141.508L23.3672 143.57C21.2422 146.836 18.0547 148.469 13.8047 148.469ZM13.2656 125.734C11.5156 125.734 10.0469 126.375 8.85938 127.656C7.67188 128.922 6.9375 130.703 6.65625 133H19.3594V132.672C19.2344 130.469 18.6406 128.766 17.5781 127.562C16.5156 126.344 15.0781 125.734 13.2656 125.734ZM32.8359 122.641L32.9766 125.828C34.9141 123.391 37.4453 122.172 40.5703 122.172C45.9297 122.172 48.6328 125.195 48.6797 131.242V148H44.3438V131.219C44.3281 129.391 43.9062 128.039 43.0781 127.164C42.2656 126.289 40.9922 125.852 39.2578 125.852C37.8516 125.852 36.6172 126.227 35.5547 126.977C34.4922 127.727 33.6641 128.711 33.0703 129.93V148H28.7344V122.641H32.8359ZM63.5859 142.117L69.8672 122.641H74.2969L65.2031 148H61.8984L52.7109 122.641H57.1406L63.5859 142.117ZM83.1797 148H78.8438V122.641H83.1797V148ZM78.4922 115.914C78.4922 115.211 78.7031 114.617 79.125 114.133C79.5625 113.648 80.2031 113.406 81.0469 113.406C81.8906 113.406 82.5312 113.648 82.9688 114.133C83.4062 114.617 83.625 115.211 83.625 115.914C83.625 116.617 83.4062 117.203 82.9688 117.672C82.5312 118.141 81.8906 118.375 81.0469 118.375C80.2031 118.375 79.5625 118.141 79.125 117.672C78.7031 117.203 78.4922 116.617 78.4922 115.914ZM102.398 126.531C101.742 126.422 101.031 126.367 100.266 126.367C97.4219 126.367 95.4922 127.578 94.4766 130V148H90.1406V122.641H94.3594L94.4297 125.57C95.8516 123.305 97.8672 122.172 100.477 122.172C101.32 122.172 101.961 122.281 102.398 122.5V126.531ZM104.789 135.086C104.789 132.602 105.273 130.367 106.242 128.383C107.227 126.398 108.586 124.867 110.32 123.789C112.07 122.711 114.062 122.172 116.297 122.172C119.75 122.172 122.539 123.367 124.664 125.758C126.805 128.148 127.875 131.328 127.875 135.297V135.602C127.875 138.07 127.398 140.289 126.445 142.258C125.508 144.211 124.156 145.734 122.391 146.828C120.641 147.922 118.625 148.469 116.344 148.469C112.906 148.469 110.117 147.273 107.977 144.883C105.852 142.492 104.789 139.328 104.789 135.391V135.086ZM109.148 135.602C109.148 138.414 109.797 140.672 111.094 142.375C112.406 144.078 114.156 144.93 116.344 144.93C118.547 144.93 120.297 144.07 121.594 142.352C122.891 140.617 123.539 138.195 123.539 135.086C123.539 132.305 122.875 130.055 121.547 128.336C120.234 126.602 118.484 125.734 116.297 125.734C114.156 125.734 112.43 126.586 111.117 128.289C109.805 129.992 109.148 132.43 109.148 135.602ZM137.414 122.641L137.555 125.828C139.492 123.391 142.023 122.172 145.148 122.172C150.508 122.172 153.211 125.195 153.258 131.242V148H148.922V131.219C148.906 129.391 148.484 128.039 147.656 127.164C146.844 126.289 145.57 125.852 143.836 125.852C142.43 125.852 141.195 126.227 140.133 126.977C139.07 127.727 138.242 128.711 137.648 129.93V148H133.312V122.641H137.414ZM163.875 122.641L163.992 125.453C165.852 123.266 168.359 122.172 171.516 122.172C175.062 122.172 177.477 123.531 178.758 126.25C179.602 125.031 180.695 124.047 182.039 123.297C183.398 122.547 185 122.172 186.844 122.172C192.406 122.172 195.234 125.117 195.328 131.008V148H190.992V131.266C190.992 129.453 190.578 128.102 189.75 127.211C188.922 126.305 187.531 125.852 185.578 125.852C183.969 125.852 182.633 126.336 181.57 127.305C180.508 128.258 179.891 129.547 179.719 131.172V148H175.359V131.383C175.359 127.695 173.555 125.852 169.945 125.852C167.102 125.852 165.156 127.062 164.109 129.484V148H159.773V122.641H163.875ZM212.414 148.469C208.977 148.469 206.18 147.344 204.023 145.094C201.867 142.828 200.789 139.805 200.789 136.023V135.227C200.789 132.711 201.266 130.469 202.219 128.5C203.188 126.516 204.531 124.969 206.25 123.859C207.984 122.734 209.859 122.172 211.875 122.172C215.172 122.172 217.734 123.258 219.562 125.43C221.391 127.602 222.305 130.711 222.305 134.758V136.562H205.125C205.188 139.062 205.914 141.086 207.305 142.633C208.711 144.164 210.492 144.93 212.648 144.93C214.18 144.93 215.477 144.617 216.539 143.992C217.602 143.367 218.531 142.539 219.328 141.508L221.977 143.57C219.852 146.836 216.664 148.469 212.414 148.469ZM211.875 125.734C210.125 125.734 208.656 126.375 207.469 127.656C206.281 128.922 205.547 130.703 205.266 133H217.969V132.672C217.844 130.469 217.25 128.766 216.188 127.562C215.125 126.344 213.688 125.734 211.875 125.734ZM231.445 122.641L231.586 125.828C233.523 123.391 236.055 122.172 239.18 122.172C244.539 122.172 247.242 125.195 247.289 131.242V148H242.953V131.219C242.938 129.391 242.516 128.039 241.688 127.164C240.875 126.289 239.602 125.852 237.867 125.852C236.461 125.852 235.227 126.227 234.164 126.977C233.102 127.727 232.273 128.711 231.68 129.93V148H227.344V122.641H231.445ZM259.711 116.5V122.641H264.445V125.992H259.711V141.719C259.711 142.734 259.922 143.5 260.344 144.016C260.766 144.516 261.484 144.766 262.5 144.766C263 144.766 263.688 144.672 264.562 144.484V148C263.422 148.312 262.312 148.469 261.234 148.469C259.297 148.469 257.836 147.883 256.852 146.711C255.867 145.539 255.375 143.875 255.375 141.719V125.992H250.758V122.641H255.375V116.5H259.711ZM303.891 142.023L308.766 122.641H313.102L305.719 148H302.203L296.039 128.781L290.039 148H286.523L279.164 122.641H283.477L288.469 141.625L294.375 122.641H297.867L303.891 142.023ZM322.242 148H317.906V122.641H322.242V148ZM317.555 115.914C317.555 115.211 317.766 114.617 318.188 114.133C318.625 113.648 319.266 113.406 320.109 113.406C320.953 113.406 321.594 113.648 322.031 114.133C322.469 114.617 322.688 115.211 322.688 115.914C322.688 116.617 322.469 117.203 322.031 117.672C321.594 118.141 320.953 118.375 320.109 118.375C319.266 118.375 318.625 118.141 318.188 117.672C317.766 117.203 317.555 116.617 317.555 115.914ZM335.086 116.5V122.641H339.82V125.992H335.086V141.719C335.086 142.734 335.297 143.5 335.719 144.016C336.141 144.516 336.859 144.766 337.875 144.766C338.375 144.766 339.062 144.672 339.938 144.484V148C338.797 148.312 337.688 148.469 336.609 148.469C334.672 148.469 333.211 147.883 332.227 146.711C331.242 145.539 330.75 143.875 330.75 141.719V125.992H326.133V122.641H330.75V116.5H335.086ZM349.242 125.711C351.164 123.352 353.664 122.172 356.742 122.172C362.102 122.172 364.805 125.195 364.852 131.242V148H360.516V131.219C360.5 129.391 360.078 128.039 359.25 127.164C358.438 126.289 357.164 125.852 355.43 125.852C354.023 125.852 352.789 126.227 351.727 126.977C350.664 127.727 349.836 128.711 349.242 129.93V148H344.906V112H349.242V125.711ZM393.773 148.469C390.336 148.469 387.539 147.344 385.383 145.094C383.227 142.828 382.148 139.805 382.148 136.023V135.227C382.148 132.711 382.625 130.469 383.578 128.5C384.547 126.516 385.891 124.969 387.609 123.859C389.344 122.734 391.219 122.172 393.234 122.172C396.531 122.172 399.094 123.258 400.922 125.43C402.75 127.602 403.664 130.711 403.664 134.758V136.562H386.484C386.547 139.062 387.273 141.086 388.664 142.633C390.07 144.164 391.852 144.93 394.008 144.93C395.539 144.93 396.836 144.617 397.898 143.992C398.961 143.367 399.891 142.539 400.688 141.508L403.336 143.57C401.211 146.836 398.023 148.469 393.773 148.469ZM393.234 125.734C391.484 125.734 390.016 126.375 388.828 127.656C387.641 128.922 386.906 130.703 386.625 133H399.328V132.672C399.203 130.469 398.609 128.766 397.547 127.562C396.484 126.344 395.047 125.734 393.234 125.734ZM424.359 148C424.109 147.5 423.906 146.609 423.75 145.328C421.734 147.422 419.328 148.469 416.531 148.469C414.031 148.469 411.977 147.766 410.367 146.359C408.773 144.938 407.977 143.141 407.977 140.969C407.977 138.328 408.977 136.281 410.977 134.828C412.992 133.359 415.82 132.625 419.461 132.625H423.68V130.633C423.68 129.117 423.227 127.914 422.32 127.023C421.414 126.117 420.078 125.664 418.312 125.664C416.766 125.664 415.469 126.055 414.422 126.836C413.375 127.617 412.852 128.562 412.852 129.672H408.492C408.492 128.406 408.938 127.188 409.828 126.016C410.734 124.828 411.953 123.891 413.484 123.203C415.031 122.516 416.727 122.172 418.57 122.172C421.492 122.172 423.781 122.906 425.438 124.375C427.094 125.828 427.953 127.836 428.016 130.398V142.07C428.016 144.398 428.312 146.25 428.906 147.625V148H424.359ZM417.164 144.695C418.523 144.695 419.812 144.344 421.031 143.641C422.25 142.938 423.133 142.023 423.68 140.898V135.695H420.281C414.969 135.695 412.312 137.25 412.312 140.359C412.312 141.719 412.766 142.781 413.672 143.547C414.578 144.312 415.742 144.695 417.164 144.695ZM449.578 141.273C449.578 140.102 449.133 139.195 448.242 138.555C447.367 137.898 445.828 137.336 443.625 136.867C441.438 136.398 439.695 135.836 438.398 135.18C437.117 134.523 436.164 133.742 435.539 132.836C434.93 131.93 434.625 130.852 434.625 129.602C434.625 127.523 435.5 125.766 437.25 124.328C439.016 122.891 441.266 122.172 444 122.172C446.875 122.172 449.203 122.914 450.984 124.398C452.781 125.883 453.68 127.781 453.68 130.094H449.32C449.32 128.906 448.812 127.883 447.797 127.023C446.797 126.164 445.531 125.734 444 125.734C442.422 125.734 441.188 126.078 440.297 126.766C439.406 127.453 438.961 128.352 438.961 129.461C438.961 130.508 439.375 131.297 440.203 131.828C441.031 132.359 442.523 132.867 444.68 133.352C446.852 133.836 448.609 134.414 449.953 135.086C451.297 135.758 452.289 136.57 452.93 137.523C453.586 138.461 453.914 139.609 453.914 140.969C453.914 143.234 453.008 145.055 451.195 146.43C449.383 147.789 447.031 148.469 444.141 148.469C442.109 148.469 440.312 148.109 438.75 147.391C437.188 146.672 435.961 145.672 435.07 144.391C434.195 143.094 433.758 141.695 433.758 140.195H438.094C438.172 141.648 438.75 142.805 439.828 143.664C440.922 144.508 442.359 144.93 444.141 144.93C445.781 144.93 447.094 144.602 448.078 143.945C449.078 143.273 449.578 142.383 449.578 141.273ZM470.086 148.469C466.648 148.469 463.852 147.344 461.695 145.094C459.539 142.828 458.461 139.805 458.461 136.023V135.227C458.461 132.711 458.938 130.469 459.891 128.5C460.859 126.516 462.203 124.969 463.922 123.859C465.656 122.734 467.531 122.172 469.547 122.172C472.844 122.172 475.406 123.258 477.234 125.43C479.062 127.602 479.977 130.711 479.977 134.758V136.562H462.797C462.859 139.062 463.586 141.086 464.977 142.633C466.383 144.164 468.164 144.93 470.32 144.93C471.852 144.93 473.148 144.617 474.211 143.992C475.273 143.367 476.203 142.539 477 141.508L479.648 143.57C477.523 146.836 474.336 148.469 470.086 148.469ZM469.547 125.734C467.797 125.734 466.328 126.375 465.141 127.656C463.953 128.922 463.219 130.703 462.938 133H475.641V132.672C475.516 130.469 474.922 128.766 473.859 127.562C472.797 126.344 471.359 125.734 469.547 125.734ZM485.109 145.727C485.109 144.977 485.328 144.352 485.766 143.852C486.219 143.352 486.891 143.102 487.781 143.102C488.672 143.102 489.344 143.352 489.797 143.852C490.266 144.352 490.5 144.977 490.5 145.727C490.5 146.445 490.266 147.047 489.797 147.531C489.344 148.016 488.672 148.258 487.781 148.258C486.891 148.258 486.219 148.016 485.766 147.531C485.328 147.047 485.109 146.445 485.109 145.727Z" fill="#1A1A1A"/>
<path d="M8.50391 193.694C8.16667 194.177 7.69499 194.54 7.08887 194.781C6.4873 195.018 5.78548 195.137 4.9834 195.137C4.1722 195.137 3.45215 194.948 2.82324 194.569C2.19434 194.187 1.70671 193.644 1.36035 192.942C1.01855 192.241 0.843099 191.427 0.833984 190.502V189.634C0.833984 188.134 1.18262 186.972 1.87988 186.147C2.58171 185.323 3.56608 184.91 4.83301 184.91C5.87207 184.91 6.70833 185.177 7.3418 185.71C7.97526 186.239 8.36263 186.991 8.50391 187.966H7.19141C6.94531 186.649 6.16146 185.99 4.83984 185.99C3.96029 185.99 3.29264 186.3 2.83691 186.92C2.38574 187.535 2.15788 188.428 2.15332 189.6V190.413C2.15332 191.53 2.40853 192.418 2.91895 193.079C3.42936 193.735 4.11979 194.063 4.99023 194.063C5.48242 194.063 5.91309 194.009 6.28223 193.899C6.65137 193.79 6.95671 193.605 7.19824 193.346V191.11H4.89453V190.044H8.50391V193.694ZM17.0742 190.399H12.7607V193.927H17.7715V195H11.4482V185.047H17.7031V186.127H12.7607V189.326H17.0742V190.399ZM27.1689 186.127H23.9697V195H22.6641V186.127H19.4717V185.047H27.1689V186.127ZM34.7529 195H33.4404V185.047H34.7529V195ZM45.5586 195H44.2393L39.2285 187.33V195H37.9092V185.047H39.2285L44.2529 192.751V185.047H45.5586V195ZM59.4658 186.127H56.2666V195H54.9609V186.127H51.7686V185.047H59.4658V186.127ZM69.1572 190.345C69.1572 191.32 68.9932 192.172 68.665 192.901C68.3369 193.626 67.8721 194.18 67.2705 194.562C66.6689 194.945 65.9671 195.137 65.165 195.137C64.3812 195.137 63.6862 194.945 63.0801 194.562C62.474 194.175 62.0023 193.626 61.665 192.915C61.3324 192.2 61.1615 191.372 61.1523 190.434V189.716C61.1523 188.759 61.3187 187.913 61.6514 187.18C61.984 186.446 62.4535 185.885 63.0596 185.498C63.6702 185.106 64.3675 184.91 65.1514 184.91C65.9489 184.91 66.6507 185.104 67.2568 185.491C67.8675 185.874 68.3369 186.432 68.665 187.166C68.9932 187.895 69.1572 188.745 69.1572 189.716V190.345ZM67.8516 189.702C67.8516 188.522 67.6146 187.617 67.1406 186.988C66.6667 186.355 66.0036 186.038 65.1514 186.038C64.3219 186.038 63.668 186.355 63.1895 186.988C62.7155 187.617 62.4717 188.492 62.458 189.613V190.345C62.458 191.489 62.6973 192.389 63.1758 193.045C63.6589 193.697 64.3219 194.022 65.165 194.022C66.0127 194.022 66.6689 193.715 67.1338 193.1C67.5986 192.48 67.8379 191.593 67.8516 190.44V189.702ZM78.8828 185.047V191.814C78.8783 192.753 78.582 193.521 77.9941 194.118C77.4108 194.715 76.6178 195.05 75.6152 195.123L75.2666 195.137C74.1774 195.137 73.3092 194.843 72.6621 194.255C72.015 193.667 71.6868 192.858 71.6777 191.828V185.047H72.9766V191.787C72.9766 192.507 73.1748 193.068 73.5713 193.469C73.9678 193.865 74.5329 194.063 75.2666 194.063C76.0094 194.063 76.5768 193.865 76.9688 193.469C77.3652 193.072 77.5635 192.514 77.5635 191.794V185.047H78.8828ZM89.0254 191.842C88.9023 192.895 88.5127 193.708 87.8564 194.282C87.2048 194.852 86.3366 195.137 85.252 195.137C84.0762 195.137 83.1328 194.715 82.4219 193.872C81.7155 193.029 81.3623 191.901 81.3623 190.488V189.531C81.3623 188.606 81.5264 187.793 81.8545 187.091C82.1872 186.389 82.6566 185.851 83.2627 185.478C83.8688 185.099 84.5706 184.91 85.3682 184.91C86.4255 184.91 87.2731 185.206 87.9111 185.799C88.5492 186.387 88.9206 187.202 89.0254 188.246H87.7061C87.5921 187.453 87.3438 186.879 86.9609 186.523C86.5827 186.168 86.0518 185.99 85.3682 185.99C84.5296 185.99 83.8711 186.3 83.3926 186.92C82.9186 187.54 82.6816 188.422 82.6816 189.565V190.529C82.6816 191.609 82.9072 192.468 83.3584 193.106C83.8096 193.744 84.4408 194.063 85.252 194.063C85.9811 194.063 86.5394 193.899 86.9268 193.571C87.3187 193.239 87.5785 192.662 87.7061 191.842H89.0254ZM99.2227 195H97.9033V190.399H92.8857V195H91.5732V185.047H92.8857V189.326H97.9033V185.047H99.2227V195Z" fill="#46856E"/>
</svg>
