<svg width="9" height="143" viewBox="0 0 9 143" fill="none" xmlns="http://www.w3.org/2000/svg">
<path d="M4.83643 139.224V141.061H8V142.098H0.179688L0.179688 139.509C0.179688 138.628 0.380208 137.951 0.78125 137.479C1.18229 137.002 1.76595 136.764 2.53223 136.764C3.01921 136.764 3.44352 136.897 3.80518 137.162C4.16683 137.423 4.43717 137.788 4.61621 138.257L7.93555 136.42H8V137.527L4.83643 139.224ZM3.99316 141.061V139.477C3.99316 138.965 3.86068 138.558 3.5957 138.257C3.33073 137.953 2.97624 137.801 2.53223 137.801C2.04883 137.801 1.67822 137.946 1.42041 138.236C1.1626 138.522 1.0319 138.938 1.02832 139.482L1.02832 141.061H3.99316ZM4.38525 128.494V131.883H7.15674L7.15674 127.946H8L8 132.914H0.179688V127.999H1.02832V131.883H3.54199V128.494H4.38525ZM1.02832 118.751L1.02832 121.265H8V122.291H1.02832V124.799H0.179688L0.179688 118.751H1.02832ZM0.179688 109.686H5.49707C6.2347 109.689 6.83805 109.922 7.30713 110.384C7.7762 110.842 8.03939 111.465 8.09668 112.253L8.10742 112.527C8.10742 113.383 7.87646 114.065 7.41455 114.573C6.95264 115.082 6.31706 115.34 5.50781 115.347H0.179688L0.179688 114.326H5.47559C6.04134 114.326 6.48177 114.171 6.79688 113.859C7.1084 113.548 7.26416 113.104 7.26416 112.527C7.26416 111.943 7.1084 111.498 6.79688 111.19C6.48535 110.878 6.04671 110.722 5.48096 110.722H0.179688V109.686ZM4.83643 102.79V104.627H8L8 105.664H0.179688V103.075C0.179688 102.194 0.380208 101.517 0.78125 101.045C1.18229 100.568 1.76595 100.33 2.53223 100.33C3.01921 100.33 3.44352 100.463 3.80518 100.728C4.16683 100.989 4.43717 101.354 4.61621 101.823L7.93555 99.9864H8V101.093L4.83643 102.79ZM3.99316 104.627V103.043C3.99316 102.531 3.86068 102.124 3.5957 101.823C3.33073 101.519 2.97624 101.367 2.53223 101.367C2.04883 101.367 1.67822 101.512 1.42041 101.802C1.1626 102.088 1.0319 102.504 1.02832 103.048V104.627H3.99316ZM8 90.4697V91.5063L1.97363 95.4434H8V96.48H0.179688L0.179688 95.4434L6.23291 91.4956H0.179688V90.4697H8ZM1.02832 75.9212L1.02832 78.4349H8V79.4607H1.02832V81.969H0.179688L0.179688 75.9212H1.02832ZM4.34229 66.4958C5.10856 66.4958 5.77816 66.6247 6.35107 66.8825C6.92041 67.1403 7.35547 67.5056 7.65625 67.9782C7.95703 68.4509 8.10742 69.0023 8.10742 69.6325C8.10742 70.2484 7.95703 70.7945 7.65625 71.2707C7.35189 71.7469 6.92041 72.1175 6.36182 72.3825C5.79964 72.6439 5.14974 72.7782 4.41211 72.7854H3.84814C3.09619 72.7854 2.43197 72.6547 1.85547 72.3933C1.27897 72.1319 0.838542 71.7631 0.53418 71.2868C0.226237 70.807 0.0722656 70.2592 0.0722656 69.6433C0.0722656 69.0166 0.224447 68.4652 0.528809 67.989C0.82959 67.5092 1.26823 67.1403 1.84473 66.8825C2.41764 66.6247 3.08545 66.4958 3.84814 66.4958H4.34229ZM3.8374 67.5217C2.90999 67.5217 2.19922 67.7079 1.70508 68.0803C1.20736 68.4527 0.958496 68.9737 0.958496 69.6433C0.958496 70.295 1.20736 70.8088 1.70508 71.1848C2.19922 71.5572 2.88672 71.7487 3.76758 71.7595H4.34229C5.24105 71.7595 5.94824 71.5715 6.46387 71.1955C6.97591 70.816 7.23193 70.295 7.23193 69.6325C7.23193 68.9665 6.99023 68.4509 6.50684 68.0856C6.01986 67.7204 5.3234 67.5324 4.41748 67.5217H3.8374ZM1.02832 52.2319L1.02832 54.7456H8L8 55.7715H1.02832V58.2798H0.179688L0.179688 52.2319H1.02832ZM8 42.6615V43.6981H4.38525V47.6405H8V48.6718H0.179688V47.6405H3.54199V43.6981H0.179688V42.6615H8ZM4.38525 34.0096L4.38525 37.3987H7.15674V33.4617H8V38.43H0.179688L0.179688 33.5154H1.02832L1.02832 37.3987H3.54199L3.54199 34.0096H4.38525ZM1.02832 19.461L1.02832 21.9747H8V23.0006H1.02832V25.5089H0.179688L0.179688 19.461H1.02832ZM4.34229 10.0356C5.10856 10.0356 5.77816 10.1646 6.35107 10.4224C6.92041 10.6802 7.35547 11.0454 7.65625 11.5181C7.95703 11.9907 8.10742 12.5422 8.10742 13.1724C8.10742 13.7882 7.95703 14.3343 7.65625 14.8105C7.35189 15.2868 6.92041 15.6574 6.36182 15.9224C5.79964 16.1838 5.14974 16.318 4.41211 16.3252H3.84814C3.09619 16.3252 2.43197 16.1945 1.85547 15.9331C1.27897 15.6717 0.838542 15.3029 0.53418 14.8267C0.226237 14.3468 0.0722656 13.799 0.0722656 13.1831C0.0722656 12.5565 0.224447 12.005 0.528809 11.5288C0.82959 11.049 1.26823 10.6802 1.84473 10.4224C2.41764 10.1646 3.08545 10.0356 3.84814 10.0356H4.34229ZM3.8374 11.0615C2.90999 11.0615 2.19922 11.2477 1.70508 11.6201C1.20736 11.9925 0.958496 12.5135 0.958496 13.1831C0.958496 13.8348 1.20736 14.3486 1.70508 14.7246C2.19922 15.097 2.88672 15.2886 3.76758 15.2993H4.34229C5.24105 15.2993 5.94824 15.1113 6.46387 14.7354C6.97591 14.3558 7.23193 13.8348 7.23193 13.1724C7.23193 12.5063 6.99023 11.9907 6.50684 11.6255C6.01986 11.2603 5.3234 11.0723 4.41748 11.0615H3.8374ZM4.93848 5.05753H8L8 6.08878H0.179688V3.2045C0.179688 2.3487 0.398112 1.67911 0.834961 1.19571C1.27181 0.70873 1.8501 0.46524 2.56982 0.46524C3.32894 0.46524 3.91439 0.703359 4.32617 1.1796C4.73438 1.65225 4.93848 2.3308 4.93848 3.21524V5.05753ZM4.09521 5.05753V3.2045C4.09521 2.65307 3.96631 2.23054 3.7085 1.93692C3.4471 1.6433 3.07113 1.49649 2.58057 1.49649C2.11507 1.49649 1.74268 1.6433 1.46338 1.93692C1.18408 2.23054 1.03906 2.63337 1.02832 3.14542V5.05753H4.09521Z" fill="white"/>
</svg>
